<?xml version="1.0" encoding="utf-8"?>
<!-- Generator: Adobe Illustrator 24.0.2, SVG Export Plug-In . SVG Version: 6.00 Build 0)  -->
<svg version="1.1" id="Layer_1" xmlns="http://www.w3.org/2000/svg" xmlns:xlink="http://www.w3.org/1999/xlink" x="0px" y="0px"
	 viewBox="0 0 159.4 159.4" style="enable-background:new 0 0 159.4 159.4;" xml:space="preserve">
<style type="text/css">
	.st0{fill:#FFFFFF;}
	.st1{fill:none;}
	.st2{fill:#376AAA;}
	.st3{fill:#A6AAB4;}
	.st4{opacity:0.25;fill:#FFFFFF;stroke:#376AAA;stroke-miterlimit:10;enable-background:new    ;}
	.st5{fill:none;stroke:#376AAA;stroke-miterlimit:10;enable-background:new    ;}
	.st6{opacity:7.000000e-02;fill:#376AAA;enable-background:new    ;}
	.st7{fill:#FFFFFF;stroke:#376AAA;stroke-width:1.0461;stroke-miterlimit:10;}
	.st8{opacity:7.000000e-02;fill:#376AAA;}
</style>
<circle class="st0" cx="79.7" cy="79.7" r="79.7"/>
<g>
	<rect x="34.8" y="29.9" class="st1" width="93.4" height="106.3"/>
	<path class="st2" d="M49.8,134.1V39.7H45v94.4H49.8z"/>
	<path class="st2" d="M119.2,134.1V39.7h-4.7v94.4H119.2z"/>
	<path class="st2" d="M83.3,131.5V40.3H81v91.2H83.3z"/>
	<path class="st3" d="M49.8,77.6h64.8v-2.4H49.8V77.6z"/>
	<path class="st2" d="M117.6,131.5H46.7c-0.9,0-1.7,0.7-1.7,1.7v1.4c0,0.9,0.7,1.7,1.7,1.7h70.9c0.9,0,1.7-0.7,1.7-1.7v-1.4
		C119.2,132.2,118.5,131.5,117.6,131.5z"/>
	<path class="st2" d="M37.1,29.9h3.2v10.6h-3.2c-0.3,0-0.6-0.1-0.9-0.2c-0.3-0.1-0.5-0.3-0.7-0.5c-0.2-0.2-0.4-0.5-0.5-0.8
		c-0.1-0.3-0.2-0.6-0.2-0.9v-6c0-0.6,0.2-1.2,0.7-1.6C35.9,30.1,36.5,29.9,37.1,29.9L37.1,29.9z"/>
	<path class="st2" d="M122.7,29.9h3.2c0.6,0,1.2,0.2,1.6,0.7c0.4,0.4,0.7,1,0.7,1.6v6c0,0.6-0.2,1.2-0.7,1.6c-0.4,0.4-1,0.7-1.6,0.7
		h-3.2V29.9z"/>
	<path class="st4" d="M122.5,40.5H40.5v74.8h82.1V40.5z"/>
	<path class="st5" d="M122.5,37.8H40.5v74.8h82.1V37.8z"/>
	<path class="st6" d="M122.5,36.1H40.5v74.8h82.1V36.1z"/>
	<path class="st7" d="M122.5,29.9H40.5V91h82.1V29.9z"/>
	<path class="st8" d="M123.2,29.9H41.1V91h82.1V29.9z"/>
	<path class="st7" d="M125.2,89.9H37.7c-0.8,0-1.5,0.7-1.5,1.5v1.1c0,0.8,0.7,1.5,1.5,1.5h87.5c0.8,0,1.5-0.7,1.5-1.5v-1.1
		C126.8,90.6,126.1,89.9,125.2,89.9z"/>
	<path class="st7" d="M125.2,111.7H37.7c-0.8,0-1.5,0.7-1.5,1.5v1.1c0,0.8,0.7,1.5,1.5,1.5h87.5c0.8,0,1.5-0.7,1.5-1.5v-1.1
		C126.8,112.4,126.1,111.7,125.2,111.7z"/>
</g>
</svg>
