<svg width="229" height="79" viewBox="0 0 229 79" fill="none" xmlns="http://www.w3.org/2000/svg">
<path d="M82.3525 77.0264C82.3525 76.7973 82.4098 76.6255 82.5816 76.4537C82.7534 76.2819 82.9252 76.2246 83.2116 76.2246C83.4979 76.2246 83.6697 76.2819 83.8415 76.4537C84.0133 76.6255 84.0706 76.7973 84.0706 77.0264C84.0706 77.2554 84.0133 77.4272 83.8415 77.5991C83.6697 77.7709 83.4979 77.8281 83.2116 77.8281C82.9252 77.8281 82.7534 77.7709 82.5816 77.5991C82.4098 77.4272 82.3525 77.2554 82.3525 77.0264Z" fill="white"/>
<path d="M89.9691 76.9692C90.7708 76.9692 91.458 76.7401 92.0307 76.2819C92.6034 75.8238 92.8898 75.2511 92.947 74.5066H94.0924C94.0351 75.1366 93.8633 75.7665 93.4625 76.2819C93.0616 76.7973 92.6034 77.2555 91.9735 77.5418C91.3435 77.8282 90.7135 78 89.9691 78C88.5946 78 87.4492 77.5418 86.6475 76.5683C85.8457 75.5947 85.4448 74.2775 85.4448 72.674V72.3304C85.4448 71.2996 85.6166 70.3833 86.0175 69.5242C86.3611 68.7225 86.9338 68.0925 87.621 67.6343C88.3083 67.1762 89.11 67.0044 90.0263 67.0044C91.1717 67.0044 92.1453 67.348 92.8898 68.0352C93.6343 68.7225 94.0351 69.6388 94.0924 70.7841H92.947C92.8898 69.9251 92.6034 69.2951 92.0307 68.7797C91.458 68.2643 90.7708 68.0352 89.9691 68.0352C88.8809 68.0352 88.0792 68.4361 87.5065 69.1806C86.9338 69.9251 86.6475 71.0132 86.6475 72.3877V72.7313C86.6475 74.1057 86.9338 75.1366 87.5065 75.8811C88.0792 76.5683 88.8809 76.9692 89.9691 76.9692Z" fill="white"/>
<path d="M95.1807 72.2733C95.1807 71.2424 95.3525 70.3261 95.7534 69.5244C96.1542 68.7226 96.7269 68.0926 97.4141 67.6345C98.1586 67.1763 98.9604 66.9473 99.8767 66.9473C101.308 66.9473 102.454 67.4627 103.313 68.4363C104.172 69.4098 104.63 70.727 104.63 72.3878V72.6169C104.63 73.6477 104.458 74.564 104.057 75.3658C103.656 76.1675 103.084 76.7975 102.397 77.2556C101.652 77.7138 100.85 77.9429 99.934 77.9429C98.5023 77.9429 97.3569 77.4274 96.4978 76.4539C95.6388 75.4803 95.1807 74.1631 95.1807 72.5023V72.2733ZM96.3833 72.6169C96.3833 73.8768 96.7269 74.9076 97.3569 75.7667C97.9868 76.5684 98.9031 76.9693 99.934 76.9693C101.022 76.9693 101.881 76.5684 102.511 75.7667C103.141 74.9649 103.485 73.8768 103.485 72.5596V72.3305C103.485 71.5288 103.313 70.7843 103.026 70.097C102.74 69.4098 102.282 68.8944 101.767 68.5508C101.251 68.2072 100.621 67.9781 99.8767 67.9781C98.8459 67.9781 97.9868 68.379 97.2996 69.238C96.6124 70.0398 96.326 71.1279 96.326 72.4451V72.6169H96.3833Z" fill="white"/>
<path d="M107.436 67.1191L107.494 68.8371C107.894 68.2072 108.353 67.6918 108.983 67.4054C109.555 67.0618 110.242 66.9473 110.93 66.9473C112.59 66.9473 113.679 67.6345 114.137 69.0089C114.538 68.3217 114.996 67.8636 115.683 67.4627C116.313 67.1191 117 66.9473 117.802 66.9473C120.093 66.9473 121.238 68.2072 121.295 70.6697V77.7711H120.093V70.727C120.093 69.7534 119.864 69.0662 119.463 68.6081C119.062 68.1499 118.432 67.9208 117.516 67.9208C116.657 67.9208 115.969 68.2072 115.397 68.7226C114.824 69.238 114.48 69.9252 114.423 70.6697V77.7138H113.22V70.6125C113.22 69.6962 112.991 69.0089 112.59 68.5508C112.19 68.0926 111.502 67.8636 110.643 67.8636C109.899 67.8636 109.269 68.0926 108.753 68.4935C108.238 68.8944 107.837 69.5244 107.551 70.3834V77.6565H106.348V67.0045H107.436V67.1191Z" fill="white"/>
<path d="M123.471 77.0264C123.471 76.7973 123.528 76.6255 123.7 76.4537C123.872 76.2819 124.044 76.2246 124.33 76.2246C124.617 76.2246 124.788 76.2819 124.96 76.4537C125.132 76.6255 125.189 76.7973 125.189 77.0264C125.189 77.2554 125.132 77.4272 124.96 77.5991C124.788 77.7709 124.617 77.8281 124.33 77.8281C124.044 77.8281 123.872 77.7709 123.7 77.5991C123.528 77.4272 123.471 77.2554 123.471 77.0264Z" fill="white"/>
<path d="M134.524 77.7138C134.41 77.3702 134.352 76.912 134.295 76.2248C133.894 76.7402 133.379 77.1984 132.692 77.4847C132.062 77.7711 131.374 77.9429 130.687 77.9429C129.656 77.9429 128.854 77.6565 128.225 77.0838C127.595 76.5112 127.251 75.7667 127.251 74.9076C127.251 73.8768 127.709 73.075 128.568 72.4451C129.427 71.8151 130.63 71.5288 132.176 71.5288H134.295V70.3261C134.295 69.5816 134.066 68.9517 133.608 68.5508C133.15 68.0926 132.462 67.9208 131.546 67.9208C130.744 67.9208 130.057 68.1499 129.542 68.5508C129.026 68.9517 128.74 69.4671 128.74 70.0398H127.537C127.537 69.1807 127.938 68.4363 128.74 67.8636C129.542 67.2336 130.515 66.9473 131.661 66.9473C132.863 66.9473 133.78 67.2336 134.467 67.8636C135.154 68.4363 135.498 69.2953 135.498 70.3261V75.3658C135.498 76.3966 135.612 77.1411 135.841 77.6565V77.7711H134.524V77.7138ZM130.802 76.912C131.603 76.912 132.291 76.7402 132.921 76.3393C133.551 75.9385 134.009 75.4803 134.295 74.7931V72.4451H132.176C131.031 72.4451 130.114 72.6741 129.427 73.075C128.74 73.4759 128.454 74.0486 128.454 74.7931C128.454 75.3658 128.683 75.8812 129.141 76.2821C129.542 76.683 130.114 76.912 130.802 76.912Z" fill="white"/>
<path d="M144.375 76.3967C143.687 77.4275 142.542 77.9429 140.996 77.9429C139.85 77.9429 138.991 77.5993 138.419 76.9694C137.846 76.3394 137.502 75.3658 137.502 74.0487V67.1191H138.648V73.8769C138.648 75.8813 139.45 76.9121 141.11 76.9121C142.828 76.9121 143.917 76.2249 144.317 74.7932V67.1191H145.52V77.7711H144.375V76.3967Z" fill="white"/>
<path d="M82.3525 77.0264C82.3525 76.7973 82.4098 76.6255 82.5816 76.4537C82.7534 76.2819 82.9252 76.2246 83.2116 76.2246C83.4979 76.2246 83.6697 76.2819 83.8415 76.4537C84.0133 76.6255 84.0706 76.7973 84.0706 77.0264C84.0706 77.2554 84.0133 77.4272 83.8415 77.5991C83.6697 77.7709 83.4979 77.8281 83.2116 77.8281C82.9252 77.8281 82.7534 77.7709 82.5816 77.5991C82.4098 77.4272 82.3525 77.2554 82.3525 77.0264Z" fill="#F7941D"/>
<path d="M89.9691 76.9692C90.7708 76.9692 91.458 76.7401 92.0307 76.2819C92.6034 75.8238 92.8898 75.2511 92.947 74.5066H94.0924C94.0351 75.1366 93.8633 75.7665 93.4625 76.2819C93.0616 76.7973 92.6034 77.2555 91.9735 77.5418C91.3435 77.8282 90.7135 78 89.9691 78C88.5946 78 87.4492 77.5418 86.6475 76.5683C85.8457 75.5947 85.4448 74.2775 85.4448 72.674V72.3304C85.4448 71.2996 85.6166 70.3833 86.0175 69.5242C86.3611 68.7225 86.9338 68.0925 87.621 67.6343C88.3083 67.1762 89.11 67.0044 90.0263 67.0044C91.1717 67.0044 92.1453 67.348 92.8898 68.0352C93.6343 68.7225 94.0351 69.6388 94.0924 70.7841H92.947C92.8898 69.9251 92.6034 69.2951 92.0307 68.7797C91.458 68.2643 90.7708 68.0352 89.9691 68.0352C88.8809 68.0352 88.0792 68.4361 87.5065 69.1806C86.9338 69.9251 86.6475 71.0132 86.6475 72.3877V72.7313C86.6475 74.1057 86.9338 75.1366 87.5065 75.8811C88.0792 76.5683 88.8809 76.9692 89.9691 76.9692Z" fill="#F7941D"/>
<path d="M95.1807 72.2733C95.1807 71.2424 95.3525 70.3261 95.7534 69.5244C96.1542 68.7226 96.7269 68.0926 97.4141 67.6345C98.1586 67.1763 98.9604 66.9473 99.8767 66.9473C101.308 66.9473 102.454 67.4627 103.313 68.4363C104.172 69.4098 104.63 70.727 104.63 72.3878V72.6169C104.63 73.6477 104.458 74.564 104.057 75.3658C103.656 76.1675 103.084 76.7975 102.397 77.2556C101.652 77.7138 100.85 77.9429 99.934 77.9429C98.5023 77.9429 97.3569 77.4274 96.4978 76.4539C95.6388 75.4803 95.1807 74.1631 95.1807 72.5023V72.2733ZM96.3833 72.6169C96.3833 73.8768 96.7269 74.9076 97.3569 75.7667C97.9868 76.5684 98.9031 76.9693 99.934 76.9693C101.022 76.9693 101.881 76.5684 102.511 75.7667C103.141 74.9649 103.485 73.8768 103.485 72.5596V72.3305C103.485 71.5288 103.313 70.7843 103.026 70.097C102.74 69.4098 102.282 68.8944 101.767 68.5508C101.251 68.2072 100.621 67.9781 99.8767 67.9781C98.8459 67.9781 97.9868 68.379 97.2996 69.238C96.6124 70.0398 96.326 71.1279 96.326 72.4451V72.6169H96.3833Z" fill="#F7941D"/>
<path d="M107.436 67.1191L107.494 68.8371C107.894 68.2072 108.353 67.6918 108.983 67.4054C109.555 67.0618 110.242 66.9473 110.93 66.9473C112.59 66.9473 113.679 67.6345 114.137 69.0089C114.538 68.3217 114.996 67.8636 115.683 67.4627C116.313 67.1191 117 66.9473 117.802 66.9473C120.093 66.9473 121.238 68.2072 121.295 70.6697V77.7711H120.093V70.727C120.093 69.7534 119.864 69.0662 119.463 68.6081C119.062 68.1499 118.432 67.9208 117.516 67.9208C116.657 67.9208 115.969 68.2072 115.397 68.7226C114.824 69.238 114.48 69.9252 114.423 70.6697V77.7138H113.22V70.6125C113.22 69.6962 112.991 69.0089 112.59 68.5508C112.19 68.0926 111.502 67.8636 110.643 67.8636C109.899 67.8636 109.269 68.0926 108.753 68.4935C108.238 68.8944 107.837 69.5244 107.551 70.3834V77.6565H106.348V67.0045H107.436V67.1191Z" fill="#F7941D"/>
<path d="M123.471 77.0264C123.471 76.7973 123.528 76.6255 123.7 76.4537C123.872 76.2819 124.044 76.2246 124.33 76.2246C124.617 76.2246 124.788 76.2819 124.96 76.4537C125.132 76.6255 125.189 76.7973 125.189 77.0264C125.189 77.2554 125.132 77.4272 124.96 77.5991C124.788 77.7709 124.617 77.8281 124.33 77.8281C124.044 77.8281 123.872 77.7709 123.7 77.5991C123.528 77.4272 123.471 77.2554 123.471 77.0264Z" fill="#F7941D"/>
<path d="M134.524 77.7138C134.41 77.3702 134.352 76.912 134.295 76.2248C133.894 76.7402 133.379 77.1984 132.692 77.4847C132.062 77.7711 131.374 77.9429 130.687 77.9429C129.656 77.9429 128.854 77.6565 128.225 77.0838C127.595 76.5112 127.251 75.7667 127.251 74.9076C127.251 73.8768 127.709 73.075 128.568 72.4451C129.427 71.8151 130.63 71.5288 132.176 71.5288H134.295V70.3261C134.295 69.5816 134.066 68.9517 133.608 68.5508C133.15 68.0926 132.462 67.9208 131.546 67.9208C130.744 67.9208 130.057 68.1499 129.542 68.5508C129.026 68.9517 128.74 69.4671 128.74 70.0398H127.537C127.537 69.1807 127.938 68.4363 128.74 67.8636C129.542 67.2336 130.515 66.9473 131.661 66.9473C132.863 66.9473 133.78 67.2336 134.467 67.8636C135.154 68.4363 135.498 69.2953 135.498 70.3261V75.3658C135.498 76.3966 135.612 77.1411 135.841 77.6565V77.7711H134.524V77.7138ZM130.802 76.912C131.603 76.912 132.291 76.7402 132.921 76.3393C133.551 75.9385 134.009 75.4803 134.295 74.7931V72.4451H132.176C131.031 72.4451 130.114 72.6741 129.427 73.075C128.74 73.4759 128.454 74.0486 128.454 74.7931C128.454 75.3658 128.683 75.8812 129.141 76.2821C129.542 76.683 130.114 76.912 130.802 76.912Z" fill="#F7941D"/>
<path d="M144.375 76.3967C143.687 77.4275 142.542 77.9429 140.996 77.9429C139.85 77.9429 138.991 77.5993 138.419 76.9694C137.846 76.3394 137.502 75.3658 137.502 74.0487V67.1191H138.648V73.8769C138.648 75.8813 139.45 76.9121 141.11 76.9121C142.828 76.9121 143.917 76.2249 144.317 74.7932V67.1191H145.52V77.7711H144.375V76.3967Z" fill="#F7941D"/>
<path d="M82.3525 77.0264C82.3525 76.7973 82.4098 76.6255 82.5816 76.4537C82.7534 76.2819 82.9252 76.2246 83.2116 76.2246C83.4979 76.2246 83.6697 76.2819 83.8415 76.4537C84.0133 76.6255 84.0706 76.7973 84.0706 77.0264C84.0706 77.2554 84.0133 77.4272 83.8415 77.5991C83.6697 77.7709 83.4979 77.8281 83.2116 77.8281C82.9252 77.8281 82.7534 77.7709 82.5816 77.5991C82.4098 77.4272 82.3525 77.2554 82.3525 77.0264Z" stroke="#F7941D" stroke-width="0.6706" stroke-miterlimit="10"/>
<path d="M89.9691 76.9692C90.7708 76.9692 91.458 76.7401 92.0307 76.2819C92.6034 75.8238 92.8898 75.2511 92.947 74.5066H94.0924C94.0351 75.1366 93.8633 75.7665 93.4625 76.2819C93.0616 76.7973 92.6034 77.2555 91.9735 77.5418C91.3435 77.8282 90.7135 78 89.9691 78C88.5946 78 87.4492 77.5418 86.6475 76.5683C85.8457 75.5947 85.4448 74.2775 85.4448 72.674V72.3304C85.4448 71.2996 85.6166 70.3833 86.0175 69.5242C86.3611 68.7225 86.9338 68.0925 87.621 67.6343C88.3083 67.1762 89.11 67.0044 90.0263 67.0044C91.1717 67.0044 92.1453 67.348 92.8898 68.0352C93.6343 68.7225 94.0351 69.6388 94.0924 70.7841H92.947C92.8898 69.9251 92.6034 69.2951 92.0307 68.7797C91.458 68.2643 90.7708 68.0352 89.9691 68.0352C88.8809 68.0352 88.0792 68.4361 87.5065 69.1806C86.9338 69.9251 86.6475 71.0132 86.6475 72.3877V72.7313C86.6475 74.1057 86.9338 75.1366 87.5065 75.8811C88.0792 76.5683 88.8809 76.9692 89.9691 76.9692Z" stroke="#F7941D" stroke-width="0.6706" stroke-miterlimit="10"/>
<path d="M95.1807 72.2733C95.1807 71.2424 95.3525 70.3261 95.7534 69.5244C96.1542 68.7226 96.7269 68.0926 97.4141 67.6345C98.1586 67.1763 98.9604 66.9473 99.8767 66.9473C101.308 66.9473 102.454 67.4627 103.313 68.4363C104.172 69.4098 104.63 70.727 104.63 72.3878V72.6169C104.63 73.6477 104.458 74.564 104.057 75.3658C103.656 76.1675 103.084 76.7975 102.397 77.2556C101.652 77.7138 100.85 77.9429 99.934 77.9429C98.5023 77.9429 97.3569 77.4274 96.4978 76.4539C95.6388 75.4803 95.1807 74.1631 95.1807 72.5023V72.2733ZM96.3833 72.6169C96.3833 73.8768 96.7269 74.9076 97.3569 75.7667C97.9868 76.5684 98.9031 76.9693 99.934 76.9693C101.022 76.9693 101.881 76.5684 102.511 75.7667C103.141 74.9649 103.485 73.8768 103.485 72.5596V72.3305C103.485 71.5288 103.313 70.7843 103.026 70.097C102.74 69.4098 102.282 68.8944 101.767 68.5508C101.251 68.2072 100.621 67.9781 99.8767 67.9781C98.8459 67.9781 97.9868 68.379 97.2996 69.238C96.6124 70.0398 96.326 71.1279 96.326 72.4451V72.6169H96.3833Z" stroke="#F7941D" stroke-width="0.6706" stroke-miterlimit="10"/>
<path d="M107.436 67.1191L107.494 68.8371C107.894 68.2072 108.353 67.6918 108.983 67.4054C109.555 67.0618 110.242 66.9473 110.93 66.9473C112.59 66.9473 113.679 67.6345 114.137 69.0089C114.538 68.3217 114.996 67.8636 115.683 67.4627C116.313 67.1191 117 66.9473 117.802 66.9473C120.093 66.9473 121.238 68.2072 121.295 70.6697V77.7711H120.093V70.727C120.093 69.7534 119.864 69.0662 119.463 68.6081C119.062 68.1499 118.432 67.9208 117.516 67.9208C116.657 67.9208 115.969 68.2072 115.397 68.7226C114.824 69.238 114.48 69.9252 114.423 70.6697V77.7138H113.22V70.6125C113.22 69.6962 112.991 69.0089 112.59 68.5508C112.19 68.0926 111.502 67.8636 110.643 67.8636C109.899 67.8636 109.269 68.0926 108.753 68.4935C108.238 68.8944 107.837 69.5244 107.551 70.3834V77.6565H106.348V67.0045H107.436V67.1191Z" stroke="#F7941D" stroke-width="0.6706" stroke-miterlimit="10"/>
<path d="M123.471 77.0264C123.471 76.7973 123.528 76.6255 123.7 76.4537C123.872 76.2819 124.044 76.2246 124.33 76.2246C124.617 76.2246 124.788 76.2819 124.96 76.4537C125.132 76.6255 125.189 76.7973 125.189 77.0264C125.189 77.2554 125.132 77.4272 124.96 77.5991C124.788 77.7709 124.617 77.8281 124.33 77.8281C124.044 77.8281 123.872 77.7709 123.7 77.5991C123.528 77.4272 123.471 77.2554 123.471 77.0264Z" stroke="#F7941D" stroke-width="0.6706" stroke-miterlimit="10"/>
<path d="M134.524 77.7138C134.41 77.3702 134.352 76.912 134.295 76.2248C133.894 76.7402 133.379 77.1984 132.692 77.4847C132.062 77.7711 131.374 77.9429 130.687 77.9429C129.656 77.9429 128.854 77.6565 128.225 77.0838C127.595 76.5112 127.251 75.7667 127.251 74.9076C127.251 73.8768 127.709 73.075 128.568 72.4451C129.427 71.8151 130.63 71.5288 132.176 71.5288H134.295V70.3261C134.295 69.5816 134.066 68.9517 133.608 68.5508C133.15 68.0926 132.462 67.9208 131.546 67.9208C130.744 67.9208 130.057 68.1499 129.542 68.5508C129.026 68.9517 128.74 69.4671 128.74 70.0398H127.537C127.537 69.1807 127.938 68.4363 128.74 67.8636C129.542 67.2336 130.515 66.9473 131.661 66.9473C132.863 66.9473 133.78 67.2336 134.467 67.8636C135.154 68.4363 135.498 69.2953 135.498 70.3261V75.3658C135.498 76.3966 135.612 77.1411 135.841 77.6565V77.7711H134.524V77.7138ZM130.802 76.912C131.603 76.912 132.291 76.7402 132.921 76.3393C133.551 75.9385 134.009 75.4803 134.295 74.7931V72.4451H132.176C131.031 72.4451 130.114 72.6741 129.427 73.075C128.74 73.4759 128.454 74.0486 128.454 74.7931C128.454 75.3658 128.683 75.8812 129.141 76.2821C129.542 76.683 130.114 76.912 130.802 76.912Z" stroke="#F7941D" stroke-width="0.6706" stroke-miterlimit="10"/>
<path d="M144.375 76.3967C143.687 77.4275 142.542 77.9429 140.996 77.9429C139.85 77.9429 138.991 77.5993 138.419 76.9694C137.846 76.3394 137.502 75.3658 137.502 74.0487V67.1191H138.648V73.8769C138.648 75.8813 139.45 76.9121 141.11 76.9121C142.828 76.9121 143.917 76.2249 144.317 74.7932V67.1191H145.52V77.7711H144.375V76.3967Z" stroke="#F7941D" stroke-width="0.6706" stroke-miterlimit="10"/>
<path d="M7.78834 56.6388H1.08789V30.1807H7.78834V56.6388Z" fill="#F7941D"/>
<path d="M4.46696 17.6387C2.00441 17.6387 0 19.6431 0 22.1056C0 24.5682 2.00441 26.5726 4.46696 26.5726C6.92952 26.5726 8.93393 24.5682 8.93393 22.1056C8.93393 19.6431 6.92952 17.6387 4.46696 17.6387Z" fill="#F7941D"/>
<path d="M146.722 56.6387H140.022V20.6167C140.022 20.6167 146.722 21.8193 146.722 25.6563C146.722 29.4934 146.722 56.6387 146.722 56.6387Z" fill="#F7941D"/>
<path d="M156.859 56.6388H150.159V30.1807H156.859V56.6388Z" fill="#F7941D"/>
<path d="M183.546 56.639H176.846V42.7799C176.846 41.3482 176.388 40.1456 175.471 39.172C174.555 38.1984 173.352 37.7403 171.863 37.7403C170.374 37.7403 169.172 38.1984 168.198 39.1147C167.225 40.031 166.766 41.2337 166.766 42.7799V56.639H160.066V42.5508C160.066 39.3438 161.211 36.6522 163.559 34.5332C165.907 32.357 168.656 31.3262 171.863 31.3262C175.185 31.3262 177.991 32.4143 180.225 34.5332C182.458 36.7094 183.546 39.3438 183.546 42.5508V56.639Z" fill="#F7941D"/>
<path d="M211.951 44.0969C211.951 47.9339 210.749 51.0837 208.343 53.489C205.938 55.9515 202.846 57.1542 199.066 57.1542C195.343 57.1542 192.251 55.9515 189.788 53.489C187.326 51.0837 186.066 48.0484 186.066 44.4978C186.066 41.0616 187.211 38.0837 189.445 35.5638C191.907 32.7577 195.057 31.3832 198.951 31.3832C199.639 31.3832 203.132 31.4978 205.194 33.3304V42.7224C204.564 39.0572 201.758 37.9119 199.581 37.9119C197.691 37.9119 196.088 38.5418 194.828 39.7445C193.568 41.0044 192.938 42.4934 192.938 44.326C192.938 46.044 193.511 47.4757 194.713 48.6784C195.916 49.8238 197.348 50.4537 199.066 50.4537C200.784 50.4537 202.273 49.8238 203.418 48.6211C204.621 47.3612 205.194 45.815 205.194 43.9251V20.6167C205.194 20.6167 211.894 21.1894 211.894 24.5682C211.894 27.9471 211.951 44.0969 211.951 44.0969Z" fill="#F7941D"/>
<path d="M111.617 20.6167C111.617 20.6167 118.317 21.0176 118.317 24.511C118.317 28.0044 118.317 43.9251 118.317 43.9251C118.317 45.8149 118.89 47.4185 120.093 48.6211C121.295 49.881 122.727 50.4537 124.445 50.4537C126.163 50.4537 127.595 49.881 128.797 48.6784C130 47.533 130.573 46.044 130.573 44.326C130.573 42.5506 129.943 41.0044 128.683 39.7445C127.423 38.4846 125.819 37.9119 123.93 37.9119C121.753 37.9119 118.89 39 118.317 42.7224V33.3876C120.322 31.555 123.815 31.4405 124.56 31.4405C128.454 31.4405 131.604 32.8149 134.066 35.6211C136.3 38.1409 137.445 41.1189 137.445 44.555C137.445 48.1057 136.185 51.0837 133.723 53.5462C131.26 55.9515 128.168 57.2114 124.445 57.2114C120.665 57.2114 117.573 56.0088 115.167 53.5462C112.762 51.1409 111.56 47.9912 111.56 44.1542V20.6167H111.617Z" fill="#F7941D"/>
<path d="M154.282 17.7533V0H152.793V17.7533C150.674 18.0969 149.07 19.9295 149.07 22.163C149.07 24.6256 151.075 26.63 153.537 26.63C156 26.63 158.004 24.6256 158.004 22.163C158.004 19.9295 156.401 18.0969 154.282 17.7533ZM153.537 25.0837C151.934 25.0837 150.559 23.7665 150.559 22.1057C150.559 20.5022 151.876 19.1278 153.537 19.1278C155.141 19.1278 156.515 20.4449 156.515 22.1057C156.458 23.7665 155.141 25.0837 153.537 25.0837Z" fill="#F7941D"/>
<path d="M226.555 38.1408L228.159 32.7575C226.899 31.6694 224.78 30.8677 222.088 30.8677C219.74 30.8677 217.85 31.5549 216.476 32.8721C215.044 34.2465 214.357 35.8501 214.357 37.6827C214.357 39.0571 214.758 40.317 215.617 41.4624C215.617 41.4624 218.022 45.0131 218.881 46.3302C219.74 47.5902 220.37 49.0219 219.511 49.8809C218.652 50.7399 216.476 50.7972 214.93 49.1937L213.097 54.8633C214.243 56.3523 216.247 57.0968 218.939 57.0968C221.63 57.0968 223.52 56.4095 225.066 55.0351C226.613 53.6606 227.357 51.9998 227.357 49.9954C227.357 48.5637 226.956 47.2465 226.154 46.0439L223.062 41.2333C222.489 40.3743 221.745 38.7708 222.604 37.9117C223.291 37.11 225.41 37.2818 226.555 38.1408Z" fill="#F7941D"/>
<path d="M105.947 39.1147C106.978 37.6829 107.493 36.1367 107.493 34.5332C107.493 34.5332 107.665 31.9561 107.665 30.1807C106.577 30.1807 105.718 30.238 105.031 30.4098C101.079 31.2116 102.912 34.1895 97.9867 37.6829C96.3832 38.8283 94.6078 39.5155 92.5462 39.5155H91.4008C91.4008 39.5155 91.3435 25.1411 91.3435 22.1631C91.3435 18.1543 84.2422 18.1543 84.2422 18.1543V56.6389H91.4008V45.7578C94.207 45.7578 96.3832 46.3305 97.9867 47.4186C99.5329 48.564 100.335 50.912 100.335 52.1147C100.335 56.5816 107.493 56.5816 107.493 56.5816V51.5992C107.493 49.6521 106.978 47.8195 105.89 46.1014C104.802 44.3834 103.427 43.1807 101.824 42.4935C103.542 41.6345 104.916 40.5464 105.947 39.1147Z" fill="#004A98"/>
<path d="M25.8855 37.2823L27.6035 31.6699C26.2864 30.5246 24.1101 29.6655 21.2467 29.6655C18.7842 29.6655 16.837 30.3528 15.348 31.7845C13.859 33.2162 13.1718 34.877 13.1718 36.8241C13.1718 38.2558 13.63 39.573 14.489 40.7757C14.489 40.7757 16.9516 44.4981 17.8679 45.8726C18.7842 47.1898 19.4141 48.6788 18.4978 49.5951C17.5815 50.4541 15.348 50.5686 13.6872 48.9078L11.7974 54.8065C13 56.3528 15.1189 57.1545 17.9251 57.1545C20.7313 57.1545 22.7357 56.41 24.282 54.9783C25.8855 53.5466 26.6872 51.7713 26.6872 49.7096C26.6872 48.2206 26.2864 46.8462 25.4273 45.5862L22.163 40.6039C21.5331 39.6876 20.7886 38.0268 21.6476 37.1105C22.5066 36.2514 24.7401 36.366 25.8855 37.2823Z" fill="#004A98"/>
<path d="M42.0929 30.0088C35.5069 30.0088 30.0091 34.6476 28.7492 40.8326C28.5774 41.7489 28.4629 42.7225 28.4629 43.6388C28.4629 44.4405 28.5202 45.185 28.692 45.9295H48.4497C47.5334 48.5066 45.0708 50.3392 42.1501 50.3392C39.9739 50.3392 38.084 49.3084 36.8241 47.7048L31.2691 51.8855C33.7889 55.1498 37.6832 57.326 42.1501 57.326C49.7096 57.326 55.8374 51.1982 55.8374 43.6388C55.7801 36.1365 49.6523 30.0088 42.0929 30.0088ZM36.0796 40.8326C37.1677 38.5418 39.4585 36.9383 42.1501 36.9383C44.8418 36.9383 47.1325 38.5418 48.2206 40.8326H36.0796Z" fill="#004A98"/>
<path d="M55.0928 43.6958C55.0928 51.2553 61.2205 57.383 68.78 57.383C73.247 57.383 77.1412 55.2641 79.6611 51.9425L74.106 47.7619C72.9034 49.3654 70.9562 50.3962 68.78 50.3962C65.8593 50.3962 63.454 48.5636 62.4804 45.9865H82.2382C82.3527 45.2421 82.4672 44.4976 82.4672 43.6958C82.4672 42.7222 82.3527 41.7487 82.1809 40.8896C80.8637 34.7046 75.3659 30.0658 68.78 30.0658C61.2205 30.0086 55.0928 36.1363 55.0928 43.6958ZM62.7095 40.8324C63.7976 38.5416 66.0884 36.9381 68.78 36.9381C71.4716 36.9381 73.7624 38.5416 74.8505 40.8324H62.7095Z" fill="#004A98"/>
</svg>
