<svg version="1.1" id="Layer_1" xmlns="http://www.w3.org/2000/svg" xmlns:xlink="http://www.w3.org/1999/xlink" x="0px" y="0px"
	 width="100%" viewBox="0 0 1024 656" enable-background="new 0 0 1024 656" xml:space="preserve">
<path fill="#16366F" opacity="1.000000" stroke="none" 
	d="
M0.999997,620.000000 
	C1.000000,425.971985 1.000000,231.943939 1.362657,37.494331 
	C3.325799,33.749058 4.519423,30.141560 6.602878,27.154766 
	C12.910948,18.111660 19.728781,9.564901 30.659658,5.501124 
	C33.006531,4.628627 34.898483,2.532470 37.000000,1.000000 
	C354.028046,1.000000 671.056091,1.000000 988.509399,1.367146 
	C989.976624,2.463101 990.925903,3.421144 992.074768,3.885745 
	C1005.541260,9.331814 1015.582092,18.223475 1021.074341,31.952671 
	C1021.835083,33.854256 1023.665039,35.328117 1025.000000,36.999996 
	C1025.000000,231.028030 1025.000000,425.056061 1024.631592,619.512939 
	C1022.265991,624.015442 1020.580200,628.280884 1018.211182,632.125305 
	C1012.093872,642.052307 1003.713989,649.430481 992.731567,653.751099 
	C991.285522,654.320007 990.234131,655.892334 989.000000,657.000000 
	C671.971985,657.000000 354.943939,657.000000 37.494816,656.638550 
	C33.229496,654.187744 29.303448,652.234619 25.556488,649.983459 
	C14.518407,643.351868 7.495490,633.481445 2.955372,621.627075 
	C2.690851,620.936401 1.669256,620.535645 0.999997,620.000000 
M511.947723,153.592758 
	C510.320923,152.167252 508.734253,150.692795 507.061584,149.323349 
	C447.832825,100.831833 380.490143,83.495171 305.576385,98.867943 
	C247.779556,110.728210 200.968903,141.196472 165.901733,188.654526 
	C123.750587,245.699631 110.298325,309.576660 124.696472,378.825562 
	C134.932510,428.056519 159.245041,469.854218 196.828766,503.380402 
	C248.546112,549.514343 309.274017,569.265991 378.271210,563.071594 
	C418.777954,559.434937 455.669617,545.495239 489.018585,522.303284 
	C497.469452,516.426270 505.445404,509.866364 514.028870,504.241425 
	C573.442078,555.713440 642.074646,574.744019 718.948914,559.243652 
	C817.074524,539.458252 889.451660,461.540253 904.206299,362.376282 
	C910.927612,317.202576 904.835022,273.624725 885.908203,232.157715 
	C845.032104,142.601990 756.812317,89.158035 658.160767,93.953766 
	C614.011169,96.099991 573.692322,110.065178 537.362549,135.244659 
	C528.770325,141.199722 520.676270,147.873413 511.947723,153.592758 
M877.778503,454.295929 
	C876.996948,457.032684 875.270508,459.906525 875.643188,462.475830 
	C876.290649,466.938171 881.609436,469.104584 885.876282,467.416931 
	C889.862976,465.840057 891.852844,461.418793 890.272583,457.648682 
	C888.226624,452.767456 883.750366,451.346619 877.778503,454.295929 
z"/>
<path fill="#000000" opacity="1.000000" stroke="none" 
	d="
M0.999997,620.468628 
	C1.669256,620.535645 2.690851,620.936401 2.955372,621.627075 
	C7.495490,633.481445 14.518407,643.351868 25.556488,649.983459 
	C29.303448,652.234619 33.229496,654.187744 37.036861,656.638550 
	C25.072384,657.000000 13.144766,657.000000 1.000000,657.000000 
	C1.000000,644.979980 1.000000,632.958618 0.999997,620.468628 
z"/>
<path fill="#000000" opacity="1.000000" stroke="none" 
	d="
M989.468628,657.000000 
	C990.234131,655.892334 991.285522,654.320007 992.731567,653.751099 
	C1003.713989,649.430481 1012.093872,642.052307 1018.211182,632.125305 
	C1020.580200,628.280884 1022.265991,624.015442 1024.631592,619.970886 
	C1025.000000,632.258911 1025.000000,644.517883 1025.000000,657.000000 
	C1013.313416,657.000000 1001.625366,657.000000 989.468628,657.000000 
z"/>
<path fill="#000000" opacity="1.000000" stroke="none" 
	d="
M36.531342,1.000000 
	C34.898483,2.532470 33.006531,4.628627 30.659658,5.501124 
	C19.728781,9.564901 12.910948,18.111660 6.602878,27.154766 
	C4.519423,30.141560 3.325799,33.749058 1.362657,37.036377 
	C1.000000,25.073397 1.000000,13.146794 1.000000,1.000000 
	C12.686640,1.000000 24.374662,1.000000 36.531342,1.000000 
z"/>
<path fill="#000000" opacity="1.000000" stroke="none" 
	d="
M1025.000000,36.531338 
	C1023.665039,35.328117 1021.835083,33.854256 1021.074341,31.952671 
	C1015.582092,18.223475 1005.541260,9.331814 992.074768,3.885745 
	C990.925903,3.421144 989.976624,2.463101 988.967285,1.367146 
	C1000.926575,1.000000 1012.853210,1.000000 1025.000000,1.000000 
	C1025.000000,12.686640 1025.000000,24.374662 1025.000000,36.531338 
z"/>
<path fill="#ED9F2D" opacity="1.000000" stroke="none" 
	d="
M512.353027,154.216553 
	C520.676270,147.873413 528.770325,141.199722 537.362549,135.244659 
	C573.692322,110.065178 614.011169,96.099991 658.160767,93.953766 
	C756.812317,89.158035 845.032104,142.601990 885.908203,232.157715 
	C904.835022,273.624725 910.927612,317.202576 904.206299,362.376282 
	C889.451660,461.540253 817.074524,539.458252 718.948914,559.243652 
	C642.074646,574.744019 573.442078,555.713440 513.989380,503.646667 
	C521.377197,495.201416 528.804565,487.350952 536.231934,479.500519 
	C535.928467,479.052277 535.625000,478.604065 535.321533,478.155853 
	C533.703613,478.155853 532.085632,478.155853 530.467651,478.155853 
	C517.970581,478.155670 505.473236,478.189575 492.976624,478.112427 
	C491.402130,478.102722 489.133514,478.061646 488.369904,477.097687 
	C482.655640,469.883698 477.239044,462.433899 470.841064,453.869049 
	C474.396942,453.869049 476.181671,453.869049 477.966370,453.869049 
	C501.794159,453.869019 525.622253,453.920898 549.449219,453.778900 
	C551.549377,453.766418 554.654785,453.127716 555.566711,451.686951 
	C560.058289,444.591003 563.967163,437.126282 568.601013,428.866058 
	C565.395081,428.866058 563.600647,428.866058 561.806213,428.866058 
	C528.813904,428.866058 495.821472,428.895996 462.829468,428.789886 
	C460.894409,428.783691 457.811096,428.230194 457.219299,426.994232 
	C453.741516,419.731384 450.845215,412.190125 447.418243,403.936584 
	C450.482513,403.936584 452.288940,403.936615 454.095367,403.936584 
	C478.256439,403.936554 502.417480,403.936584 526.578552,403.936554 
	C542.241577,403.936523 557.905579,403.843628 573.566833,404.010193 
	C576.929810,404.045959 578.845032,403.187775 579.638123,399.754547 
	C581.020569,393.769226 582.669800,387.845520 584.480774,382.068481 
	C591.597473,391.173035 600.302307,397.770325 611.591431,398.696503 
	C620.386108,399.418030 629.360352,397.973511 638.253296,397.464905 
	C642.299927,397.233490 644.169922,395.033722 644.248779,390.805237 
	C649.122620,390.361420 651.436646,387.892456 651.943115,383.709229 
	C660.009644,401.453156 683.645264,405.710388 696.244812,391.619415 
	C697.651672,390.855255 698.779358,390.362274 700.356445,389.672852 
	C700.356445,392.622711 700.356445,395.030426 700.356445,397.721130 
	C707.473694,397.721130 714.286560,397.721130 721.402954,397.721130 
	C721.664001,395.335846 721.894470,393.230194 722.547668,391.040649 
	C724.881714,390.956726 726.793030,390.956726 728.596619,390.956726 
	C730.010925,381.367065 731.401184,372.651581 732.562866,363.905731 
	C734.533691,349.067535 737.131470,334.256531 738.027893,319.347656 
	C738.901855,304.811035 730.994568,295.743652 716.787598,292.881317 
	C704.808228,290.467804 692.944824,291.857239 681.163757,294.767029 
	C676.927979,295.813232 673.141968,296.845367 672.644653,302.221313 
	C670.327271,303.494202 667.073792,304.397247 666.671021,306.011627 
	C665.122620,312.216522 664.487610,318.649292 663.439697,325.467010 
	C665.685425,324.920471 667.258484,324.315887 668.870667,324.181702 
	C678.595154,323.372253 688.319397,322.394470 698.063660,322.069122 
	C701.945801,321.939453 705.658569,323.616638 705.953857,328.456970 
	C701.193481,328.741821 696.844360,328.647522 692.595398,329.254639 
	C682.726257,330.664825 673.569885,333.839508 666.551025,341.434723 
	C664.661621,343.479309 662.854309,345.599854 660.670166,347.789886 
	C655.466492,351.755646 653.028809,356.974854 651.658020,363.191956 
	C647.285706,364.743774 643.246277,366.406494 639.042664,367.267151 
	C624.479431,370.248840 613.378906,363.304565 610.689270,348.646393 
	C609.426086,341.762115 609.639526,334.383484 610.495117,327.389282 
	C611.612244,318.257629 614.603455,309.564056 622.463501,303.176483 
	C630.017212,301.578888 637.159668,300.201843 644.372009,302.693176 
	C648.539429,304.132751 652.697021,305.601135 657.231018,307.186646 
	C657.886597,304.089417 658.491760,301.230377 659.485229,298.453674 
	C661.352417,299.081665 662.831299,299.627258 664.750000,300.335114 
	C666.175354,291.409363 667.496582,283.135284 668.835144,274.752899 
	C652.865601,268.457886 636.986938,265.349976 621.113220,272.410919 
	C613.587280,275.758606 607.012085,281.243774 599.665161,285.851746 
	C597.687195,287.483795 595.708130,288.796204 594.491394,290.617767 
	C592.546509,293.529510 590.313354,294.489136 587.118286,292.655823 
	C586.765381,289.416077 586.210510,286.630951 586.071411,283.825256 
	C585.879883,279.962402 584.029480,278.911102 580.283142,278.921387 
	C533.812561,279.049133 487.341522,279.026337 440.914795,279.027100 
	C440.958984,279.011871 440.929047,279.098633 440.962646,278.695007 
	C442.702454,271.866394 444.567719,265.477966 446.056366,259.002960 
	C446.977570,254.996109 449.086578,253.952972 453.098999,253.968857 
	C492.585144,254.125290 532.072144,254.063324 571.558899,254.063309 
	C573.512390,254.063309 575.465881,254.063309 578.449036,254.063309 
	C575.641174,246.947327 573.014343,240.707657 570.728455,234.345444 
	C569.285522,230.329300 566.970337,228.925629 562.575134,228.952271 
	C529.754028,229.151413 496.931183,229.060501 464.108856,229.060501 
	C462.229858,229.060501 460.350861,229.060501 457.414734,229.060501 
	C461.645935,221.360229 465.338379,214.886871 468.774841,208.280380 
	C470.437500,205.083893 472.632751,203.950684 476.290131,203.975769 
	C500.280975,204.140381 524.273499,204.060516 548.265442,204.060455 
	C550.001343,204.060455 551.737183,204.060440 555.059387,204.060440 
	C549.188538,196.023911 544.409363,189.089401 539.148499,182.542007 
	C537.745056,180.795441 534.889038,179.331528 532.662415,179.277298 
	C520.007507,178.969162 507.341187,179.138077 494.678833,179.112549 
	C493.325226,179.109818 491.972046,178.898865 489.871704,178.721390 
	C492.517548,175.639648 494.489929,173.183426 496.629150,170.882294 
	C501.829163,165.288696 507.106720,159.767136 512.353027,154.216553 
M831.948364,390.989655 
	C832.417480,393.133850 832.886536,395.278046 833.421875,397.725159 
	C840.871033,397.725159 848.713196,397.725159 856.794495,397.725159 
	C857.183533,395.358521 857.530151,393.250122 858.726562,390.972839 
	C860.363403,390.972839 862.000183,390.972839 864.145996,390.972839 
	C870.643127,351.056335 877.080688,311.505798 883.615845,271.355530 
	C877.055542,271.355530 871.590149,271.355316 866.124817,271.355560 
	C858.624329,271.355896 858.624329,271.356049 856.034607,278.571228 
	C854.431030,278.571228 852.827454,278.571228 851.211426,278.571228 
	C849.770386,285.863525 848.429932,292.647064 846.415588,299.146362 
	C834.964294,290.928162 822.315125,290.578857 810.908508,298.393585 
	C807.558350,300.688843 804.551819,303.485626 800.670593,306.111237 
	C797.047302,310.093658 793.424011,314.076080 789.643799,317.134369 
	C792.118164,309.250824 794.592529,301.367279 797.140137,293.250519 
	C785.893982,290.786774 780.744507,299.721863 774.294556,306.950562 
	C774.639648,302.267548 774.927185,298.366241 775.195312,294.728363 
	C774.274597,294.271057 773.988647,294.007599 773.698608,294.003052 
	C768.875183,293.927094 764.051331,293.855194 759.227356,293.839386 
	C751.841370,293.815125 751.841309,293.833649 749.840820,300.964478 
	C748.075256,300.964478 746.309753,300.964478 744.786255,300.964478 
	C739.867493,333.537292 735.039673,365.508209 730.171875,397.743591 
	C738.817017,397.743591 747.054443,397.743591 755.514893,397.743591 
	C755.897705,395.397797 756.242859,393.283142 757.478699,390.999268 
	C759.234314,390.910889 760.989990,390.822479 762.822571,390.730225 
	C764.608948,379.715576 765.997131,369.174072 768.101318,358.777557 
	C769.956360,349.612122 772.610962,340.608551 775.556152,331.090332 
	C778.481262,329.883270 781.406433,328.676239 784.969727,327.205872 
	C783.217041,334.247406 781.423706,339.938171 780.426758,345.765198 
	C778.176147,358.920380 778.385254,371.948975 784.843201,384.100555 
	C793.960327,401.255859 816.507812,405.185181 830.553345,391.983215 
	C830.752380,391.711884 830.951416,391.440582 831.948364,390.989655 
M887.707092,389.423401 
	C890.936035,386.496277 891.877686,383.108704 889.504761,379.250153 
	C887.551819,376.074493 884.588135,374.918030 880.995361,375.829742 
	C876.576538,376.951172 874.234680,381.156189 875.504639,385.388733 
	C877.001953,390.379181 881.177002,391.994324 887.707092,389.423401 
z"/>
<path fill="#D8232A" opacity="1.000000" stroke="none" 
	d="
M440.870605,279.042297 
	C487.341522,279.026337 533.812561,279.049133 580.283142,278.921387 
	C584.029480,278.911102 585.879883,279.962402 586.071411,283.825256 
	C586.210510,286.630951 586.765381,289.416077 587.089722,292.634827 
	C587.044556,293.059265 587.079102,292.996979 586.629883,292.984650 
	C575.536560,291.420166 570.195435,299.214386 563.699890,307.209167 
	C564.191040,301.822235 564.529297,298.112305 564.884155,294.220520 
	C556.596619,294.220520 548.955872,294.220520 541.408752,294.220520 
	C540.883423,296.729370 540.445068,298.822510 539.576172,300.921875 
	C537.517883,300.928131 535.890137,300.928131 534.234863,300.928131 
	C529.331726,333.398956 524.492737,365.444489 519.573181,398.024292 
	C526.139465,398.024292 532.245667,398.025085 538.351929,398.024078 
	C545.320923,398.022949 545.320923,398.022278 546.407349,391.052368 
	C548.585144,390.958496 550.344360,390.958496 552.268005,390.958496 
	C553.594116,382.605377 554.539124,374.838928 556.106445,367.200134 
	C558.537781,355.350433 561.393188,343.587738 564.293213,331.626099 
	C564.671875,330.946960 564.826111,330.429871 564.978149,329.953918 
	C564.976013,329.995026 564.893982,329.988129 565.297241,330.098358 
	C569.310608,329.419006 572.920654,328.629425 577.023926,327.731934 
	C577.023926,329.579346 577.122131,330.387726 577.009521,331.165619 
	C574.458801,348.780640 575.244568,365.916656 584.207275,381.895996 
	C582.669800,387.845520 581.020569,393.769226 579.638123,399.754547 
	C578.845032,403.187775 576.929810,404.045959 573.566833,404.010193 
	C557.905579,403.843628 542.241577,403.936523 526.578552,403.936554 
	C502.417480,403.936584 478.256439,403.936554 454.095367,403.936584 
	C452.288940,403.936615 450.482513,403.936584 447.418243,403.936584 
	C450.845215,412.190125 453.741516,419.731384 457.219299,426.994232 
	C457.811096,428.230194 460.894409,428.783691 462.829468,428.789886 
	C495.821472,428.895996 528.813904,428.866058 561.806213,428.866058 
	C563.600647,428.866058 565.395081,428.866058 568.601013,428.866058 
	C563.967163,437.126282 560.058289,444.591003 555.566711,451.686951 
	C554.654785,453.127716 551.549377,453.766418 549.449219,453.778900 
	C525.622253,453.920898 501.794159,453.869019 477.966370,453.869049 
	C476.181671,453.869049 474.396942,453.869049 470.841064,453.869049 
	C477.239044,462.433899 482.655640,469.883698 488.369904,477.097687 
	C489.133514,478.061646 491.402130,478.102722 492.976624,478.112427 
	C505.473236,478.189575 517.970581,478.155670 530.467651,478.155853 
	C532.085632,478.155853 533.703613,478.155853 535.321533,478.155853 
	C535.625000,478.604065 535.928467,479.052277 536.231934,479.500519 
	C528.804565,487.350952 521.377197,495.201416 513.794678,503.336060 
	C505.445404,509.866364 497.469452,516.426270 489.018585,522.303284 
	C455.669617,545.495239 418.777954,559.434937 378.271210,563.071594 
	C309.274017,569.265991 248.546112,549.514343 196.828766,503.380402 
	C159.245041,469.854218 134.932510,428.056519 124.696472,378.825562 
	C110.298325,309.576660 123.750587,245.699631 165.901733,188.654526 
	C200.968903,141.196472 247.779556,110.728210 305.576385,98.867943 
	C380.490143,83.495171 447.832825,100.831833 507.061584,149.323349 
	C508.734253,150.692795 510.320923,152.167252 512.150391,153.904663 
	C507.106720,159.767136 501.829163,165.288696 496.629150,170.882294 
	C494.489929,173.183426 492.517548,175.639648 489.871704,178.721390 
	C491.972046,178.898865 493.325226,179.109818 494.678833,179.112549 
	C507.341187,179.138077 520.007507,178.969162 532.662415,179.277298 
	C534.889038,179.331528 537.745056,180.795441 539.148499,182.542007 
	C544.409363,189.089401 549.188538,196.023911 555.059387,204.060440 
	C551.737183,204.060440 550.001343,204.060455 548.265442,204.060455 
	C524.273499,204.060516 500.280975,204.140381 476.290131,203.975769 
	C472.632751,203.950684 470.437500,205.083893 468.774841,208.280380 
	C465.338379,214.886871 461.645935,221.360229 457.414734,229.060501 
	C460.350861,229.060501 462.229858,229.060501 464.108856,229.060501 
	C496.931183,229.060501 529.754028,229.151413 562.575134,228.952271 
	C566.970337,228.925629 569.285522,230.329300 570.728455,234.345444 
	C573.014343,240.707657 575.641174,246.947327 578.449036,254.063309 
	C575.465881,254.063309 573.512390,254.063309 571.558899,254.063309 
	C532.072144,254.063324 492.585144,254.125290 453.098999,253.968857 
	C449.086578,253.952972 446.977570,254.996109 446.056366,259.002960 
	C444.567719,265.477966 442.702454,271.866394 440.501282,278.688751 
	C433.067596,279.050079 426.124512,279.146362 419.192291,278.915771 
	C416.235870,278.817413 414.929871,279.818268 414.817719,282.741547 
	C414.774872,283.858490 414.264557,284.957458 413.542206,286.059509 
	C411.507904,286.054382 409.898682,286.054382 408.185272,286.054382 
	C407.409058,290.333344 406.700073,294.072968 406.055511,297.823669 
	C402.992401,315.648773 399.946777,333.476868 396.650696,351.029846 
	C394.547638,343.707092 390.001434,338.795715 383.823761,335.317474 
	C380.056763,333.196564 376.077240,331.456451 372.268433,329.405518 
	C369.373077,327.846405 366.889282,325.897400 368.406616,321.966461 
	C376.136353,321.961609 383.394196,321.961609 391.204346,321.961609 
	C391.495850,320.221588 391.899689,317.811218 392.718933,315.376709 
	C394.874298,315.517395 396.614227,315.682251 398.534424,315.864166 
	C399.730286,308.138672 400.837860,300.983490 401.990356,293.538177 
	C398.678986,293.089752 395.906799,292.597687 393.112976,292.354797 
	C374.042542,290.696808 355.461670,290.593109 342.588715,308.919434 
	C340.078583,311.920410 337.906708,314.848755 335.555969,317.337097 
	C333.482544,302.479004 326.899719,295.236511 312.588074,292.639221 
	C300.806641,290.501129 289.195343,292.126099 277.624634,294.867920 
	C273.305847,295.891266 270.299286,297.352386 269.695374,302.205994 
	C267.451996,303.351196 264.309967,304.137695 263.930939,305.627228 
	C262.355652,311.817841 261.613495,318.220428 260.426544,325.384705 
	C263.797302,324.620941 266.143677,323.780670 268.539459,323.601532 
	C277.434906,322.936462 286.342560,322.217499 295.254089,322.084137 
	C299.209991,322.024872 302.729279,323.900116 303.144348,328.580811 
	C284.672760,327.989105 268.955170,332.551819 257.547058,347.973755 
	C255.103180,350.353638 252.992798,352.672760 250.647736,354.600220 
	C254.891052,326.828613 259.369049,299.448639 263.951721,271.428589 
	C253.178589,271.428589 242.895905,271.428589 232.613235,271.428589 
	C224.392334,271.428589 224.392334,271.428589 221.210617,278.865234 
	C217.070938,277.551025 215.263138,279.029358 214.033997,282.785431 
	C209.418045,296.891052 204.473099,310.889008 199.431305,324.441803 
	C199.211212,306.572845 199.211212,289.189392 199.211212,271.428589 
	C188.443985,271.428589 179.125153,271.846069 169.866913,271.277283 
	C163.994919,270.916565 160.374069,272.078796 159.640076,278.474670 
	C154.045914,277.313049 153.720978,280.903107 153.121033,284.523651 
	C148.638672,311.574615 144.073395,338.611847 139.556900,365.657196 
	C137.789291,376.241852 136.080215,386.836304 134.246094,398.026611 
	C140.481003,398.026611 146.098007,398.027466 151.714996,398.026398 
	C158.556976,398.025085 158.556976,398.024384 159.667923,391.040588 
	C161.846954,390.950867 163.616241,390.950867 165.495178,390.950867 
	C166.061325,387.793121 166.519592,385.204132 166.990265,382.617401 
	C169.269165,370.092407 171.551422,357.568054 174.012878,345.500763 
	C174.710205,363.170563 175.227127,380.383087 175.757019,398.027679 
	C179.714508,398.027679 183.238663,397.638641 186.641586,398.115295 
	C192.308426,398.909058 195.018951,396.609039 195.800980,391.026917 
	C199.627029,391.604431 201.089722,389.980103 202.149689,386.745972 
	C205.254227,377.273590 208.662079,367.896820 212.124359,358.546722 
	C214.572891,351.934387 217.303207,345.426361 220.061813,339.293701 
	C217.282135,358.990204 214.348373,378.264801 211.383606,397.743134 
	C220.216599,397.743134 228.448730,397.743134 236.851379,397.743134 
	C237.253372,395.378601 237.613403,393.260895 238.392044,391.055054 
	C240.549515,390.966980 242.288391,390.966980 243.988724,390.966980 
	C245.121994,385.326080 246.120316,380.356903 247.343262,375.763855 
	C247.761780,377.445618 247.875458,378.769196 248.162399,380.054108 
	C250.218399,389.260712 255.001678,396.550964 264.536255,398.723114 
	C274.856781,401.074341 284.863495,399.916260 293.249878,391.826447 
	C294.018768,391.399445 294.529846,391.114838 294.983215,390.948425 
	C294.925507,391.066589 294.684937,390.960205 295.066528,390.774231 
	C296.073059,390.938110 297.197113,391.238159 297.237885,391.646393 
	C297.429291,393.563538 297.322998,395.510406 297.322998,397.281006 
	C297.955597,397.598816 298.239227,397.863068 298.527161,397.867767 
	C302.985596,397.940552 307.444763,398.030334 311.903412,398.015350 
	C319.668427,397.989227 318.493500,398.790771 319.649597,391.041595 
	C321.660858,391.014557 323.213928,391.077484 324.704956,391.556580 
	C324.511810,393.549683 324.380798,395.126678 324.207825,397.208649 
	C330.166901,397.986023 335.552551,398.925049 340.978394,399.347015 
	C352.113525,400.213013 363.286499,400.450653 373.757019,395.734253 
	C376.607269,394.450317 378.884705,391.894775 381.497986,389.603577 
	C385.404510,385.952789 389.238129,382.621246 393.220428,379.714417 
	C395.707184,393.902344 401.012817,399.538177 412.662415,399.668152 
	C417.558594,399.722809 422.464569,398.530182 427.373108,397.965454 
	C431.354187,397.507385 433.184021,395.333038 433.264313,391.200653 
	C438.097687,390.658966 440.314209,388.506989 440.476227,383.746124 
	C440.610626,379.796875 441.695953,375.880035 442.551025,372.244019 
	C445.962036,384.952484 453.651306,393.201721 465.875031,397.077301 
	C479.137177,401.282104 492.400085,400.033325 505.706390,397.043243 
	C509.481415,396.194916 511.201233,394.402008 511.178894,390.410767 
	C513.577148,389.153107 517.139282,388.461700 517.516479,386.966736 
	C519.287964,379.945557 520.184326,372.703583 521.521729,364.778564 
	C519.211426,365.648590 517.715698,366.227509 516.209106,366.776703 
	C507.151489,370.078308 497.844452,371.345947 488.262878,370.006989 
	C479.814697,368.826385 475.346344,365.096954 474.124695,357.958130 
	C486.235535,357.905731 497.865265,357.553802 509.460510,358.034058 
	C515.061584,358.266052 517.784729,356.632507 518.262695,350.904907 
	C520.306946,350.714691 521.937439,350.631836 524.738708,350.489441 
	C525.412231,341.132080 526.949463,331.888519 526.530151,322.734558 
	C525.914673,309.302979 519.587952,298.700623 506.328064,294.056824 
	C492.543762,289.229309 479.374573,291.120148 467.960754,300.641266 
	C463.569702,304.304169 459.899353,308.831024 455.578033,313.051270 
	C453.789612,314.924530 452.109344,316.576294 450.891968,318.518188 
	C441.335602,333.762299 439.225800,350.454102 441.118408,368.165894 
	C439.918793,368.507416 439.104095,368.723114 438.279327,368.773254 
	C429.031494,369.335236 426.366486,366.544952 427.815735,357.498688 
	C429.603699,346.338196 431.565674,335.205627 433.878845,324.078674 
	C444.583557,324.409912 442.509857,324.424011 443.707153,317.178650 
	C445.331207,316.593933 447.518982,316.262665 447.643433,315.563934 
	C448.899536,308.510986 449.817841,301.397888 450.923615,293.653442 
	C446.283325,293.653442 442.413177,293.653442 438.091034,293.653442 
	C439.097046,288.365234 439.983826,283.703766 440.870605,279.042297 
z"/>
<path fill="#050C19" opacity="1.000000" stroke="none" 
	d="
M878.092529,454.089050 
	C883.750366,451.346619 888.226624,452.767456 890.272583,457.648682 
	C891.852844,461.418793 889.862976,465.840057 885.876282,467.416931 
	C881.609436,469.104584 876.290649,466.938171 875.643188,462.475830 
	C875.270508,459.906525 876.996948,457.032684 878.092529,454.089050 
M886.686035,463.923523 
	C889.675720,461.163055 889.346069,457.909332 886.293274,456.175934 
	C884.482056,455.147461 880.817993,455.604889 878.967346,456.850586 
	C876.369812,458.599030 876.455994,461.887268 878.970947,464.095062 
	C881.106506,465.969757 883.728577,467.490326 886.000000,464.000000 
	C886.000000,464.000000 885.989563,464.012451 886.686035,463.923523 
z"/>
<path fill="#FDFCFC" opacity="1.000000" stroke="none" 
	d="
M801.387817,306.052551 
	C804.551819,303.485626 807.558350,300.688843 810.908508,298.393585 
	C822.315125,290.578857 834.964294,290.928162 846.916992,299.537292 
	C848.999878,301.680939 850.581299,303.433655 852.881409,305.982819 
	C854.325684,295.982635 855.584595,287.266052 856.843506,278.549469 
	C858.624329,271.356049 858.624329,271.355896 866.124817,271.355560 
	C871.590149,271.355316 877.055542,271.355530 883.615845,271.355530 
	C877.080688,311.505798 870.643127,351.056335 864.145996,390.972839 
	C862.000183,390.972839 860.363403,390.972839 857.848206,390.971863 
	C851.405273,390.970856 845.840759,390.970856 840.081116,390.970856 
	C840.360840,388.096741 840.591980,385.721649 840.879211,382.770813 
	C837.261597,385.390442 834.120300,387.665161 830.735718,389.903870 
	C830.150635,389.925049 829.876709,390.092957 829.683472,390.398560 
	C829.696289,390.425598 829.640930,390.388702 829.235352,390.477539 
	C810.021606,396.402130 794.086792,388.104950 789.082031,369.034760 
	C783.597107,348.135315 787.395020,328.495300 799.076843,310.348694 
	C799.954285,308.985626 800.622375,307.487762 801.387817,306.052551 
M835.008911,365.004333 
	C835.008911,365.004333 835.020020,365.101868 835.718872,365.113770 
	C846.401123,355.497040 847.457336,342.936493 846.097961,329.866730 
	C845.326416,322.448975 841.513672,318.093140 836.160217,317.016174 
	C829.604675,315.697388 823.819336,318.485046 819.263306,325.196075 
	C813.522095,335.283661 811.971008,346.109619 814.124451,357.388489 
	C816.082214,367.642792 825.053711,371.362061 834.624939,365.881592 
	C834.785522,365.586365 834.946167,365.291138 835.008911,365.004333 
z"/>
<path fill="#FDFCFC" opacity="1.000000" stroke="none" 
	d="
M673.017944,302.178223 
	C673.141968,296.845367 676.927979,295.813232 681.163757,294.767029 
	C692.944824,291.857239 704.808228,290.467804 716.787598,292.881317 
	C730.994568,295.743652 738.901855,304.811035 738.027893,319.347656 
	C737.131470,334.256531 734.533691,349.067535 732.562866,363.905731 
	C731.401184,372.651581 730.010925,381.367065 728.596619,390.956726 
	C726.793030,390.956726 724.881714,390.956726 722.076050,390.947693 
	C716.749573,390.938629 712.317505,390.938629 707.584473,390.938629 
	C707.584473,387.591797 707.584473,384.902344 707.584473,381.881287 
	C703.453552,385.209137 699.727905,388.210480 695.579834,391.086121 
	C693.534363,391.194611 691.890625,391.332489 690.291504,391.677673 
	C673.088806,395.391235 660.111145,387.364166 658.377502,371.013611 
	C657.733154,364.936218 659.423828,358.605164 660.112549,352.396759 
	C660.288330,350.812683 660.703979,349.255249 661.009399,347.685547 
	C662.854309,345.599854 664.661621,343.479309 666.551025,341.434723 
	C673.569885,333.839508 682.726257,330.664825 692.595398,329.254639 
	C696.844360,328.647522 701.193481,328.741821 706.275757,328.588196 
	C708.990540,328.853668 710.926758,329.048431 712.751343,329.231964 
	C715.989197,320.339905 713.634094,315.449249 704.972168,314.837311 
	C697.424561,314.304138 689.751831,315.121033 682.165955,315.733002 
	C678.513123,316.027649 674.932983,317.224579 671.039429,318.074127 
	C671.751892,312.349854 672.384949,307.264038 673.017944,302.178223 
M699.948120,368.980530 
	C699.948120,368.980530 700.000305,369.077759 700.690979,369.020386 
	C707.657288,363.631195 709.792358,356.255585 709.982422,346.735382 
	C703.961182,347.430664 698.382690,347.299042 693.370361,348.919159 
	C689.874573,350.049133 687.154724,353.579651 683.613281,356.711273 
	C682.356689,361.546906 681.661987,366.454529 686.177063,369.969696 
	C690.392212,373.251343 694.913147,372.206512 699.636597,369.618805 
	C699.934265,369.478027 700.067932,369.243713 699.948120,368.980530 
z"/>
<path fill="#FDFCFB" opacity="1.000000" stroke="none" 
	d="
M651.742249,383.420959 
	C651.436646,387.892456 649.122620,390.361420 643.824341,390.778870 
	C639.123169,391.453308 635.186829,392.076935 631.226501,392.436859 
	C610.895935,394.284485 593.192261,383.611816 587.085388,364.158783 
	C578.966614,338.297211 582.891235,313.676392 597.687073,290.858124 
	C598.691528,289.309021 599.243652,287.466583 600.006104,285.760559 
	C607.012085,281.243774 613.587280,275.758606 621.113220,272.410919 
	C636.986938,265.349976 652.865601,268.457886 668.835144,274.752899 
	C667.496582,283.135284 666.175354,291.409363 664.750000,300.335114 
	C662.831299,299.627258 661.352417,299.081665 659.240479,298.251740 
	C654.657532,296.780457 650.779297,295.038971 646.743408,294.517456 
	C637.180298,293.281708 628.439636,295.135742 622.046509,303.238861 
	C614.603455,309.564056 611.612244,318.257629 610.495117,327.389282 
	C609.639526,334.383484 609.426086,341.762115 610.689270,348.646393 
	C613.378906,363.304565 624.479431,370.248840 639.042664,367.267151 
	C643.246277,366.406494 647.285706,364.743774 652.158813,363.129456 
	C653.387207,363.650330 654.342407,364.548553 654.250000,365.321533 
	C653.527527,371.368225 652.603821,377.390869 651.742249,383.420959 
z"/>
<path fill="#FDFCFB" opacity="1.000000" stroke="none" 
	d="
M750.674500,300.954285 
	C751.841309,293.833649 751.841370,293.815125 759.227356,293.839386 
	C764.051331,293.855194 768.875183,293.927094 773.698608,294.003052 
	C773.988647,294.007599 774.274597,294.271057 775.195312,294.728363 
	C774.927185,298.366241 774.639648,302.267548 774.294556,306.950562 
	C780.744507,299.721863 785.893982,290.786774 797.140137,293.250519 
	C794.592529,301.367279 792.118164,309.250824 789.629639,317.856934 
	C788.319641,319.448090 787.111084,320.868347 785.712952,321.089386 
	C779.784912,322.026550 776.107666,325.395081 774.912476,331.533478 
	C772.610962,340.608551 769.956360,349.612122 768.101318,358.777557 
	C765.997131,369.174072 764.608948,379.715576 762.822571,390.730225 
	C760.989990,390.822479 759.234314,390.910889 756.607300,390.986938 
	C749.769714,390.974609 743.803528,390.974609 737.436951,390.974609 
	C739.178528,379.716095 740.925293,368.928101 742.502747,358.115417 
	C745.281189,339.069641 747.956177,320.008820 750.674500,300.954285 
z"/>
<path fill="#0B0907" opacity="1.000000" stroke="none" 
	d="
M599.665161,285.851746 
	C599.243652,287.466583 598.691528,289.309021 597.687073,290.858124 
	C582.891235,313.676392 578.966614,338.297211 587.085388,364.158783 
	C593.192261,383.611816 610.895935,394.284485 631.226501,392.436859 
	C635.186829,392.076935 639.123169,391.453308 643.495117,390.977692 
	C644.169922,395.033722 642.299927,397.233490 638.253296,397.464905 
	C629.360352,397.973511 620.386108,399.418030 611.591431,398.696503 
	C600.302307,397.770325 591.597473,391.173035 584.480774,382.068481 
	C575.244568,365.916656 574.458801,348.780640 577.009521,331.165619 
	C577.122131,330.387726 577.023926,329.579346 577.023926,327.731934 
	C572.920654,328.629425 569.310608,329.419006 565.284180,329.736786 
	C567.160706,323.251312 571.830078,320.835297 577.222778,320.978149 
	C580.638123,311.282318 583.858582,302.139648 587.079102,292.996979 
	C587.079102,292.996979 587.044556,293.059265 587.073120,293.080292 
	C590.313354,294.489136 592.546509,293.529510 594.491394,290.617767 
	C595.708130,288.796204 597.687195,287.483795 599.665161,285.851746 
z"/>
<path fill="#0E0C08" opacity="1.000000" stroke="none" 
	d="
M775.234314,331.311890 
	C776.107666,325.395081 779.784912,322.026550 785.712952,321.089386 
	C787.111084,320.868347 788.319641,319.448090 789.708069,318.319000 
	C793.424011,314.076080 797.047302,310.093658 801.029175,306.081909 
	C800.622375,307.487762 799.954285,308.985626 799.076843,310.348694 
	C787.395020,328.495300 783.597107,348.135315 789.082031,369.034760 
	C794.086792,388.104950 810.021606,396.402130 829.355957,390.903381 
	C829.936279,391.530029 829.990479,391.819702 830.044739,392.109344 
	C816.507812,405.185181 793.960327,401.255859 784.843201,384.100555 
	C778.385254,371.948975 778.176147,358.920380 780.426758,345.765198 
	C781.423706,339.938171 783.217041,334.247406 784.969727,327.205872 
	C781.406433,328.676239 778.481262,329.883270 775.234314,331.311890 
z"/>
<path fill="#0D0B07" opacity="1.000000" stroke="none" 
	d="
M750.257690,300.959381 
	C747.956177,320.008820 745.281189,339.069641 742.502747,358.115417 
	C740.925293,368.928101 739.178528,379.716095 737.436951,390.974609 
	C743.803528,390.974609 749.769714,390.974609 756.161926,391.071533 
	C756.242859,393.283142 755.897705,395.397797 755.514893,397.743591 
	C747.054443,397.743591 738.817017,397.743591 730.171875,397.743591 
	C735.039673,365.508209 739.867493,333.537292 744.786255,300.964478 
	C746.309753,300.964478 748.075256,300.964478 750.257690,300.959381 
z"/>
<path fill="#0E0C08" opacity="1.000000" stroke="none" 
	d="
M651.943115,383.709229 
	C652.603821,377.390869 653.527527,371.368225 654.250000,365.321533 
	C654.342407,364.548553 653.387207,363.650330 652.416504,362.872620 
	C653.028809,356.974854 655.466492,351.755646 660.670166,347.789886 
	C660.703979,349.255249 660.288330,350.812683 660.112549,352.396759 
	C659.423828,358.605164 657.733154,364.936218 658.377502,371.013611 
	C660.111145,387.364166 673.088806,395.391235 690.291504,391.677673 
	C691.890625,391.332489 693.534363,391.194611 695.570557,391.255859 
	C695.983704,391.551300 695.965698,391.890594 695.965698,391.890594 
	C683.645264,405.710388 660.009644,401.453156 651.943115,383.709229 
z"/>
<path fill="#0F0D0A" opacity="1.000000" stroke="none" 
	d="
M672.644653,302.221313 
	C672.384949,307.264038 671.751892,312.349854 671.039429,318.074127 
	C674.932983,317.224579 678.513123,316.027649 682.165955,315.733002 
	C689.751831,315.121033 697.424561,314.304138 704.972168,314.837311 
	C713.634094,315.449249 715.989197,320.339905 712.751343,329.231964 
	C710.926758,329.048431 708.990540,328.853668 706.732483,328.527710 
	C705.658569,323.616638 701.945801,321.939453 698.063660,322.069122 
	C688.319397,322.394470 678.595154,323.372253 668.870667,324.181702 
	C667.258484,324.315887 665.685425,324.920471 663.439697,325.467010 
	C664.487610,318.649292 665.122620,312.216522 666.671021,306.011627 
	C667.073792,304.397247 670.327271,303.494202 672.644653,302.221313 
z"/>
<path fill="#0F0D0A" opacity="1.000000" stroke="none" 
	d="
M622.463501,303.176483 
	C628.439636,295.135742 637.180298,293.281708 646.743408,294.517456 
	C650.779297,295.038971 654.657532,296.780457 658.852173,298.169373 
	C658.491760,301.230377 657.886597,304.089417 657.231018,307.186646 
	C652.697021,305.601135 648.539429,304.132751 644.372009,302.693176 
	C637.159668,300.201843 630.017212,301.578888 622.463501,303.176483 
z"/>
<path fill="#0F0D0A" opacity="1.000000" stroke="none" 
	d="
M830.979004,389.939880 
	C834.120300,387.665161 837.261597,385.390442 840.879211,382.770813 
	C840.591980,385.721649 840.360840,388.096741 840.081116,390.970856 
	C845.840759,390.970856 851.405273,390.970856 857.423340,391.056274 
	C857.530151,393.250122 857.183533,395.358521 856.794495,397.725159 
	C848.713196,397.725159 840.871033,397.725159 833.421875,397.725159 
	C832.886536,395.278046 832.417480,393.133850 831.486084,391.005615 
	C831.023743,391.021545 830.901489,390.871643 830.930115,390.639465 
	C830.958740,390.407288 830.979004,389.939880 830.979004,389.939880 
z"/>
<path fill="#120E0A" opacity="1.000000" stroke="none" 
	d="
M696.244812,391.619415 
	C695.965698,391.890594 695.983704,391.551300 695.993042,391.381561 
	C699.727905,388.210480 703.453552,385.209137 707.584473,381.881287 
	C707.584473,384.902344 707.584473,387.591797 707.584473,390.938629 
	C712.317505,390.938629 716.749573,390.938629 721.653320,391.031616 
	C721.894470,393.230194 721.664001,395.335846 721.402954,397.721130 
	C714.286560,397.721130 707.473694,397.721130 700.356445,397.721130 
	C700.356445,395.030426 700.356445,392.622711 700.356445,389.672852 
	C698.779358,390.362274 697.651672,390.855255 696.244812,391.619415 
z"/>
<path fill="#0F0D0A" opacity="1.000000" stroke="none" 
	d="
M856.439087,278.560364 
	C855.584595,287.266052 854.325684,295.982635 852.881409,305.982819 
	C850.581299,303.433655 848.999878,301.680939 847.253906,299.679443 
	C848.429932,292.647064 849.770386,285.863525 851.211426,278.571228 
	C852.827454,278.571228 854.431030,278.571228 856.439087,278.560364 
z"/>
<path fill="#FBE9CF" opacity="1.000000" stroke="none" 
	d="
M887.386719,389.642395 
	C881.177002,391.994324 877.001953,390.379181 875.504639,385.388733 
	C874.234680,381.156189 876.576538,376.951172 880.995361,375.829742 
	C884.588135,374.918030 887.551819,376.074493 889.504761,379.250153 
	C891.877686,383.108704 890.936035,386.496277 887.386719,389.642395 
M884.156677,377.909119 
	C880.882507,377.425323 878.268250,378.699188 877.691833,381.870331 
	C877.372864,383.625336 878.223450,386.251648 879.505920,387.499542 
	C882.038757,389.964050 885.294128,389.514954 887.318237,386.693695 
	C889.826660,383.197632 888.776978,380.113342 884.156677,377.909119 
z"/>
<path fill="#0F0D0A" opacity="1.000000" stroke="none" 
	d="
M830.299072,392.046265 
	C829.990479,391.819702 829.936279,391.530029 829.761475,390.814545 
	C829.640930,390.388702 829.696289,390.425598 829.974792,390.564117 
	C830.469360,390.758972 830.685425,390.815308 830.901489,390.871643 
	C830.901489,390.871643 831.023743,391.021545 831.087097,391.095398 
	C830.951416,391.440582 830.752380,391.711884 830.299072,392.046265 
z"/>
<path fill="#FCFBFB" opacity="1.000000" stroke="none" 
	d="
M219.907715,338.871765 
	C217.303207,345.426361 214.572891,351.934387 212.124359,358.546722 
	C208.662079,367.896820 205.254227,377.273590 202.149689,386.745972 
	C201.089722,389.980103 199.627029,391.604431 195.307388,390.938721 
	C190.828094,390.933289 187.221069,390.933289 183.226303,390.933289 
	C182.513565,362.651398 181.815323,334.944122 181.117065,307.236847 
	C180.575272,307.196381 180.033478,307.155914 179.491684,307.115479 
	C177.605286,319.758118 175.718887,332.400787 173.832474,345.043457 
	C171.551422,357.568054 169.269165,370.092407 166.990265,382.617401 
	C166.519592,385.204132 166.061325,387.793121 165.495178,390.950867 
	C163.616241,390.950867 161.846954,390.950867 159.182709,390.946503 
	C152.880127,390.942139 147.472458,390.942139 141.914719,390.942139 
	C142.020264,389.415039 142.008072,388.580536 142.144073,387.770935 
	C145.918198,365.303253 149.764740,342.847534 153.472931,320.369019 
	C155.771484,306.435608 157.863785,292.468231 160.048645,278.516083 
	C160.374069,272.078796 163.994919,270.916565 169.866913,271.277283 
	C179.125153,271.846069 188.443985,271.428589 199.211212,271.428589 
	C199.211212,289.189392 199.211212,306.572845 199.347137,324.804626 
	C199.483078,331.230530 199.483078,336.808167 199.483078,342.385773 
	C199.829666,342.429382 200.176254,342.473022 200.522842,342.516632 
	C207.537216,321.350922 214.551590,300.185211 221.565964,279.019470 
	C224.392334,271.428589 224.392334,271.428589 232.613235,271.428589 
	C242.895905,271.428589 253.178589,271.428589 263.951721,271.428589 
	C259.369049,299.448639 254.891052,326.828613 250.674927,354.604980 
	C250.936783,355.001373 250.943604,354.946136 250.609680,355.076660 
	C250.220627,355.914978 250.165497,356.622772 250.000336,357.696106 
	C248.966431,363.837067 248.042542,369.612396 247.118622,375.387756 
	C246.120316,380.356903 245.121994,385.326080 243.988724,390.966980 
	C242.288391,390.966980 240.549515,390.966980 237.933044,390.958984 
	C231.093201,390.951019 225.130981,390.951019 218.680695,390.951019 
	C223.032623,363.424866 227.303116,336.413727 231.573608,309.402618 
	C231.111923,309.310547 230.650238,309.218506 230.188553,309.126434 
	C229.907104,309.462280 229.496552,309.753632 229.363220,310.140472 
	C226.442947,318.614410 223.553467,327.098938 220.377869,335.958557 
	C220.033249,337.218658 219.968826,338.101562 219.937073,338.957275 
	C219.969772,338.930023 219.907715,338.871765 219.907715,338.871765 
z"/>
<path fill="#FCFBFB" opacity="1.000000" stroke="none" 
	d="
M257.880585,347.913025 
	C268.955170,332.551819 284.672760,327.989105 303.507568,328.724579 
	C306.288452,328.931000 308.205170,329.079376 309.989532,329.217529 
	C312.758423,319.599609 310.327118,315.606415 301.233154,314.576569 
	C297.463440,314.149658 293.573090,313.975433 289.818604,314.401093 
	C282.646210,315.214233 275.531891,316.539673 268.181854,317.685486 
	C268.800507,312.595001 269.433929,307.382843 270.067383,302.170654 
	C270.299286,297.352386 273.305847,295.891266 277.624634,294.867920 
	C289.195343,292.126099 300.806641,290.501129 312.588074,292.639221 
	C326.899719,295.236511 333.482544,302.479004 335.457947,317.714478 
	C335.029266,324.923065 334.519653,331.314240 333.824951,338.083557 
	C331.805267,350.523560 329.970764,362.585419 328.028809,375.061401 
	C326.869904,380.697205 325.818481,385.918823 324.767029,391.140442 
	C323.213928,391.077484 321.660858,391.014557 319.171600,390.950226 
	C313.833160,390.948853 309.430847,390.948853 304.682129,390.948853 
	C304.682129,387.732056 304.682129,385.060913 304.682129,381.397125 
	C300.895355,385.019470 297.790161,387.989838 294.684937,390.960205 
	C294.684937,390.960205 294.925507,391.066589 294.669800,390.660950 
	C293.939392,390.550293 293.464691,390.845276 292.561523,391.055115 
	C288.411469,391.481964 284.701874,392.117065 280.965942,392.482788 
	C269.806427,393.575348 260.672150,387.739410 256.854584,377.202118 
	C254.018341,369.373566 254.518616,361.541138 256.738556,353.676849 
	C257.268951,351.797852 257.507690,349.836487 257.880585,347.913025 
M297.561310,369.154388 
	C304.706909,363.802734 306.643982,356.241760 307.211975,346.890717 
	C301.466217,347.415527 296.348419,347.531616 291.375946,348.441803 
	C286.925934,349.256348 282.830139,351.202606 280.633759,356.697113 
	C278.429504,365.829956 281.389526,371.799194 288.549683,371.802460 
	C291.330475,371.803711 294.111938,370.279846 297.561310,369.154388 
z"/>
<path fill="#FCFBFB" opacity="1.000000" stroke="none" 
	d="
M473.629425,358.000824 
	C475.346344,365.096954 479.814697,368.826385 488.262878,370.006989 
	C497.844452,371.345947 507.151489,370.078308 516.209106,366.776703 
	C517.715698,366.227509 519.211426,365.648590 521.521729,364.778564 
	C520.184326,372.703583 519.287964,379.945557 517.516479,386.966736 
	C517.139282,388.461700 513.577148,389.153107 510.749878,390.405396 
	C500.782471,391.056641 491.486267,392.413391 482.325531,391.787537 
	C464.355438,390.559845 452.295197,379.098572 449.164032,361.386078 
	C446.555298,346.628571 448.383392,332.322662 454.355530,318.543213 
	C455.115509,316.789703 455.397339,314.828949 455.900635,312.964233 
	C459.899353,308.831024 463.569702,304.304169 467.960754,300.641266 
	C479.374573,291.120148 492.543762,289.229309 506.328064,294.056824 
	C519.587952,298.700623 525.914673,309.302979 526.530151,322.734558 
	C526.949463,331.888519 525.412231,341.132080 524.738708,350.489441 
	C521.937439,350.631836 520.306946,350.714691 517.819824,350.786926 
	C502.405273,350.776245 487.847443,350.776245 472.754395,350.776245 
	C473.088989,353.538696 473.359192,355.769775 473.629425,358.000824 
M496.742767,331.029114 
	C498.827209,331.029114 500.911652,331.029114 502.916473,331.029114 
	C504.341827,318.494232 499.105530,312.316589 488.926575,313.974243 
	C484.396912,314.711884 481.017181,317.195801 478.446014,321.749481 
	C477.308380,324.621674 476.170746,327.493896 474.828735,330.882050 
	C482.333099,330.882050 489.072968,330.882050 496.742767,331.029114 
z"/>
<path fill="#FCFBFB" opacity="1.000000" stroke="none" 
	d="
M367.934753,321.971313 
	C366.889282,325.897400 369.373077,327.846405 372.268433,329.405518 
	C376.077240,331.456451 380.056763,333.196564 383.823761,335.317474 
	C390.001434,338.795715 394.547638,343.707092 396.661163,351.473206 
	C398.158875,361.581787 397.453033,370.696442 393.071716,379.289734 
	C389.238129,382.621246 385.404510,385.952789 381.033356,389.572815 
	C378.876770,390.105469 377.234161,390.246185 375.642456,390.609863 
	C360.979797,393.959930 346.469452,392.596741 331.674835,389.727417 
	C332.282990,384.835358 332.831238,380.425232 333.563599,375.690613 
	C334.177338,372.823029 334.606995,370.279999 335.066620,367.559448 
	C338.179535,368.278961 340.583374,369.199829 343.029755,369.331604 
	C350.403809,369.728882 357.794342,369.819244 365.540344,370.052124 
	C369.734100,369.266174 372.080933,367.088409 372.473114,363.044922 
	C372.850372,359.155487 370.764008,356.815094 367.586334,355.155457 
	C364.058167,353.312683 360.469421,351.581329 356.985779,349.658691 
	C344.259918,342.635406 339.201599,331.928009 341.697205,317.603363 
	C342.202820,314.701172 342.521912,311.766510 342.926971,308.846802 
	C355.461670,290.593109 374.042542,290.696808 393.112976,292.354797 
	C395.906799,292.597687 398.678986,293.089752 401.990356,293.538177 
	C400.837860,300.983490 399.730286,308.138672 398.534424,315.864166 
	C396.614227,315.682251 394.874298,315.517395 392.314758,315.257202 
	C386.089813,315.096069 380.657623,314.676666 375.288055,315.083435 
	C371.427216,315.375946 367.856781,316.987976 367.934753,321.971313 
z"/>
<path fill="#FDFBFB" opacity="1.000000" stroke="none" 
	d="
M433.452484,324.060974 
	C431.565674,335.205627 429.603699,346.338196 427.815735,357.498688 
	C426.366486,366.544952 429.031494,369.335236 438.279327,368.773254 
	C439.104095,368.723114 439.918793,368.507416 441.438110,368.351196 
	C442.212036,369.538818 442.286041,370.743805 442.360046,371.948822 
	C441.695953,375.880035 440.610626,379.796875 440.476227,383.746124 
	C440.314209,388.506989 438.097687,390.658966 432.855652,391.202454 
	C429.936859,391.662323 427.803192,392.024963 425.656189,392.271179 
	C409.089508,394.170746 400.199921,385.932861 400.936218,369.371002 
	C401.002747,367.874542 401.080505,366.367798 401.314087,364.891296 
	C403.030518,354.040558 404.789246,343.196503 406.532288,332.349976 
	C409.011627,316.921692 411.489014,301.493073 413.967285,286.064606 
	C414.264557,284.957458 414.774872,283.858490 414.817719,282.741547 
	C414.929871,279.818268 416.235870,278.817413 419.192291,278.915771 
	C426.124512,279.146362 433.067596,279.050079 440.467651,279.092377 
	C440.929047,279.098633 440.958984,279.011871 440.914795,279.027100 
	C439.983826,283.703766 439.097046,288.365234 438.091034,293.653442 
	C442.413177,293.653442 446.283325,293.653442 450.923615,293.653442 
	C449.817841,301.397888 448.899536,308.510986 447.643433,315.563934 
	C447.518982,316.262665 445.331207,316.593933 443.235535,317.089294 
	C434.343018,317.021454 434.343018,317.021454 433.452484,324.060974 
z"/>
<path fill="#FCFBFB" opacity="1.000000" stroke="none" 
	d="
M586.629883,292.984650 
	C583.858582,302.139648 580.638123,311.282318 577.222778,320.978149 
	C571.830078,320.835297 567.160706,323.251312 564.880859,329.626556 
	C564.893982,329.988129 564.976013,329.995026 564.719788,330.075806 
	C564.331970,330.700439 564.200378,331.244293 564.068787,331.788147 
	C561.393188,343.587738 558.537781,355.350433 556.106445,367.200134 
	C554.539124,374.838928 553.594116,382.605377 552.268005,390.958496 
	C550.344360,390.958496 548.585144,390.958496 545.946045,390.960999 
	C539.113770,390.963501 533.161438,390.963501 526.833435,390.963501 
	C529.102539,376.520935 531.410461,362.631165 533.440186,348.700806 
	C535.758301,332.791260 537.828735,316.845581 540.006775,300.915619 
	C540.445068,298.822510 540.883423,296.729370 541.408752,294.220520 
	C548.955872,294.220520 556.596619,294.220520 564.884155,294.220520 
	C564.529297,298.112305 564.191040,301.822235 563.699890,307.209167 
	C570.195435,299.214386 575.536560,291.420166 586.629883,292.984650 
z"/>
<path fill="#0B0606" opacity="1.000000" stroke="none" 
	d="
M442.551025,372.244019 
	C442.286041,370.743805 442.212036,369.538818 441.818329,368.148499 
	C439.225800,350.454102 441.335602,333.762299 450.891968,318.518188 
	C452.109344,316.576294 453.789612,314.924530 455.578064,313.051270 
	C455.397339,314.828949 455.115509,316.789703 454.355530,318.543213 
	C448.383392,332.322662 446.555298,346.628571 449.164032,361.386078 
	C452.295197,379.098572 464.355438,390.559845 482.325531,391.787537 
	C491.486267,392.413391 500.782471,391.056641 510.446411,390.601440 
	C511.201233,394.402008 509.481415,396.194916 505.706390,397.043243 
	C492.400085,400.033325 479.137177,401.282104 465.875031,397.077301 
	C453.651306,393.201721 445.962036,384.952484 442.551025,372.244019 
z"/>
<path fill="#0D0809" opacity="1.000000" stroke="none" 
	d="
M413.542175,286.059509 
	C411.489014,301.493073 409.011627,316.921692 406.532288,332.349976 
	C404.789246,343.196503 403.030518,354.040558 401.314087,364.891296 
	C401.080505,366.367798 401.002747,367.874542 400.936218,369.371002 
	C400.199921,385.932861 409.089508,394.170746 425.656189,392.271179 
	C427.803192,392.024963 429.936859,391.662323 432.485352,391.351807 
	C433.184021,395.333038 431.354187,397.507385 427.373108,397.965454 
	C422.464569,398.530182 417.558594,399.722809 412.662415,399.668152 
	C401.012817,399.538177 395.707184,393.902344 393.220398,379.714417 
	C397.453033,370.696442 398.158875,361.581787 396.905396,351.747284 
	C399.946777,333.476868 402.992401,315.648773 406.055511,297.823669 
	C406.700073,294.072968 407.409058,290.333344 408.185272,286.054382 
	C409.898682,286.054382 411.507904,286.054382 413.542175,286.059509 
z"/>
<path fill="#0D0808" opacity="1.000000" stroke="none" 
	d="
M159.640076,278.474670 
	C157.863785,292.468231 155.771484,306.435608 153.472931,320.369019 
	C149.764740,342.847534 145.918198,365.303253 142.144073,387.770935 
	C142.008072,388.580536 142.020264,389.415039 141.914719,390.942139 
	C147.472458,390.942139 152.880127,390.942139 158.772980,391.036194 
	C158.556976,398.024384 158.556976,398.025085 151.714996,398.026398 
	C146.098007,398.027466 140.481003,398.026611 134.246094,398.026611 
	C136.080215,386.836304 137.789291,376.241852 139.556900,365.657196 
	C144.073395,338.611847 148.638672,311.574615 153.121033,284.523651 
	C153.720978,280.903107 154.045914,277.313049 159.640076,278.474670 
z"/>
<path fill="#0D0707" opacity="1.000000" stroke="none" 
	d="
M539.576172,300.921875 
	C537.828735,316.845581 535.758301,332.791260 533.440186,348.700806 
	C531.410461,362.631165 529.102539,376.520935 526.833435,390.963501 
	C533.161438,390.963501 539.113770,390.963501 545.527466,391.054871 
	C545.320923,398.022278 545.320923,398.022949 538.351929,398.024078 
	C532.245667,398.025085 526.139465,398.024292 519.573181,398.024292 
	C524.492737,365.444489 529.331726,333.398956 534.234863,300.928131 
	C535.890137,300.928131 537.517883,300.928131 539.576172,300.921875 
z"/>
<path fill="#0D0909" opacity="1.000000" stroke="none" 
	d="
M174.012878,345.500763 
	C175.718887,332.400787 177.605286,319.758118 179.491684,307.115479 
	C180.033478,307.155914 180.575272,307.196381 181.117065,307.236847 
	C181.815323,334.944122 182.513565,362.651398 183.226303,390.933289 
	C187.221069,390.933289 190.828094,390.933289 194.928711,391.021484 
	C195.018951,396.609039 192.308426,398.909058 186.641586,398.115295 
	C183.238663,397.638641 179.714508,398.027679 175.757019,398.027679 
	C175.227127,380.383087 174.710205,363.170563 174.012878,345.500763 
z"/>
<path fill="#0D0909" opacity="1.000000" stroke="none" 
	d="
M220.658081,335.581421 
	C223.553467,327.098938 226.442947,318.614410 229.363220,310.140472 
	C229.496552,309.753632 229.907104,309.462280 230.188553,309.126434 
	C230.650238,309.218506 231.111923,309.310547 231.573608,309.402618 
	C227.303116,336.413727 223.032623,363.424866 218.680695,390.951019 
	C225.130981,390.951019 231.093201,390.951019 237.514435,391.047089 
	C237.613403,393.260895 237.253372,395.378601 236.851379,397.743134 
	C228.448730,397.743134 220.216599,397.743134 211.383606,397.743134 
	C214.348373,378.264801 217.282135,358.990204 220.061798,339.293701 
	C219.907715,338.871765 219.969772,338.930023 220.236496,338.836182 
	C220.554840,337.688690 220.606461,336.635071 220.658081,335.581421 
z"/>
<path fill="#0A0707" opacity="1.000000" stroke="none" 
	d="
M342.588715,308.919434 
	C342.521912,311.766510 342.202820,314.701172 341.697205,317.603363 
	C339.201599,331.928009 344.259918,342.635406 356.985779,349.658691 
	C360.469421,351.581329 364.058167,353.312683 367.586334,355.155457 
	C370.764008,356.815094 372.850372,359.155487 372.473114,363.044922 
	C372.080933,367.088409 369.734100,369.266174 365.510254,369.666504 
	C364.797546,363.105042 359.573669,361.796295 355.368073,359.826324 
	C345.370605,355.143494 336.979279,349.091888 334.010071,337.705383 
	C334.519653,331.314240 335.029266,324.923065 335.636841,318.154510 
	C337.906708,314.848755 340.078583,311.920410 342.588715,308.919434 
z"/>
<path fill="#0B0707" opacity="1.000000" stroke="none" 
	d="
M257.547058,347.973755 
	C257.507690,349.836487 257.268951,351.797852 256.738556,353.676849 
	C254.518616,361.541138 254.018341,369.373566 256.854584,377.202118 
	C260.672150,387.739410 269.806427,393.575348 280.965942,392.482788 
	C284.701874,392.117065 288.411469,391.481964 292.562439,391.262268 
	C292.991760,391.554565 292.992035,391.968842 292.992035,391.968842 
	C284.863495,399.916260 274.856781,401.074341 264.536255,398.723114 
	C255.001678,396.550964 250.218399,389.260712 248.162399,380.054108 
	C247.875458,378.769196 247.761780,377.445618 247.343262,375.763855 
	C248.042542,369.612396 248.966431,363.837067 250.276154,357.476624 
	C250.755844,356.243103 250.849716,355.594604 250.943604,354.946136 
	C250.943604,354.946136 250.936783,355.001373 250.909607,354.996643 
	C252.992798,352.672760 255.103180,350.353638 257.547058,347.973755 
z"/>
<path fill="#0D0909" opacity="1.000000" stroke="none" 
	d="
M269.695374,302.205994 
	C269.433929,307.382843 268.800507,312.595001 268.181854,317.685486 
	C275.531891,316.539673 282.646210,315.214233 289.818604,314.401093 
	C293.573090,313.975433 297.463440,314.149658 301.233154,314.576569 
	C310.327118,315.606415 312.758423,319.599609 309.989532,329.217529 
	C308.205170,329.079376 306.288452,328.931000 304.008514,328.638855 
	C302.729279,323.900116 299.209991,322.024872 295.254089,322.084137 
	C286.342560,322.217499 277.434906,322.936462 268.539459,323.601532 
	C266.143677,323.780670 263.797302,324.620941 260.426544,325.384705 
	C261.613495,318.220428 262.355652,311.817841 263.930939,305.627228 
	C264.309967,304.137695 267.451996,303.351196 269.695374,302.205994 
z"/>
<path fill="#0D0808" opacity="1.000000" stroke="none" 
	d="
M333.379456,376.015106 
	C332.831238,380.425232 332.282990,384.835358 331.674835,389.727417 
	C346.469452,392.596741 360.979797,393.959930 375.642456,390.609863 
	C377.234161,390.246185 378.876770,390.105469 380.960388,389.892059 
	C378.884705,391.894775 376.607269,394.450317 373.757019,395.734253 
	C363.286499,400.450653 352.113525,400.213013 340.978394,399.347015 
	C335.552551,398.925049 330.166901,397.986023 324.207825,397.208649 
	C324.380798,395.126678 324.511810,393.549683 324.704956,391.556580 
	C325.818481,385.918823 326.869904,380.697205 328.410370,375.128418 
	C330.392731,375.192566 331.886108,375.603851 333.379456,376.015106 
z"/>
<path fill="#0F0A0A" opacity="1.000000" stroke="none" 
	d="
M221.210617,278.865234 
	C214.551590,300.185211 207.537216,321.350922 200.522842,342.516632 
	C200.176254,342.473022 199.829666,342.429382 199.483078,342.385773 
	C199.483078,336.808167 199.483078,331.230530 199.567245,325.290100 
	C204.473099,310.889008 209.418045,296.891052 214.033997,282.785431 
	C215.263138,279.029358 217.070938,277.551025 221.210617,278.865234 
z"/>
<path fill="#0A0303" opacity="1.000000" stroke="none" 
	d="
M474.124695,357.958130 
	C473.359192,355.769775 473.088989,353.538696 472.754395,350.776245 
	C487.847443,350.776245 502.405273,350.776245 517.405945,350.894257 
	C517.784729,356.632507 515.061584,358.266052 509.460510,358.034058 
	C497.865265,357.553802 486.235535,357.905731 474.124695,357.958130 
z"/>
<path fill="#0D0808" opacity="1.000000" stroke="none" 
	d="
M295.066528,390.774231 
	C297.790161,387.989838 300.895355,385.019470 304.682129,381.397125 
	C304.682129,385.060913 304.682129,387.732056 304.682129,390.948853 
	C309.430847,390.948853 313.833160,390.948853 318.713440,391.040222 
	C318.493500,398.790771 319.668427,397.989227 311.903412,398.015350 
	C307.444763,398.030334 302.985596,397.940552 298.527161,397.867767 
	C298.239227,397.863068 297.955597,397.598816 297.322998,397.281006 
	C297.322998,395.510406 297.429291,393.563538 297.237885,391.646393 
	C297.197113,391.238159 296.073059,390.938110 295.066528,390.774231 
z"/>
<path fill="#0B0707" opacity="1.000000" stroke="none" 
	d="
M368.406616,321.966461 
	C367.856781,316.987976 371.427216,315.375946 375.288055,315.083435 
	C380.657623,314.676666 386.089813,315.096069 391.899353,315.281342 
	C391.899689,317.811218 391.495850,320.221588 391.204346,321.961609 
	C383.394196,321.961609 376.136353,321.961609 368.406616,321.966461 
z"/>
<path fill="#0F0A0A" opacity="1.000000" stroke="none" 
	d="
M433.878845,324.078674 
	C434.343018,317.021454 434.343018,317.021454 442.841553,317.172211 
	C442.509857,324.424011 444.583557,324.409912 433.878845,324.078674 
z"/>
<path fill="#0D0808" opacity="1.000000" stroke="none" 
	d="
M293.249878,391.826447 
	C292.992035,391.968842 292.991760,391.554565 292.990875,391.347412 
	C293.464691,390.845276 293.939392,390.550293 294.727539,390.542786 
	C294.529846,391.114838 294.018768,391.399445 293.249878,391.826447 
z"/>
<path fill="#0B0907" opacity="1.000000" stroke="none" 
	d="
M564.293213,331.626099 
	C564.200378,331.244293 564.331970,330.700439 564.721924,330.034668 
	C564.826111,330.429871 564.671875,330.946960 564.293213,331.626099 
z"/>
<path fill="#132F60" opacity="1.000000" stroke="none" 
	d="
M886.012268,463.989532 
	C883.728577,467.490326 881.106506,465.969757 878.970947,464.095062 
	C876.455994,461.887268 876.369812,458.599030 878.967346,456.850586 
	C880.817993,455.604889 884.482056,455.147461 886.293274,456.175934 
	C889.346069,457.909332 889.675720,461.163055 886.268921,463.619629 
	C885.647461,462.532776 885.104675,461.651855 885.298035,460.984039 
	C886.087158,458.257751 885.169006,456.416229 882.429749,457.182800 
	C881.095764,457.556122 880.363403,460.079163 879.579590,461.288361 
	C882.504517,462.516602 884.258362,463.253052 886.012268,463.989532 
z"/>
<path fill="#EB9E2F" opacity="1.000000" stroke="none" 
	d="
M834.068359,365.959320 
	C825.053711,371.362061 816.082214,367.642792 814.124451,357.388489 
	C811.971008,346.109619 813.522095,335.283661 819.975464,324.942627 
	C826.576965,323.138885 832.241089,323.372162 835.710876,329.037964 
	C837.536133,332.018341 838.430481,335.794708 838.915527,339.325653 
	C840.139587,348.234680 837.738464,356.720337 835.020020,365.101868 
	C835.020020,365.101868 835.008911,365.004333 834.796326,365.033264 
	C834.411926,365.361237 834.240173,365.660278 834.068359,365.959320 
z"/>
<path fill="#0F0D0A" opacity="1.000000" stroke="none" 
	d="
M835.369446,365.107819 
	C837.738464,356.720337 840.139587,348.234680 838.915527,339.325653 
	C838.430481,335.794708 837.536133,332.018341 835.710876,329.037964 
	C832.241089,323.372162 826.576965,323.138885 820.284912,324.774414 
	C823.819336,318.485046 829.604675,315.697388 836.160217,317.016174 
	C841.513672,318.093140 845.326416,322.448975 846.097961,329.866730 
	C847.457336,342.936493 846.401123,355.497040 835.369446,365.107819 
z"/>
<path fill="#0F0D0A" opacity="1.000000" stroke="none" 
	d="
M834.346680,365.920471 
	C834.240173,365.660278 834.411926,365.361237 834.845215,365.029053 
	C834.946167,365.291138 834.785522,365.586365 834.346680,365.920471 
z"/>
<path fill="#0E0C08" opacity="1.000000" stroke="none" 
	d="
M830.930115,390.639465 
	C830.685425,390.815308 830.469360,390.758972 829.961914,390.537109 
	C829.876709,390.092957 830.150635,389.925049 830.735718,389.903870 
	C830.979004,389.939880 830.958740,390.407288 830.930115,390.639465 
z"/>
<path fill="#E79C2F" opacity="1.000000" stroke="none" 
	d="
M699.220764,369.722260 
	C694.913147,372.206512 690.392212,373.251343 686.177063,369.969696 
	C681.661987,366.454529 682.356689,361.546906 684.249695,356.344788 
	C689.591919,355.446655 694.292236,354.857697 699.005493,354.403534 
	C702.121887,354.103271 703.122986,355.568054 702.344299,358.593079 
	C701.452087,362.059418 700.772400,365.580475 700.000305,369.077759 
	C700.000305,369.077759 699.948120,368.980530 699.919128,369.135010 
	C699.687073,369.464722 699.463928,369.608978 699.220764,369.722260 
z"/>
<path fill="#13110E" opacity="1.000000" stroke="none" 
	d="
M700.345642,369.049072 
	C700.772400,365.580475 701.452087,362.059418 702.344299,358.593079 
	C703.122986,355.568054 702.121887,354.103271 699.005493,354.403534 
	C694.292236,354.857697 689.591919,355.446655 684.487183,356.008087 
	C687.154724,353.579651 689.874573,350.049133 693.370361,348.919159 
	C698.382690,347.299042 703.961182,347.430664 709.982422,346.735382 
	C709.792358,356.255585 707.657288,363.631195 700.345642,369.049072 
z"/>
<path fill="#13110E" opacity="1.000000" stroke="none" 
	d="
M699.428711,369.670532 
	C699.463928,369.608978 699.687073,369.464722 699.963867,369.102661 
	C700.067932,369.243713 699.934265,369.478027 699.428711,369.670532 
z"/>
<path fill="#F0AD4C" opacity="1.000000" stroke="none" 
	d="
M884.543823,377.997375 
	C888.776978,380.113342 889.826660,383.197632 887.318237,386.693695 
	C885.294128,389.514954 882.038757,389.964050 879.505920,387.499542 
	C878.223450,386.251648 877.372864,383.625336 877.691833,381.870331 
	C878.268250,378.699188 880.882507,377.425323 884.543823,377.997375 
M885.027344,384.930054 
	C885.868225,379.914490 885.491760,379.556702 880.361328,380.722687 
	C880.361328,382.265228 880.361328,383.851440 880.361328,385.275604 
	C881.998047,385.380493 883.401672,385.470428 885.027344,384.930054 
z"/>
<path fill="#D8232A" opacity="1.000000" stroke="none" 
	d="
M220.377869,335.958557 
	C220.606461,336.635071 220.554840,337.688690 220.203796,338.863403 
	C219.968826,338.101562 220.033249,337.218658 220.377869,335.958557 
z"/>
<path fill="#D8232A" opacity="1.000000" stroke="none" 
	d="
M250.609680,355.076660 
	C250.849716,355.594604 250.755844,356.243103 250.386169,357.111053 
	C250.165497,356.622772 250.220627,355.914978 250.609680,355.076660 
z"/>
<path fill="#D6272F" opacity="1.000000" stroke="none" 
	d="
M333.563599,375.690613 
	C331.886108,375.603851 330.392731,375.192566 328.517822,374.714264 
	C329.970764,362.585419 331.805267,350.523560 333.824951,338.083557 
	C336.979279,349.091888 345.370605,355.143494 355.368073,359.826324 
	C359.573669,361.796295 364.797546,363.105042 365.148376,369.643616 
	C357.794342,369.819244 350.403809,369.728882 343.029755,369.331604 
	C340.583374,369.199829 338.179535,368.278961 335.066620,367.559448 
	C334.606995,370.279999 334.177338,372.823029 333.563599,375.690613 
z"/>
<path fill="#D3242C" opacity="1.000000" stroke="none" 
	d="
M296.893097,369.450684 
	C294.111938,370.279846 291.330475,371.803711 288.549683,371.802460 
	C281.389526,371.799194 278.429504,365.829956 281.282776,356.311462 
	C286.687500,355.394897 291.435181,354.767731 296.201996,354.370026 
	C298.960297,354.139923 300.215424,355.550690 299.541718,358.374390 
	C298.660736,362.066956 297.776154,365.758636 296.893097,369.450684 
z"/>
<path fill="#110D0E" opacity="1.000000" stroke="none" 
	d="
M297.227203,369.302551 
	C297.776154,365.758636 298.660736,362.066956 299.541718,358.374390 
	C300.215424,355.550690 298.960297,354.139923 296.201996,354.370026 
	C291.435181,354.767731 286.687500,355.394897 281.542969,355.990723 
	C282.830139,351.202606 286.925934,349.256348 291.375946,348.441803 
	C296.348419,347.531616 301.466217,347.415527 307.211975,346.890717 
	C306.643982,356.241760 304.706909,363.802734 297.227203,369.302551 
z"/>
<path fill="#0A0707" opacity="1.000000" stroke="none" 
	d="
M478.967773,321.371674 
	C481.017181,317.195801 484.396912,314.711884 488.926575,313.974243 
	C499.105530,312.316589 504.341827,318.494232 502.916473,331.029114 
	C500.911652,331.029114 498.827209,331.029114 496.226257,330.610321 
	C493.175934,321.975525 489.700378,320.144562 478.967773,321.371674 
z"/>
<path fill="#D3242C" opacity="1.000000" stroke="none" 
	d="
M478.706909,321.560577 
	C489.700378,320.144562 493.175934,321.975525 495.761292,330.536804 
	C489.072968,330.882050 482.333099,330.882050 474.828735,330.882050 
	C476.170746,327.493896 477.308380,324.621674 478.706909,321.560577 
z"/>
<path fill="#050C19" opacity="1.000000" stroke="none" 
	d="
M886.006104,463.994751 
	C884.258362,463.253052 882.504517,462.516602 879.579590,461.288361 
	C880.363403,460.079163 881.095764,457.556122 882.429749,457.182800 
	C885.169006,456.416229 886.087158,458.257751 885.298035,460.984039 
	C885.104675,461.651855 885.647461,462.532776 885.920654,463.664093 
	C885.989563,464.012451 886.000000,464.000000 886.006104,463.994751 
z"/>
<path fill="#FBE9CF" opacity="1.000000" stroke="none" 
	d="
M884.916382,385.245209 
	C883.401672,385.470428 881.998047,385.380493 880.361328,385.275604 
	C880.361328,383.851440 880.361328,382.265228 880.361328,380.722687 
	C885.491760,379.556702 885.868225,379.914490 884.916382,385.245209 
z"/>
</svg>