<svg version="1.1" id="Layer_1" xmlns="http://www.w3.org/2000/svg" xmlns:xlink="http://www.w3.org/1999/xlink" x="0px" y="0px"
	 width="100%" viewBox="0 0 1892 501" enable-background="new 0 0 1892 501" xml:space="preserve">
<path fill="#FFFFFF" opacity="1.000000" stroke="none" 
	d="
M1893.000000,50.000000 
	C1893.000000,200.626785 1893.000000,351.253571 1893.000000,502.000000 
	C1511.974121,502.000000 1130.948364,502.000000 749.604126,501.680115 
	C752.781250,498.429108 757.106567,496.076935 759.626465,492.465179 
	C769.708618,478.014526 779.691101,463.454773 788.884399,448.429932 
	C849.281311,349.722351 909.504272,250.908157 969.675171,152.062561 
	C979.784607,135.455231 989.462280,118.581772 999.147644,101.721085 
	C1003.526550,94.098076 1000.793945,88.671822 992.074951,87.700996 
	C986.137268,87.039871 980.108215,86.925064 974.125244,86.996925 
	C956.988770,87.202744 939.853760,87.578911 922.720642,87.991402 
	C915.829529,88.157310 910.581604,90.742203 906.831482,97.163460 
	C900.210083,108.500954 892.687744,119.307617 885.776733,130.481339 
	C858.837097,174.037613 832.021545,217.670731 805.006592,261.180145 
	C803.733093,263.231232 800.351135,266.049622 799.074158,265.563080 
	C796.841797,264.712524 794.432007,261.785950 793.930969,259.351685 
	C790.982117,245.024292 788.375183,230.618713 786.002991,216.181992 
	C780.122498,180.393814 774.519165,144.560043 768.622070,108.774658 
	C766.083008,93.367241 758.288269,86.901962 742.644897,87.040375 
	C726.496826,87.183243 710.301880,88.573662 694.220947,87.699211 
	C681.384155,87.001183 674.308411,99.293617 676.166748,109.618698 
	C678.730225,123.861725 680.889221,138.178192 683.508179,152.410461 
	C693.952393,209.167267 704.408447,265.922302 715.076965,322.637177 
	C718.700439,341.900238 723.190125,361.001190 726.747620,380.275208 
	C727.480164,384.243896 726.383850,388.832947 725.107239,392.807404 
	C723.912354,396.527771 721.507324,399.904999 719.382080,403.273743 
	C703.587952,428.309296 687.622437,453.237823 672.002075,478.380890 
	C669.455017,482.480743 667.822327,487.351013 666.711426,492.086731 
	C665.477112,497.348419 668.091309,500.311249 673.487122,500.924286 
	C675.957642,501.205017 678.471375,501.105011 680.971680,501.383362 
	C680.977783,501.589050 681.000000,502.000000 681.000000,502.000000 
	C454.450653,502.000000 227.901321,502.000000 1.000000,502.000000 
	C1.000000,456.974792 1.000000,411.948639 1.306963,366.640381 
	C4.121583,373.778351 6.132892,375.306824 14.450596,375.308472 
	C35.090511,375.312592 55.730778,375.241669 76.370247,375.103058 
	C85.663559,375.040649 90.680016,370.951447 93.040833,361.783234 
	C97.390320,344.892029 101.505585,327.937561 106.086807,311.109772 
	C110.574074,294.627075 115.492020,278.261078 120.280846,261.861359 
	C121.856636,256.464905 125.978020,254.099930 131.214127,254.043762 
	C139.190292,253.958191 147.178757,254.184036 155.149323,254.552078 
	C193.624847,256.328674 231.675079,254.184433 268.560974,241.946503 
	C297.290710,232.414642 322.160828,217.083450 340.683105,192.578613 
	C356.545288,171.593018 364.712585,147.604919 367.969238,121.775345 
	C370.450226,102.098213 370.433655,82.497093 363.619110,63.564671 
	C351.488434,29.862759 325.753662,12.210121 292.240387,4.059117 
	C287.209808,2.835595 282.082550,2.009788 277.000000,0.999999 
	C539.359192,1.000000 801.718323,1.000000 1064.317261,1.279539 
	C1056.483276,3.423825 1052.191040,9.085320 1050.174072,16.580858 
	C1047.886108,25.083591 1046.024170,33.702202 1044.035278,42.283897 
	C1026.249878,119.022049 1008.482422,195.764359 990.698486,272.502869 
	C984.281738,300.191376 977.761536,327.856171 971.432556,355.564697 
	C968.283508,369.351746 973.151001,375.332642 987.152100,375.305542 
	C1006.625610,375.267883 1026.099365,375.231781 1045.572266,375.100769 
	C1055.184082,375.036133 1060.247925,371.017242 1062.695801,361.636932 
	C1065.842896,349.576935 1068.827393,337.474365 1071.987671,325.417847 
	C1076.916504,306.613342 1081.706543,287.767853 1086.990967,269.062744 
	C1090.757324,255.731567 1094.780273,253.189194 1108.476562,253.716263 
	C1108.642700,253.722656 1108.808105,253.752014 1108.974243,253.757843 
	C1121.284180,254.190140 1133.591919,254.902252 1145.904419,254.998535 
	C1180.247803,255.267090 1213.996582,251.364197 1246.311523,238.990387 
	C1278.634277,226.613617 1304.769531,206.610779 1321.041870,175.472931 
	C1335.749023,147.329987 1341.332764,117.154221 1338.002930,85.589310 
	C1334.857300,55.771645 1320.737427,32.499382 1294.691406,17.012205 
	C1275.731201,5.738307 1255.160278,0.734813 1233.113770,1.577242 
	C1233.104370,1.380292 1233.000000,1.000000 1233.000000,1.000000 
	C1453.000000,1.000000 1673.000000,1.000000 1893.000000,1.000000 
	C1893.000000,13.759487 1893.000000,26.418489 1892.603760,39.357613 
	C1891.411743,27.443373 1890.615967,15.249012 1889.825806,3.140893 
	C1886.302979,3.140893 1883.323730,3.140893 1880.211304,3.140893 
	C1876.288086,14.094872 1872.397583,24.957174 1868.297485,36.404819 
	C1864.345215,24.943514 1860.576538,14.014866 1856.901611,3.358009 
	C1853.409546,3.358009 1850.334717,3.358009 1847.182861,3.358009 
	C1846.095337,19.062634 1845.032837,34.404133 1843.967285,49.790985 
	C1846.832520,49.790985 1849.099487,49.790985 1851.637085,49.790985 
	C1852.280518,39.753120 1852.911743,29.903263 1853.543091,20.053406 
	C1857.559326,28.871691 1860.581787,37.645824 1863.366211,46.494843 
	C1864.184326,49.094860 1865.361328,50.875767 1868.161011,49.911762 
	C1869.686401,49.386604 1871.544678,48.116394 1872.087280,46.726974 
	C1875.668823,37.556675 1878.933594,28.262663 1882.301636,19.008940 
	C1882.595825,19.077675 1882.890015,19.146408 1883.184204,19.215143 
	C1883.792236,29.419861 1884.400146,39.624577 1885.018311,50.000000 
	C1888.044189,50.000000 1890.522095,50.000000 1893.000000,50.000000 
M530.332153,149.990540 
	C532.295776,150.348145 534.266113,150.672302 536.221863,151.068817 
	C548.247498,153.506958 555.390320,160.418076 556.072937,172.686844 
	C556.476624,179.941208 554.666504,187.410629 553.187744,194.647598 
	C552.084534,200.046082 548.439880,203.102036 542.463318,203.124863 
	C537.650696,203.143250 532.845825,203.935837 528.028076,204.090256 
	C509.557922,204.682266 491.086792,205.354187 472.610596,205.623657 
	C448.465515,205.975845 424.867950,209.166885 402.219452,217.920120 
	C376.993225,227.669586 357.050598,243.295547 346.442108,268.941223 
	C338.676361,287.714783 337.264191,307.371002 339.831116,327.311279 
	C343.192047,353.419647 357.770752,370.765961 382.906677,377.979401 
	C394.431366,381.286743 406.736115,382.970215 418.739746,383.268036 
	C438.755646,383.764618 458.641144,381.898010 476.662750,371.494385 
	C488.173218,364.849518 499.871399,358.529236 511.501801,352.093079 
	C514.797424,350.269318 518.150879,348.550140 522.260925,346.367096 
	C522.260925,349.063904 522.349731,350.831543 522.244507,352.587555 
	C521.915588,358.074554 521.552368,363.560211 521.127563,369.040588 
	C520.769104,373.665466 522.946533,376.058136 527.472656,375.997162 
	C547.450439,375.728149 567.439880,375.679688 587.398132,374.878662 
	C597.161560,374.486755 602.707153,369.051392 604.917297,359.352081 
	C609.570312,338.931488 614.244751,318.511047 618.496399,298.004669 
	C626.665100,258.604858 634.996826,219.229370 642.368286,179.677429 
	C646.462158,157.711517 641.169067,137.583603 625.155212,121.198975 
	C611.024353,106.740997 594.334961,96.520073 574.429260,91.983955 
	C551.529358,86.765511 528.312195,85.870064 504.938934,86.638214 
	C477.095306,87.553276 449.493134,90.468681 422.220184,96.188797 
	C414.074219,97.897301 407.794434,103.025887 406.188080,110.924385 
	C403.380920,124.727211 401.503571,138.792358 400.381836,152.839020 
	C399.631897,162.230118 407.552094,166.648056 416.364807,162.866943 
	C419.561249,161.495529 422.695618,159.713318 426.045349,159.012573 
	C439.051514,156.291840 452.054749,153.357330 465.203979,151.565964 
	C486.515228,148.662674 507.957642,147.310013 530.332153,149.990540 
M1483.461670,148.853821 
	C1490.235840,149.597000 1497.090576,149.913849 1503.766968,151.174683 
	C1516.528198,153.584641 1523.846802,162.348587 1523.871216,175.384979 
	C1523.881348,180.798615 1522.888184,186.294342 1521.708740,191.610229 
	C1520.137817,198.691315 1516.397583,203.722214 1508.067627,203.325165 
	C1505.600586,203.207581 1503.107056,203.869827 1500.618652,203.946442 
	C1477.489502,204.658524 1454.360962,205.404495 1431.228027,205.972900 
	C1409.734497,206.501038 1388.892578,210.395660 1368.877197,218.178207 
	C1343.500977,228.045212 1323.487061,244.020081 1313.315186,270.084808 
	C1305.180542,290.928864 1303.716553,312.581848 1308.395996,334.399902 
	C1312.200317,352.136749 1322.515015,365.357910 1338.726807,373.750458 
	C1350.752930,379.976166 1363.709106,382.711426 1377.111206,383.505157 
	C1400.556641,384.893707 1423.240967,382.770203 1444.096191,370.346588 
	C1455.512329,363.545959 1467.486328,357.679016 1479.238281,351.446533 
	C1482.401733,349.768768 1485.672729,348.293701 1489.696045,346.335480 
	C1489.696045,349.435608 1489.793213,351.532104 1489.676270,353.616577 
	C1489.415283,358.271454 1488.974487,362.916687 1488.739746,367.572540 
	C1488.377930,374.748016 1489.555298,376.038940 1496.888916,376.112732 
	C1506.552002,376.209991 1516.219116,376.258270 1525.880249,376.084625 
	C1535.363647,375.914185 1544.861328,375.710754 1554.316406,375.023285 
	C1564.067871,374.314331 1569.823486,369.200806 1572.098999,359.735321 
	C1574.663452,349.068085 1577.155151,338.377930 1579.391235,327.638000 
	C1589.488892,279.137604 1599.728882,230.664642 1609.408569,182.080353 
	C1613.847046,159.802353 1609.392578,139.262497 1593.439453,122.271019 
	C1579.335815,107.249176 1562.357544,96.776009 1542.136719,92.088814 
	C1519.435303,86.826653 1496.388916,85.886444 1473.169800,86.627373 
	C1445.156982,87.521271 1417.406494,90.445610 1389.953735,96.094933 
	C1381.339844,97.867546 1374.975952,103.226585 1373.306396,111.487198 
	C1370.582886,124.962959 1368.898438,138.720215 1367.857788,152.440765 
	C1367.101929,162.405243 1375.125000,166.912201 1384.297729,162.688797 
	C1387.153687,161.373795 1389.994629,159.875534 1393.005371,159.070587 
	C1422.313721,151.234940 1452.207397,148.328186 1483.461670,148.853821 
M1680.149902,98.683632 
	C1663.924438,172.206421 1647.598267,245.707260 1631.559448,319.270782 
	C1628.410889,333.711670 1626.080322,348.351898 1623.938843,362.983093 
	C1622.766479,370.992218 1627.529297,375.159393 1635.497681,374.444855 
	C1638.641602,374.162903 1641.819336,374.117767 1644.978516,374.166077 
	C1660.794067,374.407776 1676.607788,374.815430 1692.423950,374.971741 
	C1706.671387,375.112549 1706.502197,374.962006 1709.788818,361.106720 
	C1736.602173,248.069336 1763.484253,135.048233 1790.344971,22.022072 
	C1792.603638,12.517886 1786.383789,4.185169 1776.628784,4.007808 
	C1758.314941,3.674831 1739.998047,3.464035 1721.681519,3.330127 
	C1706.895752,3.222032 1701.388550,7.716983 1698.036499,22.125763 
	C1692.161377,47.379086 1686.249023,72.623711 1680.149902,98.683632 
M1818.000122,12.663294 
	C1818.000122,25.067823 1818.000122,37.472351 1818.000122,49.650940 
	C1821.061523,49.650940 1823.462280,49.650940 1826.254639,49.650940 
	C1826.254639,35.919937 1826.254639,22.535370 1826.254639,8.755064 
	C1831.082642,8.755064 1835.496704,8.755064 1839.838013,8.755064 
	C1839.838013,6.720448 1839.838013,5.094569 1839.838013,3.325586 
	C1827.817749,3.325586 1815.958984,3.325586 1803.930420,3.325586 
	C1804.042358,5.399216 1804.136108,7.136192 1804.236694,8.999907 
	C1808.188965,8.999907 1811.690186,8.798575 1815.141968,9.123568 
	C1816.166138,9.220000 1817.051025,10.797083 1818.000122,12.663294 
z"/>
<path fill="#01335E" opacity="1.000000" stroke="none" 
	d="
M276.536804,0.999999 
	C282.082550,2.009788 287.209808,2.835595 292.240387,4.059117 
	C325.753662,12.210121 351.488434,29.862759 363.619110,63.564671 
	C370.433655,82.497093 370.450226,102.098213 367.969238,121.775345 
	C364.712585,147.604919 356.545288,171.593018 340.683105,192.578613 
	C322.160828,217.083450 297.290710,232.414642 268.560974,241.946503 
	C231.675079,254.184433 193.624847,256.328674 155.149323,254.552078 
	C147.178757,254.184036 139.190292,253.958191 131.214127,254.043762 
	C125.978020,254.099930 121.856636,256.464905 120.280846,261.861359 
	C115.492020,278.261078 110.574074,294.627075 106.086807,311.109772 
	C101.505585,327.937561 97.390320,344.892029 93.040833,361.783234 
	C90.680016,370.951447 85.663559,375.040649 76.370247,375.103058 
	C55.730778,375.241669 35.090511,375.312592 14.450596,375.308472 
	C6.132892,375.306824 4.121583,373.778351 1.306963,366.179108 
	C1.000000,362.969391 1.000000,359.938812 1.363549,356.329865 
	C8.812150,325.348663 15.919214,294.950897 22.977995,264.541962 
	C41.750149,183.672241 60.573532,102.814247 79.162605,21.902447 
	C81.294395,12.623497 85.109840,5.173630 94.000000,1.000000 
	C106.354225,1.000000 118.708458,1.000000 131.814240,1.309737 
	C147.068268,1.717310 161.570724,1.815146 176.536346,1.942989 
	C191.349487,1.946177 205.699478,1.919357 220.513306,1.934243 
	C233.801895,1.982592 246.626846,2.022336 259.451172,1.951898 
	C260.969147,1.943560 262.483795,1.331958 264.000000,0.999999 
	C268.024536,1.000000 272.049103,1.000000 276.536804,0.999999 
M263.482147,146.909393 
	C278.658813,117.772278 267.970520,86.860519 238.508179,75.656914 
	C218.272491,67.961922 197.147171,67.631226 175.999832,70.137428 
	C169.105927,70.954437 163.539719,75.307045 161.800613,82.547050 
	C155.249680,109.818748 148.630478,137.081314 142.691803,164.489197 
	C140.353134,175.282639 144.562653,180.836365 155.573639,182.121826 
	C179.455795,184.909943 203.055313,183.188416 225.949142,175.280869 
	C241.250885,169.995605 254.490067,161.841873 263.482147,146.909393 
z"/>
<path fill="#2A6192" opacity="1.000000" stroke="none" 
	d="
M1233.123047,1.774192 
	C1255.160278,0.734813 1275.731201,5.738307 1294.691406,17.012205 
	C1320.737427,32.499382 1334.857300,55.771645 1338.002930,85.589310 
	C1341.332764,117.154221 1335.749023,147.329987 1321.041870,175.472931 
	C1304.769531,206.610779 1278.634277,226.613617 1246.311523,238.990387 
	C1213.996582,251.364197 1180.247803,255.267090 1145.904419,254.998535 
	C1133.591919,254.902252 1121.284180,254.190140 1108.974243,253.757843 
	C1108.808105,253.752014 1108.642700,253.722656 1108.476562,253.716263 
	C1094.780273,253.189194 1090.757324,255.731567 1086.990967,269.062744 
	C1081.706543,287.767853 1076.916504,306.613342 1071.987671,325.417847 
	C1068.827393,337.474365 1065.842896,349.576935 1062.695801,361.636932 
	C1060.247925,371.017242 1055.184082,375.036133 1045.572266,375.100769 
	C1026.099365,375.231781 1006.625610,375.267883 987.152100,375.305542 
	C973.151001,375.332642 968.283508,369.351746 971.432556,355.564697 
	C977.761536,327.856171 984.281738,300.191376 990.698486,272.502869 
	C1008.482422,195.764359 1026.249878,119.022049 1044.035278,42.283897 
	C1046.024170,33.702202 1047.886108,25.083591 1050.174072,16.580858 
	C1052.191040,9.085320 1056.483276,3.423825 1064.778564,1.279539 
	C1077.020874,1.000000 1089.041870,1.000000 1101.816895,1.306451 
	C1116.745850,1.702161 1130.920776,1.791420 1145.556885,1.917232 
	C1160.368042,1.921158 1174.718018,1.888532 1189.529541,1.908238 
	C1204.368530,1.898443 1218.745850,1.836318 1233.123047,1.774192 
M1134.583740,183.122253 
	C1147.525757,182.412491 1160.566284,182.463623 1173.385376,180.804428 
	C1190.203247,178.627701 1206.097046,173.152542 1219.626343,162.382584 
	C1235.670654,149.610474 1241.364258,132.675507 1238.826538,112.712395 
	C1236.438477,93.927200 1225.427979,82.045593 1208.121582,75.640694 
	C1187.817261,68.126320 1166.752686,67.601387 1145.602295,70.157036 
	C1138.234863,71.047279 1132.938354,75.880920 1130.986206,83.463348 
	C1126.470581,101.002983 1121.689331,118.484818 1117.688232,136.142456 
	C1115.164062,147.281555 1113.620728,158.664429 1112.102051,170.000198 
	C1111.395386,175.275253 1114.586182,179.120316 1119.447144,180.605759 
	C1123.999756,181.996964 1128.878906,182.320129 1134.583740,183.122253 
z"/>
<path fill="#01345E" opacity="1.000000" stroke="none" 
	d="
M680.965515,501.177673 
	C678.471375,501.105011 675.957642,501.205017 673.487122,500.924286 
	C668.091309,500.311249 665.477112,497.348419 666.711426,492.086731 
	C667.822327,487.351013 669.455017,482.480743 672.002075,478.380890 
	C687.622437,453.237823 703.587952,428.309296 719.382080,403.273743 
	C721.507324,399.904999 723.912354,396.527771 725.107239,392.807404 
	C726.383850,388.832947 727.480164,384.243896 726.747620,380.275208 
	C723.190125,361.001190 718.700439,341.900238 715.076965,322.637177 
	C704.408447,265.922302 693.952393,209.167267 683.508179,152.410461 
	C680.889221,138.178192 678.730225,123.861725 676.166748,109.618698 
	C674.308411,99.293617 681.384155,87.001183 694.220947,87.699211 
	C710.301880,88.573662 726.496826,87.183243 742.644897,87.040375 
	C758.288269,86.901962 766.083008,93.367241 768.622070,108.774658 
	C774.519165,144.560043 780.122498,180.393814 786.002991,216.181992 
	C788.375183,230.618713 790.982117,245.024292 793.930969,259.351685 
	C794.432007,261.785950 796.841797,264.712524 799.074158,265.563080 
	C800.351135,266.049622 803.733093,263.231232 805.006592,261.180145 
	C832.021545,217.670731 858.837097,174.037613 885.776733,130.481339 
	C892.687744,119.307617 900.210083,108.500954 906.831482,97.163460 
	C910.581604,90.742203 915.829529,88.157310 922.720642,87.991402 
	C939.853760,87.578911 956.988770,87.202744 974.125244,86.996925 
	C980.108215,86.925064 986.137268,87.039871 992.074951,87.700996 
	C1000.793945,88.671822 1003.526550,94.098076 999.147644,101.721085 
	C989.462280,118.581772 979.784607,135.455231 969.675171,152.062561 
	C909.504272,250.908157 849.281311,349.722351 788.884399,448.429932 
	C779.691101,463.454773 769.708618,478.014526 759.626465,492.465179 
	C757.106567,496.076935 752.781250,498.429108 749.142944,501.680115 
	C741.645752,502.000000 734.291504,502.000000 726.265381,501.614899 
	C710.717468,501.212402 695.841492,501.195038 680.965515,501.177673 
z"/>
<path fill="#FEFEFF" opacity="1.000000" stroke="none" 
	d="
M93.531342,1.000000 
	C85.109840,5.173630 81.294395,12.623497 79.162605,21.902447 
	C60.573532,102.814247 41.750149,183.672241 22.977995,264.541962 
	C15.919214,294.950897 8.812150,325.348663 1.363549,355.875763 
	C1.000000,237.782288 1.000000,119.564583 1.000000,1.000000 
	C31.686689,1.000000 62.374687,1.000000 93.531342,1.000000 
z"/>
<path fill="#073861" opacity="1.000000" stroke="none" 
	d="
M1893.000000,49.545891 
	C1890.522095,50.000000 1888.044189,50.000000 1885.018311,50.000000 
	C1884.400146,39.624577 1883.792236,29.419861 1883.184204,19.215143 
	C1882.890015,19.146408 1882.595825,19.077675 1882.301636,19.008940 
	C1878.933594,28.262663 1875.668823,37.556675 1872.087280,46.726974 
	C1871.544678,48.116394 1869.686401,49.386604 1868.161011,49.911762 
	C1865.361328,50.875767 1864.184326,49.094860 1863.366211,46.494843 
	C1860.581787,37.645824 1857.559326,28.871691 1853.543091,20.053406 
	C1852.911743,29.903263 1852.280518,39.753120 1851.637085,49.790985 
	C1849.099487,49.790985 1846.832520,49.790985 1843.967285,49.790985 
	C1845.032837,34.404133 1846.095337,19.062634 1847.182861,3.358009 
	C1850.334717,3.358009 1853.409546,3.358009 1856.901611,3.358009 
	C1860.576538,14.014866 1864.345215,24.943514 1868.297485,36.404819 
	C1872.397583,24.957174 1876.288086,14.094872 1880.211304,3.140893 
	C1883.323730,3.140893 1886.302979,3.140893 1889.825806,3.140893 
	C1890.615967,15.249012 1891.411743,27.443373 1892.603760,39.818867 
	C1893.000000,43.030594 1893.000000,46.061188 1893.000000,49.545891 
z"/>
<path fill="#D7DFE6" opacity="1.000000" stroke="none" 
	d="
M680.971680,501.383362 
	C695.841492,501.195038 710.717468,501.212402 725.796753,501.614899 
	C711.312439,502.000000 696.624878,502.000000 681.468628,502.000000 
	C681.000000,502.000000 680.977783,501.589050 680.971680,501.383362 
z"/>
<path fill="#A9C0D2" opacity="1.000000" stroke="none" 
	d="
M1233.113770,1.577242 
	C1218.745850,1.836318 1204.368530,1.898443 1189.506104,1.694937 
	C1189.020996,1.429304 1189.000000,1.000000 1189.000000,1.000000 
	C1203.354248,1.000000 1217.708496,1.000000 1232.531372,1.000000 
	C1233.000000,1.000000 1233.104370,1.380292 1233.113770,1.577242 
z"/>
<path fill="#7F9FBC" opacity="1.000000" stroke="none" 
	d="
M1188.531372,1.000000 
	C1189.000000,1.000000 1189.020996,1.429304 1189.044434,1.642605 
	C1174.718018,1.888532 1160.368042,1.921158 1145.527100,1.698080 
	C1145.036011,1.442377 1145.000000,1.000000 1145.000000,1.000000 
	C1159.354248,1.000000 1173.708496,1.000000 1188.531372,1.000000 
z"/>
<path fill="#9AADBE" opacity="1.000000" stroke="none" 
	d="
M263.531342,0.999999 
	C262.483795,1.331958 260.969147,1.943560 259.451172,1.951898 
	C246.626846,2.022336 233.801895,1.982592 220.483032,1.712130 
	C219.988922,1.448311 220.000000,1.000000 220.000000,1.000000 
	C234.354233,1.000000 248.708450,1.000000 263.531342,0.999999 
z"/>
<path fill="#67859F" opacity="1.000000" stroke="none" 
	d="
M219.531342,1.000000 
	C220.000000,1.000000 219.988922,1.448311 220.019196,1.670424 
	C205.699478,1.919357 191.349487,1.946177 176.503784,1.716053 
	C176.008057,1.459110 176.000000,1.000000 176.000000,1.000000 
	C190.354233,1.000000 204.708450,1.000000 219.531342,1.000000 
z"/>
<path fill="#345C7F" opacity="1.000000" stroke="none" 
	d="
M175.531342,1.000000 
	C176.000000,1.000000 176.008057,1.459110 176.040619,1.686046 
	C161.570724,1.815146 147.068268,1.717310 132.282898,1.309737 
	C146.354233,1.000000 160.708450,1.000000 175.531342,1.000000 
z"/>
<path fill="#5482A6" opacity="1.000000" stroke="none" 
	d="
M1144.531372,1.000000 
	C1145.000000,1.000000 1145.036011,1.442377 1145.065796,1.661528 
	C1130.920776,1.791420 1116.745850,1.702161 1102.285522,1.306451 
	C1116.020874,1.000000 1130.041870,1.000000 1144.531372,1.000000 
z"/>
<path fill="#01345E" opacity="1.000000" stroke="none" 
	d="
M529.893311,149.945435 
	C507.957642,147.310013 486.515228,148.662674 465.203979,151.565964 
	C452.054749,153.357330 439.051514,156.291840 426.045349,159.012573 
	C422.695618,159.713318 419.561249,161.495529 416.364807,162.866943 
	C407.552094,166.648056 399.631897,162.230118 400.381836,152.839020 
	C401.503571,138.792358 403.380920,124.727211 406.188080,110.924385 
	C407.794434,103.025887 414.074219,97.897301 422.220184,96.188797 
	C449.493134,90.468681 477.095306,87.553276 504.938934,86.638214 
	C528.312195,85.870064 551.529358,86.765511 574.429260,91.983955 
	C594.334961,96.520073 611.024353,106.740997 625.155212,121.198975 
	C641.169067,137.583603 646.462158,157.711517 642.368286,179.677429 
	C634.996826,219.229370 626.665100,258.604858 618.496399,298.004669 
	C614.244751,318.511047 609.570312,338.931488 604.917297,359.352081 
	C602.707153,369.051392 597.161560,374.486755 587.398132,374.878662 
	C567.439880,375.679688 547.450439,375.728149 527.472656,375.997162 
	C522.946533,376.058136 520.769104,373.665466 521.127563,369.040588 
	C521.552368,363.560211 521.915588,358.074554 522.244507,352.587555 
	C522.349731,350.831543 522.260925,349.063904 522.260925,346.367096 
	C518.150879,348.550140 514.797424,350.269318 511.501801,352.093079 
	C499.871399,358.529236 488.173218,364.849518 476.662750,371.494385 
	C458.641144,381.898010 438.755646,383.764618 418.739746,383.268036 
	C406.736115,382.970215 394.431366,381.286743 382.906677,377.979401 
	C357.770752,370.765961 343.192047,353.419647 339.831116,327.311279 
	C337.264191,307.371002 338.676361,287.714783 346.442108,268.941223 
	C357.050598,243.295547 376.993225,227.669586 402.219452,217.920120 
	C424.867950,209.166885 448.465515,205.975845 472.610596,205.623657 
	C491.086792,205.354187 509.557922,204.682266 528.028076,204.090256 
	C532.845825,203.935837 537.650696,203.143250 542.463318,203.124863 
	C548.439880,203.102036 552.084534,200.046082 553.187744,194.647598 
	C554.666504,187.410629 556.476624,179.941208 556.072937,172.686844 
	C555.390320,160.418076 548.247498,153.506958 536.221863,151.068817 
	C534.266113,150.672302 532.295776,150.348145 529.893311,149.945435 
M499.663330,322.293945 
	C512.484741,318.659668 522.154297,310.902863 528.522034,299.323456 
	C536.275208,285.224640 539.627625,269.860382 540.019531,253.878326 
	C540.193298,246.792404 537.099854,243.578217 529.889648,244.077301 
	C509.845154,245.464813 489.749237,246.691910 469.842651,249.281677 
	C456.951080,250.958832 444.667847,255.739761 435.114960,265.285767 
	C423.196259,277.195892 422.653351,291.639404 427.427338,306.552795 
	C431.753143,320.066132 442.750336,325.037781 455.895752,326.166443 
	C470.418335,327.413361 484.767303,326.076294 499.663330,322.293945 
z"/>
<path fill="#2A6292" opacity="1.000000" stroke="none" 
	d="
M1482.969482,148.800995 
	C1452.207397,148.328186 1422.313721,151.234940 1393.005371,159.070587 
	C1389.994629,159.875534 1387.153687,161.373795 1384.297729,162.688797 
	C1375.125000,166.912201 1367.101929,162.405243 1367.857788,152.440765 
	C1368.898438,138.720215 1370.582886,124.962959 1373.306396,111.487198 
	C1374.975952,103.226585 1381.339844,97.867546 1389.953735,96.094933 
	C1417.406494,90.445610 1445.156982,87.521271 1473.169800,86.627373 
	C1496.388916,85.886444 1519.435303,86.826653 1542.136719,92.088814 
	C1562.357544,96.776009 1579.335815,107.249176 1593.439453,122.271019 
	C1609.392578,139.262497 1613.847046,159.802353 1609.408569,182.080353 
	C1599.728882,230.664642 1589.488892,279.137604 1579.391235,327.638000 
	C1577.155151,338.377930 1574.663452,349.068085 1572.098999,359.735321 
	C1569.823486,369.200806 1564.067871,374.314331 1554.316406,375.023285 
	C1544.861328,375.710754 1535.363647,375.914185 1525.880249,376.084625 
	C1516.219116,376.258270 1506.552002,376.209991 1496.888916,376.112732 
	C1489.555298,376.038940 1488.377930,374.748016 1488.739746,367.572540 
	C1488.974487,362.916687 1489.415283,358.271454 1489.676270,353.616577 
	C1489.793213,351.532104 1489.696045,349.435608 1489.696045,346.335480 
	C1485.672729,348.293701 1482.401733,349.768768 1479.238281,351.446533 
	C1467.486328,357.679016 1455.512329,363.545959 1444.096191,370.346588 
	C1423.240967,382.770203 1400.556641,384.893707 1377.111206,383.505157 
	C1363.709106,382.711426 1350.752930,379.976166 1338.726807,373.750458 
	C1322.515015,365.357910 1312.200317,352.136749 1308.395996,334.399902 
	C1303.716553,312.581848 1305.180542,290.928864 1313.315186,270.084808 
	C1323.487061,244.020081 1343.500977,228.045212 1368.877197,218.178207 
	C1388.892578,210.395660 1409.734497,206.501038 1431.228027,205.972900 
	C1454.360962,205.404495 1477.489502,204.658524 1500.618652,203.946442 
	C1503.107056,203.869827 1505.600586,203.207581 1508.067627,203.325165 
	C1516.397583,203.722214 1520.137817,198.691315 1521.708740,191.610229 
	C1522.888184,186.294342 1523.881348,180.798615 1523.871216,175.384979 
	C1523.846802,162.348587 1516.528198,153.584641 1503.766968,151.174683 
	C1497.090576,149.913849 1490.235840,149.597000 1482.969482,148.800995 
M1503.070923,288.484833 
	C1505.303955,277.949097 1508.047607,267.488770 1509.618164,256.855194 
	C1511.023804,247.337234 1507.208618,243.760986 1497.447754,244.020386 
	C1488.638062,244.254517 1479.824097,244.575012 1471.031982,245.157486 
	C1454.587891,246.246857 1438.213745,247.880432 1422.676636,253.977249 
	C1401.015991,262.477051 1392.320557,276.589844 1394.969727,298.861938 
	C1396.556519,312.202179 1404.140869,321.119843 1417.115967,324.738708 
	C1428.093994,327.800568 1439.242188,326.581390 1450.348877,325.804016 
	C1475.109497,324.070953 1494.005249,313.849335 1503.070923,288.484833 
z"/>
<path fill="#2A6292" opacity="1.000000" stroke="none" 
	d="
M1680.250977,98.277802 
	C1686.249023,72.623711 1692.161377,47.379086 1698.036499,22.125763 
	C1701.388550,7.716983 1706.895752,3.222032 1721.681519,3.330127 
	C1739.998047,3.464035 1758.314941,3.674831 1776.628784,4.007808 
	C1786.383789,4.185169 1792.603638,12.517886 1790.344971,22.022072 
	C1763.484253,135.048233 1736.602173,248.069336 1709.788818,361.106720 
	C1706.502197,374.962006 1706.671387,375.112549 1692.423950,374.971741 
	C1676.607788,374.815430 1660.794067,374.407776 1644.978516,374.166077 
	C1641.819336,374.117767 1638.641602,374.162903 1635.497681,374.444855 
	C1627.529297,375.159393 1622.766479,370.992218 1623.938843,362.983093 
	C1626.080322,348.351898 1628.410889,333.711670 1631.559448,319.270782 
	C1647.598267,245.707260 1663.924438,172.206421 1680.250977,98.277802 
z"/>
<path fill="#00335D" opacity="1.000000" stroke="none" 
	d="
M1818.000000,12.179498 
	C1817.051025,10.797083 1816.166138,9.220000 1815.141968,9.123568 
	C1811.690186,8.798575 1808.188965,8.999907 1804.236694,8.999907 
	C1804.136108,7.136192 1804.042358,5.399216 1803.930420,3.325586 
	C1815.958984,3.325586 1827.817749,3.325586 1839.838013,3.325586 
	C1839.838013,5.094569 1839.838013,6.720448 1839.838013,8.755064 
	C1835.496704,8.755064 1831.082642,8.755064 1826.254639,8.755064 
	C1826.254639,22.535370 1826.254639,35.919937 1826.254639,49.650940 
	C1823.462280,49.650940 1821.061523,49.650940 1818.000122,49.650940 
	C1818.000122,37.472351 1818.000122,25.067823 1818.000000,12.179498 
z"/>
<path fill="#FEFEFE" opacity="1.000000" stroke="none" 
	d="
M263.288605,147.223816 
	C254.490067,161.841873 241.250885,169.995605 225.949142,175.280869 
	C203.055313,183.188416 179.455795,184.909943 155.573639,182.121826 
	C144.562653,180.836365 140.353134,175.282639 142.691803,164.489197 
	C148.630478,137.081314 155.249680,109.818748 161.800613,82.547050 
	C163.539719,75.307045 169.105927,70.954437 175.999832,70.137428 
	C197.147171,67.631226 218.272491,67.961922 238.508179,75.656914 
	C267.970520,86.860519 278.658813,117.772278 263.288605,147.223816 
z"/>
<path fill="#FEFEFF" opacity="1.000000" stroke="none" 
	d="
M1134.098999,183.117783 
	C1128.878906,182.320129 1123.999756,181.996964 1119.447144,180.605759 
	C1114.586182,179.120316 1111.395386,175.275253 1112.102051,170.000198 
	C1113.620728,158.664429 1115.164062,147.281555 1117.688232,136.142456 
	C1121.689331,118.484818 1126.470581,101.002983 1130.986206,83.463348 
	C1132.938354,75.880920 1138.234863,71.047279 1145.602295,70.157036 
	C1166.752686,67.601387 1187.817261,68.126320 1208.121582,75.640694 
	C1225.427979,82.045593 1236.438477,93.927200 1238.826538,112.712395 
	C1241.364258,132.675507 1235.670654,149.610474 1219.626343,162.382584 
	C1206.097046,173.152542 1190.203247,178.627701 1173.385376,180.804428 
	C1160.566284,182.463623 1147.525757,182.412491 1134.098999,183.117783 
z"/>
<path fill="#FEFEFE" opacity="1.000000" stroke="none" 
	d="
M499.291321,322.448608 
	C484.767303,326.076294 470.418335,327.413361 455.895752,326.166443 
	C442.750336,325.037781 431.753143,320.066132 427.427338,306.552795 
	C422.653351,291.639404 423.196259,277.195892 435.114960,265.285767 
	C444.667847,255.739761 456.951080,250.958832 469.842651,249.281677 
	C489.749237,246.691910 509.845154,245.464813 529.889648,244.077301 
	C537.099854,243.578217 540.193298,246.792404 540.019531,253.878326 
	C539.627625,269.860382 536.275208,285.224640 528.522034,299.323456 
	C522.154297,310.902863 512.484741,318.659668 499.291321,322.448608 
z"/>
<path fill="#FEFEFE" opacity="1.000000" stroke="none" 
	d="
M1502.962402,288.860718 
	C1494.005249,313.849335 1475.109497,324.070953 1450.348877,325.804016 
	C1439.242188,326.581390 1428.093994,327.800568 1417.115967,324.738708 
	C1404.140869,321.119843 1396.556519,312.202179 1394.969727,298.861938 
	C1392.320557,276.589844 1401.015991,262.477051 1422.676636,253.977249 
	C1438.213745,247.880432 1454.587891,246.246857 1471.031982,245.157486 
	C1479.824097,244.575012 1488.638062,244.254517 1497.447754,244.020386 
	C1507.208618,243.760986 1511.023804,247.337234 1509.618164,256.855194 
	C1508.047607,267.488770 1505.303955,277.949097 1502.962402,288.860718 
z"/>
</svg>