<?xml version="1.0" encoding="utf-8"?>
<!-- Generator: Adobe Illustrator 28.3.0, SVG Export Plug-In . SVG Version: 6.00 Build 0)  -->
<svg version="1.1" id="Layer_1" xmlns="http://www.w3.org/2000/svg" xmlns:xlink="http://www.w3.org/1999/xlink" x="0px" y="0px"
	 viewBox="0 0 826.3 420" style="enable-background:new 0 0 826.3 420;" xml:space="preserve">
<style type="text/css">
	.st0{fill:url(#SVGID_1_);}
	.st1{fill:#E10505;}
	.st2{fill:url(#SVGID_00000043428108983086642220000007037810674668384688_);}
</style>
<linearGradient id="SVGID_1_" gradientUnits="userSpaceOnUse" x1="61.7432" y1="334.6197" x2="33.8035" y2="397.3732">
	<stop  offset="0" style="stop-color:#7A0015"/>
	<stop  offset="1" style="stop-color:#A51A15"/>
</linearGradient>
<path class="st0" d="M57,404.6h10.2V337h-43v34.7C24.1,389.9,38.8,404.6,57,404.6z"/>
<path class="st1" d="M24.1,359c0,0,5-22,45-22s720.1,0,720.1,0c7.4,0,12-8.1,8.2-14.5l-79.1-131c-6.2-10.3-6.2-23.3,0-33.6l79.1-131
	c3.8-6.4-0.7-14.5-8.2-14.5H56.9c-18.1,0-32.8,14.7-32.8,32.8V359z"/>
<linearGradient id="SVGID_00000029728346772780674280000014227880516582444184_" gradientUnits="userSpaceOnUse" x1="69.1368" y1="174.747" x2="129.1368" y2="174.747">
	<stop  offset="4.376161e-03" style="stop-color:#FFFFFF;stop-opacity:0"/>
	<stop  offset="0.2167" style="stop-color:#FFFFFF;stop-opacity:0.2"/>
	<stop  offset="0.5333" style="stop-color:#FFFFFF;stop-opacity:0.5"/>
	<stop  offset="0.9" style="stop-color:#FFFFFF;stop-opacity:0.2"/>
	<stop  offset="1" style="stop-color:#FFFFFF;stop-opacity:0"/>
</linearGradient>
<rect x="69.1" y="12.5" style="fill:url(#SVGID_00000029728346772780674280000014227880516582444184_);" width="60" height="324.5"/>
</svg>
