<svg version="1.1" id="Layer_1" xmlns="http://www.w3.org/2000/svg" xmlns:xlink="http://www.w3.org/1999/xlink" x="0px" y="0px"
	 width="100%" viewBox="0 0 2048 1313" enable-background="new 0 0 2048 1313" xml:space="preserve">
<path fill="#0E4595" opacity="1.000000" stroke="none" 
	d="
M1.000003,1232.000000 
	C1.000000,849.298401 1.000000,466.596832 1.380192,83.530945 
	C3.162118,79.554558 4.909702,76.034691 5.901696,72.313408 
	C9.063995,60.450615 14.744352,49.818970 22.798592,40.802292 
	C29.975677,32.767586 37.662292,24.845528 46.376209,18.628937 
	C54.055134,13.150718 63.457054,10.081953 72.114464,5.983720 
	C75.721153,4.276388 79.370209,2.658540 83.000000,1.000000 
	C710.701599,1.000000 1338.403198,1.000000 1966.468994,1.380161 
	C1970.445312,3.162045 1973.965210,4.909569 1977.686523,5.901599 
	C1989.549316,9.064078 2000.181030,14.744426 2009.197754,22.798788 
	C2017.232300,29.975899 2025.154175,37.662659 2031.370850,46.376492 
	C2036.848999,54.055389 2039.917969,63.457077 2044.016235,72.114372 
	C2045.723755,75.721062 2047.341553,79.370155 2049.000000,82.999992 
	C2049.000000,465.701569 2049.000000,848.403137 2048.619629,1231.469238 
	C2046.837769,1235.445679 2045.091919,1238.965820 2044.098022,1242.686890 
	C2040.930420,1254.547119 2035.260864,1265.184326 2027.200684,1274.199097 
	C2020.019653,1282.230713 2012.336792,1290.155640 2003.623047,1296.372192 
	C1995.944580,1301.850342 1986.542725,1304.918701 1977.885498,1309.016479 
	C1974.278687,1310.723755 1970.629761,1312.341553 1967.000000,1314.000000 
	C1339.298462,1314.000000 711.596863,1314.000000 83.530930,1313.619873 
	C79.554520,1311.838013 76.034500,1310.091309 72.313324,1309.098755 
	C60.451530,1305.935059 49.819351,1300.256348 40.802536,1292.202148 
	C32.767414,1285.024902 24.842728,1277.340088 18.625914,1268.626099 
	C13.147637,1260.947266 10.080906,1251.543823 5.983611,1242.885742 
	C4.276656,1239.278809 2.658523,1235.629883 1.000003,1232.000000 
M498.017761,677.967529 
	C498.017761,677.967529 498.194061,678.042603 498.384094,677.197754 
	C497.900665,674.919373 497.409271,672.642639 496.935028,670.362366 
	C481.578827,596.527649 466.279877,522.680969 450.836090,448.864594 
	C446.102386,426.239105 432.778870,411.218872 409.972717,405.966034 
	C401.127380,403.928680 391.862457,402.857361 382.783478,402.825531 
	C311.807434,402.576599 240.830093,402.687622 169.853165,402.687653 
	C160.641846,402.687653 160.635712,402.686920 159.346008,411.656036 
	C159.280350,412.112762 159.473602,412.606720 159.582428,413.320190 
	C160.968292,413.729401 162.366791,414.199036 163.793610,414.555298 
	C194.859360,422.311951 225.356445,431.897858 254.621460,444.903778 
	C272.537476,452.865997 289.871704,462.137299 307.646790,471.646271 
	C308.105743,473.420227 308.535614,475.202332 309.027679,476.967041 
	C349.402863,621.760986 389.798309,766.549255 430.078430,911.369629 
	C431.145294,915.205383 432.918610,916.048035 436.652222,916.031311 
	C481.146118,915.832397 525.642822,915.588318 570.133362,915.976196 
	C577.722900,916.042419 580.938965,913.549927 583.811157,906.845276 
	C651.929871,747.832458 720.281738,588.919556 788.586792,429.986511 
	C792.385376,421.147919 796.147400,412.293640 800.132996,402.963043 
	C798.086487,402.848816 796.642883,402.698212 795.199280,402.697815 
	C748.868591,402.685455 702.537842,402.735901 656.207581,402.591766 
	C652.679016,402.580811 651.303223,403.877869 650.132507,406.910522 
	C640.121094,432.844116 629.980896,458.728027 619.854309,484.617065 
	C585.527039,572.376038 551.191101,660.131531 516.841187,747.881653 
	C516.356934,749.118835 515.650452,750.269043 514.568665,752.406128 
	C511.873199,739.257812 509.521698,727.339050 506.969727,715.463440 
	C504.350037,703.272522 501.534424,691.123657 498.791199,678.438110 
	C498.558929,678.222656 498.326630,678.007263 498.017761,677.967529 
M1443.673462,790.147156 
	C1425.194824,831.955139 1406.716187,873.763062 1388.069458,915.951233 
	C1389.827637,916.101318 1390.798218,916.256470 1391.768799,916.256714 
	C1438.267578,916.268982 1484.766357,916.233215 1531.264771,916.345520 
	C1534.402588,916.353149 1535.544434,915.092163 1536.550659,912.426270 
	C1545.250977,889.373474 1554.130615,866.388367 1562.809570,843.327637 
	C1563.888428,840.460876 1565.110229,839.118958 1568.434448,839.130371 
	C1625.595215,839.327026 1682.756348,839.415955 1739.917480,839.414795 
	C1743.026733,839.414734 1744.296387,840.429077 1744.921143,843.397156 
	C1747.527222,855.780334 1750.324341,868.123352 1753.056152,880.480103 
	C1755.672119,892.311707 1758.294189,904.141968 1760.893677,915.883484 
	C1804.408936,915.883484 1847.458862,915.883484 1890.840698,915.883484 
	C1853.040161,744.628357 1815.336426,573.811035 1777.644043,403.045624 
	C1776.520630,402.884155 1775.873657,402.708740 1775.226929,402.710052 
	C1736.897827,402.788788 1698.562744,402.510773 1660.241821,403.121216 
	C1639.160156,403.457092 1619.967773,409.798798 1606.692017,427.487701 
	C1601.651733,434.203247 1597.576904,441.842957 1594.162598,449.549072 
	C1543.986328,562.798828 1493.995850,676.130920 1443.673462,790.147156 
M1347.136475,860.643372 
	C1374.817627,834.455994 1391.187866,802.584717 1395.617310,764.629272 
	C1400.193604,725.417236 1389.897461,691.162476 1362.261597,662.454834 
	C1345.668579,645.218262 1326.319458,631.728027 1305.294312,620.664185 
	C1285.409546,610.200562 1264.875366,600.949829 1245.179443,590.156982 
	C1233.580566,583.801086 1222.162476,576.502991 1212.252197,567.815796 
	C1195.733887,553.336243 1196.433594,534.002686 1212.721558,519.273499 
	C1225.364502,507.840393 1241.043945,503.139099 1257.415405,501.213257 
	C1294.835815,496.811340 1331.561523,500.631378 1367.300659,512.681458 
	C1377.599854,516.153992 1387.620972,520.451477 1398.155640,524.519897 
	C1404.426270,487.731323 1410.686035,451.006104 1417.030396,413.785004 
	C1412.939697,412.351318 1409.087646,410.895996 1405.170410,409.644379 
	C1353.942261,393.275391 1301.550781,388.720856 1248.215454,394.624542 
	C1209.943604,398.860840 1173.322144,408.790070 1139.655151,428.010223 
	C1106.823242,446.753632 1080.511841,471.832489 1065.851929,507.365753 
	C1053.393677,537.562439 1050.030029,568.600708 1061.236816,599.980896 
	C1070.575562,626.130249 1088.746094,645.659180 1110.278198,662.371643 
	C1133.210938,680.171326 1159.049561,692.871643 1185.137207,705.200073 
	C1203.356201,713.809998 1221.513550,722.675659 1236.544189,736.546387 
	C1242.643311,742.174866 1247.320557,748.778931 1249.165161,757.073486 
	C1252.649536,772.740479 1246.050293,788.143066 1231.126099,798.367981 
	C1213.906372,810.165771 1194.282837,814.295044 1173.887573,815.182617 
	C1128.289429,817.166870 1084.275024,809.933960 1042.248657,791.711487 
	C1033.734863,788.019836 1025.207275,784.359680 1016.442139,780.579895 
	C1015.999084,782.642761 1015.592468,784.246399 1015.314880,785.872070 
	C1009.905823,817.547729 1004.477173,849.220093 999.151062,880.909729 
	C998.336121,885.758423 995.975525,891.957275 998.017639,895.231689 
	C1000.136475,898.629089 1006.639038,899.548584 1011.391113,901.009338 
	C1083.440186,923.156128 1156.639038,929.460083 1230.969727,915.377869 
	C1274.002930,907.224976 1313.615601,891.031921 1347.136475,860.643372 
M928.226196,814.794678 
	C928.341736,814.308105 928.485046,813.826355 928.568909,813.334351 
	C941.711426,736.203430 954.841064,659.070312 967.991272,581.940674 
	C976.244995,533.530273 984.538513,485.126648 992.794006,436.716553 
	C994.689697,425.599915 996.502136,414.469055 998.388794,403.129089 
	C951.397644,403.129089 904.884399,403.129089 858.351624,403.129089 
	C829.159363,574.457764 800.039673,745.360596 770.866089,916.579773 
	C817.882935,916.579773 864.147644,916.579773 910.908997,916.579773 
	C916.652344,882.848022 922.373352,849.247253 928.226196,814.794678 
z"/>
<path fill="#000000" opacity="1.000000" stroke="none" 
	d="
M82.531342,1.000000 
	C79.370209,2.658540 75.721153,4.276388 72.114464,5.983720 
	C63.457054,10.081953 54.055134,13.150718 46.376209,18.628937 
	C37.662292,24.845528 29.975677,32.767586 22.798592,40.802292 
	C14.744352,49.818970 9.063995,60.450615 5.901696,72.313408 
	C4.909702,76.034691 3.162118,79.554558 1.380192,83.083313 
	C1.000000,55.739769 1.000000,28.479540 1.000000,1.000000 
	C28.020498,1.000000 55.041592,1.000000 82.531342,1.000000 
z"/>
<path fill="#000000" opacity="1.000000" stroke="none" 
	d="
M2049.000000,82.531334 
	C2047.341553,79.370155 2045.723755,75.721062 2044.016235,72.114372 
	C2039.917969,63.457077 2036.848999,54.055389 2031.370850,46.376492 
	C2025.154175,37.662659 2017.232300,29.975899 2009.197754,22.798788 
	C2000.181030,14.744426 1989.549316,9.064078 1977.686523,5.901599 
	C1973.965210,4.909569 1970.445312,3.162045 1966.916626,1.380161 
	C1994.260254,1.000000 2021.520508,1.000000 2049.000000,1.000000 
	C2049.000000,28.020498 2049.000000,55.041592 2049.000000,82.531334 
z"/>
<path fill="#000000" opacity="1.000000" stroke="none" 
	d="
M1.000003,1232.468628 
	C2.658523,1235.629883 4.276656,1239.278809 5.983611,1242.885742 
	C10.080906,1251.543823 13.147637,1260.947266 18.625914,1268.626099 
	C24.842728,1277.340088 32.767414,1285.024902 40.802536,1292.202148 
	C49.819351,1300.256348 60.451530,1305.935059 72.313324,1309.098755 
	C76.034500,1310.091309 79.554520,1311.838013 83.083298,1313.619873 
	C55.739765,1314.000000 28.479527,1314.000000 1.000000,1314.000000 
	C1.000000,1286.979492 1.000000,1259.958374 1.000003,1232.468628 
z"/>
<path fill="#000000" opacity="1.000000" stroke="none" 
	d="
M1967.468628,1314.000000 
	C1970.629761,1312.341553 1974.278687,1310.723755 1977.885498,1309.016479 
	C1986.542725,1304.918701 1995.944580,1301.850342 2003.623047,1296.372192 
	C2012.336792,1290.155640 2020.019653,1282.230713 2027.200684,1274.199097 
	C2035.260864,1265.184326 2040.930420,1254.547119 2044.098022,1242.686890 
	C2045.091919,1238.965820 2046.837769,1235.445679 2048.619629,1231.916748 
	C2049.000000,1259.260254 2049.000000,1286.520508 2049.000000,1314.000000 
	C2021.979492,1314.000000 1994.958374,1314.000000 1967.468628,1314.000000 
z"/>
<path fill="#FEFFFF" opacity="1.000000" stroke="none" 
	d="
M1443.817383,789.795288 
	C1493.995850,676.130920 1543.986328,562.798828 1594.162598,449.549072 
	C1597.576904,441.842957 1601.651733,434.203247 1606.692017,427.487701 
	C1619.967773,409.798798 1639.160156,403.457092 1660.241821,403.121216 
	C1698.562744,402.510773 1736.897827,402.788788 1775.226929,402.710052 
	C1775.873657,402.708740 1776.520630,402.884155 1777.644043,403.045624 
	C1815.336426,573.811035 1853.040161,744.628357 1890.840698,915.883484 
	C1847.458862,915.883484 1804.408936,915.883484 1760.893677,915.883484 
	C1758.294189,904.141968 1755.672119,892.311707 1753.056152,880.480103 
	C1750.324341,868.123352 1747.527222,855.780334 1744.921143,843.397156 
	C1744.296387,840.429077 1743.026733,839.414734 1739.917480,839.414795 
	C1682.756348,839.415955 1625.595215,839.327026 1568.434448,839.130371 
	C1565.110229,839.118958 1563.888428,840.460876 1562.809570,843.327637 
	C1554.130615,866.388367 1545.250977,889.373474 1536.550659,912.426270 
	C1535.544434,915.092163 1534.402588,916.353149 1531.264771,916.345520 
	C1484.766357,916.233215 1438.267578,916.268982 1391.768799,916.256714 
	C1390.798218,916.256470 1389.827637,916.101318 1388.069458,915.951233 
	C1406.716187,873.763062 1425.194824,831.955139 1443.817383,789.795288 
M1662.899414,587.325500 
	C1643.971680,636.242920 1625.043823,685.160400 1606.011597,734.347412 
	C1645.073730,734.347412 1683.294800,734.347412 1722.003662,734.347412 
	C1708.093872,670.539978 1694.278198,607.164429 1680.142456,542.320312 
	C1674.089722,558.075134 1668.613037,572.330750 1662.899414,587.325500 
z"/>
<path fill="#FEFEFF" opacity="1.000000" stroke="none" 
	d="
M1346.872070,860.878174 
	C1313.615601,891.031921 1274.002930,907.224976 1230.969727,915.377869 
	C1156.639038,929.460083 1083.440186,923.156128 1011.391113,901.009338 
	C1006.639038,899.548584 1000.136475,898.629089 998.017639,895.231689 
	C995.975525,891.957275 998.336121,885.758423 999.151062,880.909729 
	C1004.477173,849.220093 1009.905823,817.547729 1015.314880,785.872070 
	C1015.592468,784.246399 1015.999084,782.642761 1016.442139,780.579895 
	C1025.207275,784.359680 1033.734863,788.019836 1042.248657,791.711487 
	C1084.275024,809.933960 1128.289429,817.166870 1173.887573,815.182617 
	C1194.282837,814.295044 1213.906372,810.165771 1231.126099,798.367981 
	C1246.050293,788.143066 1252.649536,772.740479 1249.165161,757.073486 
	C1247.320557,748.778931 1242.643311,742.174866 1236.544189,736.546387 
	C1221.513550,722.675659 1203.356201,713.809998 1185.137207,705.200073 
	C1159.049561,692.871643 1133.210938,680.171326 1110.278198,662.371643 
	C1088.746094,645.659180 1070.575562,626.130249 1061.236816,599.980896 
	C1050.030029,568.600708 1053.393677,537.562439 1065.851929,507.365753 
	C1080.511841,471.832489 1106.823242,446.753632 1139.655151,428.010223 
	C1173.322144,408.790070 1209.943604,398.860840 1248.215454,394.624542 
	C1301.550781,388.720856 1353.942261,393.275391 1405.170410,409.644379 
	C1409.087646,410.895996 1412.939697,412.351318 1417.030396,413.785004 
	C1410.686035,451.006104 1404.426270,487.731323 1398.155640,524.519897 
	C1387.620972,520.451477 1377.599854,516.153992 1367.300659,512.681458 
	C1331.561523,500.631378 1294.835815,496.811340 1257.415405,501.213257 
	C1241.043945,503.139099 1225.364502,507.840393 1212.721558,519.273499 
	C1196.433594,534.002686 1195.733887,553.336243 1212.252197,567.815796 
	C1222.162476,576.502991 1233.580566,583.801086 1245.179443,590.156982 
	C1264.875366,600.949829 1285.409546,610.200562 1305.294312,620.664185 
	C1326.319458,631.728027 1345.668579,645.218262 1362.261597,662.454834 
	C1389.897461,691.162476 1400.193604,725.417236 1395.617310,764.629272 
	C1391.187866,802.584717 1374.817627,834.455994 1346.872070,860.878174 
z"/>
<path fill="#FEFEFF" opacity="1.000000" stroke="none" 
	d="
M498.804565,678.956421 
	C501.534424,691.123657 504.350037,703.272522 506.969727,715.463440 
	C509.521698,727.339050 511.873199,739.257812 514.568665,752.406128 
	C515.650452,750.269043 516.356934,749.118835 516.841187,747.881653 
	C551.191101,660.131531 585.527039,572.376038 619.854309,484.617065 
	C629.980896,458.728027 640.121094,432.844116 650.132507,406.910522 
	C651.303223,403.877869 652.679016,402.580811 656.207581,402.591766 
	C702.537842,402.735901 748.868591,402.685455 795.199280,402.697815 
	C796.642883,402.698212 798.086487,402.848816 800.132996,402.963043 
	C796.147400,412.293640 792.385376,421.147919 788.586792,429.986511 
	C720.281738,588.919556 651.929871,747.832458 583.811157,906.845276 
	C580.938965,913.549927 577.722900,916.042419 570.133362,915.976196 
	C525.642822,915.588318 481.146118,915.832397 436.652222,916.031311 
	C432.918610,916.048035 431.145294,915.205383 430.078430,911.369629 
	C389.798309,766.549255 349.402863,621.760986 309.027679,476.967041 
	C308.535614,475.202332 308.105743,473.420227 307.920898,471.363678 
	C327.161194,483.432159 346.874237,494.785858 364.952667,508.322601 
	C417.818634,547.907532 459.534454,597.061829 488.260590,656.838257 
	C491.641205,663.872986 494.886200,670.972900 498.194061,678.042603 
	C498.194061,678.042603 498.017761,677.967529 498.080292,678.126465 
	C498.226593,678.644165 498.447174,678.867798 498.804565,678.956421 
z"/>
<path fill="#FEFEFF" opacity="1.000000" stroke="none" 
	d="
M928.160278,815.220581 
	C922.373352,849.247253 916.652344,882.848022 910.908997,916.579773 
	C864.147644,916.579773 817.882935,916.579773 770.866089,916.579773 
	C800.039673,745.360596 829.159363,574.457764 858.351624,403.129089 
	C904.884399,403.129089 951.397644,403.129089 998.388794,403.129089 
	C996.502136,414.469055 994.689697,425.599915 992.794006,436.716553 
	C984.538513,485.126648 976.244995,533.530273 967.991272,581.940674 
	C954.841064,659.070312 941.711426,736.203430 928.568909,813.334351 
	C928.485046,813.826355 928.341736,814.308105 928.160278,815.220581 
z"/>
<path fill="#F1AE15" opacity="1.000000" stroke="none" 
	d="
M498.289062,677.620178 
	C494.886200,670.972900 491.641205,663.872986 488.260590,656.838257 
	C459.534454,597.061829 417.818634,547.907532 364.952667,508.322601 
	C346.874237,494.785858 327.161194,483.432159 307.831116,470.950867 
	C289.871704,462.137299 272.537476,452.865997 254.621460,444.903778 
	C225.356445,431.897858 194.859360,422.311951 163.793610,414.555298 
	C162.366791,414.199036 160.968292,413.729401 159.582428,413.320190 
	C159.473602,412.606720 159.280350,412.112762 159.346008,411.656036 
	C160.635712,402.686920 160.641846,402.687653 169.853165,402.687653 
	C240.830093,402.687622 311.807434,402.576599 382.783478,402.825531 
	C391.862457,402.857361 401.127380,403.928680 409.972717,405.966034 
	C432.778870,411.218872 446.102386,426.239105 450.836090,448.864594 
	C466.279877,522.680969 481.578827,596.527649 496.935028,670.362366 
	C497.409271,672.642639 497.900665,674.919373 498.289062,677.620178 
z"/>
<path fill="#F1AE15" opacity="1.000000" stroke="none" 
	d="
M498.797913,678.697266 
	C498.447174,678.867798 498.226593,678.644165 498.118591,678.038635 
	C498.326630,678.007263 498.558929,678.222656 498.797913,678.697266 
z"/>
<path fill="#114796" opacity="1.000000" stroke="none" 
	d="
M1663.017822,586.955933 
	C1668.613037,572.330750 1674.089722,558.075134 1680.142456,542.320312 
	C1694.278198,607.164429 1708.093872,670.539978 1722.003662,734.347412 
	C1683.294800,734.347412 1645.073730,734.347412 1606.011597,734.347412 
	C1625.043823,685.160400 1643.971680,636.242920 1663.017822,586.955933 
z"/>
</svg>