<?xml version="1.0" encoding="UTF-8" standalone="no"?>
<svg
   id="Layer_1"
   data-name="Layer 1"
   viewBox="0 0 1444 1444"
   version="1.1"
   sodipodi:docname="blockout-curtains.svg"
   xmlns:inkscape="http://www.inkscape.org/namespaces/inkscape"
   xmlns:sodipodi="http://sodipodi.sourceforge.net/DTD/sodipodi-0.dtd"
   xmlns="http://www.w3.org/2000/svg"
   xmlns:svg="http://www.w3.org/2000/svg">
  <defs
     id="defs31" />
  <sodipodi:namedview
     id="namedview29"
     pagecolor="#ffffff"
     bordercolor="#000000"
     borderopacity="0.25"
     inkscape:showpageshadow="2"
     inkscape:pageopacity="0.0"
     inkscape:pagecheckerboard="0"
     inkscape:deskcolor="#d1d1d1" />
  <circle
     cx="722"
     cy="722"
     r="722"
     style="fill: #fff; stroke-width: 0px;"
     id="circle2" />
  <rect
     x="322.4"
     y="214.9"
     width="49.5"
     height="892.2"
     style="fill: #376aaa; stroke-width: 0px;"
     id="rect4" />
  <rect
     x="699.1"
     y="682.2"
     width="49.5"
     height="800.5"
     transform="translate(1806.2 358.6) rotate(90)"
     style="fill: #376aaa; stroke-width: 0px;"
     id="rect6" />
  <rect
     x="713.5"
     y="262"
     width="20.5"
     height="800.5"
     transform="translate(1386 -61.6) rotate(90)"
     style="fill: #376aaa; stroke-width: 0px;"
     id="rect8" />
  <rect
     x="1074.5"
     y="214.9"
     width="49.5"
     height="892.2"
     style="fill: #376aaa; stroke-width: 0px;"
     id="rect10" />
  <rect
     x="709.9"
     y="214.9"
     width="26.6"
     height="892.2"
     style="fill: #376aaa; stroke-width: 0px;"
     id="rect12" />
  <path
     d="M632.9,224.6v950.6c0,27.1-22,49.1-49.1,49.1h-27.3c-5.8,0-11.4-1-16.5-2.9-13.6-4.9-23.4-16.4-27.3-30.3s-2.9-8-5-11.6c-.1-1.4-2.9-4.3-2.9-4.3-9-12-23.2-19.7-39.3-19.7h-27.3c-16.1,0-30.4,7.8-39.3,19.7,0,0-3,3.2-3.1,4.7-2,3.5-3.6,7.2-4.8,11.2-3.8,13.2-12.9,24.4-25.7,29.6s-11.9,3.6-18.4,3.6h-27.3c-27.1,0-49.1-22-49.1-49.1V224.6h362.5Z"
     style="fill: #afc3dd; stroke: #376aaa; stroke-miterlimit: 10; stroke-width: 7.2px;"
     id="path14" />
  <path
     d="M1177.2,224.6v950.6c0,27.1-22,49.1-49.1,49.1h-27.3c-5.8,0-11.4-1-16.5-2.9-13.6-4.9-23.4-16.4-27.3-30.3-1.2-4.1-2.9-8-5-11.6-.1-1.4-2.9-4.3-2.9-4.3-9-12-23.2-19.7-39.3-19.7h-27.3c-16.1,0-30.4,7.8-39.3,19.7,0,0-3,3.2-3.1,4.7-2,3.5-3.6,7.2-4.8,11.2-3.8,13.2-12.9,24.4-25.7,29.6s-11.9,3.6-18.4,3.6h-27.3c-27.1,0-49.1-22-49.1-49.1V224.6h362.5Z"
     style="fill: #afc3dd; stroke: #376aaa; stroke-miterlimit: 10; stroke-width: 7.2px;"
     id="path16" />
  <path
     d="M941.7,214.9v963.2c-3.3,5.5-5.7,11.7-6.7,18.3h-.6V214.9h7.2Z"
     style="fill: #376aaa; stroke-width: 0px;"
     id="path18" />
  <path
     d="M1057.6,214.9v981.6h-.6c-1-6.6-3.3-12.8-6.7-18.3V214.9h7.2Z"
     style="fill: #376aaa; stroke-width: 0px;"
     id="path20" />
  <path
     d="M397.2,214.9v963.2c-3.3,5.5-5.7,11.7-6.7,18.3h-.6V214.9h7.2Z"
     style="fill: #376aaa; stroke-width: 0px;"
     id="path22" />
  <path
     d="M513.1,214.9v981.6h-.6c-1-6.6-3.3-12.8-6.7-18.3V214.9h7.2Z"
     style="fill: #376aaa; stroke-width: 0px;"
     id="path24" />
  <rect
     x="713.5"
     y="-233"
     width="20.5"
     height="916.4"
     transform="translate(949 -498.6) rotate(90)"
     style="fill: #376aaa; stroke-width: 0px;"
     id="rect26" />
</svg>
