<?xml version="1.0" encoding="UTF-8"?>
<svg version="1.1" viewBox="0 0 1736 1772" width="1280" height="1280" xmlns="http://www.w3.org/2000/svg">
<path transform="translate(0)" d="m0 0h1736v1772h-1736z" fill="#FDFDFD"/>
<path transform="translate(1224,434)" d="m0 0 14 1 15 5 11 7 14 12 10 10 7 8 5 4v2l4 2 24 24 10 13 6 12 3 10v22l-5 13-7 12-11 12-54 54h-2l-2 4-16 16-8 7-58 58-7 8-86 86-8 7-9 10h-2l-2 4h-2l-1 3-8 7-97 97-8 7-78 78h-2v2l-8 7-9 10h-2l-1 3-8 7-38 38-8 7-10 10-8 7-82 82-17 16-5 6-8 7-8 9-8 7-73 73-8 7-113 113-8 7-134 134-6 5-6 7h-2l-2 4-8 7-108 108-8 7-8 8-14 10-16 8-18 5-7 2h-115v-119l6-21 8-17 9-12 9-10 31-31h2l1-3 8-7 120-120h2l2-4 13-12 104-104h2v-2l8-7 70-70 6-5 7-8 12-11 71-71h2v-2l8-7 133-133h2l2-4h2l2-4h2l2-4h2l2-4h2l2-4 76-76h2l2-4h2l2-4 20-20 8-7 98-98 8-7 79-79 6-5 77-77 8-7 64-64h2l2-4h2l2-4 16-16h2l2-4 4-4h2l2-4 8-7 8-9h2l2-4h2l2-4 8-7 11-11 10-7 12-6 7-2z" fill="#386AAB"/>
<path transform="translate(675,991)" d="m0 0 5 3 16 15 4 4v2l4 2 42 42 2 1-1 4-88 88h-2v2l-8 7-115 115-8 7-75 75-8 7-95 95-7 6-7 8-12 11-87 87h-2v2l-6 5-7 8-6 5-7 8-5 4-7 8-8 8h-2l-1 3-8 7-60 60-8 7-32 32-9 7-6-1-15-14-8-9-8-15-4-13-1-5v-20l3-15 5-11 7-12 7-7 7-8 38-38 8-7 81-81h2l1-3 8-7 174-174 8-7 93-93 8-7 93-93 5-4 7-8 4-4h2l2-4 11-11 8-7 54-54 8-7z" fill="#FDFDFD"/>
<path transform="translate(1036,634)" d="m0 0 6 4 39 39 2 1v2l4 2 17 17 4 3-1 4-60 60-8 7-51 51-7 6-6 7-8 7-7 8-8 7-143 143-8 7-33 33-1 2-4-2-53-53-8-7-7-7 1-4 15-15 8-7 21-21 7-8 15-14 74-74h2l2-4 16-16 7-6 7-8 8-8 8-7 128-128 8-7z" fill="#FDFDFD"/>
<path transform="translate(1053,3)" d="m0 0 11 1 10 4 7 7 4 8 1 4v112h113l9 3 6 4 6 7 4 11v7l-4 10-9 10-9 4-7 1h-109v112l-4 10-7 8-8 4-7 2-10-1-10-5-7-8-3-6-2-15v-100h-111l-8-2-9-6-6-9-2-5-1-7 2-11 6-9 6-5 6-3 23-1h51l43-1 1-113 5-10 4-5 10-6z" fill="#386AAB"/>
<path transform="translate(1515,68)" d="m0 0h11l9 4 8 7 5 7 2 7 1 78 81 1 10 5 7 7 5 10 1 3v8l-4 10-9 10-10 4-71 1h-10l-1 77-3 10-6 8-5 4-6 3-4 1h-9l-10-4-8-7-5-8-2-10-1-74-79-1-9-3-8-6-6-10-1-3v-13l4-9 7-8 6-4 4-1h83v-73l2-13 5-8 7-6z" fill="#386AAB"/>
<path transform="translate(1224,459)" d="m0 0h7l10 3 11 7 12 11 26 26 7 8 1 4-59 59-6 5-105 105-3-1-5-6-8-7-24-24-8-7-25-25 2-5 7-7 6-5 3-4h2l2-4 36-36 8-7 81-81 10-6z" fill="#FDFDFD"/>
<path transform="translate(1503,574)" d="m0 0 11 1 8 4 8 8 4 7 1 4 1 49 50 1 10 4 8 7 5 10 1 4v7l-4 11-4 6-9 6-6 2-7 1h-45v49l-4 10-7 8-8 5-4 1h-12l-10-5-7-7-4-7-2-9v-45h-43l-13-2-9-6-6-8-3-8v-12l4-10 7-7 8-4 4-1h51v-38l1-15 4-8 4-5 9-6z" fill="#386AAB"/>
<path transform="translate(1674,918)" d="m0 0h9l15 3 14 7 10 9 7 9 7 12v36l-13 20-9 8-16 8-14 3-16-1-12-4-10-6-10-9-7-10-5-13-1-4v-20l4-14 9-14 11-10 14-7 6-2z" fill="#386AAB"/>
<path transform="translate(0,1685)" d="m0 0 2 2 5 16 7 16 9 13 9 10 11 9 13 8 16 7 19 5v1h-91z" fill="#FDFDFD"/>
</svg>
