<?xml version="1.0" encoding="utf-8"?>
<!-- Generator: Adobe Illustrator 24.0.2, SVG Export Plug-In . SVG Version: 6.00 Build 0)  -->
<svg version="1.1" id="Layer_2" xmlns="http://www.w3.org/2000/svg" xmlns:xlink="http://www.w3.org/1999/xlink" x="0px" y="0px"
	 viewBox="0 0 159.4 159.4" style="enable-background:new 0 0 159.4 159.4;" xml:space="preserve">
<style type="text/css">
	.st0{fill:#FFFFFF;}
	.st1{fill:none;}
	.st2{fill:#396BAC;}
	.st3{fill:#FFFFFF;stroke:#396BAC;stroke-width:1.5806;stroke-miterlimit:10;}
	.st4{opacity:7.000000e-02;fill:#376AAA;}
	.st5{fill:#969BA5;}
	.st6{fill:#396BAC;stroke:#396BAC;stroke-width:1.5806;stroke-miterlimit:10;}
</style>
<circle class="st0" cx="79.7" cy="79.7" r="79.7"/>
<g>
	
		<rect x="32.7" y="37.9" transform="matrix(0.4394 -0.8983 0.8983 0.4394 -33.6248 108.0487)" class="st1" width="74.1" height="86.2"/>
	<path class="st2" d="M90.4,78.3L86,87.2l-4.5-2.2c-0.2-0.1-0.4-0.3-0.6-0.5s-0.2-0.5-0.2-0.7c0-0.3,0-0.5,0.1-0.8
		c0.1-0.2,0.3-0.4,0.5-0.6c0.8-0.5,1.4-1.3,1.9-2.1l1.8-4.6L90.4,78.3z"/>
	<path class="st3" d="M96,116.8l-6.4-3.1l2.6-13c0.1-0.6,0.1-1.2-0.1-1.8c-0.2-0.6-0.5-1.1-0.9-1.5l-4.7-4.9l0.4-1.9
		c0.1-0.3,0-0.7-0.1-0.9c-0.1-0.3-0.4-0.5-0.7-0.7c-0.2-0.1-0.3-0.2-0.5-0.4c-0.1-0.2-0.2-0.3-0.3-0.5s-0.1-0.4-0.1-0.6
		c0-0.2,0.1-0.4,0.2-0.6l3-6.2c0-0.1,0.1-0.2,0.1-0.3c0-0.1,0-0.2,0-0.3c0-0.1-0.1-0.2-0.1-0.3c-0.1-0.1-0.1-0.1-0.2-0.2l-3.8-1.9
		c-0.2-0.1-0.3-0.2-0.4-0.4c-0.1-0.2-0.1-0.4,0-0.6l2.4-4.8l20.6,10.1l-6,12.3c-0.5,1-0.9,2-1.1,3.1L96,116.8z"/>
	<path class="st2" d="M91,114.3l2.8-14.2c0.1-0.6,0.1-1.2-0.1-1.8c-0.2-0.6-0.5-1.1-0.9-1.5l-6-6.2L83,110.4L91,114.3z"/>
	<path class="st2" d="M91,114.3l-3.8-1.8L90.5,96c0.1-0.6,0.1-1.2-0.1-1.8l2.4,2.5c0.4,0.4,0.7,1,0.9,1.5c0.2,0.6,0.2,1.2,0.1,1.8
		L91,114.3z"/>
	<path class="st3" d="M91.4,114.5l4.6,2.2l3.8-19.3c0.2-1.1,0.6-2.1,1.1-3.1l6-12.3l-4.6-2.2"/>
	<path class="st4" d="M102.3,79.9L102.3,79.9L86.3,72l-2.4,4.8c-0.1,0.2-0.1,0.4,0,0.6c0.1,0.2,0.2,0.3,0.4,0.4l3.8,1.9
		c0.1,0,0.2,0.1,0.2,0.2c0.1,0.1,0.1,0.2,0.1,0.3c0,0.1,0,0.2,0,0.3c0,0.1,0,0.2-0.1,0.3l-3,6.2c-0.1,0.2-0.1,0.4-0.2,0.6
		c0,0.2,0,0.4,0.1,0.6c0.1,0.2,0.2,0.4,0.3,0.5c0.1,0.2,0.3,0.3,0.5,0.4c0.3,0.1,0.5,0.4,0.7,0.7c0.1,0.3,0.2,0.6,0.1,0.9l-0.4,1.9
		l4.7,4.9c0.4,0.4,0.7,1,0.9,1.5c0.2,0.6,0.2,1.2,0.1,1.8l-2.6,13l6.4,3.1l3.8-19.3c0.2-1.1,0.6-2.1,1.1-3.1l6-12.3L102.3,79.9z"/>
	<path class="st3" d="M106.9,82.1l-2.7,5.5l-20-9.8c-0.2-0.1-0.3-0.2-0.4-0.4c-0.1-0.2,0-0.4,0-0.6l2.4-4.8L106.9,82.1z"/>
	<path class="st5" d="M74.9,47l-6.1,12.5c1,1,2.2,1.9,3.5,2.5L79,48.2C77.7,47.6,76.3,47.1,74.9,47L74.9,47z"/>
	<path class="st2" d="M61.4,49.6l-19.2-9.4c-0.3-0.1-0.5-0.4-0.6-0.7c-0.1-0.3-0.1-0.7,0.1-1c0.1-0.3,0.4-0.5,0.7-0.7
		c0.3-0.1,0.7-0.1,1,0.1l19.2,9.4c0.3,0.1,0.5,0.4,0.6,0.7c0.1,0.3,0.1,0.7-0.1,1c-0.1,0.3-0.4,0.5-0.7,0.7
		C62.1,49.8,61.7,49.8,61.4,49.6z"/>
	<path class="st3" d="M67.9,47.9L64,46.1c-0.4-0.2-0.8-0.2-1.1-0.1c-0.4,0.1-0.7,0.4-0.9,0.8l-1.4,2.8c-0.2,0.4-0.2,0.8-0.1,1.1
		c0.1,0.4,0.4,0.7,0.8,0.9l3.8,1.9c0.2,3.1,2.6,6.4,6.3,8.2l6.8-13.8C74.5,46,70.5,46.2,67.9,47.9z"/>
	<path class="st3" d="M76.3,67.9L86.6,73l9.9-20.2l-10.3-5.1c-0.1-0.1-0.2-0.1-0.3-0.1l-4.9-1.2c-0.5-0.1-1-0.1-1.5,0.2
		c-0.5,0.2-0.8,0.6-1.1,1l-7,14.3c-0.2,0.5-0.3,1-0.2,1.5c0.1,0.5,0.4,0.9,0.8,1.3l3.9,3.1C76.1,67.8,76.2,67.9,76.3,67.9z"/>
	<path class="st3" d="M109.5,84.2c2.9,1.4,7.5-1.9,10.3-7.5c2.7-5.6,2.5-11.3-0.4-12.7L95.8,52.5l-9.9,20.2L109.5,84.2z"/>
	<path class="st4" d="M67.9,47.9L64,46.1c-0.4-0.2-0.8-0.2-1.1-0.1c-0.4,0.1-0.7,0.4-0.9,0.8l-1.4,2.8c-0.2,0.4-0.2,0.8-0.1,1.1
		c0.1,0.4,0.4,0.7,0.8,0.9l3.8,1.9c0.2,3.1,2.6,6.4,6.3,8.2l6.8-13.8C74.5,46,70.5,46.2,67.9,47.9z"/>
	<path class="st4" d="M109.5,84.2c2.9,1.4,7.5-1.9,10.3-7.5c2.7-5.6,2.5-11.3-0.4-12.7L95.8,52.5l-9.9,20.2L109.5,84.2z"/>
	<path class="st3" d="M119.8,76.7c-2.7,5.6-7.3,8.9-10.3,7.5l-4.8-2.3c3,1.4,8-1.7,10.7-7.3c2.7-5.6,2.1-11.5-0.8-12.9l4.8,2.3
		C122.4,65.5,122.5,71.2,119.8,76.7z"/>
	<path class="st4" d="M119.8,76.7c-2.7,5.6-7.3,8.9-10.3,7.5l-4.8-2.3c3,1.4,8-1.7,10.7-7.3c2.7-5.6,2.1-11.5-0.8-12.9l4.8,2.3
		C122.4,65.5,122.5,71.2,119.8,76.7z"/>
	<path class="st2" d="M116.4,73.9l-2.8-1.3c-0.3-0.2-0.5-0.4-0.6-0.7c-0.1-0.3-0.1-0.7,0.1-1c0.2-0.3,0.4-0.5,0.7-0.7
		c0.3-0.1,0.7-0.1,1,0.1l2.7,1.3c0.2,0.1,0.3,0.2,0.4,0.3c0.1,0.1,0.2,0.3,0.3,0.4c0.1,0.2,0.1,0.3,0.1,0.5c0,0.2,0,0.3-0.1,0.5
		c-0.1,0.2-0.2,0.3-0.3,0.4c-0.1,0.1-0.3,0.2-0.4,0.3c-0.2,0.1-0.3,0.1-0.5,0.1C116.7,74,116.5,74,116.4,73.9z"/>
	<path class="st2" d="M117,69.1l-1.4-0.7c-0.3-0.2-0.5-0.4-0.6-0.7c-0.1-0.3-0.1-0.7,0.1-1c0.1-0.2,0.2-0.3,0.3-0.4
		c0.1-0.1,0.3-0.2,0.4-0.3c0.2-0.1,0.3-0.1,0.5-0.1c0.2,0,0.3,0.1,0.5,0.1l1.4,0.7c0.3,0.2,0.5,0.4,0.6,0.7c0.1,0.3,0.1,0.7-0.1,1
		c-0.1,0.2-0.2,0.3-0.3,0.4c-0.1,0.1-0.3,0.2-0.4,0.3c-0.2,0.1-0.3,0.1-0.5,0.1C117.4,69.3,117.2,69.2,117,69.1z"/>
	<path class="st2" d="M114.3,78.1l-2.8-1.3c-0.2-0.1-0.3-0.2-0.4-0.3c-0.1-0.1-0.2-0.3-0.3-0.4c0-0.2-0.1-0.3-0.1-0.5
		c0-0.2,0-0.3,0.1-0.5c0.2-0.3,0.4-0.5,0.7-0.7c0.3-0.1,0.7-0.1,1,0.1l2.7,1.3c0.3,0.2,0.5,0.4,0.6,0.7c0.1,0.3,0.1,0.7-0.1,1
		c-0.1,0.3-0.4,0.5-0.7,0.6C115,78.2,114.6,78.2,114.3,78.1z"/>
	<path class="st2" d="M111,81.5l-1.4-0.7c-0.3-0.2-0.5-0.4-0.6-0.7c-0.1-0.3-0.1-0.7,0.1-1c0.2-0.3,0.4-0.5,0.7-0.6
		c0.3-0.1,0.7-0.1,1,0.1l1.4,0.7c0.3,0.2,0.5,0.4,0.6,0.7c0.1,0.3,0.1,0.7-0.1,1c-0.2,0.3-0.4,0.5-0.7,0.6
		C111.6,81.7,111.3,81.7,111,81.5z"/>
	<path class="st2" d="M108.3,58.6l-3.2,6.5c-0.1,0.2-0.2,0.3-0.3,0.4c-0.1,0.1-0.3,0.2-0.4,0.3c-0.2,0.1-0.3,0.1-0.5,0.1
		c-0.2,0-0.3-0.1-0.5-0.1c-0.3-0.2-0.5-0.4-0.6-0.7c-0.1-0.3-0.1-0.7,0.1-1l3.2-6.5L108.3,58.6z"/>
	<path class="st2" d="M101.6,72.3l-3.2,6.5l-2.3-1.1l3.2-6.5c0.2-0.3,0.4-0.5,0.7-0.7c0.3-0.1,0.7-0.1,1,0.1
		c0.3,0.1,0.5,0.4,0.6,0.7C101.8,71.7,101.8,72,101.6,72.3z"/>
	<path class="st2" d="M102.9,73.6L95,69.7c-0.4-0.2-0.7-0.6-0.9-1c-0.2-0.4-0.1-0.9,0.1-1.3l2.5-5.2c0.2-0.4,0.6-0.7,1-0.9
		c0.4-0.1,0.9-0.1,1.3,0.1l7.9,3.9c1.1,0.5,1.9,1.5,2.3,2.6c0.4,1.2,0.3,2.4-0.2,3.5c-0.5,1.1-1.5,1.9-2.6,2.3
		C105.2,74.2,104,74.1,102.9,73.6L102.9,73.6z"/>
	<path class="st0" d="M104.4,70.6l-6-3c-0.3-0.1-0.6-0.4-0.6-0.7c-0.1-0.3-0.1-0.7,0-1c0.2-0.3,0.4-0.5,0.7-0.7
		c0.3-0.1,0.7-0.1,1,0.1l6.1,3c0.3,0.1,0.5,0.4,0.6,0.7c0.1,0.3,0.1,0.7-0.1,1c-0.2,0.3-0.4,0.5-0.7,0.7
		C105,70.8,104.7,70.8,104.4,70.6z"/>
	<path class="st2" d="M82.6,57.4l-0.9,1.8l2.8,1.4c0.1,0.1,0.3,0.2,0.4,0.3c0.1,0.1,0.2,0.3,0.3,0.4c0,0.2,0.1,0.3,0.1,0.5
		c0,0.2-0.1,0.3-0.1,0.5c-0.2,0.3-0.4,0.5-0.8,0.6c-0.3,0.1-0.7,0.1-1-0.1l-2.7-1.3l-0.9,1.8l2.7,1.3c0.3,0.1,0.5,0.4,0.6,0.7
		c0.1,0.3,0.1,0.6,0,0.9c-0.1,0.2-0.2,0.3-0.3,0.5c-0.1,0.1-0.3,0.2-0.4,0.3c-0.2,0.1-0.3,0.1-0.5,0.1c-0.2,0-0.4,0-0.5-0.1
		l-2.8-1.4l-1.3,2.7l-1-0.5c-0.1-0.1-0.2-0.1-0.3-0.2l-0.9-0.7l9.6-19.7l1.1,0.3c0.1,0,0.2,0.1,0.3,0.1l1,0.5L85.8,51l2.7,1.3
		c0.3,0.1,0.5,0.4,0.7,0.7c0.1,0.3,0.1,0.7,0,1c-0.1,0.2-0.2,0.3-0.3,0.4c-0.1,0.1-0.3,0.2-0.4,0.3c-0.2,0.1-0.3,0.1-0.5,0.1
		c-0.2,0-0.3-0.1-0.5-0.1l-2.8-1.4l-0.9,1.8l2.8,1.4c0.2,0.1,0.3,0.2,0.4,0.3c0.1,0.1,0.2,0.3,0.3,0.4c0.1,0.2,0.1,0.3,0.1,0.5
		c0,0.2-0.1,0.3-0.1,0.5c-0.2,0.3-0.4,0.5-0.8,0.6c-0.3,0.1-0.7,0.1-1-0.1L82.6,57.4z"/>
	<path class="st3" d="M98.2,120.8l-4.4,9l-19.4-9.5l2.9-5.9l-9.6-4.7l1.5-3.1c0.4-0.9,1.2-1.6,2.1-1.9c0.9-0.3,2-0.3,2.8,0.2
		l22.3,10.9c0.9,0.4,1.5,1.2,1.9,2.1C98.7,118.9,98.7,119.9,98.2,120.8L98.2,120.8z"/>
	<path class="st4" d="M98.2,120.8l-4.4,9l-19.4-9.5l2.9-5.9l-9.6-4.7l1.5-3.1c0.4-0.9,1.2-1.6,2.1-1.9c0.9-0.3,2-0.3,2.8,0.2
		l22.3,10.9c0.9,0.4,1.5,1.2,1.9,2.1C98.7,118.9,98.7,119.9,98.2,120.8L98.2,120.8z"/>
	<path class="st3" d="M98.2,120.8l-4.4,9l-4.4-2.1l4.4-9c0.4-0.9,0.5-1.9,0.2-2.8c-0.3-0.9-1-1.7-1.9-2.1l4.4,2.1
		c0.4,0.2,0.8,0.5,1.2,0.9c0.3,0.4,0.6,0.8,0.7,1.3c0.2,0.5,0.2,0.9,0.2,1.4C98.6,119.9,98.5,120.4,98.2,120.8z"/>
	<path class="st4" d="M98.2,120.8l-4.4,9l-4.4-2.1l4.4-9c0.4-0.9,0.5-1.9,0.2-2.8c-0.3-0.9-1-1.7-1.9-2.1l4.4,2.1
		c0.4,0.2,0.8,0.5,1.2,0.9c0.3,0.4,0.6,0.8,0.7,1.3c0.2,0.5,0.2,0.9,0.2,1.4C98.6,119.9,98.5,120.4,98.2,120.8z"/>
	<path class="st6" d="M94.6,128.3l-0.8,1.6c-0.4,0.9-1.2,1.6-2.1,1.9c-0.9,0.3-1.9,0.3-2.8-0.2l-22.3-10.9c-0.9-0.4-1.6-1.2-1.9-2.1
		c-0.3-0.9-0.3-2,0.2-2.8l3.6-7.4l11.1,5.5l-2.9,5.9L94.6,128.3z"/>
	<path class="st2" d="M94.6,128.3l-0.8,1.6c-0.4,0.9-1.2,1.6-2.1,1.9c-0.9,0.3-1.9,0.3-2.8-0.2l-4.4-2.1c0.9,0.4,1.9,0.5,2.8,0.2
		c0.9-0.3,1.7-1,2.1-1.9l0.8-1.6L94.6,128.3z"/>
	<path class="st6" d="M76.8,119.5c1.6,0.8,3.6,0.1,4.3-1.5c0.8-1.6,0.1-3.6-1.5-4.4c-1.6-0.8-3.6-0.1-4.3,1.5
		C74.5,116.8,75.2,118.8,76.8,119.5z"/>
	<path class="st2" d="M93.5,86l-1.4-0.7c-0.2-0.1-0.3-0.2-0.4-0.3c-0.1-0.1-0.2-0.3-0.3-0.4c0-0.2-0.1-0.3-0.1-0.5
		c0-0.2,0.1-0.3,0.1-0.5c0.1-0.2,0.2-0.3,0.3-0.4c0.1-0.1,0.3-0.2,0.4-0.3c0.2-0.1,0.3-0.1,0.5-0.1c0.2,0,0.3,0.1,0.5,0.1l1.4,0.7
		c0.2,0.1,0.3,0.2,0.4,0.3c0.1,0.1,0.2,0.3,0.3,0.4c0.1,0.2,0.1,0.3,0.1,0.5c0,0.2,0,0.3-0.1,0.5c-0.1,0.2-0.2,0.3-0.3,0.4
		c-0.1,0.1-0.3,0.2-0.4,0.3c-0.2,0.1-0.3,0.1-0.5,0.1C93.9,86.2,93.7,86.1,93.5,86z"/>
	<path class="st2" d="M91.5,120.9c-0.2-0.1-0.4-0.2-0.5-0.4c-0.1-0.2-0.2-0.4-0.3-0.6v0c-0.1-0.4-0.1-0.9,0.1-1.3
		c0.2-0.4,0.6-0.7,1-0.8c0.4-0.1,0.9-0.1,1.3,0.1c0.4,0.2,0.7,0.5,0.8,1v0c0.1,0.4,0.1,0.9-0.1,1.3c-0.2,0.4-0.6,0.7-1,0.8
		C92.3,121.2,91.8,121.1,91.5,120.9z"/>
</g>
</svg>
