<?xml version="1.0" encoding="utf-8"?>
<!-- Generator: Adobe Illustrator 24.0.2, SVG Export Plug-In . SVG Version: 6.00 Build 0)  -->
<svg version="1.1" id="Layer_1" xmlns="http://www.w3.org/2000/svg" xmlns:xlink="http://www.w3.org/1999/xlink" x="0px" y="0px"
	 viewBox="0 0 159.4 159.4" style="enable-background:new 0 0 159.4 159.4;" xml:space="preserve">
<style type="text/css">
	.st0{fill:#FFFFFF;}
	.st1{fill:#A6AAB4;}
	.st2{fill:#376AAA;}
	.st3{opacity:7.000000e-02;fill:#376AAA;}
	.st4{fill:none;}
	.st5{fill:#F6AD00;}
	.st6{fill:#FFFFFF;stroke:#376AAA;stroke-width:1.4103;stroke-miterlimit:10;}
	.st7{fill:#FFFFFF;stroke:#376AAA;stroke-width:1.3183;stroke-miterlimit:10;}
	.st8{opacity:7.000000e-02;fill:#376AAA;stroke:#376AAA;stroke-width:1.4103;stroke-miterlimit:10;}
</style>
<circle class="st0" cx="79.7" cy="79.7" r="79.7"/>
<path class="st1" d="M49.6,77.3h65v-2.4h-65V77.3z"/>
<path class="st2" d="M36.9,29.5h3.2v10.6h-3.2c-0.3,0-0.6-0.1-0.9-0.2c-0.3-0.1-0.5-0.3-0.8-0.5c-0.2-0.2-0.4-0.5-0.5-0.8
	c-0.1-0.3-0.2-0.6-0.2-0.9v-6c0-0.6,0.2-1.2,0.7-1.6C35.7,29.7,36.3,29.5,36.9,29.5L36.9,29.5z"/>
<path class="st2" d="M122.7,29.5h3.2c0.6,0,1.2,0.2,1.6,0.7c0.4,0.4,0.7,1,0.7,1.6v6c0,0.6-0.2,1.2-0.7,1.6c-0.4,0.4-1,0.7-1.6,0.7
	h-3.2V29.5z"/>
<path class="st2" d="M126.6,44.7c-0.4,0-0.7-0.1-1-0.4c-0.3-0.3-0.4-0.6-0.4-1V43c0-0.4,0.1-0.7,0.4-1c0.3-0.3,0.6-0.4,1-0.4
	c0.4,0,0.7,0.1,1,0.4c0.3,0.3,0.4,0.6,0.4,1v0.3c0,0.4-0.1,0.7-0.4,1C127.4,44.6,127,44.7,126.6,44.7z"/>
<path class="st2" d="M126.6,89.7c-0.4,0-0.7-0.1-1-0.4c-0.3-0.3-0.4-0.6-0.4-1v-0.7c0-0.4,0.1-0.7,0.4-1c0.3-0.3,0.6-0.4,1-0.4
	c0.4,0,0.7,0.1,1,0.4c0.3,0.3,0.4,0.6,0.4,1v0.7c0,0.4-0.1,0.7-0.4,1C127.4,89.5,127,89.7,126.6,89.7z M126.6,84.7
	c-0.4,0-0.7-0.1-1-0.4c-0.3-0.3-0.4-0.6-0.4-1v-0.7c0-0.4,0.1-0.7,0.4-1c0.3-0.3,0.6-0.4,1-0.4c0.4,0,0.7,0.1,1,0.4
	c0.3,0.3,0.4,0.6,0.4,1v0.7c0,0.2,0,0.4-0.1,0.5c-0.1,0.2-0.2,0.3-0.3,0.5c-0.1,0.1-0.3,0.2-0.4,0.3C127,84.7,126.8,84.7,126.6,84.7
	z M126.6,79.7c-0.2,0-0.4,0-0.5-0.1c-0.2-0.1-0.3-0.2-0.4-0.3c-0.1-0.1-0.2-0.3-0.3-0.4c-0.1-0.2-0.1-0.3-0.1-0.5v-0.7
	c0-0.4,0.1-0.7,0.4-1c0.3-0.3,0.6-0.4,1-0.4c0.4,0,0.7,0.1,1,0.4c0.3,0.3,0.4,0.6,0.4,1v0.7c0,0.2,0,0.4-0.1,0.5
	c-0.1,0.2-0.2,0.3-0.3,0.4c-0.1,0.1-0.3,0.2-0.4,0.3C127,79.7,126.8,79.7,126.6,79.7z M126.6,74.7c-0.4,0-0.7-0.1-1-0.4
	c-0.3-0.3-0.4-0.6-0.4-1v-0.7c0-0.4,0.1-0.7,0.4-1c0.3-0.3,0.6-0.4,1-0.4c0.4,0,0.7,0.1,1,0.4c0.3,0.3,0.4,0.6,0.4,1v0.7
	c0,0.4-0.1,0.7-0.4,1C127.4,74.6,127,74.7,126.6,74.7z M126.6,69.7c-0.4,0-0.7-0.1-1-0.4c-0.3-0.3-0.4-0.6-0.4-1v-0.7
	c0-0.4,0.1-0.7,0.4-1c0.3-0.3,0.6-0.4,1-0.4c0.4,0,0.7,0.1,1,0.4c0.3,0.3,0.4,0.6,0.4,1v0.7c0,0.4-0.1,0.7-0.4,1
	C127.4,69.6,127,69.7,126.6,69.7z M126.6,64.7c-0.2,0-0.4,0-0.5-0.1c-0.2-0.1-0.3-0.2-0.4-0.3c-0.1-0.1-0.2-0.3-0.3-0.4
	c-0.1-0.2-0.1-0.3-0.1-0.5v-0.7c0-0.4,0.1-0.7,0.4-1s0.6-0.4,1-0.4c0.4,0,0.7,0.1,1,0.4c0.3,0.3,0.4,0.6,0.4,1v0.7
	c0,0.2,0,0.4-0.1,0.5c-0.1,0.2-0.2,0.3-0.3,0.4c-0.1,0.1-0.3,0.2-0.4,0.3C127,64.7,126.8,64.7,126.6,64.7z M126.6,59.7
	c-0.4,0-0.7-0.1-1-0.4c-0.3-0.3-0.4-0.6-0.4-1v-0.7c0-0.4,0.1-0.7,0.4-1c0.3-0.3,0.6-0.4,1-0.4c0.4,0,0.7,0.1,1,0.4
	c0.3,0.3,0.4,0.6,0.4,1v0.7c0,0.4-0.1,0.7-0.4,1C127.4,59.6,127,59.7,126.6,59.7z M126.6,54.7c-0.4,0-0.7-0.1-1-0.4
	c-0.3-0.3-0.4-0.6-0.4-1v-0.7c0-0.4,0.1-0.7,0.4-1c0.3-0.3,0.6-0.4,1-0.4c0.4,0,0.7,0.1,1,0.4c0.3,0.3,0.4,0.6,0.4,1v0.7
	c0,0.2,0,0.4-0.1,0.5c-0.1,0.2-0.2,0.3-0.3,0.4c-0.1,0.1-0.3,0.2-0.4,0.3C127,54.7,126.8,54.7,126.6,54.7z M126.6,49.7
	c-0.4,0-0.7-0.1-1-0.4c-0.3-0.3-0.4-0.6-0.4-1v-0.7c0-0.4,0.1-0.7,0.4-1s0.6-0.4,1-0.4c0.4,0,0.7,0.1,1,0.4c0.3,0.3,0.4,0.6,0.4,1
	v0.7c0,0.4-0.1,0.7-0.4,1C127.4,49.6,127,49.7,126.6,49.7z"/>
<path class="st2" d="M127,90.8h-0.7c-1,0-1.8,0.8-1.8,1.8V96c0,1,0.8,1.8,1.8,1.8h0.7c1,0,1.8-0.8,1.8-1.8v-3.5
	C128.8,91.6,128,90.8,127,90.8z"/>
<circle class="st0" cx="79.7" cy="79.7" r="79.7"/>
<path class="st1" d="M49.6,77.3h65v-2.4h-65V77.3z"/>
<path class="st3" d="M122,29.7H39.7v84.1H122V29.7z"/>
<rect x="33.7" y="29.5" class="st4" width="94.2" height="106.6"/>
<rect x="33.7" y="29.5" class="st4" width="94.2" height="106.6"/>
<path class="st2" d="M49.2,134V39.3h-4.7V134H49.2z"/>
<path class="st2" d="M118.8,134V39.3h-4.7V134H118.8z"/>
<path class="st2" d="M82.8,131.4V40h-2.4v91.4H82.8z"/>
<path class="st2" d="M117.4,131.4H45.9c-0.8,0-1.4,0.6-1.4,1.4v1.9c0,0.8,0.6,1.4,1.4,1.4h71.5c0.8,0,1.4-0.6,1.4-1.4v-1.9
	C118.8,132,118.2,131.4,117.4,131.4z"/>
<path class="st5" d="M119.6,40.1H43.2v68.3h76.3V40.1z"/>
<path class="st6" d="M122,29.7H39.7v84.1H122V29.7z"/>
<path class="st7" d="M125.5,113H37.8c-0.8,0-1.5,0.7-1.5,1.5v1.1c0,0.8,0.7,1.5,1.5,1.5h87.7c0.8,0,1.5-0.7,1.5-1.5v-1.1
	C127,113.7,126.4,113,125.5,113z"/>
<path class="st2" d="M49.2,134V39.3h-4.7V134H49.2z"/>
<path class="st2" d="M118.8,134V39.3h-4.7V134H118.8z"/>
<path class="st2" d="M82.8,131.4V40h-2.4v91.4H82.8z"/>
<path class="st2" d="M117.4,131.4H45.9c-0.8,0-1.4,0.6-1.4,1.4v1.9c0,0.8,0.6,1.4,1.4,1.4h71.5c0.8,0,1.4-0.6,1.4-1.4v-1.9
	C118.8,132,118.2,131.4,117.4,131.4z"/>
<path class="st2" d="M36.9,29.5h3.2v10.6h-3.2c-0.3,0-0.6-0.1-0.9-0.2c-0.3-0.1-0.5-0.3-0.8-0.5c-0.2-0.2-0.4-0.5-0.5-0.8
	c-0.1-0.3-0.2-0.6-0.2-0.9v-6c0-0.6,0.2-1.2,0.7-1.6C35.7,29.7,36.3,29.5,36.9,29.5L36.9,29.5z"/>
<path class="st2" d="M124.7,40.1h-3.2V29.5h3.2c0.3,0,0.6,0.1,0.9,0.2c0.3,0.1,0.5,0.3,0.8,0.5c0.2,0.2,0.4,0.5,0.5,0.8
	c0.1,0.3,0.2,0.6,0.2,0.9v6c0,0.6-0.2,1.2-0.7,1.6S125.3,40.1,124.7,40.1L124.7,40.1z"/>
<path class="st6" d="M122,29.7H39.7v84.1H122V29.7z"/>
<path class="st8" d="M122,29.7H39.7v84.1H122V29.7z"/>
<path class="st7" d="M125.5,113H37.8c-0.8,0-1.5,0.7-1.5,1.5v1.1c0,0.8,0.7,1.5,1.5,1.5h87.7c0.8,0,1.5-0.7,1.5-1.5v-1.1
	C127,113.7,126.4,113,125.5,113z"/>
</svg>
