<?xml version="1.0" encoding="UTF-8"?>
<!-- Generator: visioncortex VTracer 0.6.3 -->
<svg version="1.1" xmlns="http://www.w3.org/2000/svg" width="159" height="159">
<path d="M0 0 C17.15 12.95 28.49 31.1 31.86 52.45 C33.79 76.99 29.37 98.13 13.45 117.48 C0.44 132.37 -17.95 143.09 -37.95 144.67 C-63.32 145.65 -83.7 140.43 -103.14 123.45 C-117.43 109.86 -126.72 91.37 -127.48 71.57 C-127.85 46.11 -121.56 25.66 -103.74 6.92 C-75.64 -19.72 -31.31 -22.63 0 0 Z " fill="#FEFEFE" transform="translate(127.14306640625,14.551513671875)"/>
<path d="M0 0 C0.89 -0 1.78 -0.01 2.7 -0.01 C3.67 -0.01 4.64 -0 5.64 0 C7.18 0 7.18 0 8.76 -0 C12.16 -0.01 15.56 0.01 18.96 0.02 C21.32 0.02 23.68 0.02 26.04 0.02 C30.99 0.02 35.94 0.03 40.89 0.04 C47.24 0.06 53.59 0.06 59.94 0.06 C64.81 0.06 69.69 0.07 74.57 0.07 C76.91 0.08 79.25 0.08 81.59 0.08 C84.86 0.08 88.13 0.09 91.4 0.1 C92.37 0.1 93.34 0.1 94.34 0.1 C95.23 0.1 96.12 0.11 97.04 0.11 C97.82 0.12 98.59 0.12 99.39 0.12 C101.52 0.25 101.52 0.25 105.52 1.25 C105.52 4.22 105.52 7.19 105.52 10.25 C104.2 10.58 102.88 10.91 101.52 11.25 C101.85 33.36 102.18 55.47 102.52 78.25 C85.03 78.25 67.54 78.25 49.52 78.25 C49.85 78.91 50.18 79.57 50.52 80.25 C50.59 83.13 50.61 85.99 50.58 88.87 C50.56 91.64 50.54 94.4 50.52 97.25 C57.12 97.25 63.72 97.25 70.52 97.25 C70.52 91.97 70.52 86.69 70.52 81.25 C71.18 81.25 71.84 81.25 72.52 81.25 C72.52 86.53 72.52 91.81 72.52 97.25 C79.45 97.25 86.38 97.25 93.52 97.25 C93.52 91.97 93.52 86.69 93.52 81.25 C94.84 81.25 96.16 81.25 97.52 81.25 C97.52 87.85 97.52 94.45 97.52 101.25 C84.76 101.27 72 101.29 59.24 101.3 C53.32 101.3 47.39 101.31 41.47 101.32 C35.76 101.33 30.04 101.34 24.33 101.34 C22.15 101.34 19.96 101.35 17.78 101.35 C14.73 101.36 11.68 101.36 8.63 101.36 C7.26 101.37 7.26 101.37 5.87 101.37 C-0.36 101.36 -0.36 101.36 -1.48 100.25 C-1.56 98.9 -1.59 97.56 -1.58 96.21 C-1.57 95.4 -1.57 94.59 -1.57 93.76 C-1.56 92.91 -1.55 92.06 -1.54 91.18 C-1.54 90.33 -1.53 89.48 -1.53 88.6 C-1.52 86.48 -1.5 84.36 -1.48 82.25 C-3.13 81.92 -4.78 81.59 -6.48 81.25 C-6.32 80.72 -6.16 80.2 -5.99 79.65 C-5.35 76.64 -5.31 73.81 -5.27 70.73 C-5.26 69.77 -5.26 69.77 -5.24 68.78 C-5.21 66.66 -5.19 64.54 -5.16 62.42 C-5.14 60.95 -5.12 59.47 -5.1 58 C-5.04 54.12 -4.99 50.25 -4.95 46.38 C-4.9 42.42 -4.84 38.47 -4.78 34.51 C-4.68 26.76 -4.58 19 -4.48 11.25 C-5.8 10.92 -7.12 10.59 -8.48 10.25 C-8.48 7.61 -8.48 4.97 -8.48 2.25 C-5.52 0.55 -3.4 -0 0 0 Z " fill="#EFF3F8" transform="translate(32.478271484375,31.752761840820313)"/>
<path d="M0 0 C16.17 0 32.34 0 49 0 C49 25.08 49 50.16 49 76 C32.83 76 16.66 76 0 76 C0 50.92 0 25.84 0 0 Z " fill="#F1F4F8" transform="translate(30,33)"/>
<path d="M0 0 C0.89 -0 1.78 -0.01 2.7 -0.01 C3.67 -0.01 4.64 -0 5.64 0 C7.18 0 7.18 0 8.76 -0 C12.16 -0.01 15.56 0.01 18.96 0.02 C21.32 0.02 23.68 0.02 26.04 0.02 C30.99 0.02 35.94 0.03 40.89 0.04 C47.24 0.06 53.59 0.06 59.94 0.06 C64.81 0.06 69.69 0.07 74.57 0.07 C76.91 0.08 79.25 0.08 81.59 0.08 C84.86 0.08 88.13 0.09 91.4 0.1 C92.37 0.1 93.34 0.1 94.34 0.1 C95.23 0.1 96.12 0.11 97.04 0.11 C97.82 0.12 98.59 0.12 99.39 0.12 C101.52 0.25 101.52 0.25 105.52 1.25 C105.52 4.22 105.52 7.19 105.52 10.25 C104.2 10.58 102.88 10.91 101.52 11.25 C101.85 33.36 102.18 55.47 102.52 78.25 C85.03 78.25 67.54 78.25 49.52 78.25 C49.85 78.91 50.18 79.57 50.52 80.25 C50.59 83.13 50.61 85.99 50.58 88.87 C50.56 91.64 50.54 94.4 50.52 97.25 C57.12 97.25 63.72 97.25 70.52 97.25 C70.52 91.97 70.52 86.69 70.52 81.25 C71.18 81.25 71.84 81.25 72.52 81.25 C72.52 86.53 72.52 91.81 72.52 97.25 C79.45 97.25 86.38 97.25 93.52 97.25 C93.52 91.97 93.52 86.69 93.52 81.25 C94.84 81.25 96.16 81.25 97.52 81.25 C97.52 87.85 97.52 94.45 97.52 101.25 C84.76 101.27 72 101.29 59.24 101.3 C53.32 101.3 47.39 101.31 41.47 101.32 C35.76 101.33 30.04 101.34 24.33 101.34 C22.15 101.34 19.96 101.35 17.78 101.35 C14.73 101.36 11.68 101.36 8.63 101.36 C7.26 101.37 7.26 101.37 5.87 101.37 C-0.36 101.36 -0.36 101.36 -1.48 100.25 C-1.56 98.9 -1.59 97.56 -1.58 96.21 C-1.57 95.4 -1.57 94.59 -1.57 93.76 C-1.56 92.91 -1.55 92.06 -1.54 91.18 C-1.54 90.33 -1.53 89.48 -1.53 88.6 C-1.52 86.48 -1.5 84.36 -1.48 82.25 C-3.13 81.92 -4.78 81.59 -6.48 81.25 C-6.32 80.72 -6.16 80.2 -5.99 79.65 C-5.35 76.64 -5.31 73.81 -5.27 70.73 C-5.26 69.77 -5.26 69.77 -5.24 68.78 C-5.21 66.66 -5.19 64.54 -5.16 62.42 C-5.14 60.95 -5.12 59.47 -5.1 58 C-5.04 54.12 -4.99 50.25 -4.95 46.38 C-4.9 42.42 -4.84 38.47 -4.78 34.51 C-4.68 26.76 -4.58 19 -4.48 11.25 C-5.8 10.92 -7.12 10.59 -8.48 10.25 C-8.48 7.61 -8.48 4.97 -8.48 2.25 C-5.52 0.55 -3.4 -0 0 0 Z M-2.48 1.25 C-2.48 26.33 -2.48 51.41 -2.48 77.25 C13.69 77.25 29.86 77.25 46.52 77.25 C46.52 52.17 46.52 27.09 46.52 1.25 C30.35 1.25 14.18 1.25 -2.48 1.25 Z M50.52 1.25 C50.52 26.33 50.52 51.41 50.52 77.25 C67.02 77.25 83.52 77.25 100.52 77.25 C100.52 52.17 100.52 27.09 100.52 1.25 C84.02 1.25 67.52 1.25 50.52 1.25 Z " fill="#4977B1" transform="translate(32.478271484375,31.752761840820313)"/>
<path d="M0 0 C8.91 0 17.82 0 27 0 C26.67 4.95 26.34 9.9 26 15 C25.67 15 25.34 15 25 15 C25 10.38 25 5.76 25 1 C18.07 1 11.14 1 4 1 C4 5.95 4 10.9 4 16 C18.52 16 33.04 16 48 16 C48 10.72 48 5.44 48 0 C49.32 0 50.64 0 52 0 C52 5.28 52 10.56 52 16 C58.6 16 65.2 16 72 16 C72 10.72 72 5.44 72 0 C72.66 0 73.32 0 74 0 C74 5.28 74 10.56 74 16 C80.93 16 87.86 16 95 16 C95 10.72 95 5.44 95 0 C96.32 0 97.64 0 99 0 C99 6.6 99 13.2 99 20 C86.24 20.02 73.48 20.04 60.72 20.05 C54.79 20.06 48.87 20.06 42.95 20.08 C37.23 20.09 31.52 20.09 25.81 20.09 C23.62 20.1 21.44 20.1 19.25 20.11 C16.21 20.11 13.16 20.11 10.11 20.11 C8.74 20.12 8.74 20.12 7.34 20.12 C1.11 20.11 1.11 20.11 0 19 C-0.09 17.58 -0.11 16.16 -0.1 14.75 C-0.1 13.98 -0.09 13.21 -0.09 12.42 C-0.08 10.94 -0.08 10.94 -0.06 9.44 C-0.04 6.32 -0.02 3.21 0 0 Z " fill="#3D6EAC" transform="translate(31,113)"/>
<path d="M0 0 C14.52 0 29.04 0 44 0 C44 4.95 44 9.9 44 15 C29.48 15 14.96 15 0 15 C0 10.05 0 5.1 0 0 Z " fill="#F3F6F9" transform="translate(35,114)"/>
<path d="M0 0 C0 25.41 0 50.82 0 77 C16.17 77 32.34 77 49 77 C49.33 78.32 49.66 79.64 50 81 C49 82 49 82 46.91 82.12 C45.98 82.12 45.06 82.12 44.11 82.11 C43.07 82.11 42.03 82.11 40.96 82.11 C39.83 82.11 38.69 82.1 37.53 82.1 C36.37 82.1 35.22 82.09 34.03 82.09 C30.34 82.09 26.64 82.08 22.94 82.06 C20.44 82.06 17.94 82.05 15.44 82.05 C9.29 82.04 3.15 82.02 -3 82 C-3.56 80.06 -3.56 80.06 -4 78 C-3.5 77.5 -3.5 77.5 -3 77 C-2.88 74.95 -2.82 72.89 -2.79 70.83 C-2.78 70.18 -2.77 69.54 -2.76 68.88 C-2.73 66.74 -2.71 64.6 -2.68 62.46 C-2.66 60.99 -2.64 59.51 -2.62 58.03 C-2.57 54.13 -2.52 50.23 -2.47 46.34 C-2.42 42.36 -2.36 38.39 -2.31 34.41 C-2.2 26.61 -2.1 18.8 -2 11 C-3.32 10.67 -4.64 10.34 -6 10 C-6 7.36 -6 4.72 -6 2 C-2.25 0 -2.25 0 0 0 Z " fill="#A3BBD8" transform="translate(30,32)"/>
<path d="M0 0 C6.6 0 13.2 0 20 0 C20 4.95 20 9.9 20 15 C13.4 15 6.8 15 0 15 C0 10.05 0 5.1 0 0 Z " fill="#FAFBFD" transform="translate(83,114)"/>
<path d="M0 0 C17.82 0 35.64 0 54 0 C53.67 1.32 53.34 2.64 53 4 C51.68 4 50.36 4 49 4 C49 9.94 49 15.88 49 22 C48.67 22 48.34 22 48 22 C48 15.73 48 9.46 48 3 C46.68 3.33 45.36 3.66 44 4 C42.53 4.08 41.07 4.12 39.6 4.11 C38.31 4.11 38.31 4.11 36.99 4.11 C36.07 4.11 35.15 4.1 34.2 4.1 C32.78 4.1 32.78 4.1 31.33 4.09 C28.3 4.09 25.28 4.08 22.25 4.06 C20.2 4.06 18.14 4.05 16.09 4.05 C11.06 4.04 6.03 4.02 1 4 C0.67 2.68 0.34 1.36 0 0 Z " fill="#C2D1E5" transform="translate(82,110)"/>
<path d="M0 0 C1.32 0 2.64 0 4 0 C4 2.97 4 5.94 4 9 C2.35 9 0.7 9 -1 9 C-1.1 2.85 -1.1 2.85 -1 1 C-0.67 0.67 -0.34 0.34 0 0 Z " fill="#3E6FAD" transform="translate(25,33)"/>
<path d="M0 0 C1.32 0 2.64 0 4 0 C4 2.97 4 5.94 4 9 C2.68 9 1.36 9 0 9 C0 6.03 0 3.06 0 0 Z " fill="#396BAB" transform="translate(134,33)"/>
</svg>
