<?xml version="1.0" encoding="utf-8"?>
<!-- Generator: Adobe Illustrator 24.0.2, SVG Export Plug-In . SVG Version: 6.00 Build 0)  -->
<svg version="1.1" id="Layer_1" xmlns="http://www.w3.org/2000/svg" xmlns:xlink="http://www.w3.org/1999/xlink" x="0px" y="0px"
	 viewBox="0 0 159.4 159.4" style="enable-background:new 0 0 159.4 159.4;" xml:space="preserve">
<style type="text/css">
	.st0{fill:#FFFFFF;}
	.st1{fill:none;}
	.st2{fill:#376AAA;}
	.st3{opacity:0.85;fill:#FFFFFF;stroke:#376AAA;stroke-width:0.7468;stroke-miterlimit:10;enable-background:new    ;}
	.st4{opacity:7.000000e-02;}
	.st5{opacity:0.85;fill:#376AAA;stroke:#376AAA;stroke-width:0.7468;stroke-miterlimit:10;enable-background:new    ;}
	.st6{fill:#FFFFFF;stroke:#376AAA;stroke-width:1.4138;}
</style>
<circle class="st0" cx="79.7" cy="79.7" r="79.7"/>
<g>
	<rect x="40.2" y="33.9" class="st1" width="82" height="98.9"/>
	<path class="st2" d="M47,119V35.9h-5V119H47z"/>
	<path class="st2" d="M120.4,119V35.9h-5V119H120.4z"/>
	<path class="st2" d="M82.4,116.7V35.9h-2.5v80.8H82.4z"/>
	<path class="st2" d="M46.9,78.5h68.4v-2.1H46.9V78.5z"/>
	<path class="st2" d="M120.3,116.7H41.9v4.1h78.4V116.7z"/>
	<path class="st2" d="M125.6,33.9H36.7V36h88.9V33.9z"/>
	<g>
		<rect x="40.3" y="34.2" class="st1" width="82" height="98.9"/>
		<g>
			<path class="st3" d="M48.8,35.7v93.1c0,0.1,0,0.2,0.1,0.4c0.4-1.2,2.8-2,5.8-2c2.9,0,5.3,0.9,5.8,2c0-0.1,0.1-0.2,0.1-0.4V35.7
				H48.8z"/>
			<path class="st3" d="M37.2,35.7h11.7v93.2c0,0.9-0.6,1.8-1.7,2.5c-1.1,0.7-2.6,1-4.1,1c-1.5,0-3-0.4-4.1-1
				c-1.1-0.7-1.7-1.5-1.7-2.5L37.2,35.7L37.2,35.7z"/>
			<path class="st3" d="M60.3,35.7H72v93.2c0,0.9-0.6,1.8-1.7,2.5c-1.1,0.7-2.6,1-4.1,1c-1.5,0-3-0.4-4.1-1
				c-1.1-0.7-1.7-1.5-1.7-2.5L60.3,35.7L60.3,35.7z"/>
		</g>
		<g>
			<path class="st3" d="M102.1,35.7v93.1c0,0.1,0,0.2,0.1,0.4c0.4-1.2,2.8-2,5.8-2c2.9,0,5.3,0.9,5.8,2c0-0.1,0.1-0.2,0.1-0.4V35.7
				H102.1z"/>
			<path class="st3" d="M90.5,35.7h11.7v93.2c0,0.9-0.6,1.8-1.7,2.5c-1.1,0.7-2.6,1-4.1,1c-1.5,0-3-0.4-4.1-1
				c-1.1-0.7-1.7-1.5-1.7-2.5L90.5,35.7L90.5,35.7z"/>
			<path class="st3" d="M113.6,35.7h11.7v93.2c0,0.9-0.6,1.8-1.7,2.5c-1.1,0.7-2.6,1-4.1,1c-1.5,0-3-0.4-4.1-1
				c-1.1-0.7-1.7-1.5-1.7-2.5L113.6,35.7L113.6,35.7z"/>
		</g>
		<g class="st4">
			<path class="st5" d="M48.8,35.7v93.1c0,0.1,0,0.2,0.1,0.4c0.4-1.2,2.8-2,5.8-2c2.9,0,5.3,0.9,5.8,2c0-0.1,0.1-0.2,0.1-0.4V35.7
				H48.8z"/>
			<path class="st5" d="M37.2,35.7h11.7v93.2c0,0.9-0.6,1.8-1.7,2.5c-1.1,0.7-2.6,1-4.1,1c-1.5,0-3-0.4-4.1-1
				c-1.1-0.7-1.7-1.5-1.7-2.5L37.2,35.7L37.2,35.7z"/>
			<path class="st5" d="M60.3,35.7H72v93.2c0,0.9-0.6,1.8-1.7,2.5c-1.1,0.7-2.6,1-4.1,1c-1.5,0-3-0.4-4.1-1
				c-1.1-0.7-1.7-1.5-1.7-2.5L60.3,35.7L60.3,35.7z"/>
		</g>
		<g class="st4">
			<path class="st5" d="M102.1,35.7v93.1c0,0.1,0,0.2,0.1,0.4c0.4-1.2,2.8-2,5.8-2c2.9,0,5.3,0.9,5.8,2c0-0.1,0.1-0.2,0.1-0.4V35.7
				H102.1z"/>
			<path class="st5" d="M90.5,35.7h11.7v93.2c0,0.9-0.6,1.8-1.7,2.5c-1.1,0.7-2.6,1-4.1,1c-1.5,0-3-0.4-4.1-1
				c-1.1-0.7-1.7-1.5-1.7-2.5L90.5,35.7L90.5,35.7z"/>
			<path class="st5" d="M113.6,35.7h11.7v93.2c0,0.9-0.6,1.8-1.7,2.5c-1.1,0.7-2.6,1-4.1,1c-1.5,0-3-0.4-4.1-1
				c-1.1-0.7-1.7-1.5-1.7-2.5L113.6,35.7L113.6,35.7z"/>
		</g>
	</g>
</g>
<g>
	<circle class="st6" cx="117.6" cy="87.4" r="30.7"/>
	<path class="st2" d="M100.1,104.4c-3.4-3.4-3.4-9,0-12.4L116,76.1c1.6-1.6,4.1-1.6,5.7,0l6.7,6.7c1.6,1.6,1.6,4.1,0,5.7l-15.9,15.9
		C109.1,107.8,103.5,107.8,100.1,104.4 M120.4,77.4c-0.8-0.8-2.2-0.8-3,0l-15.9,15.9c-2.7,2.7-2.7,7.1,0,9.8c2.7,2.7,7.1,2.7,9.8,0
		l15.9-15.9c0.8-0.8,0.8-2.2,0-3L120.4,77.4z M116.9,87.6c-1.1-1.1-1.1-3,0-4.2c1.1-1.1,3-1.1,4.2,0c1.1,1.1,1.1,3,0,4.2
		C120,88.7,118.1,88.7,116.9,87.6 M119.8,84.7c-0.4-0.4-1.1-0.4-1.5,0c-0.4,0.4-0.4,1.1,0,1.5c0.4,0.4,1.1,0.4,1.5,0
		C120.2,85.8,120.2,85.1,119.8,84.7 M135.7,81.2c0.5,0,0.9-0.4,1-0.9c0.1-3.4-1.2-6.5-3.6-8.9c-2.3-2.3-5.4-3.6-8.7-3.6
		c-0.5,0-0.9,0.4-0.9,0.9c0,0.5,0.4,0.9,0.9,0.9c2.8,0,5.4,1.1,7.4,3c2,2,3.1,4.7,3,7.5c0,0.3,0.1,0.5,0.3,0.7
		C135.3,81.1,135.5,81.2,135.7,81.2 M128.3,81.1c0.5,0,0.9-0.4,1-0.9c0-1.4-0.5-2.6-1.4-3.6c-0.9-0.9-2.1-1.4-3.4-1.4
		c-0.5,0-0.9,0.4-0.9,0.9c0,0.5,0.4,0.9,0.9,0.9c0.8,0,1.5,0.3,2.1,0.9c0.6,0.6,0.9,1.4,0.9,2.2c0,0.3,0.1,0.5,0.3,0.7
		C127.8,81,128,81.1,128.3,81.1 M132.1,81.2c0.5,0,0.9-0.4,1-0.9c0.1-2.4-0.8-4.6-2.5-6.3c-1.6-1.6-3.8-2.5-6.1-2.5
		c-0.5,0-0.9,0.4-0.9,0.9s0.4,0.9,0.9,0.9c1.8,0,3.5,0.7,4.8,2c1.3,1.3,2,3,2,4.9c0,0.3,0.1,0.5,0.3,0.7
		C131.6,81.1,131.8,81.2,132.1,81.2"/>
</g>
</svg>
