<?xml version="1.0" encoding="utf-8"?>
<!-- Generator: Adobe Illustrator 24.0.2, SVG Export Plug-In . SVG Version: 6.00 Build 0)  -->
<svg version="1.1" id="Layer_1" xmlns="http://www.w3.org/2000/svg" xmlns:xlink="http://www.w3.org/1999/xlink" x="0px" y="0px"
	 viewBox="0 0 139 141.5" style="enable-background:new 0 0 139 141.5;" xml:space="preserve">
<style type="text/css">
	.st0{fill:#FFFFFF;}
	.st1{fill:#376AAA;}
	.st2{fill:none;stroke:#376AAA;stroke-width:2;stroke-miterlimit:10;}
	.st3{opacity:7.000000e-02;fill:#376AAA;}
	.st4{opacity:7.000000e-02;fill:none;stroke:#376AAA;stroke-width:2;stroke-miterlimit:10;}
</style>
<circle class="st0" cx="68.4" cy="71.5" r="67"/>
<g>
	<path class="st1" d="M134.4,82.4c2.5,0,4.6-2,4.6-4.6c0-2.5-2.1-4.6-4.6-4.6c-2.5,0-4.6,2-4.6,4.6
		C129.8,80.4,131.8,82.4,134.4,82.4z"/>
	<path class="st2" d="M3.1,138.3c-2.8-2.8-2.8-7.4,0-10.2l92.2-91.4c1.6-1.6,4.1-1.6,5.7,0l4.6,4.6c1.6,1.6,1.6,4.1,0,5.6
		l-92.2,91.4C10.6,141.2,6,141.2,3.1,138.3z"/>
	<path class="st3" d="M3.1,138.3c-2.8-2.8-2.8-7.4,0-10.2l92.2-91.4c1.6-1.6,4.1-1.6,5.7,0l4.6,4.6c1.6,1.6,1.6,4.1,0,5.6
		l-92.2,91.4C10.6,141.2,6,141.2,3.1,138.3z"/>
	<path class="st1" d="M105.7,41.3l-1-1L6.1,138c-0.5,0.5-1.2,1-1.8,1.3c2.8,1.8,6.7,1.5,9.2-0.9l92.2-91.4
		C107.3,45.3,107.3,42.8,105.7,41.3z"/>
	<path class="st1" d="M89.4,55.4L60.5,84l3.9,3.8l28.9-28.6L89.4,55.4z"/>
	<path class="st1" d="M95.6,10.9h-8.7V2.3c0-1.2-1-2.3-2.3-2.3c-1.3,0-2.3,1-2.3,2.3v8.6h-8.7c-1.3,0-2.3,1-2.3,2.3s1,2.3,2.3,2.3
		h8.7V24c0,1.2,1,2.3,2.3,2.3c1.3,0,2.3-1,2.3-2.3v-8.6h8.7c1.3,0,2.3-1,2.3-2.3S96.9,10.9,95.6,10.9z"/>
	<path class="st1" d="M130,13.5H124v-6c0-1.2-1-2.3-2.3-2.3c-1.3,0-2.3,1-2.3,2.3v6h-6.1c-1.3,0-2.3,1-2.3,2.3c0,1.2,1,2.3,2.3,2.3
		h6.1v6c0,1.2,1,2.3,2.3,2.3c1.3,0,2.3-1,2.3-2.3v-6h6.1c1.3,0,2.3-1,2.3-2.3C132.3,14.5,131.3,13.5,130,13.5z"/>
	<path class="st1" d="M126.5,51.6h-3.7V48c0-1.2-1-2.3-2.3-2.3c-1.3,0-2.3,1-2.3,2.3v3.6h-3.7c-1.3,0-2.3,1-2.3,2.3
		c0,1.2,1,2.3,2.3,2.3h3.7v3.6c0,1.2,1,2.3,2.3,2.3c1.3,0,2.3-1,2.3-2.3v-3.6h3.7c1.3,0,2.3-1,2.3-2.3
		C128.8,52.6,127.7,51.6,126.5,51.6z"/>
	<path class="st2" d="M54.1,77.6l10.3,10.2l28.9-28.6L82.9,49L54.1,77.6z"/>
	<path class="st4" d="M54.1,77.6l10.3,10.2l28.9-28.6L82.9,49L54.1,77.6z"/>
</g>
</svg>
