<?xml version="1.0" encoding="UTF-8"?>
<svg version="1.1" xmlns="http://www.w3.org/2000/svg" width="162" height="157">
<path d="M0 0 C1.63956665 0.01353516 1.63956665 0.01353516 3.31225586 0.02734375 C21.46866804 0.41453714 39.15948641 7.10688121 52.6875 19.4375 C53.50605469 20.16453125 54.32460937 20.8915625 55.16796875 21.640625 C68.16870062 33.83495747 77.62823298 51.76465006 78.92651367 69.74829102 C78.98028128 73.06655556 78.95138206 76.36977683 78.875 79.6875 C78.86146484 80.82574219 78.84792969 81.96398437 78.83398438 83.13671875 C78.79910054 85.90416987 78.75009317 88.67056105 78.6875 91.4375 C80.3375 91.7675 81.9875 92.0975 83.6875 92.4375 C83.6875 101.3475 83.6875 110.2575 83.6875 119.4375 C81.191875 119.39625 78.69625 119.355 76.125 119.3125 C70.3226254 119.49626979 70.3226254 119.49626979 65.453125 122.34375 C64.3666947 124.04331423 63.33924834 125.78155985 62.36328125 127.546875 C53.52529274 142.79189015 35.47044051 151.54264076 19.0859375 156.046875 C12.79919031 157.57288802 6.82621481 157.93939644 0.375 157.875 C-0.71804443 157.86597656 -1.81108887 157.85695312 -2.93725586 157.84765625 C-21.09366804 157.46046286 -38.78448641 150.76811879 -52.3125 138.4375 C-53.13105469 137.71046875 -53.94960938 136.9834375 -54.79296875 136.234375 C-68.58192775 123.30070696 -77.932211 104.36418885 -78.74609375 85.32421875 C-78.76976652 83.25794769 -78.77062597 81.19130372 -78.75 79.125 C-78.74097656 78.03195557 -78.73195313 76.93891113 -78.72265625 75.81274414 C-78.33546286 57.65633196 -71.64311879 39.96551359 -59.3125 26.4375 C-58.58546875 25.61894531 -57.8584375 24.80039062 -57.109375 23.95703125 C-42.29994137 8.16826411 -21.50419744 -0.21465626 0 0 Z " fill="#EFF3F7" transform="translate(78.3125,-0.4375)"/>
<path d="M0 0 C2.23056261 1.66114082 4.2885679 3.40407043 6.34375 5.27734375 C7.16230469 6.004375 7.98085937 6.73140625 8.82421875 7.48046875 C21.85410333 19.70214567 31.19866631 37.56219652 32.59887695 55.5559082 C32.67177958 58.84335346 32.65636987 62.11480084 32.59375 65.40234375 C32.58859375 66.52382812 32.5834375 67.6453125 32.578125 68.80078125 C32.4992303 76.96638316 32.4992303 76.96638316 31.34375 79.27734375 C22.52957412 79.3931256 13.71565942 79.48200127 4.9008894 79.53640461 C0.80792089 79.56251397 -3.28452791 79.59793495 -7.37719727 79.65454102 C-11.3259308 79.70881533 -15.27416411 79.7387542 -19.22324181 79.75172997 C-20.73082037 79.76097831 -22.23837114 79.77903851 -23.74573708 79.80599403 C-25.85559138 79.84222756 -27.96337164 79.8472921 -30.07348633 79.8449707 C-31.27483719 79.85607376 -32.47618805 79.86717682 -33.71394348 79.87861633 C-36.65625 79.27734375 -36.65625 79.27734375 -38.5446167 76.88117981 C-39.65295792 74.28505496 -40.02460842 72.5987158 -40.02734375 69.80078125 C-40.04176514 68.9703833 -40.05618652 68.13998535 -40.07104492 67.28442383 C-40.0785376 66.4158374 -40.08603027 65.54725098 -40.09375 64.65234375 C-40.48269788 51.98131158 -43.60047545 41.66980463 -52.5390625 32.3046875 C-62.94632058 22.69327856 -74.27766903 20.669157 -88.04296875 20.96875 C-99.18497793 21.50892787 -107.61339045 27.64053929 -114.96875 35.71484375 C-117.87463112 39.27636936 -119.7536449 43.10624794 -121.65625 47.27734375 C-123.55381204 42.34368244 -121.12061809 38.41657645 -119.234375 33.7890625 C-114.81046773 23.9447738 -109.27600615 15.91003667 -101.65625 8.27734375 C-100.96917969 7.57867188 -100.28210938 6.88 -99.57421875 6.16015625 C-72.35229384 -19.79915618 -30.50829159 -19.7855244 0 0 Z " fill="#FEFEFE" transform="translate(124.65625,13.72265625)"/>
<path d="M0 0 C1.88656962 2.82985443 2.67966861 4.92365323 3.6875 8.125 C7.32050197 18.27327487 14.07397314 25.44412514 23.6050415 30.33744812 C31.10197201 33.69570474 37.37770363 34.73690242 45.546875 34.70703125 C47.25269745 34.72971321 47.25269745 34.72971321 48.99298096 34.75285339 C52.578861 34.79539402 56.16389383 34.80453624 59.75 34.8125 C62.20054283 34.8356703 64.6510659 34.86104084 67.1015625 34.88867188 C73.06771666 34.95119176 79.03354426 34.98639223 85 35 C85.495 34.01 85.495 34.01 86 33 C86.66 33.33 87.32 33.66 88 34 C89.84781542 34.11970061 91.6997936 34.1772696 93.55126953 34.20532227 C95.29284836 34.2352401 95.29284836 34.2352401 97.0696106 34.26576233 C98.32796722 34.28247482 99.58632385 34.29918732 100.8828125 34.31640625 C102.16735321 34.33718735 103.45189392 34.35796844 104.77536011 34.37937927 C108.19149359 34.43459049 111.60768745 34.48400388 115.02392578 34.53222656 C118.50949481 34.58244857 121.99497609 34.63813097 125.48046875 34.69335938 C132.32023642 34.80092928 139.16008334 34.90237684 146 35 C140.07267342 50.2191909 126.17859581 60.54564067 111.92578125 67.5 C101.08178816 72.26285187 90.52604979 74.55567316 78.6875 74.4375 C77.59445557 74.42847656 76.50141113 74.41945313 75.37524414 74.41015625 C57.21883196 74.02296286 39.52801359 67.33061879 26 55 C25.18144531 54.27296875 24.36289062 53.5459375 23.51953125 52.796875 C10.84533829 40.90882714 1.0707196 23.08318049 -0.1796875 5.46875 C-0.18610964 3.6448609 -0.10505034 1.82087262 0 0 Z " fill="#FDFDFE" transform="translate(0,83)"/>
<path d="M0 0 C11.56733073 5.95041748 19.05118752 15.28772241 23.57421875 27.32421875 C24.42325582 30.24152079 24.7285976 32.91552452 24.8203125 35.94921875 C24.85318359 36.820625 24.88605469 37.69203125 24.91992188 38.58984375 C24.98111553 40.4126336 25.03840799 42.23555861 25.09179688 44.05859375 C25.12595703 44.93 25.16011719 45.80140625 25.1953125 46.69921875 C25.23289673 47.88644531 25.23289673 47.88644531 25.27124023 49.09765625 C25.507229 51.72779333 25.507229 51.72779333 27.57421875 55.32421875 C51.99421875 55.32421875 76.41421875 55.32421875 101.57421875 55.32421875 C101.57421875 64.23421875 101.57421875 73.14421875 101.57421875 82.32421875 C99.34824951 82.29392578 97.12228027 82.26363281 94.82885742 82.23242188 C87.48072399 82.13245154 80.13258754 82.03270428 72.78444958 81.93306732 C68.3285476 81.87264071 63.87264667 81.81213857 59.41674805 81.75146484 C55.11794075 81.69293292 50.81913082 81.63459803 46.52031898 81.57640076 C44.87884742 81.5541437 43.23737682 81.53181521 41.59590721 81.50941467 C39.29986187 81.47809349 37.00381325 81.4470245 34.70776367 81.41601562 C33.39982346 81.39825073 32.09188324 81.38048584 30.74430847 81.36218262 C27.04369314 81.31786536 23.35064991 81.34022143 19.65063477 81.40356445 C14.03065907 81.4940703 8.41077588 81.55151857 2.7902832 81.59887695 C0.37057523 81.62393908 -2.04905765 81.657998 -4.46850586 81.70141602 C-7.9739827 81.76263762 -11.47845784 81.79055199 -14.984375 81.8125 C-16.05046494 81.83830643 -17.11655487 81.86411285 -18.21495056 81.89070129 C-29.95452199 81.89500363 -39.95418368 77.40481951 -48.42578125 69.32421875 C-54.13410016 63.34407513 -57.03124979 57.17725202 -59.42578125 49.32421875 C-59.92078125 47.83921875 -59.92078125 47.83921875 -60.42578125 46.32421875 C-60.52280052 43.52207409 -60.56497757 40.75062527 -60.55078125 37.94921875 C-60.55464844 37.19382813 -60.55851562 36.4384375 -60.5625 35.66015625 C-60.55566119 31.74835944 -60.38453277 28.14400656 -59.42578125 24.32421875 C-58.76578125 24.32421875 -58.10578125 24.32421875 -57.42578125 24.32421875 C-57.21953125 23.49921875 -57.01328125 22.67421875 -56.80078125 21.82421875 C-52.60472619 11.14335132 -43.74633177 4.06802763 -33.625 -0.73046875 C-23.76864646 -4.96712515 -9.79159504 -3.8920566 0 0 Z M-50.30859375 16.6953125 C-57.25299346 26.64224252 -58.00223199 37.49621516 -56.42578125 49.32421875 C-53.709334 59.49155774 -47.12603821 67.28379771 -38.55078125 73.07421875 C-30.5874533 77.63641692 -23.36498971 78.76071944 -14.265625 78.6171875 C-13.23514542 78.61294266 -12.20466583 78.60869781 -11.14295959 78.60432434 C-7.8827901 78.58766091 -4.62326086 78.55003176 -1.36328125 78.51171875 C0.86001705 78.49665597 3.08332514 78.48297037 5.30664062 78.47070312 C10.72938156 78.43779799 16.15175439 78.38772332 21.57421875 78.32421875 C21.67391632 72.1353004 21.74607573 65.94686085 21.79394531 59.75732422 C21.81392406 57.65665532 21.84111664 55.55604105 21.87597656 53.45556641 C22.1480847 36.62487809 21.61717463 24.00609031 9.609375 11.234375 C1.67472849 3.52930235 -6.91370898 -0.12629634 -17.92578125 -0.30078125 C-31.65840272 -0.06817956 -41.80909515 5.99158709 -50.30859375 16.6953125 Z " fill="#4373AF" transform="translate(60.42578125,36.67578125)"/>
<path d="M0 0 C4.53648325 3.21398305 7.5547929 7.3831287 9.3046875 12.6328125 C9.3880679 14.77075775 9.41202497 16.91123259 9.40234375 19.05078125 C9.39912109 20.30439453 9.39589844 21.55800781 9.39257812 22.84960938 C9.38000977 24.81510742 9.38000977 24.81510742 9.3671875 26.8203125 C9.36217067 28.15559731 9.35760809 29.49088391 9.35351562 30.82617188 C9.34171445 34.09509723 9.32525047 37.36393241 9.3046875 40.6328125 C5.3048282 40.72064725 1.30522046 40.77348352 -2.6953125 40.8203125 C-4.38333984 40.85801758 -4.38333984 40.85801758 -6.10546875 40.89648438 C-13.65286951 40.96268964 -19.62261698 40.6098448 -25.90234375 36.01953125 C-31.06480464 30.55561279 -33.82314393 26.47049527 -34.1328125 18.7578125 C-33.96182224 13.23140729 -33.19629875 9.00173128 -29.6953125 4.6328125 C-20.58682841 -3.88618724 -11.17492983 -6.09225147 0 0 Z " fill="#3A6CAB" transform="translate(54.6953125,57.3671875)"/>
<path d="M0 0 C1.98 0.66 3.96 1.32 6 2 C6 3.98 6 5.96 6 8 C7.65 8 9.3 8 11 8 C11 6.02 11 4.04 11 2 C13.64 2 16.28 2 19 2 C19 5.63 19 9.26 19 13 C20.32 13 21.64 13 23 13 C23 9.37 23 5.74 23 2 C25.31 2 27.62 2 30 2 C30 3.98 30 5.96 30 8 C31.32 8 32.64 8 34 8 C34 6.02 34 4.04 34 2 C36.31 2 38.62 2 41 2 C41 5.63 41 9.26 41 13 C42.32 13 43.64 13 45 13 C45 9.37 45 5.74 45 2 C46.32 2 47.64 2 49 2 C49 8.27 49 14.54 49 21 C42.50387022 21.09876579 36.00817596 21.17142036 29.51147461 21.21972656 C27.30078521 21.23986064 25.09014918 21.26717015 22.87963867 21.30175781 C19.70478154 21.35019629 16.53062752 21.37295072 13.35546875 21.390625 C12.36475876 21.41127014 11.37404877 21.43191528 10.35331726 21.45318604 C9.43258926 21.45348816 8.51186127 21.45379028 7.56323242 21.45410156 C6.7527092 21.46298401 5.94218597 21.47186646 5.10710144 21.48101807 C3 21 3 21 1.23608398 19.09753418 C-0.13381708 16.77292329 -0.35362173 15.55935608 -0.29296875 12.890625 C-0.28330078 12.13652344 -0.27363281 11.38242188 -0.26367188 10.60546875 C-0.23853516 9.82816406 -0.21339844 9.05085938 -0.1875 8.25 C-0.17396484 7.45722656 -0.16042969 6.66445312 -0.14648438 5.84765625 C-0.11125223 3.89814436 -0.05744821 1.94898374 0 0 Z " fill="#F0F3F8" transform="translate(85,94)"/>
<path d="M0 0 C1.32 0 2.64 0 4 0 C4 3.63 4 7.26 4 11 C2.68 11 1.36 11 0 11 C0 7.37 0 3.74 0 0 Z " fill="#F6F8FB" transform="translate(151,100)"/>
</svg>
