<?xml version="1.0" encoding="utf-8"?>
<!-- Generator: Adobe Illustrator 24.0.2, SVG Export Plug-In . SVG Version: 6.00 Build 0)  -->
<svg version="1.1" id="Layer_1" xmlns="http://www.w3.org/2000/svg" xmlns:xlink="http://www.w3.org/1999/xlink" x="0px" y="0px"
	 viewBox="0 0 127.6 144.8" style="enable-background:new 0 0 127.6 144.8;" xml:space="preserve">
<style type="text/css">
	.st0{fill:#FFFFFF;fill-opacity:5.000000e-02;}
	.st1{fill:#FFFFFF;}
	.st2{fill:none;}
	.st3{fill:#396BAC;}
	.st4{fill:#FFFFFF;stroke:#396BAC;stroke-width:2.1928;stroke-miterlimit:10;}
	.st5{opacity:7.000000e-02;fill:#376AAA;}
	.st6{fill:#969BA5;}
	.st7{fill:#396BAC;stroke:#396BAC;stroke-width:2.1928;stroke-miterlimit:10;}
</style>
<circle class="st0" cx="65.9" cy="76.2" r="61.8"/>
<circle class="st1" cx="65" cy="73.3" r="61.8"/>
<rect x="-8.4" y="12.6" transform="matrix(0.4394 -0.8983 0.8983 0.4394 -40.9875 79.1688)" class="st2" width="102.7" height="119.6"/>
<path class="st3" d="M71.5,68.7l-6.1,12.4l-6.2-3c-0.3-0.2-0.6-0.4-0.8-0.7c-0.2-0.3-0.3-0.6-0.3-1c0-0.4,0-0.7,0.2-1.1
	c0.2-0.3,0.4-0.6,0.7-0.8c1.1-0.7,2-1.8,2.6-3l2.6-6.4L71.5,68.7z"/>
<path class="st4" d="M79.4,122.1l-8.9-4.4l3.6-18c0.2-0.8,0.1-1.7-0.1-2.4c-0.2-0.8-0.7-1.5-1.2-2.1l-6.5-6.8l0.5-2.6
	c0.1-0.4,0-0.9-0.2-1.3c-0.2-0.4-0.5-0.7-0.9-0.9c-0.3-0.1-0.5-0.3-0.7-0.5c-0.2-0.2-0.3-0.5-0.4-0.7c-0.1-0.3-0.1-0.6-0.1-0.8
	c0-0.3,0.1-0.6,0.2-0.8l4.2-8.6c0.1-0.1,0.1-0.3,0.1-0.4c0-0.1,0-0.3-0.1-0.4c0-0.1-0.1-0.2-0.2-0.3c-0.1-0.1-0.2-0.2-0.3-0.2L63,68
	c-0.2-0.1-0.4-0.3-0.5-0.6c-0.1-0.3-0.1-0.5,0-0.8l3.3-6.7l28.6,14l-8.3,17c-0.7,1.4-1.2,2.8-1.5,4.3L79.4,122.1z"/>
<path class="st3" d="M72.4,118.7L76.3,99c0.2-0.8,0.1-1.7-0.1-2.4C76,95.7,75.5,95,75,94.4l-8.3-8.7l-5.4,27.5L72.4,118.7z"/>
<path class="st3" d="M72.4,118.7l-5.3-2.6l4.6-22.8c0.2-0.8,0.1-1.6-0.1-2.4l3.4,3.5c0.6,0.6,1,1.3,1.2,2.1c0.2,0.8,0.3,1.6,0.1,2.4
	L72.4,118.7z"/>
<path class="st4" d="M73,119l6.4,3.1l5.3-26.8c0.3-1.5,0.8-3,1.5-4.3l8.3-17l-6.3-3.1"/>
<path class="st5" d="M88.1,70.9L88.1,70.9L65.8,60l-3.3,6.7c-0.1,0.2-0.1,0.5,0,0.8c0.1,0.3,0.3,0.5,0.5,0.6l5.3,2.6
	c0.1,0.1,0.2,0.1,0.3,0.2c0.1,0.1,0.2,0.2,0.2,0.3c0,0.1,0.1,0.3,0.1,0.4c0,0.1,0,0.3-0.1,0.4l-4.2,8.6c-0.1,0.3-0.2,0.5-0.2,0.8
	c0,0.3,0,0.6,0.1,0.8c0.1,0.3,0.2,0.5,0.4,0.7c0.2,0.2,0.4,0.4,0.7,0.5c0.4,0.2,0.7,0.5,0.9,0.9c0.2,0.4,0.3,0.9,0.2,1.3l-0.5,2.6
	l6.5,6.8c0.6,0.6,1,1.3,1.2,2.1c0.2,0.8,0.3,1.6,0.1,2.4l-3.6,18l8.9,4.4l5.3-26.8c0.3-1.5,0.8-3,1.5-4.3l8.3-17L88.1,70.9z"/>
<path class="st4" d="M94.4,74l-3.7,7.6L63,68.1c-0.2-0.1-0.4-0.3-0.5-0.6c-0.1-0.3-0.1-0.5,0-0.8l3.3-6.7L94.4,74z"/>
<path class="st6" d="M50,25.3l-8.5,17.4c1.4,1.4,3,2.6,4.8,3.4L55.7,27C53.9,26.1,52,25.5,50,25.3L50,25.3z"/>
<path class="st3" d="M31.4,29l-26.7-13c-0.4-0.2-0.7-0.6-0.9-1c-0.2-0.4-0.1-0.9,0.1-1.4c0.2-0.4,0.6-0.8,1-0.9
	c0.5-0.2,0.9-0.1,1.4,0.1l26.7,13c0.4,0.2,0.7,0.6,0.9,1c0.2,0.4,0.1,0.9-0.1,1.4c-0.2,0.4-0.6,0.7-1,0.9
	C32.3,29.2,31.8,29.2,31.4,29z"/>
<path class="st4" d="M40.3,26.6L35,24c-0.5-0.2-1.1-0.3-1.6-0.1c-0.5,0.2-0.9,0.6-1.2,1l-1.9,3.9c-0.2,0.5-0.3,1.1-0.1,1.6
	c0.2,0.5,0.6,0.9,1.1,1.2l5.3,2.6c0.3,4.3,3.5,8.9,8.7,11.4l9.4-19.2C49.5,23.9,43.9,24.2,40.3,26.6z"/>
<path class="st4" d="M52,54.4l14.3,7l13.7-28l-14.3-7c-0.2-0.1-0.3-0.1-0.5-0.2l-6.7-1.7c-0.7-0.2-1.4-0.1-2.1,0.2
	c-0.6,0.3-1.2,0.8-1.5,1.4L45.3,46c-0.3,0.6-0.4,1.4-0.2,2c0.2,0.7,0.5,1.3,1.1,1.7l5.4,4.3C51.7,54.2,51.8,54.3,52,54.4z"/>
<path class="st4" d="M98.1,76.9c4.1,2,10.5-2.6,14.3-10.4c3.8-7.7,3.5-15.6-0.6-17.6l-32.7-16l-13.7,28L98.1,76.9z"/>
<path class="st5" d="M40.3,26.6L35,24c-0.5-0.2-1.1-0.3-1.6-0.1c-0.5,0.2-0.9,0.6-1.2,1l-1.9,3.9c-0.2,0.5-0.3,1.1-0.1,1.6
	c0.2,0.5,0.6,0.9,1.1,1.2l5.3,2.6c0.3,4.3,3.5,8.9,8.7,11.4l9.4-19.2C49.5,23.9,43.9,24.2,40.3,26.6z"/>
<path class="st5" d="M98.1,76.9c4.1,2,10.5-2.6,14.3-10.4c3.8-7.7,3.5-15.6-0.6-17.6l-32.7-16l-13.7,28L98.1,76.9z"/>
<path class="st4" d="M112.4,66.6c-3.8,7.7-10.2,12.4-14.3,10.4l-6.7-3.2c4.1,2,11.1-2.4,14.8-10.1c3.8-7.7,3-15.9-1.1-17.9l6.6,3.3
	C115.9,50.9,116.2,58.8,112.4,66.6z"/>
<path class="st5" d="M112.4,66.6c-3.8,7.7-10.2,12.4-14.3,10.4l-6.7-3.2c4.1,2,11.1-2.4,14.8-10.1c3.8-7.7,3-15.9-1.1-17.9l6.6,3.3
	C115.9,50.9,116.2,58.8,112.4,66.6z"/>
<path class="st3" d="M107.6,62.6l-3.8-1.9c-0.4-0.2-0.7-0.6-0.9-1c-0.2-0.4-0.1-0.9,0.1-1.4c0.2-0.4,0.6-0.7,1-0.9
	c0.4-0.2,0.9-0.1,1.4,0.1l3.8,1.9c0.2,0.1,0.4,0.2,0.5,0.4c0.2,0.2,0.3,0.4,0.4,0.6c0.1,0.2,0.1,0.5,0.1,0.7c0,0.2-0.1,0.5-0.2,0.7
	c-0.1,0.2-0.2,0.4-0.4,0.6c-0.2,0.2-0.4,0.3-0.6,0.4c-0.2,0.1-0.5,0.1-0.7,0.1C108,62.8,107.8,62.8,107.6,62.6z"/>
<path class="st3" d="M108.5,56l-2-1c-0.4-0.2-0.7-0.6-0.9-1c-0.2-0.4-0.1-0.9,0.1-1.4c0.1-0.2,0.2-0.4,0.4-0.6
	c0.2-0.2,0.4-0.3,0.6-0.4c0.2-0.1,0.5-0.1,0.7-0.1c0.2,0,0.5,0.1,0.7,0.2l2,1c0.4,0.2,0.7,0.6,0.9,1c0.2,0.4,0.1,0.9-0.1,1.4
	c-0.1,0.2-0.2,0.4-0.4,0.6c-0.2,0.2-0.4,0.3-0.6,0.4c-0.2,0.1-0.4,0.1-0.7,0.1C109,56.2,108.8,56.1,108.5,56z"/>
<path class="st3" d="M104.8,68.4l-3.8-1.9c-0.2-0.1-0.4-0.2-0.5-0.4c-0.2-0.2-0.3-0.4-0.4-0.6c-0.1-0.2-0.1-0.5-0.1-0.7
	c0-0.2,0.1-0.5,0.2-0.7c0.2-0.4,0.6-0.7,1-0.9c0.4-0.2,0.9-0.1,1.4,0.1l3.8,1.9c0.4,0.2,0.7,0.6,0.9,1c0.2,0.4,0.1,0.9-0.1,1.4
	c-0.2,0.4-0.6,0.7-1,0.9C105.7,68.6,105.2,68.6,104.8,68.4z"/>
<path class="st3" d="M100.1,73.2l-2-1c-0.4-0.2-0.7-0.6-0.9-1c-0.2-0.4-0.1-0.9,0.1-1.4c0.2-0.4,0.6-0.7,1-0.9
	c0.4-0.2,0.9-0.1,1.4,0.1l2,1c0.4,0.2,0.7,0.6,0.9,1c0.2,0.4,0.1,0.9-0.1,1.4c-0.2,0.4-0.6,0.7-1,0.9
	C101,73.5,100.5,73.4,100.1,73.2z"/>
<path class="st3" d="M96.5,41.4l-4.4,9c-0.1,0.2-0.2,0.4-0.4,0.6c-0.2,0.2-0.4,0.3-0.6,0.4c-0.2,0.1-0.5,0.1-0.7,0.1
	c-0.2,0-0.5-0.1-0.7-0.2c-0.4-0.2-0.7-0.6-0.9-1c-0.2-0.4-0.1-0.9,0.1-1.4l4.4-9L96.5,41.4z"/>
<path class="st3" d="M87.2,60.4l-4.4,9l-3.2-1.6l4.4-9c0.2-0.4,0.6-0.8,1-0.9c0.5-0.2,0.9-0.1,1.4,0.1c0.4,0.2,0.7,0.6,0.9,1
	C87.4,59.5,87.4,60,87.2,60.4z"/>
<path class="st3" d="M88.9,58.6l-11-4.2c-0.6-0.2-1-0.6-1.2-1.1c-0.2-0.5-0.2-1,0.1-1.4l3.5-5.7c0.3-0.4,0.8-0.8,1.4-0.9
	c0.6-0.2,1.3-0.1,1.8,0.1l11,4.2c1.5,0.6,2.7,1.6,3.2,2.9s0.4,2.6-0.3,3.8c-0.7,1.2-2.1,2.1-3.7,2.6C92.2,59.2,90.4,59.1,88.9,58.6
	L88.9,58.6z"/>
<path class="st1" d="M90.9,58.1L82.6,54c-0.4-0.2-0.8-0.6-0.9-1c-0.2-0.4-0.1-0.9,0.1-1.4c0.2-0.4,0.6-0.7,1-0.9
	c0.4-0.2,0.9-0.1,1.4,0.1l8.4,4.1c0.4,0.2,0.7,0.6,0.9,1c0.2,0.4,0.1,0.9-0.1,1.4c-0.2,0.4-0.6,0.8-1,0.9
	C91.9,58.3,91.4,58.3,90.9,58.1z"/>
<path class="st3" d="M60.8,39.8l-1.2,2.5l3.9,1.9c0.2,0.1,0.4,0.2,0.5,0.4c0.2,0.2,0.3,0.4,0.4,0.6c0.1,0.2,0.1,0.5,0.1,0.7
	c0,0.2-0.1,0.5-0.2,0.7c-0.2,0.4-0.6,0.7-1.1,0.9c-0.4,0.1-0.9,0.1-1.4-0.1L58,45.5L56.8,48l3.8,1.9c0.4,0.2,0.7,0.5,0.9,0.9
	c0.2,0.4,0.2,0.9,0.1,1.3c-0.1,0.2-0.2,0.5-0.4,0.6c-0.2,0.2-0.4,0.3-0.6,0.4c-0.2,0.1-0.5,0.1-0.7,0.1c-0.2,0-0.5-0.1-0.7-0.2
	l-3.9-1.9L53.4,55L52,54.4c-0.2-0.1-0.3-0.2-0.4-0.3l-1.2-1l13.4-27.3l1.5,0.4c0.2,0,0.3,0.1,0.5,0.2l1.4,0.7l-1.9,3.8l3.8,1.9
	c0.4,0.2,0.7,0.6,0.9,1c0.2,0.4,0.2,0.9,0,1.4c-0.1,0.2-0.2,0.4-0.4,0.6c-0.2,0.2-0.4,0.3-0.6,0.4c-0.2,0.1-0.5,0.1-0.7,0.1
	c-0.2,0-0.5-0.1-0.7-0.2L63.6,34l-1.2,2.5l3.9,1.9c0.2,0.1,0.4,0.2,0.5,0.4c0.2,0.2,0.3,0.4,0.4,0.6c0.1,0.2,0.1,0.5,0.1,0.7
	c0,0.2-0.1,0.5-0.2,0.7c-0.2,0.4-0.6,0.7-1.1,0.9c-0.4,0.1-0.9,0.1-1.4-0.1L60.8,39.8z"/>
<path class="st4" d="M82.5,127.7l-6.1,12.5L49.5,127l4-8.2l-13.4-6.5l2.1-4.3c0.6-1.2,1.7-2.2,3-2.6c1.3-0.4,2.7-0.4,3.9,0.2
	l31,15.1c1.2,0.6,2.1,1.7,2.6,3C83.1,125.1,83,126.5,82.5,127.7L82.5,127.7z"/>
<path class="st5" d="M82.5,127.7l-6.1,12.5L49.5,127l4-8.2l-13.4-6.5l2.1-4.3c0.6-1.2,1.7-2.2,3-2.6c1.3-0.4,2.7-0.4,3.9,0.2
	l31,15.1c1.2,0.6,2.1,1.7,2.6,3C83.1,125.1,83,126.5,82.5,127.7L82.5,127.7z"/>
<path class="st4" d="M82.5,127.7l-6.1,12.5l-6.1-3l6.1-12.5c0.6-1.2,0.7-2.6,0.2-3.9c-0.4-1.3-1.4-2.4-2.6-3l6.1,3
	c0.6,0.3,1.1,0.7,1.6,1.2c0.4,0.5,0.8,1.1,1,1.7c0.2,0.6,0.3,1.3,0.3,2C82.9,126.5,82.8,127.1,82.5,127.7z"/>
<path class="st5" d="M82.5,127.7l-6.1,12.5l-6.1-3l6.1-12.5c0.6-1.2,0.7-2.6,0.2-3.9c-0.4-1.3-1.4-2.4-2.6-3l6.1,3
	c0.6,0.3,1.1,0.7,1.6,1.2c0.4,0.5,0.8,1.1,1,1.7c0.2,0.6,0.3,1.3,0.3,2C82.9,126.5,82.8,127.1,82.5,127.7z"/>
<path class="st7" d="M77.4,138l-1.1,2.2c-0.6,1.2-1.7,2.2-3,2.6c-1.3,0.4-2.7,0.4-3.9-0.2l-31-15.1c-1.2-0.6-2.2-1.7-2.6-3
	c-0.4-1.3-0.4-2.7,0.3-3.9l5-10.3l15.5,7.6l-4,8.2L77.4,138z"/>
<path class="st3" d="M77.4,138l-1.1,2.2c-0.6,1.2-1.7,2.2-3,2.6c-1.3,0.4-2.7,0.4-3.9-0.2l-6.1-3c1.2,0.6,2.6,0.7,3.9,0.2
	c1.3-0.4,2.4-1.4,3-2.6l1.1-2.2L77.4,138z"/>
<path class="st7" d="M52.7,125.9c2.2,1.1,4.9,0.2,6-2.1c1.1-2.2,0.2-5-2.1-6.1c-2.2-1.1-4.9-0.2-6,2.1
	C49.5,122.1,50.4,124.9,52.7,125.9z"/>
<path class="st3" d="M75.9,79.5l-2-1c-0.2-0.1-0.4-0.2-0.6-0.4c-0.2-0.2-0.3-0.4-0.4-0.6C73,77.3,73,77,73,76.8
	c0-0.2,0.1-0.5,0.2-0.7c0.1-0.2,0.3-0.4,0.4-0.6c0.2-0.2,0.4-0.3,0.6-0.4c0.2-0.1,0.5-0.1,0.7-0.1c0.2,0,0.5,0.1,0.7,0.2l2,1
	c0.2,0.1,0.4,0.2,0.5,0.4c0.2,0.2,0.3,0.4,0.4,0.6c0.1,0.2,0.1,0.5,0.1,0.7c0,0.2-0.1,0.5-0.2,0.7c-0.1,0.2-0.2,0.4-0.4,0.6
	c-0.2,0.2-0.4,0.3-0.6,0.4c-0.2,0.1-0.5,0.1-0.7,0.1C76.4,79.6,76.1,79.6,75.9,79.5z"/>
<path class="st3" d="M73,127.9c-0.3-0.1-0.5-0.3-0.7-0.5c-0.2-0.2-0.3-0.5-0.5-0.8v0c-0.2-0.6-0.1-1.2,0.1-1.8
	c0.3-0.5,0.8-1,1.3-1.2c0.6-0.2,1.2-0.2,1.8,0.1c0.5,0.3,1,0.7,1.2,1.3v0c0.2,0.6,0.1,1.2-0.1,1.8c-0.3,0.5-0.8,1-1.3,1.2
	C74.2,128.2,73.6,128.2,73,127.9z"/>
</svg>
