<?xml version="1.0" encoding="UTF-8"?>
<!-- Generator: visioncortex VTracer 0.6.3 -->
<svg version="1.1" xmlns="http://www.w3.org/2000/svg" width="159" height="159">
<path d="M0 0 C2.11 0.02 4.22 0 6.34 -0.03 C25.36 -0.07 42.48 6.74 56.61 19.52 C57.37 20.19 58.13 20.85 58.91 21.54 C70.16 32.01 80.96 49.12 81.79 64.86 C81.85 68.41 81.89 71.97 81.91 75.53 C81.92 77.04 81.94 78.56 81.97 80.08 C82.24 94.05 80.44 106.77 73.55 119.21 C73.17 119.91 72.79 120.62 72.39 121.35 C68.42 128.36 63.4 133.96 57.61 139.52 C56.96 140.18 56.3 140.85 55.63 141.53 C41.71 154.79 23.53 160.5 4.68 160.08 C3.98 160.08 3.28 160.07 2.56 160.06 C-17.92 159.79 -36.91 154.63 -52.39 140.52 C-53.2 139.79 -54.02 139.07 -54.87 138.32 C-66.42 127.48 -76.33 111.17 -77.68 95.04 C-77.69 93.84 -77.71 92.64 -77.72 91.4 C-77.73 90.74 -77.74 90.09 -77.75 89.41 C-77.77 87.3 -77.77 85.19 -77.76 83.08 C-77.76 82.36 -77.76 81.64 -77.76 80.9 C-77.66 59.83 -72.4 41.71 -58.39 25.52 C-57.77 24.71 -57.15 23.89 -56.52 23.06 C-42.92 6.89 -20.44 -0.25 0 0 Z " fill="#FDFDFD" transform="translate(77.38623046875,-0.521484375)"/>
<path d="M0 0 C8.74 7.78 15.66 18.89 16.52 30.77 C17.02 46.88 12.53 59.32 1.5 71.25 C-2.77 75.33 -7.31 77.79 -12.75 80 C-13.51 80.32 -14.27 80.64 -15.05 80.97 C-26.28 85.04 -38.51 84.11 -49.43 79.67 C-62.38 73.16 -70.39 64.19 -75.03 50.54 C-78.91 36.96 -77.24 24.17 -70.63 11.88 C-63.77 0.7 -54.12 -4.93 -42 -9.38 C-26.97 -12.34 -12.28 -9.36 0 0 Z " fill="#A9C3D5" transform="translate(109.75390625,43)"/>
<path d="M0 0 C8.18 2.98 14.41 5.62 21.62 10 C22.52 10.52 23.42 11.04 24.34 11.58 C25.19 12.09 26.04 12.6 26.91 13.12 C27.68 13.58 28.44 14.04 29.23 14.51 C31.31 16.26 31.64 17.35 32 20 C27.93 22.43 23.85 24.85 19.77 27.26 C18.39 28.09 17 28.91 15.62 29.74 C13.63 30.92 11.63 32.1 9.64 33.28 C9.02 33.65 8.4 34.02 7.76 34.41 C4.95 36.06 3.33 37 0 37 C0 24.79 0 12.58 0 0 Z " fill="#FBFDFD" transform="translate(68,61)"/>
</svg>
