<?xml version="1.0" encoding="utf-8"?>
<!-- Generator: Adobe Illustrator 24.0.2, SVG Export Plug-In . SVG Version: 6.00 Build 0)  -->
<svg version="1.1" id="Layer_1" xmlns="http://www.w3.org/2000/svg" xmlns:xlink="http://www.w3.org/1999/xlink" x="0px" y="0px"
	 viewBox="0 0 162.4 157.2" style="enable-background:new 0 0 162.4 157.2;" xml:space="preserve">
<style type="text/css">
	.st0{fill:#FFFFFF;}
	.st1{fill:#FFFFFF;stroke:#376AAA;stroke-width:2.8099;stroke-miterlimit:10;}
	.st2{opacity:7.000000e-02;fill:#376AAA;stroke:#376AAA;stroke-width:2.8099;stroke-miterlimit:10;}
	.st3{fill:#FFFFFF;stroke:#376AAA;stroke-width:3.3719;stroke-miterlimit:10;}
	.st4{fill:#376AAA;stroke:#376AAA;stroke-width:2.8099;stroke-miterlimit:10;}
	.st5{fill:#376AAA;}
	.st6{opacity:7.000000e-02;fill:#376AAA;stroke:#376AAA;stroke-width:3.3719;stroke-miterlimit:10;}
	.st7{fill:#376AAA;stroke:#376AAA;stroke-width:3;stroke-miterlimit:10;}
</style>
<circle class="st0" cx="78.7" cy="78.6" r="78.6"/>
<g>
	<path class="st1" d="M84.9,90.5c1.2,2.5,2.8,3.9,4.5,3.9h46.4v22.6l-44.6,0c-1.7,0-5.2-1.4-6.4-3.9c-1.2-2.5-1.9-5.8-1.9-9.3V81.1
		C83,84.6,83.7,88,84.9,90.5z"/>
	<path class="st2" d="M84.9,90.5c1.2,2.5,2.8,3.9,4.5,3.9h46.4v22.6l-44.6,0c-1.7,0-5.2-1.4-6.4-3.9c-1.2-2.5-1.9-5.8-1.9-9.3V81.1
		C83,84.6,83.7,88,84.9,90.5z"/>
	<path class="st3" d="M83.5,76c0-22.6-18.3-40.9-40.9-40.9S1.7,53.4,1.7,76c0,22.4,17.9,40.4,40.2,40.9l0,0h41.7V79.8l0,0
		C83.5,78.6,83.5,77.3,83.5,76z"/>
	<path class="st4" d="M161,116.9h-25.1V94.3H161V116.9z"/>
	<path class="st0" d="M155.2,111.3h-3.9V100h3.9V111.3z"/>
	<path class="st0" d="M147.5,103.7h-3.9V100h3.9V103.7z"/>
	<path class="st0" d="M147.5,111.3h-3.9v-3.8h3.9V111.3z"/>
	<path class="st5" d="M130.3,107.5h-3.9V94.3h3.9V107.5z"/>
	<path class="st5" d="M119.5,101.9h-3.9v-7.5h3.9V101.9z"/>
	<path class="st5" d="M95.8,101.9h-3.9v-7.5h3.9V101.9z"/>
	<path class="st5" d="M108.1,107.5h-3.9V94.3h3.9V107.5z"/>
	<path class="st6" d="M83.5,76c0-22.6-18.3-40.9-40.9-40.9S1.7,53.4,1.7,76c0,22.4,17.9,40.4,40.2,40.9l0,0h41.7V79.8l0,0
		C83.5,78.6,83.5,77.3,83.5,76z"/>
	<path class="st7" d="M62.8,76c0-11.2-9.1-20.2-20.2-20.2S22.4,64.8,22.4,76c0,11,8.9,20,19.9,20.2l0,0h20.6V77.9l0,0
		C62.8,77.3,62.8,76.6,62.8,76z"/>
</g>
</svg>
