<?xml version="1.0" encoding="UTF-8"?>
<!-- Generator: visioncortex VTracer 0.6.3 -->
<svg version="1.1" xmlns="http://www.w3.org/2000/svg" width="159" height="159">
<path d="M0 0 C2.11 0.02 4.22 0 6.34 -0.03 C25.36 -0.07 42.48 6.74 56.61 19.52 C57.37 20.19 58.13 20.85 58.91 21.54 C70.16 32.01 80.96 49.12 81.79 64.86 C81.85 68.41 81.89 71.97 81.91 75.53 C81.92 77.04 81.94 78.56 81.97 80.08 C82.24 94.05 80.44 106.77 73.55 119.21 C73.17 119.91 72.79 120.62 72.39 121.35 C68.42 128.36 63.4 133.96 57.61 139.52 C56.96 140.18 56.3 140.85 55.63 141.53 C41.71 154.79 23.53 160.5 4.68 160.08 C3.98 160.08 3.28 160.07 2.56 160.06 C-17.92 159.79 -36.91 154.63 -52.39 140.52 C-53.2 139.79 -54.02 139.07 -54.87 138.32 C-66.42 127.48 -76.33 111.17 -77.68 95.04 C-77.69 93.84 -77.71 92.64 -77.72 91.4 C-77.73 90.74 -77.74 90.09 -77.75 89.41 C-77.77 87.3 -77.77 85.19 -77.76 83.08 C-77.76 82.36 -77.76 81.64 -77.76 80.9 C-77.66 59.83 -72.4 41.71 -58.39 25.52 C-57.77 24.71 -57.15 23.89 -56.52 23.06 C-42.92 6.89 -20.44 -0.25 0 0 Z " fill="#FEFEFE" transform="translate(77.38623046875,-0.521484375)"/>
<path d="M0 0 C27.39 0 54.78 0 83 0 C83 36.96 83 73.92 83 112 C55.61 112 28.22 112 0 112 C0 75.04 0 38.08 0 0 Z " fill="#9DB6D5" transform="translate(38,21)"/>
<path d="M0 0 C27.39 0 54.78 0 83 0 C83 36.96 83 73.92 83 112 C55.61 112 28.22 112 0 112 C0 75.04 0 38.08 0 0 Z M5 5 C5 38.99 5 72.98 5 108 C29.09 108 53.18 108 78 108 C78 74.01 78 40.02 78 5 C53.91 5 29.82 5 5 5 Z " fill="#4B79B2" transform="translate(38,21)"/>
<path d="M0 0 C18.81 0 37.62 0 57 0 C57 2.31 57 4.62 57 7 C38.19 7 19.38 7 0 7 C0 4.69 0 2.38 0 0 Z " fill="#FCFDFD" transform="translate(51,113)"/>
<path d="M0 0 C18.81 0 37.62 0 57 0 C57 2.31 57 4.62 57 7 C38.19 7 19.38 7 0 7 C0 4.69 0 2.38 0 0 Z " fill="#EBF0F6" transform="translate(51,103)"/>
<path d="M0 0 C18.81 0 37.62 0 57 0 C57 2.31 57 4.62 57 7 C38.19 7 19.38 7 0 7 C0 4.69 0 2.38 0 0 Z " fill="#EBF0F6" transform="translate(51,93)"/>
<path d="M0 0 C18.81 0 37.62 0 57 0 C57 2.31 57 4.62 57 7 C38.19 7 19.38 7 0 7 C0 4.69 0 2.38 0 0 Z " fill="#EBF0F6" transform="translate(51,64)"/>
<path d="M0 0 C18.81 0 37.62 0 57 0 C57 2.31 57 4.62 57 7 C38.19 7 19.38 7 0 7 C0 4.69 0 2.38 0 0 Z " fill="#EBF0F6" transform="translate(51,54)"/>
<path d="M0 0 C18.81 0 37.62 0 57 0 C57 2.31 57 4.62 57 7 C38.19 7 19.38 7 0 7 C0 4.69 0 2.38 0 0 Z " fill="#F7F9FB" transform="translate(51,34)"/>
<path d="M0 0 C18.81 0 37.62 0 57 0 C57 1.98 57 3.96 57 6 C38.19 6 19.38 6 0 6 C0 4.02 0 2.04 0 0 Z " fill="#FDFDFE" transform="translate(51,74)"/>
<path d="M0 0 C18.48 0 36.96 0 56 0 C56 1.98 56 3.96 56 6 C37.52 6 19.04 6 0 6 C0 4.02 0 2.04 0 0 Z " fill="#FEFEFE" transform="translate(51,84)"/>
<path d="M0 0 C18.48 0 36.96 0 56 0 C56 1.98 56 3.96 56 6 C37.52 6 19.04 6 0 6 C0 4.02 0 2.04 0 0 Z " fill="#FDFDFE" transform="translate(51,45)"/>
</svg>
