<?xml version="1.0" encoding="utf-8"?>
<!-- Generator: Adobe Illustrator 24.0.2, SVG Export Plug-In . SVG Version: 6.00 Build 0)  -->
<svg version="1.1" id="Layer_1" xmlns="http://www.w3.org/2000/svg" xmlns:xlink="http://www.w3.org/1999/xlink" x="0px" y="0px"
	 viewBox="0 0 159.4 159.4" style="enable-background:new 0 0 159.4 159.4;" xml:space="preserve">
<style type="text/css">
	.st0{fill:#FFFFFF;}
	.st1{fill:#376AAA;}
	.st2{opacity:0.25;fill:#FFFFFF;enable-background:new    ;}
	.st3{fill:#FFFFFF;stroke:#376AAA;stroke-width:0.6674;stroke-miterlimit:10;enable-background:new    ;}
	.st4{opacity:0.4;fill:#376AAA;enable-background:new    ;}
	.st5{opacity:7.000000e-02;fill:#376AAA;stroke:#376AAA;stroke-width:0.6567;stroke-miterlimit:10;enable-background:new    ;}
	.st6{opacity:7.000000e-02;fill:none;stroke:#376AAA;stroke-width:0.6567;stroke-miterlimit:10;enable-background:new    ;}
</style>
<circle class="st0" cx="79.7" cy="79.7" r="79.7"/>
<path class="st1" d="M114.1,106.4h-69v3.6h69V106.4z"/>
<path class="st1" d="M49.7,108.4V35.3h-4.4v73.1H49.7z"/>
<path class="st1" d="M114.2,108.4V35.3h-4.4v73.1H114.2z"/>
<path class="st1" d="M80.8,106.4v-71h-2.2v71H80.8z"/>
<path class="st1" d="M49.6,72.8h60.2v-1.8H49.6V72.8z"/>
<path class="st2" d="M61.4,34.9v81.9c0,0.1,0,0.2-0.1,0.3c-0.4-1-2.5-1.8-5.1-1.8c-2.6,0-4.7,0.8-5.1,1.8c0-0.1-0.1-0.2-0.1-0.3
	V34.9H61.4z"/>
<path class="st2" d="M71.6,34.9H61.4v81.9c0,0.8,0.5,1.6,1.5,2.2c1,0.6,2.3,0.9,3.6,0.9c1.4,0,2.7-0.3,3.6-0.9
	c1-0.6,1.5-1.4,1.5-2.2L71.6,34.9L71.6,34.9z"/>
<g>
	<path class="st3" d="M118.4,34.9v84.5c0,0.1,0,0.2,0.1,0.3c0.4-1,2.5-1.8,5.1-1.8c2.6,0,4.7,0.8,5.1,1.8c0-0.1,0.1-0.2,0.1-0.3
		V34.9H118.4z"/>
	<path class="st3" d="M108.2,34.9h10.3v84.6c0,0.8-0.5,1.6-1.5,2.2c-1,0.6-2.3,0.9-3.6,0.9c-1.4,0-2.7-0.3-3.6-0.9
		c-1-0.6-1.5-1.4-1.5-2.2L108.2,34.9L108.2,34.9z"/>
	<path class="st3" d="M128.6,34.9h10.3v84.6c0,0.8-0.5,1.6-1.5,2.2c-1,0.6-2.3,0.9-3.6,0.9s-2.7-0.3-3.6-0.9c-1-0.6-1.5-1.4-1.5-2.2
		L128.6,34.9L128.6,34.9z"/>
</g>
<g>
	<path class="st4" d="M118.4,34.9v84.5c0,0.1,0,0.2,0.1,0.3c0.4-1,2.5-1.8,5.1-1.8c2.6,0,4.7,0.8,5.1,1.8c0-0.1,0.1-0.2,0.1-0.3
		V34.9H118.4z"/>
	<path class="st4" d="M108.2,34.9h10.3v84.6c0,0.8-0.5,1.6-1.5,2.2c-1,0.6-2.3,0.9-3.6,0.9c-1.4,0-2.7-0.3-3.6-0.9
		c-1-0.6-1.5-1.4-1.5-2.2L108.2,34.9L108.2,34.9z"/>
	<path class="st4" d="M128.6,34.9h10.3v84.6c0,0.8-0.5,1.6-1.5,2.2c-1,0.6-2.3,0.9-3.6,0.9s-2.7-0.3-3.6-0.9c-1-0.6-1.5-1.4-1.5-2.2
		L128.6,34.9L128.6,34.9z"/>
</g>
<g>
	<path class="st3" d="M30.7,34.9v84.5c0,0.1,0,0.2,0.1,0.3c0.4-1,2.5-1.8,5.1-1.8c2.6,0,4.7,0.8,5.1,1.8c0-0.1,0.1-0.2,0.1-0.3V34.9
		H30.7z"/>
	<path class="st3" d="M20.6,34.9h10.3v84.6c0,0.8-0.5,1.6-1.5,2.2c-1,0.6-2.3,0.9-3.6,0.9c-1.4,0-2.7-0.3-3.6-0.9
		c-1-0.6-1.5-1.4-1.5-2.2L20.6,34.9L20.6,34.9z"/>
	<path class="st3" d="M40.9,34.9h10.3v84.6c0,0.8-0.5,1.6-1.5,2.2c-1,0.6-2.3,0.9-3.6,0.9s-2.7-0.3-3.6-0.9c-1-0.6-1.5-1.4-1.5-2.2
		L40.9,34.9L40.9,34.9z"/>
</g>
<g>
	<path class="st4" d="M30.8,34.9v84.5c0,0.1,0,0.2,0.1,0.3c0.4-1,2.5-1.8,5.1-1.8c2.6,0,4.7,0.8,5.1,1.8c0-0.1,0.1-0.2,0.1-0.3V34.9
		H30.8z"/>
	<path class="st4" d="M20.6,34.9h10.3v84.6c0,0.8-0.5,1.6-1.5,2.2c-1,0.6-2.3,0.9-3.6,0.9c-1.4,0-2.7-0.3-3.6-0.9
		c-1-0.6-1.5-1.4-1.5-2.2L20.6,34.9L20.6,34.9z"/>
	<path class="st4" d="M40.9,34.9h10.3v84.6c0,0.8-0.5,1.6-1.5,2.2c-1,0.6-2.3,0.9-3.6,0.9c-1.4,0-2.7-0.3-3.6-0.9
		c-1-0.6-1.5-1.4-1.5-2.2L40.9,34.9L40.9,34.9z"/>
</g>
<path class="st2" d="M98,34.9v81.9c0,0.1,0,0.2,0.1,0.3c0.4-1,2.5-1.8,5.1-1.8c2.6,0,4.7,0.8,5.1,1.8c0-0.1,0.1-0.2,0.1-0.3V34.9H98
	z"/>
<path class="st2" d="M87.7,34.9H98v81.9c0,0.8-0.5,1.6-1.5,2.2c-1,0.6-2.3,0.9-3.6,0.9c-1.4,0-2.7-0.3-3.6-0.9
	c-1-0.6-1.5-1.4-1.5-2.2L87.7,34.9L87.7,34.9z"/>
<path class="st5" d="M97.9,34.9v81.9c0,0.1,0,0.2,0.1,0.3c0.4-1,2.5-1.8,5.1-1.8c2.6,0,4.7,0.8,5.1,1.8c0-0.1,0.1-0.2,0.1-0.3V34.9
	H97.9z"/>
<path class="st5" d="M87.7,34.9H98v81.9c0,0.8-0.5,1.6-1.5,2.2c-1,0.6-2.3,0.9-3.6,0.9c-1.4,0-2.7-0.3-3.6-0.9
	c-1-0.6-1.5-1.4-1.5-2.2L87.7,34.9L87.7,34.9z"/>
<path class="st6" d="M97.9,34.9v81.9c0,0.1,0,0.2,0.1,0.3c0.4-1,2.5-1.8,5.1-1.8c2.6,0,4.7,0.8,5.1,1.8c0-0.1,0.1-0.2,0.1-0.3V34.9
	H97.9z"/>
<path class="st6" d="M87.7,34.9H98v81.9c0,0.8-0.5,1.6-1.5,2.2c-1,0.6-2.3,0.9-3.6,0.9c-1.4,0-2.7-0.3-3.6-0.9
	c-1-0.6-1.5-1.4-1.5-2.2L87.7,34.9L87.7,34.9z"/>
<path class="st5" d="M61.4,34.9v81.9c0,0.1,0,0.2-0.1,0.3c-0.4-1-2.5-1.8-5.1-1.8c-2.6,0-4.7,0.8-5.1,1.8c0-0.1-0.1-0.2-0.1-0.3
	V34.9H61.4z"/>
<path class="st5" d="M71.6,34.9H61.4v81.9c0,0.8,0.5,1.6,1.5,2.2c1,0.6,2.3,0.9,3.6,0.9c1.4,0,2.7-0.3,3.6-0.9
	c1-0.6,1.5-1.4,1.5-2.2L71.6,34.9L71.6,34.9z"/>
<path class="st6" d="M61.4,34.9v81.9c0,0.1,0,0.2-0.1,0.3c-0.4-1-2.5-1.8-5.1-1.8c-2.6,0-4.7,0.8-5.1,1.8c0-0.1-0.1-0.2-0.1-0.3
	V34.9H61.4z"/>
<path class="st6" d="M71.6,34.9H61.4v81.9c0,0.8,0.5,1.6,1.5,2.2c1,0.6,2.3,0.9,3.6,0.9c1.4,0,2.7-0.3,3.6-0.9
	c1-0.6,1.5-1.4,1.5-2.2L71.6,34.9L71.6,34.9z"/>
<path class="st1" d="M139.2,33.5h-119v1.8h119V33.5z"/>
</svg>
