<?xml version="1.0" encoding="UTF-8"?>
<svg version="1.1" xmlns="http://www.w3.org/2000/svg" width="159" height="159">
<path d="M0 0 C17.14979847 12.95389136 28.49042934 31.10244767 31.85693359 52.44848633 C33.79446832 76.99486992 29.36801926 98.13088664 13.45068359 117.47973633 C0.43841579 132.37329587 -17.95150671 143.09149442 -37.9453125 144.66967773 C-63.31758125 145.64569397 -83.70125251 140.43449216 -103.14306641 123.44848633 C-117.43329264 109.86395028 -126.72065794 91.3681845 -127.47900391 71.56567383 C-127.84907048 46.11196942 -121.55654452 25.6626646 -103.73681641 6.91723633 C-75.63734543 -19.72252187 -31.30913413 -22.63316325 0 0 Z " fill="#FEFEFE" transform="translate(127.14306640625,14.551513671875)"/>
<path d="M0 0 C29.7 0 59.4 0 90 0 C90.08021762 23.58843642 90.08021762 23.58843642 90.09765625 33.62304688 C90.10962398 40.47716355 90.12380023 47.33122693 90.15087891 54.18530273 C90.17256791 59.70956698 90.18456031 65.23377409 90.18975449 70.75807762 C90.19345734 72.86845995 90.20068782 74.97883907 90.21146011 77.08919716 C90.22592258 80.03910775 90.22798014 82.98878052 90.22705078 85.9387207 C90.23424133 86.81625504 90.24143188 87.69378937 90.24884033 88.59791565 C90.22810432 94.65784352 90.22810432 94.65784352 88 98 C84.6875 98.9375 84.6875 98.9375 81 99 C79.824375 98.0409375 79.824375 98.0409375 78.625 97.0625 C75.26578471 94.42311656 73.13564484 94.55943589 68.98828125 94.56640625 C66.60101024 94.84583229 66.60101024 94.84583229 65 98 C61.5625 98.875 61.5625 98.875 58 99 C57.01 98.01 56.02 97.02 55 96 C57.97 96 60.94 96 64 96 C64.33 64.98 64.66 33.96 65 2 C61.7 2 58.4 2 55 2 C55 29.72 55 57.44 55 86 C48.73 86 42.46 86 36 86 C36 85.01 36 84.02 36 83 C41.94 83 47.88 83 54 83 C54 70.13 54 57.26 54 44 C51.36 44 48.72 44 46 44 C46 56.54 46 69.08 46 82 C45.34 82 44.68 82 44 82 C44 69.46 44 56.92 44 44 C41.03 44 38.06 44 35 44 C35 43.34 35 42.68 35 42 C37.97 42 40.94 42 44 42 C44 28.8 44 15.6 44 2 C37.73 2 31.46 2 25 2 C25.33 33.35 25.66 64.7 26 97 C25.34 97 24.68 97 24 97 C23.505 96.01 23.505 96.01 23 95 C20.03 95 17.06 95 14 95 C13.505 95.99 13.505 95.99 13 97 C12.34 96.67 11.68 96.34 11 96 C11.33 64.98 11.66 33.96 12 2 C8.7 2 5.4 2 2 2 C2.33 33.35 2.66 64.7 3 97 C2.34 97 1.68 97 1 97 C0.67 64.99 0.34 32.98 0 0 Z " fill="#6F94C2" transform="translate(36,34)"/>
<path d="M0 0 C6.27 0 12.54 0 19 0 C19 13.2 19 26.4 19 40 C16.03 40 13.06 40 10 40 C10 40.66 10 41.32 10 42 C12.97 42 15.94 42 19 42 C19 54.54 19 67.08 19 80 C19.66 80 20.32 80 21 80 C21 67.46 21 54.92 21 42 C23.64 42 26.28 42 29 42 C29 54.87 29 67.74 29 81 C23.06 81 17.12 81 11 81 C11 81.99 11 82.98 11 84 C17.27 84 23.54 84 30 84 C30 56.28 30 28.56 30 0 C33.3 0 36.6 0 40 0 C40.02312166 12.23880329 40.04091418 24.47760143 40.05181217 36.71642208 C40.05704139 42.39876512 40.06413973 48.08109327 40.07543945 53.76342773 C40.08626696 59.24229136 40.09227654 64.72114062 40.09487724 70.20001411 C40.09673174 72.29529611 40.10035282 74.39057728 40.10573006 76.4858532 C40.11293868 79.40977584 40.11399102 82.33363833 40.11352539 85.25756836 C40.11712067 86.1329425 40.12071594 87.00831665 40.12442017 87.91021729 C40.11405216 93.88594784 40.11405216 93.88594784 39 95 C35.33655389 95.13568319 32.49384279 95.16461426 29 94 C29 91.03 29 88.06 29 85 C23.06 85 17.12 85 11 85 C11 88.3 11 91.6 11 95 C6.67161176 97.16419412 5.50257649 97.20068706 1 96 C-0.68072775 92.6385445 -0.12876829 88.84012532 -0.11352539 85.14404297 C-0.11367142 84.22691528 -0.11381744 83.3097876 -0.1139679 82.36486816 C-0.11326948 79.32395081 -0.1054804 76.2830942 -0.09765625 73.2421875 C-0.09579182 71.13754307 -0.09436803 69.0328982 -0.09336853 66.92825317 C-0.08954535 61.38143725 -0.07971674 55.8346474 -0.06866455 50.2878418 C-0.05844616 44.6307002 -0.05386999 38.97355441 -0.04882812 33.31640625 C-0.03809431 22.21092419 -0.0204991 11.10546834 0 0 Z " fill="#F0F4F9" transform="translate(61,36)"/>
<path d="M0 0 C0.33 0 0.66 0 1 0 C1.04628695 12.33463355 1.08185067 24.66924654 1.10362434 37.00394917 C1.11407322 42.73109817 1.12825256 48.45818787 1.15087891 54.18530273 C1.17256791 59.70956698 1.18456031 65.23377409 1.18975449 70.75807762 C1.19345734 72.86845995 1.20068782 74.97883907 1.21146011 77.08919716 C1.22592258 80.03910775 1.22798014 82.98878052 1.22705078 85.9387207 C1.23783661 87.2550222 1.23783661 87.2550222 1.24884033 88.59791565 C1.22810432 94.65784352 1.22810432 94.65784352 -1 98 C-4.4375 98.8125 -4.4375 98.8125 -8 99 C-8.99 98.34 -9.98 97.68 -11 97 C-11.28603461 93.94981101 -11.37792773 91.10361698 -11.34057617 88.05224609 C-11.34101425 87.12536484 -11.34145233 86.19848358 -11.34190369 85.24351501 C-11.33980825 82.16994394 -11.31644162 79.09691366 -11.29296875 76.0234375 C-11.28737548 73.89637551 -11.28310412 71.76930966 -11.28010559 69.64224243 C-11.26863565 64.03614687 -11.23914995 58.43028345 -11.20599365 52.82427979 C-11.17533906 47.10684347 -11.16161012 41.38936975 -11.14648438 35.671875 C-11.11428234 24.44781452 -11.06306005 13.22392654 -11 2 C-7.37 2 -3.74 2 0 2 C0 1.34 0 0.68 0 0 Z " fill="#DFE7F2" transform="translate(125,34)"/>
<path d="M0 0 C3.63 0 7.26 0 11 0 C11 30.03 11 60.06 11 91 C7.37 91 3.74 91 0 91 C0 60.97 0 30.94 0 0 Z " fill="#F3F6FA" transform="translate(49,36)"/>
<path d="M0 0 C3.3 0 6.6 0 10 0 C10 30.03 10 60.06 10 91 C6.7 91 3.4 91 0 91 C0 60.97 0 30.94 0 0 Z " fill="#F2F6FA" transform="translate(103,36)"/>
<path d="M0 0 C2.97 0 5.94 0 9 0 C9 12.54 9 25.08 9 38 C9.66 38 10.32 38 11 38 C11 25.46 11 12.92 11 0 C13.64 0 16.28 0 19 0 C19 12.87 19 25.74 19 39 C13.06 39 7.12 39 1 39 C1 39.99 1 40.98 1 42 C7.27 42 13.54 42 20 42 C20 45.3 20 48.6 20 52 C19.67 52 19.34 52 19 52 C19 49.03 19 46.06 19 43 C13.06 43 7.12 43 1 43 C1 46.3 1 49.6 1 53 C-3.32838824 55.16419412 -4.49742351 55.20068706 -9 54 C-10.50156874 50.99686252 -10.09281204 48.20932478 -10.0625 44.875 C-10.05347656 43.59367187 -10.04445312 42.31234375 -10.03515625 40.9921875 C-10.02355469 40.00476563 -10.01195312 39.01734375 -10 38 C-6.7 38 -3.4 38 0 38 C0 25.46 0 12.92 0 0 Z " fill="#C1D0E4" transform="translate(71,78)"/>
<path d="M0 0 C1.98 0 3.96 0 6 0 C6 27.72 6 55.44 6 84 C4.02 84 2.04 84 0 84 C0 56.28 0 28.56 0 0 Z " fill="#DCE5F1" transform="translate(42,36)"/>
<path d="M0 0 C1.32 0 2.64 0 4 0 C4 27.72 4 55.44 4 84 C5.98 84 7.96 84 10 84 C10.08121924 85.60332791 10.13929134 87.20784026 10.1875 88.8125 C10.22230469 89.70582031 10.25710937 90.59914063 10.29296875 91.51953125 C10 94 10 94 8.68359375 95.8359375 C7 97 7 97 3.875 96.8125 C2.92625 96.544375 1.9775 96.27625 1 96 C-0.68072775 92.6385445 -0.12876829 88.84012532 -0.11352539 85.14404297 C-0.11367142 84.22691528 -0.11381744 83.3097876 -0.1139679 82.36486816 C-0.11326948 79.32395081 -0.1054804 76.2830942 -0.09765625 73.2421875 C-0.09579182 71.13754307 -0.09436803 69.0328982 -0.09336853 66.92825317 C-0.08954535 61.38143725 -0.07971674 55.8346474 -0.06866455 50.2878418 C-0.05844616 44.6307002 -0.05386999 38.97355441 -0.04882812 33.31640625 C-0.03809431 22.21092603 -0.02102026 11.10546518 0 0 Z " fill="#F1F4F9" transform="translate(38,36)"/>
<path d="M0 0 C2.97 0 5.94 0 9 0 C9 13.2 9 26.4 9 40 C6.03 40 3.06 40 0 40 C0 26.8 0 13.6 0 0 Z " fill="#F4F7FB" transform="translate(50,36)"/>
<path d="M0 0 C2.64 0 5.28 0 8 0 C8 13.2 8 26.4 8 40 C5.36 40 2.72 40 0 40 C0 26.8 0 13.6 0 0 Z " fill="#F8FAFC" transform="translate(82,36)"/>
<path d="M0 0 C2.64 0 5.28 0 8 0 C8 12.54 8 25.08 8 38 C5.36 38 2.72 38 0 38 C0 25.46 0 12.92 0 0 Z " fill="#F7F9FB" transform="translate(82,78)"/>
<path d="M0 0 C0.33 0 0.66 0 1 0 C1 13.2 1 26.4 1 40 C3.97 40 6.94 40 10 40 C10 26.8 10 13.6 10 0 C10.33 0 10.66 0 11 0 C11 30.03 11 60.06 11 91 C7.37 91 3.74 91 0 91 C0 60.97 0 30.94 0 0 Z M1 42 C1 54.54 1 67.08 1 80 C3.97 80 6.94 80 10 80 C10 67.46 10 54.92 10 42 C7.03 42 4.06 42 1 42 Z " fill="#D3DEEC" transform="translate(49,36)"/>
<path d="M0 0 C0.66 0 1.32 0 2 0 C2 13.2 2 26.4 2 40 C4.97 40 7.94 40 11 40 C11 54.52 11 69.04 11 84 C4.73 84 -1.54 84 -8 84 C-8 83.01 -8 82.02 -8 81 C-2.06 81 3.88 81 10 81 C10 68.13 10 55.26 10 42 C7.36 42 4.72 42 2 42 C2 54.54 2 67.08 2 80 C1.34 80 0.68 80 0 80 C0 67.46 0 54.92 0 42 C-2.97 42 -5.94 42 -9 42 C-9 41.34 -9 40.68 -9 40 C-6.03 40 -3.06 40 0 40 C0 26.8 0 13.6 0 0 Z " fill="#4675B0" transform="translate(80,36)"/>
<path d="M0 0 C2.31 0 4.62 0 7 0 C7 13.2 7 26.4 7 40 C4.69 40 2.38 40 0 40 C0 26.8 0 13.6 0 0 Z " fill="#F6F8FB" transform="translate(73,36)"/>
<path d="M0 0 C2.31 0 4.62 0 7 0 C7 12.21 7 24.42 7 37 C4.69 37 2.38 37 0 37 C0 24.79 0 12.58 0 0 Z " fill="#FAFBFC" transform="translate(72,79)"/>
<path d="M0 0 C0.66 0 1.32 0 2 0 C2 30.03 2 60.06 2 91 C5.465 90.505 5.465 90.505 9 90 C10.485 90.495 10.485 90.495 12 91 C11.67 91.66 11.34 92.32 11 93 C10.37351562 92.96519531 9.74703125 92.93039063 9.1015625 92.89453125 C8.28429687 92.86746094 7.46703125 92.84039062 6.625 92.8125 C5.40683594 92.76029297 5.40683594 92.76029297 4.1640625 92.70703125 C3.44992188 92.80371094 2.73578125 92.90039062 2 93 C1.34 93.99 0.68 94.98 0 96 C-3.4375 96.875 -3.4375 96.875 -7 97 C-7.99 96.01 -8.98 95.02 -10 94 C-7.03 94 -4.06 94 -1 94 C-0.67 62.98 -0.34 31.96 0 0 Z " fill="#A2BAD7" transform="translate(101,36)"/>
<path d="M0 0 C0.33 0 0.66 0 1 0 C1 15.51 1 31.02 1 47 C-2.3 47 -5.6 47 -9 47 C-9 43.37 -9 39.74 -9 36 C-6.03 36 -3.06 36 0 36 C0 24.12 0 12.24 0 0 Z " fill="#D9E3EF" transform="translate(59,80)"/>
<path d="M0 0 C2.97 0 5.94 0 9 0 C9 2.31 9 4.62 9 7 C6.03 7 3.06 7 0 7 C0 4.69 0 2.38 0 0 Z " fill="#F1F4F9" transform="translate(50,120)"/>
<path d="M0 0 C0.33 1.32 0.66 2.64 1 4 C-5.27 4 -11.54 4 -18 4 C-18 3.01 -18 2.02 -18 1 C-12.06 0.67 -6.12 0.34 0 0 Z " fill="#396BAA" transform="translate(90,116)"/>
<path d="M0 0 C3.3 0 6.6 0 10 0 C10 1.65 10 3.3 10 5 C6.7 5 3.4 5 0 5 C0 3.35 0 1.7 0 0 Z " fill="#DDE6F1" transform="translate(103,116)"/>
<path d="M0 0 C3.3 0 6.6 0 10 0 C10 1.65 10 3.3 10 5 C6.7 5 3.4 5 0 5 C0 3.35 0 1.7 0 0 Z " fill="#DDE6F1" transform="translate(91,116)"/>
<path d="M0 0 C3.3 0 6.6 0 10 0 C10 1.65 10 3.3 10 5 C6.7 5 3.4 5 0 5 C0 3.35 0 1.7 0 0 Z " fill="#DDE6F1" transform="translate(61,116)"/>
</svg>
