<?xml version="1.0" encoding="UTF-8"?>
<svg version="1.1" xmlns="http://www.w3.org/2000/svg" width="159" height="159">
<path d="M0 0 C17.14979847 12.95389136 28.49042934 31.10244767 31.85693359 52.44848633 C33.79446832 76.99486992 29.36801926 98.13088664 13.45068359 117.47973633 C0.43841579 132.37329587 -17.95150671 143.09149442 -37.9453125 144.66967773 C-63.31758125 145.64569397 -83.70125251 140.43449216 -103.14306641 123.44848633 C-117.43329264 109.86395028 -126.72065794 91.3681845 -127.47900391 71.56567383 C-127.84907048 46.11196942 -121.55654452 25.6626646 -103.73681641 6.91723633 C-75.63734543 -19.72252187 -31.30913413 -22.63316325 0 0 Z " fill="#FEFEFE" transform="translate(127.14306640625,14.551513671875)"/>
<path d="M0 0 C0.80224503 -0.00335861 1.60449005 -0.00671722 2.43104553 -0.01017761 C5.07448894 -0.01965192 7.71786881 -0.02162875 10.36132812 -0.02270508 C12.20308457 -0.02591939 14.04484077 -0.02928359 15.88659668 -0.03279114 C19.74325147 -0.03877308 23.59988387 -0.04063193 27.45654297 -0.04003906 C32.39622561 -0.03993733 37.33576488 -0.05360532 42.27541351 -0.07081127 C46.0775417 -0.08193177 49.87963517 -0.08395828 53.68177795 -0.08342934 C55.50302119 -0.08460877 57.32426535 -0.08902848 59.14549255 -0.0967617 C61.69214941 -0.10656541 64.23849431 -0.1036824 66.78515625 -0.09765625 C67.53543594 -0.10327576 68.28571564 -0.10889526 69.05873108 -0.11468506 C73.11234136 -0.09032649 76.24364501 0.34244513 79.89257812 2.14526367 C79.89257812 4.78526367 79.89257812 7.42526367 79.89257812 10.14526367 C78.24257812 10.47526367 76.59257813 10.80526367 74.89257812 11.14526367 C74.89257812 27.31526367 74.89257812 43.48526367 74.89257812 60.14526367 C76.87257812 60.64026367 76.87257812 60.64026367 78.89257812 61.14526367 C78.56257813 62.46526367 78.23257813 63.78526367 77.89257812 65.14526367 C76.90257813 65.14526367 75.91257812 65.14526367 74.89257812 65.14526367 C74.89257812 70.75526367 74.89257812 76.36526367 74.89257812 82.14526367 C76.37757812 82.64026367 76.37757812 82.64026367 77.89257812 83.14526367 C48.52257812 83.14526367 19.15257812 83.14526367 -11.10742188 83.14526367 C-11.10742188 84.13526367 -11.10742188 85.12526367 -11.10742188 86.14526367 C18.26257813 86.14526367 47.63257813 86.14526367 77.89257812 86.14526367 C77.89257812 86.47526367 77.89257812 86.80526367 77.89257812 87.14526367 C75.58257812 87.14526367 73.27257812 87.14526367 70.89257812 87.14526367 C70.89781494 87.71559326 70.90305176 88.28592285 70.90844727 88.87353516 C70.92916034 91.4432669 70.94222003 94.01298114 70.95507812 96.58276367 C70.96345703 97.4805957 70.97183594 98.37842773 70.98046875 99.3034668 C70.98369141 100.1574707 70.98691406 101.01147461 70.99023438 101.89135742 C70.99547119 102.6821167 71.00070801 103.47287598 71.00610352 104.28759766 C70.89257812 106.14526367 70.89257812 106.14526367 69.89257812 107.14526367 C67.62265926 107.23966345 65.34975845 107.26268594 63.07788086 107.25878906 C62.00964584 107.2590081 62.00964584 107.2590081 60.91983032 107.25923157 C58.555247 107.25853238 56.19074151 107.25073973 53.82617188 107.24291992 C52.19092349 107.24105576 50.55567455 107.23963185 48.92042542 107.2386322 C44.60823027 107.23480685 40.2960686 107.22497642 35.98388672 107.21392822 C31.58691867 107.20371447 27.18994523 107.19913466 22.79296875 107.1940918 C14.15948811 107.18335416 5.52604113 107.16575723 -3.10742188 107.14526367 C-3.10742188 100.54526367 -3.10742188 93.94526367 -3.10742188 87.14526367 C-6.07742187 87.14526367 -9.04742187 87.14526367 -12.10742188 87.14526367 C-12.10742188 85.49526367 -12.10742188 83.84526367 -12.10742188 82.14526367 C-10.78742187 82.14526367 -9.46742187 82.14526367 -8.10742188 82.14526367 C-8.10742188 76.53526367 -8.10742188 70.92526367 -8.10742188 65.14526367 C-9.42742188 65.14526367 -10.74742188 65.14526367 -12.10742188 65.14526367 C-12.10742188 63.49526367 -12.10742188 61.84526367 -12.10742188 60.14526367 C-10.78742187 60.14526367 -9.46742187 60.14526367 -8.10742188 60.14526367 C-8.10742188 43.97526367 -8.10742188 27.80526367 -8.10742188 11.14526367 C-9.75742187 11.14526367 -11.40742187 11.14526367 -13.10742188 11.14526367 C-13.10742188 7.84526367 -13.10742188 4.54526367 -13.10742188 1.14526367 C-8.73651637 0.06876524 -4.4736088 -0.00270216 0 0 Z " fill="#F0F3F8" transform="translate(48.107421875,28.854736328125)"/>
<path d="M0 0 C0.80224503 -0.00335861 1.60449005 -0.00671722 2.43104553 -0.01017761 C5.07448894 -0.01965192 7.71786881 -0.02162875 10.36132812 -0.02270508 C12.20308457 -0.02591939 14.04484077 -0.02928359 15.88659668 -0.03279114 C19.74325147 -0.03877308 23.59988387 -0.04063193 27.45654297 -0.04003906 C32.39622561 -0.03993733 37.33576488 -0.05360532 42.27541351 -0.07081127 C46.0775417 -0.08193177 49.87963517 -0.08395828 53.68177795 -0.08342934 C55.50302119 -0.08460877 57.32426535 -0.08902848 59.14549255 -0.0967617 C61.69214941 -0.10656541 64.23849431 -0.1036824 66.78515625 -0.09765625 C67.53543594 -0.10327576 68.28571564 -0.10889526 69.05873108 -0.11468506 C73.11234136 -0.09032649 76.24364501 0.34244513 79.89257812 2.14526367 C79.89257812 4.78526367 79.89257812 7.42526367 79.89257812 10.14526367 C78.24257812 10.47526367 76.59257813 10.80526367 74.89257812 11.14526367 C74.89257812 27.31526367 74.89257812 43.48526367 74.89257812 60.14526367 C76.87257812 60.64026367 76.87257812 60.64026367 78.89257812 61.14526367 C78.56257813 62.46526367 78.23257813 63.78526367 77.89257812 65.14526367 C76.90257813 65.14526367 75.91257812 65.14526367 74.89257812 65.14526367 C74.89257812 70.75526367 74.89257812 76.36526367 74.89257812 82.14526367 C76.37757812 82.64026367 76.37757812 82.64026367 77.89257812 83.14526367 C48.52257812 83.14526367 19.15257812 83.14526367 -11.10742188 83.14526367 C-11.10742188 84.13526367 -11.10742188 85.12526367 -11.10742188 86.14526367 C18.26257813 86.14526367 47.63257813 86.14526367 77.89257812 86.14526367 C77.89257812 86.47526367 77.89257812 86.80526367 77.89257812 87.14526367 C75.58257812 87.14526367 73.27257812 87.14526367 70.89257812 87.14526367 C70.89781494 87.71559326 70.90305176 88.28592285 70.90844727 88.87353516 C70.92916034 91.4432669 70.94222003 94.01298114 70.95507812 96.58276367 C70.96345703 97.4805957 70.97183594 98.37842773 70.98046875 99.3034668 C70.98369141 100.1574707 70.98691406 101.01147461 70.99023438 101.89135742 C70.99547119 102.6821167 71.00070801 103.47287598 71.00610352 104.28759766 C70.89257812 106.14526367 70.89257812 106.14526367 69.89257812 107.14526367 C67.62265926 107.23966345 65.34975845 107.26268594 63.07788086 107.25878906 C62.00964584 107.2590081 62.00964584 107.2590081 60.91983032 107.25923157 C58.555247 107.25853238 56.19074151 107.25073973 53.82617188 107.24291992 C52.19092349 107.24105576 50.55567455 107.23963185 48.92042542 107.2386322 C44.60823027 107.23480685 40.2960686 107.22497642 35.98388672 107.21392822 C31.58691867 107.20371447 27.18994523 107.19913466 22.79296875 107.1940918 C14.15948811 107.18335416 5.52604113 107.16575723 -3.10742188 107.14526367 C-3.10742188 100.54526367 -3.10742188 93.94526367 -3.10742188 87.14526367 C-6.07742187 87.14526367 -9.04742187 87.14526367 -12.10742188 87.14526367 C-12.10742188 85.49526367 -12.10742188 83.84526367 -12.10742188 82.14526367 C-10.78742187 82.14526367 -9.46742187 82.14526367 -8.10742188 82.14526367 C-8.10742188 76.53526367 -8.10742188 70.92526367 -8.10742188 65.14526367 C-9.42742188 65.14526367 -10.74742188 65.14526367 -12.10742188 65.14526367 C-12.10742188 63.49526367 -12.10742188 61.84526367 -12.10742188 60.14526367 C-10.78742187 60.14526367 -9.46742187 60.14526367 -8.10742188 60.14526367 C-8.10742188 43.97526367 -8.10742188 27.80526367 -8.10742188 11.14526367 C-9.75742187 11.14526367 -11.40742187 11.14526367 -13.10742188 11.14526367 C-13.10742188 7.84526367 -13.10742188 4.54526367 -13.10742188 1.14526367 C-8.73651637 0.06876524 -4.4736088 -0.00270216 0 0 Z M-7.10742188 1.14526367 C-7.10742188 20.61526367 -7.10742188 40.08526367 -7.10742188 60.14526367 C19.62257813 60.14526367 46.35257813 60.14526367 73.89257812 60.14526367 C73.89257812 40.67526367 73.89257812 21.20526367 73.89257812 1.14526367 C47.16257812 1.14526367 20.43257812 1.14526367 -7.10742188 1.14526367 Z " fill="#4071AE" transform="translate(48.107421875,28.854736328125)"/>
<path d="M0 0 C0.80224503 -0.00335861 1.60449005 -0.00671722 2.43104553 -0.01017761 C5.07448894 -0.01965192 7.71786881 -0.02162875 10.36132812 -0.02270508 C12.20308457 -0.02591939 14.04484077 -0.02928359 15.88659668 -0.03279114 C19.74325147 -0.03877308 23.59988387 -0.04063193 27.45654297 -0.04003906 C32.39622561 -0.03993733 37.33576488 -0.05360532 42.27541351 -0.07081127 C46.0775417 -0.08193177 49.87963517 -0.08395828 53.68177795 -0.08342934 C55.50302119 -0.08460877 57.32426535 -0.08902848 59.14549255 -0.0967617 C61.69214941 -0.10656541 64.23849431 -0.1036824 66.78515625 -0.09765625 C67.53543594 -0.10327576 68.28571564 -0.10889526 69.05873108 -0.11468506 C73.11234136 -0.09032649 76.24364501 0.34244513 79.89257812 2.14526367 C79.89257812 4.78526367 79.89257812 7.42526367 79.89257812 10.14526367 C78.24257812 10.47526367 76.59257813 10.80526367 74.89257812 11.14526367 C74.89257812 27.31526367 74.89257812 43.48526367 74.89257812 60.14526367 C76.87257812 60.64026367 76.87257812 60.64026367 78.89257812 61.14526367 C78.56257813 62.46526367 78.23257813 63.78526367 77.89257812 65.14526367 C76.90257813 65.14526367 75.91257812 65.14526367 74.89257812 65.14526367 C74.89257812 70.75526367 74.89257812 76.36526367 74.89257812 82.14526367 C71.92257813 82.14526367 68.95257813 82.14526367 65.89257812 82.14526367 C65.89257812 76.53526367 65.89257812 70.92526367 65.89257812 65.14526367 C55.66257812 65.14526367 45.43257812 65.14526367 34.89257812 65.14526367 C34.89257812 70.75526367 34.89257812 76.36526367 34.89257812 82.14526367 C34.23257813 82.14526367 33.57257813 82.14526367 32.89257812 82.14526367 C32.89257812 76.53526367 32.89257812 70.92526367 32.89257812 65.14526367 C22.66257812 65.14526367 12.43257812 65.14526367 1.89257812 65.14526367 C1.89257812 70.75526367 1.89257812 76.36526367 1.89257812 82.14526367 C-1.07742187 82.14526367 -4.04742187 82.14526367 -7.10742188 82.14526367 C-7.10742188 76.53526367 -7.10742188 70.92526367 -7.10742188 65.14526367 C-8.75742187 65.14526367 -10.40742187 65.14526367 -12.10742188 65.14526367 C-12.10742188 63.49526367 -12.10742188 61.84526367 -12.10742188 60.14526367 C-10.78742187 60.14526367 -9.46742187 60.14526367 -8.10742188 60.14526367 C-8.10742188 43.97526367 -8.10742188 27.80526367 -8.10742188 11.14526367 C-9.75742187 11.14526367 -11.40742187 11.14526367 -13.10742188 11.14526367 C-13.10742188 7.84526367 -13.10742188 4.54526367 -13.10742188 1.14526367 C-8.73651637 0.06876524 -4.4736088 -0.00270216 0 0 Z M-7.10742188 1.14526367 C-7.10742188 20.61526367 -7.10742188 40.08526367 -7.10742188 60.14526367 C19.62257813 60.14526367 46.35257813 60.14526367 73.89257812 60.14526367 C73.89257812 40.67526367 73.89257812 21.20526367 73.89257812 1.14526367 C47.16257812 1.14526367 20.43257812 1.14526367 -7.10742188 1.14526367 Z " fill="#6A8FBF" transform="translate(48.107421875,28.854736328125)"/>
<path d="M0 0 C10.23 0 20.46 0 31 0 C31 5.61 31 11.22 31 17 C20.77 17 10.54 17 0 17 C0 11.39 0 5.78 0 0 Z " fill="#EDF1F7" transform="translate(83,94)"/>
<path d="M0 0 C10.23 0 20.46 0 31 0 C31 5.61 31 11.22 31 17 C20.77 17 10.54 17 0 17 C0 11.39 0 5.78 0 0 Z " fill="#ECF1F6" transform="translate(50,94)"/>
<path d="M0 0 C10.23 0 20.46 0 31 0 C31 4.95 31 9.9 31 15 C20.77 15 10.54 15 0 15 C0 10.05 0 5.1 0 0 Z " fill="#FEFEFE" transform="translate(83,116)"/>
<path d="M0 0 C10.23 0 20.46 0 31 0 C31 4.95 31 9.9 31 15 C20.77 15 10.54 15 0 15 C0 10.05 0 5.1 0 0 Z " fill="#FDFEFE" transform="translate(50,116)"/>
<path d="M0 0 C0.80224503 -0.00335861 1.60449005 -0.00671722 2.43104553 -0.01017761 C5.07448894 -0.01965192 7.71786881 -0.02162875 10.36132812 -0.02270508 C12.20308457 -0.02591939 14.04484077 -0.02928359 15.88659668 -0.03279114 C19.74325147 -0.03877308 23.59988387 -0.04063193 27.45654297 -0.04003906 C32.39622561 -0.03993733 37.33576488 -0.05360532 42.27541351 -0.07081127 C46.0775417 -0.08193177 49.87963517 -0.08395828 53.68177795 -0.08342934 C55.50302119 -0.08460877 57.32426535 -0.08902848 59.14549255 -0.0967617 C61.69214941 -0.10656541 64.23849431 -0.1036824 66.78515625 -0.09765625 C67.53543594 -0.10327576 68.28571564 -0.10889526 69.05873108 -0.11468506 C73.11234136 -0.09032649 76.24364501 0.34244513 79.89257812 2.14526367 C79.89257812 4.78526367 79.89257812 7.42526367 79.89257812 10.14526367 C78.24257812 10.47526367 76.59257813 10.80526367 74.89257812 11.14526367 C74.89257812 27.31526367 74.89257812 43.48526367 74.89257812 60.14526367 C76.87257812 60.64026367 76.87257812 60.64026367 78.89257812 61.14526367 C78.56257813 62.13526367 78.23257813 63.12526367 77.89257812 64.14526367 C77.56257813 63.48526367 77.23257813 62.82526367 76.89257812 62.14526367 C48.18257812 61.81526367 19.47257812 61.48526367 -10.10742188 61.14526367 C-9.11742187 60.65026367 -9.11742187 60.65026367 -8.10742188 60.14526367 C-8.10742188 43.97526367 -8.10742188 27.80526367 -8.10742188 11.14526367 C-9.75742187 11.14526367 -11.40742187 11.14526367 -13.10742188 11.14526367 C-13.10742188 7.84526367 -13.10742188 4.54526367 -13.10742188 1.14526367 C-8.73651637 0.06876524 -4.4736088 -0.00270216 0 0 Z M-7.10742188 1.14526367 C-7.10742188 20.61526367 -7.10742188 40.08526367 -7.10742188 60.14526367 C19.62257813 60.14526367 46.35257813 60.14526367 73.89257812 60.14526367 C73.89257812 40.67526367 73.89257812 21.20526367 73.89257812 1.14526367 C47.16257812 1.14526367 20.43257812 1.14526367 -7.10742188 1.14526367 Z " fill="#5A83B8" transform="translate(48.107421875,28.854736328125)"/>
<path d="M0 0 C29.04 0 58.08 0 88 0 C88.495 1.485 88.495 1.485 89 3 C59.63 3 30.26 3 0 3 C0 2.01 0 1.02 0 0 Z " fill="#F1F4F9" transform="translate(37,90)"/>
<path d="M0 0 C1.98 0 3.96 0 6 0 C6 19.8 6 39.6 6 60 C5.01 59.67 4.02 59.34 3 59 C3.66 59 4.32 59 5 59 C5 42.83 5 26.66 5 10 C3.35 10 1.7 10 0 10 C0 6.7 0 3.4 0 0 Z " fill="#3E6FAC" transform="translate(35,30)"/>
<path d="M0 0 C1.32 0 2.64 0 4 0 C4 5.61 4 11.22 4 17 C2.68 17 1.36 17 0 17 C0 11.39 0 5.78 0 0 Z " fill="#E9EEF5" transform="translate(41,94)"/>
<path d="M0 0 C0.99 0 1.98 0 3 0 C3 5.61 3 11.22 3 17 C2.01 17 1.02 17 0 17 C0 11.39 0 5.78 0 0 Z " fill="#DEE6F0" transform="translate(119,94)"/>
<path d="M0 0 C2.475 0.495 2.475 0.495 5 1 C5 3.64 5 6.28 5 9 C3.35 9.33 1.7 9.66 0 10 C0 6.7 0 3.4 0 0 Z " fill="#3C6EAC" transform="translate(123,30)"/>
</svg>
