<?xml version="1.0" encoding="utf-8"?>
<!-- Generator: Adobe Illustrator 24.0.2, SVG Export Plug-In . SVG Version: 6.00 Build 0)  -->
<svg version="1.1" id="Layer_1" xmlns="http://www.w3.org/2000/svg" xmlns:xlink="http://www.w3.org/1999/xlink" x="0px" y="0px"
	 viewBox="0 0 159.4 159.4" style="enable-background:new 0 0 159.4 159.4;" xml:space="preserve">
<style type="text/css">
	.st0{fill:#FFFFFF;}
	.st1{opacity:7.000000e-02;fill:#376AAA;stroke:#376AAA;stroke-width:2;stroke-miterlimit:10;}
	.st2{fill:#376AAA;stroke:#376AAA;stroke-width:2;stroke-miterlimit:10;}
	.st3{fill:none;stroke:#376AAA;stroke-width:2;stroke-miterlimit:10;}
</style>
<circle class="st0" cx="79.7" cy="79.7" r="79.7"/>
<g>
	<path class="st1" d="M64,61c-0.2,1.2-0.1,2.5,0.4,3.7c0.5,1.1,1.4,2.1,2.5,2.7c-1.2,0.2-2.4,0.7-3.3,1.6c-0.9,0.9-1.5,2-1.7,3.2
		c-0.2,1.2-0.1,2.5,0.4,3.7c0.5,1.1,1.4,2.1,2.5,2.7c-1.2,0.2-2.4,0.7-3.3,1.6c-0.9,0.9-1.5,2-1.7,3.2c-0.2,1.2-0.1,2.5,0.4,3.7
		c0.5,1.1,1.4,2.1,2.5,2.7c-1.2,0.2-2.4,0.7-3.3,1.6c-0.9,0.9-1.5,2-1.7,3.2c-0.2,1.2-0.1,2.5,0.4,3.7c0.5,1.1,1.4,2.1,2.5,2.7
		c-1.2,0.2-2.4,0.7-3.3,1.6c-0.9,0.9-1.5,2-1.7,3.2c-0.2,1.2-0.1,2.5,0.4,3.7c0.5,1.1,1.4,2.1,2.5,2.7c-1,0.1-2,0.5-2.8,1.2
		c-0.8,0.6-1.5,1.4-1.9,2.4c-0.4,0.9-0.6,2-0.5,3c0.1,1,0.4,2,1,2.9c0.6,0.8,1.4,1.5,2.3,2c0.9,0.5,1.9,0.7,2.9,0.6
		c1,0,2-0.3,2.9-0.9c0.9-0.5,1.6-1.3,2.1-2.2c0.2,1.2,0.7,2.4,1.6,3.3c0.9,0.9,2,1.5,3.2,1.8c1.2,0.2,2.5,0.1,3.6-0.4
		c1.1-0.5,2.1-1.4,2.7-2.5c0.2,1.2,0.7,2.4,1.6,3.3c0.9,0.9,2,1.5,3.2,1.8c1.2,0.2,2.5,0.1,3.6-0.4c1.1-0.5,2.1-1.4,2.7-2.5
		c0.2,1.2,0.7,2.4,1.6,3.3c0.9,0.9,2,1.5,3.2,1.8s2.5,0.1,3.6-0.4c1.1-0.5,2.1-1.4,2.7-2.5c0.2,1.2,0.7,2.4,1.6,3.3
		c0.9,0.9,2,1.5,3.2,1.8c1.2,0.2,2.5,0.1,3.6-0.4c1.1-0.5,2.1-1.4,2.7-2.5c0.1,1,0.5,2,1.2,2.8c0.6,0.8,1.4,1.5,2.4,1.9
		c0.9,0.4,2,0.6,3,0.5c1-0.1,2-0.4,2.8-1c0.8-0.6,1.5-1.4,2-2.3c0.5-0.9,0.7-1.9,0.6-3s-0.3-2-0.9-2.9c-0.5-0.9-1.3-1.6-2.2-2.1
		c1.2-0.2,2.4-0.7,3.3-1.6c0.9-0.9,1.5-2,1.7-3.2c0.2-1.2,0.1-2.5-0.4-3.7c-0.5-1.1-1.4-2.1-2.5-2.7c1.2-0.2,2.4-0.7,3.3-1.6
		s1.5-2,1.8-3.2c0.2-1.2,0.1-2.5-0.4-3.7c-0.5-1.1-1.4-2.1-2.5-2.7c1.2-0.2,2.4-0.7,3.3-1.6c0.9-0.9,1.5-2,1.7-3.2
		c0.2-1.2,0.1-2.5-0.4-3.7c-0.5-1.1-1.4-2.1-2.5-2.7c1.2-0.2,2.4-0.7,3.3-1.6c0.9-0.9,1.5-2,1.7-3.2c0.2-1.2,0.1-2.5-0.4-3.7
		c-0.5-1.1-1.4-2.1-2.5-2.7c1.2-0.2,2.4-0.7,3.3-1.6c0.9-0.9,1.5-2,1.8-3.2L64,61z"/>
	<path class="st2" d="M68.6,54.7l61.2,11.7c0.8,0.2,1.6,0.7,2.1,1.4c0.5,0.7,0.7,1.6,0.5,2.5l-0.7,3.7L64,61l0.7-3.7
		c0.2-0.9,0.7-1.6,1.4-2.1C66.8,54.7,67.7,54.5,68.6,54.7L68.6,54.7z"/>
	<path class="st1" d="M64,61c-0.2,1.2-0.1,2.5,0.4,3.7c0.5,1.1,1.4,2.1,2.5,2.7c-1.2,0.2-2.4,0.7-3.3,1.6c-0.9,0.9-1.5,2-1.7,3.2
		c-0.2,1.2-0.1,2.5,0.4,3.7c0.5,1.1,1.4,2.1,2.5,2.7c-1.2,0.2-2.4,0.7-3.3,1.6c-0.9,0.9-1.5,2-1.7,3.2c-0.2,1.2-0.1,2.5,0.4,3.7
		c0.5,1.1,1.4,2.1,2.5,2.7c-1.2,0.2-2.4,0.7-3.3,1.6c-0.9,0.9-1.5,2-1.7,3.2c-0.2,1.2-0.1,2.5,0.4,3.7c0.5,1.1,1.4,2.1,2.5,2.7
		c-1.2,0.2-2.4,0.7-3.3,1.6c-0.9,0.9-1.5,2-1.7,3.2c-0.2,1.2-0.1,2.5,0.4,3.7c0.5,1.1,1.4,2.1,2.5,2.7c-1,0.1-2,0.5-2.8,1.2
		c-0.8,0.6-1.5,1.4-1.9,2.4c-0.4,0.9-0.6,2-0.5,3c0.1,1,0.4,2,1,2.9c0.6,0.8,1.4,1.5,2.3,2c0.9,0.5,1.9,0.7,2.9,0.6
		c1,0,2-0.3,2.9-0.9c0.9-0.5,1.6-1.3,2.1-2.2c0.2,1.2,0.7,2.4,1.6,3.3c0.9,0.9,2,1.5,3.2,1.8c1.2,0.2,2.5,0.1,3.6-0.4
		c1.1-0.5,2.1-1.4,2.7-2.5c0.2,1.2,0.7,2.4,1.6,3.3c0.9,0.9,2,1.5,3.2,1.8c1.2,0.2,2.5,0.1,3.6-0.4c1.1-0.5,2.1-1.4,2.7-2.5
		c0.2,1.2,0.7,2.4,1.6,3.3c0.9,0.9,2,1.5,3.2,1.8s2.5,0.1,3.6-0.4c1.1-0.5,2.1-1.4,2.7-2.5c0.2,1.2,0.7,2.4,1.6,3.3
		c0.9,0.9,2,1.5,3.2,1.8c1.2,0.2,2.5,0.1,3.6-0.4c1.1-0.5,2.1-1.4,2.7-2.5c0.1,1,0.5,2,1.2,2.8c0.6,0.8,1.4,1.5,2.4,1.9
		c0.9,0.4,2,0.6,3,0.5c1-0.1,2-0.4,2.8-1c0.8-0.6,1.5-1.4,2-2.3c0.5-0.9,0.7-1.9,0.6-3s-0.3-2-0.9-2.9c-0.5-0.9-1.3-1.6-2.2-2.1
		c1.2-0.2,2.4-0.7,3.3-1.6c0.9-0.9,1.5-2,1.7-3.2c0.2-1.2,0.1-2.5-0.4-3.7c-0.5-1.1-1.4-2.1-2.5-2.7c1.2-0.2,2.4-0.7,3.3-1.6
		s1.5-2,1.8-3.2c0.2-1.2,0.1-2.5-0.4-3.7c-0.5-1.1-1.4-2.1-2.5-2.7c1.2-0.2,2.4-0.7,3.3-1.6c0.9-0.9,1.5-2,1.7-3.2
		c0.2-1.2,0.1-2.5-0.4-3.7c-0.5-1.1-1.4-2.1-2.5-2.7c1.2-0.2,2.4-0.7,3.3-1.6c0.9-0.9,1.5-2,1.7-3.2c0.2-1.2,0.1-2.5-0.4-3.7
		c-0.5-1.1-1.4-2.1-2.5-2.7c1.2-0.2,2.4-0.7,3.3-1.6c0.9-0.9,1.5-2,1.8-3.2L64,61z"/>
	<path class="st3" d="M64,61c-0.2,1.2-0.1,2.5,0.4,3.7c0.5,1.1,1.4,2.1,2.5,2.7c-1.2,0.2-2.4,0.7-3.3,1.6c-0.9,0.9-1.5,2-1.7,3.2
		c-0.2,1.2-0.1,2.5,0.4,3.7c0.5,1.1,1.4,2.1,2.5,2.7c-1.2,0.2-2.4,0.7-3.3,1.6c-0.9,0.9-1.5,2-1.7,3.2c-0.2,1.2-0.1,2.5,0.4,3.7
		c0.5,1.1,1.4,2.1,2.5,2.7c-1.2,0.2-2.4,0.7-3.3,1.6c-0.9,0.9-1.5,2-1.7,3.2c-0.2,1.2-0.1,2.5,0.4,3.7c0.5,1.1,1.4,2.1,2.5,2.7
		c-1.2,0.2-2.4,0.7-3.3,1.6c-0.9,0.9-1.5,2-1.7,3.2c-0.2,1.2-0.1,2.5,0.4,3.7c0.5,1.1,1.4,2.1,2.5,2.7c-1,0.1-2,0.5-2.8,1.2
		c-0.8,0.6-1.5,1.4-1.9,2.4c-0.4,0.9-0.6,2-0.5,3c0.1,1,0.4,2,1,2.9c0.6,0.8,1.4,1.5,2.3,2c0.9,0.5,1.9,0.7,2.9,0.6
		c1,0,2-0.3,2.9-0.9c0.9-0.5,1.6-1.3,2.1-2.2c0.2,1.2,0.7,2.4,1.6,3.3c0.9,0.9,2,1.5,3.2,1.8c1.2,0.2,2.5,0.1,3.6-0.4
		c1.1-0.5,2.1-1.4,2.7-2.5c0.2,1.2,0.7,2.4,1.6,3.3c0.9,0.9,2,1.5,3.2,1.8c1.2,0.2,2.5,0.1,3.6-0.4c1.1-0.5,2.1-1.4,2.7-2.5
		c0.2,1.2,0.7,2.4,1.6,3.3c0.9,0.9,2,1.5,3.2,1.8s2.5,0.1,3.6-0.4c1.1-0.5,2.1-1.4,2.7-2.5c0.2,1.2,0.7,2.4,1.6,3.3
		c0.9,0.9,2,1.5,3.2,1.8c1.2,0.2,2.5,0.1,3.6-0.4c1.1-0.5,2.1-1.4,2.7-2.5c0.1,1,0.5,2,1.2,2.8c0.6,0.8,1.4,1.5,2.4,1.9
		c0.9,0.4,2,0.6,3,0.5c1-0.1,2-0.4,2.8-1c0.8-0.6,1.5-1.4,2-2.3c0.5-0.9,0.7-1.9,0.6-3s-0.3-2-0.9-2.9c-0.5-0.9-1.3-1.6-2.2-2.1
		c1.2-0.2,2.4-0.7,3.3-1.6c0.9-0.9,1.5-2,1.7-3.2c0.2-1.2,0.1-2.5-0.4-3.7c-0.5-1.1-1.4-2.1-2.5-2.7c1.2-0.2,2.4-0.7,3.3-1.6
		s1.5-2,1.8-3.2c0.2-1.2,0.1-2.5-0.4-3.7c-0.5-1.1-1.4-2.1-2.5-2.7c1.2-0.2,2.4-0.7,3.3-1.6c0.9-0.9,1.5-2,1.7-3.2
		c0.2-1.2,0.1-2.5-0.4-3.7c-0.5-1.1-1.4-2.1-2.5-2.7c1.2-0.2,2.4-0.7,3.3-1.6c0.9-0.9,1.5-2,1.7-3.2c0.2-1.2,0.1-2.5-0.4-3.7
		c-0.5-1.1-1.4-2.1-2.5-2.7c1.2-0.2,2.4-0.7,3.3-1.6c0.9-0.9,1.5-2,1.8-3.2L64,61z"/>
	<path class="st0" d="M27.7,50.7c0.2,1.3,0.8,2.4,1.8,3.3c0.9,0.9,2.1,1.5,3.4,1.7c-1.1,0.6-2,1.6-2.6,2.8c-0.5,1.2-0.7,2.5-0.5,3.7
		c0.2,1.3,0.8,2.4,1.8,3.3c0.9,0.9,2.1,1.5,3.4,1.7c-1.1,0.6-2,1.6-2.6,2.8c-0.5,1.2-0.7,2.5-0.5,3.7c0.2,1.3,0.8,2.4,1.8,3.3
		c0.9,0.9,2.1,1.5,3.4,1.7c-1.1,0.6-2,1.6-2.6,2.8c-0.5,1.2-0.7,2.5-0.5,3.7c0.2,1.3,0.8,2.4,1.8,3.3c0.9,0.9,2.1,1.5,3.4,1.7
		c-1.1,0.6-2,1.6-2.6,2.8c-0.5,1.2-0.7,2.5-0.5,3.7c0.2,1.3,0.8,2.4,1.8,3.3c0.9,0.9,2.1,1.5,3.4,1.7c-0.9,0.5-1.7,1.3-2.2,2.1
		c-0.6,0.9-0.9,1.9-0.9,3c-0.1,1.1,0.2,2.1,0.6,3c0.5,0.9,1.2,1.8,2,2.4c0.9,0.6,1.9,1,2.9,1.1c1,0.1,2.1-0.1,3.1-0.5
		c1-0.4,1.8-1.1,2.4-1.9c0.6-0.8,1.1-1.8,1.2-2.8c0.6,1.1,1.6,2,2.7,2.6c1.2,0.6,2.5,0.7,3.7,0.5c1.3-0.2,2.4-0.8,3.3-1.8
		c0.9-0.9,1.5-2.1,1.7-3.4c0.6,1.1,1.6,2,2.7,2.6c1.2,0.6,2.5,0.7,3.7,0.5c1.3-0.2,2.4-0.8,3.3-1.8c0.9-0.9,1.5-2.1,1.7-3.4
		c0.6,1.1,1.6,2,2.7,2.6c1.2,0.6,2.5,0.7,3.7,0.5c1.3-0.2,2.4-0.8,3.3-1.8c0.9-0.9,1.5-2.1,1.7-3.4c0.6,1.1,1.6,2,2.7,2.6
		c1.2,0.6,2.5,0.7,3.7,0.5c1.3-0.2,2.4-0.8,3.3-1.8c0.9-0.9,1.5-2.1,1.7-3.4c0.5,0.9,1.2,1.7,2.1,2.2c0.9,0.6,1.9,0.9,2.9,0.9
		c1,0.1,2.1-0.2,3-0.6c0.9-0.5,1.7-1.2,2.3-2c0.6-0.9,1-1.9,1.1-2.9c0.1-1-0.1-2.1-0.5-3.1c-0.4-1-1.1-1.8-1.9-2.5
		c-0.8-0.6-1.8-1.1-2.8-1.2c1.1-0.6,2-1.6,2.6-2.8c0.5-1.2,0.7-2.5,0.5-3.7c-0.2-1.3-0.8-2.4-1.8-3.3s-2.1-1.5-3.4-1.7
		c1.1-0.6,2-1.6,2.6-2.8c0.5-1.2,0.7-2.5,0.5-3.7c-0.2-1.3-0.8-2.4-1.8-3.3c-0.9-0.9-2.1-1.5-3.4-1.7c1.1-0.6,2-1.6,2.6-2.8
		c0.5-1.2,0.7-2.5,0.5-3.7c-0.2-1.3-0.8-2.4-1.8-3.3c-0.9-0.9-2.1-1.5-3.4-1.7c1.1-0.6,2-1.6,2.6-2.8c0.5-1.2,0.7-2.5,0.5-3.7
		c-0.2-1.3-0.8-2.4-1.8-3.3c-0.9-0.9-2.1-1.5-3.4-1.7c1.1-0.6,2-1.6,2.6-2.8c0.5-1.2,0.7-2.5,0.5-3.7L27.7,50.7z"/>
	<path class="st3" d="M27.4,50.7c0.2,1.3,0.8,2.4,1.8,3.3c0.9,0.9,2.1,1.5,3.4,1.7c-1.1,0.6-2,1.6-2.6,2.8c-0.5,1.2-0.7,2.5-0.5,3.7
		c0.2,1.3,0.8,2.4,1.8,3.3c0.9,0.9,2.1,1.5,3.4,1.7c-1.1,0.6-2,1.6-2.6,2.8c-0.5,1.2-0.7,2.5-0.5,3.7c0.2,1.3,0.8,2.4,1.8,3.3
		c0.9,0.9,2.1,1.5,3.4,1.7c-1.1,0.6-2,1.6-2.6,2.8c-0.5,1.2-0.7,2.5-0.5,3.7c0.2,1.3,0.8,2.4,1.8,3.3c0.9,0.9,2.1,1.5,3.4,1.7
		c-1.1,0.6-2,1.6-2.6,2.8c-0.5,1.2-0.7,2.5-0.5,3.7c0.2,1.3,0.8,2.4,1.8,3.3c0.9,0.9,2.1,1.5,3.4,1.7c-0.9,0.5-1.7,1.3-2.2,2.1
		c-0.6,0.9-0.9,1.9-0.9,3c-0.1,1.1,0.2,2.1,0.6,3c0.5,0.9,1.2,1.8,2,2.4c0.9,0.6,1.9,1,2.9,1.1c1,0.1,2.1-0.1,3.1-0.5
		c1-0.4,1.8-1.1,2.4-1.9c0.6-0.8,1.1-1.8,1.2-2.8c0.6,1.1,1.6,2,2.7,2.6c1.2,0.6,2.5,0.7,3.7,0.5c1.3-0.2,2.4-0.8,3.3-1.8
		c0.9-0.9,1.5-2.1,1.7-3.4c0.6,1.1,1.6,2,2.7,2.6c1.2,0.6,2.5,0.7,3.7,0.5c1.3-0.2,2.4-0.8,3.3-1.8c0.9-0.9,1.5-2.1,1.7-3.4
		c0.6,1.1,1.6,2,2.7,2.6c1.2,0.6,2.5,0.7,3.7,0.5c1.3-0.2,2.4-0.8,3.3-1.8c0.9-0.9,1.5-2.1,1.7-3.4c0.6,1.1,1.6,2,2.7,2.6
		c1.2,0.6,2.5,0.7,3.7,0.5c1.3-0.2,2.4-0.8,3.3-1.8c0.9-0.9,1.5-2.1,1.7-3.4c0.5,0.9,1.2,1.7,2.1,2.2c0.9,0.6,1.9,0.9,2.9,0.9
		c1,0.1,2.1-0.2,3-0.6c0.9-0.5,1.7-1.2,2.3-2c0.6-0.9,1-1.9,1.1-2.9c0.1-1-0.1-2.1-0.5-3.1c-0.4-1-1.1-1.8-1.9-2.5
		c-0.8-0.6-1.8-1.1-2.8-1.2c1.1-0.6,2-1.6,2.6-2.8c0.5-1.2,0.7-2.5,0.5-3.7c-0.2-1.3-0.8-2.4-1.8-3.3s-2.1-1.5-3.4-1.7
		c1.1-0.6,2-1.6,2.6-2.8c0.5-1.2,0.7-2.5,0.5-3.7c-0.2-1.3-0.8-2.4-1.8-3.3c-0.9-0.9-2.1-1.5-3.4-1.7c1.1-0.6,2-1.6,2.6-2.8
		c0.5-1.2,0.7-2.5,0.5-3.7c-0.2-1.3-0.8-2.4-1.8-3.3c-0.9-0.9-2.1-1.5-3.4-1.7c1.1-0.6,2-1.6,2.6-2.8c0.5-1.2,0.7-2.5,0.5-3.7
		c-0.2-1.3-0.8-2.4-1.8-3.3c-0.9-0.9-2.1-1.5-3.4-1.7c1.1-0.6,2-1.6,2.6-2.8c0.5-1.2,0.7-2.5,0.5-3.7L27.4,50.7z"/>
	<g>
		<path class="st2" d="M29.4,43.1l63.1-11.3c0.8-0.2,1.7,0,2.4,0.5c0.7,0.5,1.2,1.3,1.3,2.1l0.7,3.9L27.4,50.7l-0.7-3.9
			c-0.2-0.9,0-1.7,0.5-2.4C27.8,43.7,28.5,43.2,29.4,43.1z"/>
		<path class="st1" d="M27.4,50.7c0.2,1.3,0.8,2.4,1.8,3.3c0.9,0.9,2.1,1.5,3.4,1.7c-1.1,0.6-2,1.6-2.6,2.8
			c-0.5,1.2-0.7,2.5-0.5,3.7c0.2,1.3,0.8,2.4,1.8,3.3c0.9,0.9,2.1,1.5,3.4,1.7c-1.1,0.6-2,1.6-2.6,2.8c-0.5,1.2-0.7,2.5-0.5,3.7
			c0.2,1.3,0.8,2.4,1.8,3.3c0.9,0.9,2.1,1.5,3.4,1.7c-1.1,0.6-2,1.6-2.6,2.8c-0.5,1.2-0.7,2.5-0.5,3.7c0.2,1.3,0.8,2.4,1.8,3.3
			c0.9,0.9,2.1,1.5,3.4,1.7c-1.1,0.6-2,1.6-2.6,2.8c-0.5,1.2-0.7,2.5-0.5,3.7c0.2,1.3,0.8,2.4,1.8,3.3c0.9,0.9,2.1,1.5,3.4,1.7
			c-0.9,0.5-1.7,1.3-2.2,2.1c-0.6,0.9-0.9,1.9-0.9,3c-0.1,1.1,0.2,2.1,0.6,3c0.5,0.9,1.2,1.8,2,2.4c0.9,0.6,1.9,1,2.9,1.1
			c1,0.1,2.1-0.1,3.1-0.5c1-0.4,1.8-1.1,2.4-1.9c0.6-0.8,1.1-1.8,1.2-2.8c0.6,1.1,1.6,2,2.7,2.6c1.2,0.6,2.5,0.7,3.7,0.5
			c1.3-0.2,2.4-0.8,3.3-1.8c0.9-0.9,1.5-2.1,1.7-3.4c0.6,1.1,1.6,2,2.7,2.6c1.2,0.6,2.5,0.7,3.7,0.5c1.3-0.2,2.4-0.8,3.3-1.8
			c0.9-0.9,1.5-2.1,1.7-3.4c0.6,1.1,1.6,2,2.7,2.6c1.2,0.6,2.5,0.7,3.7,0.5c1.3-0.2,2.4-0.8,3.3-1.8c0.9-0.9,1.5-2.1,1.7-3.4
			c0.6,1.1,1.6,2,2.7,2.6c1.2,0.6,2.5,0.7,3.7,0.5c1.3-0.2,2.4-0.8,3.3-1.8c0.9-0.9,1.5-2.1,1.7-3.4c0.5,0.9,1.2,1.7,2.1,2.2
			c0.9,0.6,1.9,0.9,2.9,0.9c1,0.1,2.1-0.2,3-0.6c0.9-0.5,1.7-1.2,2.3-2c0.6-0.9,1-1.9,1.1-2.9c0.1-1-0.1-2.1-0.5-3.1
			c-0.4-1-1.1-1.8-1.9-2.5c-0.8-0.6-1.8-1.1-2.8-1.2c1.1-0.6,2-1.6,2.6-2.8c0.5-1.2,0.7-2.5,0.5-3.7c-0.2-1.3-0.8-2.4-1.8-3.3
			s-2.1-1.5-3.4-1.7c1.1-0.6,2-1.6,2.6-2.8c0.5-1.2,0.7-2.5,0.5-3.7c-0.2-1.3-0.8-2.4-1.8-3.3c-0.9-0.9-2.1-1.5-3.4-1.7
			c1.1-0.6,2-1.6,2.6-2.8c0.5-1.2,0.7-2.5,0.5-3.7c-0.2-1.3-0.8-2.4-1.8-3.3c-0.9-0.9-2.1-1.5-3.4-1.7c1.1-0.6,2-1.6,2.6-2.8
			c0.5-1.2,0.7-2.5,0.5-3.7c-0.2-1.3-0.8-2.4-1.8-3.3c-0.9-0.9-2.1-1.5-3.4-1.7c1.1-0.6,2-1.6,2.6-2.8c0.5-1.2,0.7-2.5,0.5-3.7
			L27.4,50.7z"/>
	</g>
</g>
</svg>
