<?xml version="1.0" encoding="utf-8"?>
<!-- Generator: Adobe Illustrator 24.0.2, SVG Export Plug-In . SVG Version: 6.00 Build 0)  -->
<svg version="1.1" id="Layer_1" xmlns="http://www.w3.org/2000/svg" xmlns:xlink="http://www.w3.org/1999/xlink" x="0px" y="0px"
	 viewBox="0 0 164 164" style="enable-background:new 0 0 164 164;" xml:space="preserve">
<style type="text/css">
	.st0{fill:#FFFFFF;}
	.st1{fill:#A6AAB4;}
	.st2{fill:#376AAA;}
	.st3{opacity:7.000000e-02;fill:#376AAA;}
	.st4{fill:none;}
	.st5{fill:#F6AD00;}
	.st6{fill:#FFFFFF;stroke:#376AAA;stroke-width:1.4507;stroke-miterlimit:10;}
	.st7{fill:#FFFFFF;stroke:#376AAA;stroke-width:1.3561;stroke-miterlimit:10;}
	.st8{opacity:7.000000e-02;fill:#376AAA;stroke:#376AAA;stroke-width:1.4507;stroke-miterlimit:10;}
	.st9{fill:#FFFFFF;stroke:#376AAA;stroke-width:1.4543;}
	.st10{clip-path:url(#SVGID_1_);}
	.st11{opacity:7.000000e-02;fill:#376AAA;stroke:#376AAA;stroke-width:1.0303;stroke-miterlimit:10;}
	.st12{fill:none;stroke:#376AAA;stroke-width:1.0303;stroke-miterlimit:10;}
	.st13{clip-path:url(#SVGID_2_);fill:#376AAA;}
	.st14{fill:#376AAA;stroke:#FFFFFF;stroke-width:0.2645;stroke-miterlimit:10;}
</style>
<circle class="st0" cx="82" cy="82" r="82"/>
<path class="st1" d="M51,79.5h66.8v-2.4H51V79.5z"/>
<path class="st2" d="M37.9,30.3h3.3v10.9h-3.3c-0.3,0-0.6-0.1-0.9-0.2c-0.3-0.1-0.6-0.3-0.8-0.5c-0.2-0.2-0.4-0.5-0.5-0.8
	c-0.1-0.3-0.2-0.6-0.2-0.9v-6.1c0-0.6,0.3-1.2,0.7-1.7C36.7,30.6,37.3,30.3,37.9,30.3L37.9,30.3z"/>
<path class="st2" d="M126.2,30.3h3.3c0.6,0,1.2,0.3,1.7,0.7c0.4,0.4,0.7,1.1,0.7,1.7v6.1c0,0.6-0.3,1.2-0.7,1.7
	c-0.4,0.4-1.1,0.7-1.7,0.7h-3.3V30.3z"/>
<path class="st2" d="M130.3,46c-0.4,0-0.7-0.1-1-0.4s-0.4-0.6-0.4-1v-0.4c0-0.4,0.1-0.7,0.4-1c0.3-0.3,0.6-0.4,1-0.4
	c0.4,0,0.7,0.1,1,0.4c0.3,0.3,0.4,0.6,0.4,1v0.4c0,0.4-0.1,0.7-0.4,1C131,45.9,130.7,46,130.3,46z"/>
<path class="st2" d="M130.3,92.3c-0.4,0-0.7-0.1-1-0.4c-0.3-0.3-0.4-0.6-0.4-1v-0.7c0-0.4,0.1-0.7,0.4-1c0.3-0.3,0.6-0.4,1-0.4
	c0.4,0,0.7,0.1,1,0.4c0.3,0.3,0.4,0.6,0.4,1v0.7c0,0.4-0.2,0.7-0.4,1C131,92.1,130.7,92.3,130.3,92.3z M130.3,87.1
	c-0.4,0-0.7-0.1-1-0.4c-0.3-0.3-0.4-0.6-0.4-1V85c0-0.4,0.1-0.7,0.4-1c0.3-0.3,0.6-0.4,1-0.4c0.4,0,0.7,0.1,1,0.4
	c0.3,0.3,0.4,0.6,0.4,1v0.7c0,0.2,0,0.4-0.1,0.5c-0.1,0.2-0.2,0.3-0.3,0.5c-0.1,0.1-0.3,0.2-0.5,0.3
	C130.6,87.1,130.5,87.1,130.3,87.1z M130.3,82c-0.2,0-0.4,0-0.5-0.1c-0.2-0.1-0.3-0.2-0.5-0.3c-0.1-0.1-0.2-0.3-0.3-0.5
	c-0.1-0.2-0.1-0.4-0.1-0.5v-0.7c0-0.4,0.1-0.7,0.4-1s0.6-0.4,1-0.4c0.4,0,0.7,0.1,1,0.4c0.3,0.3,0.4,0.6,0.4,1v0.7
	c0,0.2,0,0.4-0.1,0.5c-0.1,0.2-0.2,0.3-0.3,0.5s-0.3,0.2-0.5,0.3C130.6,81.9,130.5,82,130.3,82z M130.3,76.8c-0.4,0-0.7-0.1-1-0.4
	c-0.3-0.3-0.4-0.6-0.4-1v-0.7c0-0.4,0.1-0.7,0.4-1c0.3-0.3,0.6-0.4,1-0.4c0.4,0,0.7,0.1,1,0.4c0.3,0.3,0.4,0.6,0.4,1v0.7
	c0,0.4-0.2,0.7-0.4,1C131,76.7,130.7,76.8,130.3,76.8z M130.3,71.7c-0.4,0-0.7-0.1-1-0.4c-0.3-0.3-0.4-0.6-0.4-1v-0.7
	c0-0.4,0.1-0.7,0.4-1c0.3-0.3,0.6-0.4,1-0.4c0.4,0,0.7,0.1,1,0.4c0.3,0.3,0.4,0.6,0.4,1v0.7c0,0.4-0.1,0.7-0.4,1
	C131,71.6,130.7,71.7,130.3,71.7z M130.3,66.6c-0.2,0-0.4,0-0.5-0.1c-0.2-0.1-0.3-0.2-0.5-0.3c-0.1-0.1-0.2-0.3-0.3-0.5
	c-0.1-0.2-0.1-0.4-0.1-0.5v-0.7c0-0.4,0.1-0.7,0.4-1s0.6-0.4,1-0.4c0.4,0,0.7,0.1,1,0.4c0.3,0.3,0.4,0.6,0.4,1v0.7
	c0,0.2,0,0.4-0.1,0.5c-0.1,0.2-0.2,0.3-0.3,0.5c-0.1,0.1-0.3,0.2-0.5,0.3C130.6,66.5,130.5,66.6,130.3,66.6z M130.3,61.4
	c-0.4,0-0.7-0.1-1-0.4c-0.3-0.3-0.4-0.6-0.4-1v-0.7c0-0.4,0.1-0.7,0.4-1c0.3-0.3,0.6-0.4,1-0.4c0.4,0,0.7,0.1,1,0.4
	c0.3,0.3,0.4,0.6,0.4,1V60c0,0.4-0.2,0.7-0.4,1C131,61.3,130.7,61.4,130.3,61.4z M130.3,56.3c-0.4,0-0.7-0.1-1-0.4
	c-0.3-0.3-0.4-0.6-0.4-1v-0.7c0-0.4,0.1-0.7,0.4-1c0.3-0.3,0.6-0.4,1-0.4c0.4,0,0.7,0.1,1,0.4c0.3,0.3,0.4,0.6,0.4,1v0.7
	c0,0.2,0,0.4-0.1,0.5c-0.1,0.2-0.2,0.3-0.3,0.5c-0.1,0.1-0.3,0.2-0.5,0.3C130.6,56.3,130.5,56.3,130.3,56.3z M130.3,51.1
	c-0.4,0-0.7-0.1-1-0.4c-0.3-0.3-0.4-0.6-0.4-1V49c0-0.4,0.1-0.7,0.4-1s0.6-0.4,1-0.4c0.4,0,0.7,0.1,1,0.4c0.3,0.3,0.4,0.6,0.4,1v0.7
	c0,0.4-0.2,0.7-0.4,1C131,51,130.7,51.1,130.3,51.1z"/>
<path class="st2" d="M130.6,93.4h-0.7c-1,0-1.8,0.8-1.8,1.8v3.6c0,1,0.8,1.8,1.8,1.8h0.7c1,0,1.8-0.8,1.8-1.8v-3.6
	C132.5,94.2,131.6,93.4,130.6,93.4z"/>
<circle class="st0" cx="82" cy="82" r="82"/>
<path class="st1" d="M51,79.5h66.8v-2.4H51V79.5z"/>
<path class="st3" d="M125.5,30.5H40.8v86.5h84.7V30.5z"/>
<rect x="34.7" y="30.3" class="st4" width="96.9" height="109.7"/>
<rect x="34.7" y="30.3" class="st4" width="96.9" height="109.7"/>
<path class="st2" d="M50.6,137.9V40.4h-4.9v97.4H50.6z"/>
<path class="st2" d="M122.2,137.9V40.4h-4.9v97.4H122.2z"/>
<path class="st2" d="M85.2,135.1v-94h-2.4v94H85.2z"/>
<path class="st2" d="M120.8,135.1H47.2c-0.8,0-1.5,0.7-1.5,1.5v1.9c0,0.8,0.7,1.5,1.5,1.5h73.6c0.8,0,1.5-0.7,1.5-1.5v-1.9
	C122.2,135.8,121.6,135.1,120.8,135.1z"/>
<path class="st5" d="M123,41.3H44.5v70.2H123V41.3z"/>
<path class="st6" d="M125.5,30.5H40.8v86.5h84.7V30.5z"/>
<path class="st7" d="M129.1,116.3H38.9c-0.9,0-1.6,0.7-1.6,1.6v1.1c0,0.9,0.7,1.6,1.6,1.6h90.3c0.9,0,1.6-0.7,1.6-1.6v-1.1
	C130.7,117,130,116.3,129.1,116.3z"/>
<path class="st2" d="M50.6,137.9V40.4h-4.9v97.4H50.6z"/>
<path class="st2" d="M122.2,137.9V40.4h-4.9v97.4H122.2z"/>
<path class="st2" d="M85.2,135.1v-94h-2.4v94H85.2z"/>
<path class="st2" d="M120.8,135.1H47.2c-0.8,0-1.5,0.7-1.5,1.5v1.9c0,0.8,0.7,1.5,1.5,1.5h73.6c0.8,0,1.5-0.7,1.5-1.5v-1.9
	C122.2,135.8,121.6,135.1,120.8,135.1z"/>
<path class="st2" d="M37.9,30.3h3.3v10.9h-3.3c-0.3,0-0.6-0.1-0.9-0.2c-0.3-0.1-0.6-0.3-0.8-0.5c-0.2-0.2-0.4-0.5-0.5-0.8
	c-0.1-0.3-0.2-0.6-0.2-0.9v-6.1c0-0.6,0.3-1.2,0.7-1.7C36.7,30.6,37.3,30.3,37.9,30.3L37.9,30.3z"/>
<path class="st2" d="M128.3,41.3H125V30.3h3.3c0.3,0,0.6,0.1,0.9,0.2c0.3,0.1,0.6,0.3,0.8,0.5c0.2,0.2,0.4,0.5,0.5,0.8
	c0.1,0.3,0.2,0.6,0.2,0.9v6.1c0,0.6-0.3,1.2-0.7,1.7C129.5,41,128.9,41.3,128.3,41.3L128.3,41.3z"/>
<path class="st6" d="M125.5,30.5H40.8v86.5h84.7V30.5z"/>
<path class="st8" d="M125.5,30.5H40.8v86.5h84.7V30.5z"/>
<path class="st7" d="M129.1,116.3H38.9c-0.9,0-1.6,0.7-1.6,1.6v1.1c0,0.9,0.7,1.6,1.6,1.6h90.3c0.9,0,1.6-0.7,1.6-1.6v-1.1
	C130.7,117,130,116.3,129.1,116.3z"/>
<circle class="st9" cx="119.4" cy="101.6" r="31.6"/>
<g>
	<defs>
		<circle id="SVGID_5_" cx="118.8" cy="102.2" r="30.9"/>
	</defs>
	<clipPath id="SVGID_1_">
		<use xlink:href="#SVGID_5_"  style="overflow:visible;"/>
	</clipPath>
	<g class="st10">
		<path class="st2" d="M111,110.9h-3V96.6h3c0.3,0,0.6,0.1,0.8,0.2c0.3,0.2,0.5,0.4,0.7,0.7c0.2,0.3,0.4,0.6,0.5,1
			c0.1,0.4,0.2,0.8,0.2,1.2v8.1c0,0.8-0.2,1.6-0.6,2.2C112.1,110.6,111.5,110.9,111,110.9L111,110.9z"/>
		<path class="st11" d="M108.6,96.7H48.5v61.4h60.1V96.7z"/>
		<path class="st12" d="M108.6,96.6H48.5V158h60.1V96.6z"/>
	</g>
	<g class="st10">
		<g>
			<g>
				<defs>
					<path id="SVGID_7_" d="M116.6,107.9h23.9c0.4,0,0.7-0.3,0.7-0.7v-9.4c0-0.4-0.3-0.7-0.7-0.7h-23.9c-0.4,0-0.7,0.3-0.7,0.7v9.4
						C116,107.6,116.3,107.9,116.6,107.9z"/>
				</defs>
				<clipPath id="SVGID_2_">
					<use xlink:href="#SVGID_7_"  style="overflow:visible;"/>
				</clipPath>
				<ellipse class="st13" cx="122.7" cy="102.9" rx="6.7" ry="13.4"/>
			</g>
			<path class="st2" d="M120.1,107.9h15.9c0.3,0,0.6-0.2,0.6-0.6v-9.6c0-0.3-0.2-0.6-0.6-0.6h-15.9c-0.3,0-0.6,0.2-0.6,0.6v9.6
				C119.5,107.7,119.8,107.9,120.1,107.9z"/>
		</g>
		<g>
			<ellipse class="st2" cx="136.6" cy="102.6" rx="6" ry="12.1"/>
			<g>
				<ellipse class="st14" cx="138.1" cy="102.6" rx="6" ry="12.1"/>
				<ellipse class="st0" cx="138.1" cy="102.6" rx="1.2" ry="3.6"/>
			</g>
		</g>
	</g>
</g>
</svg>
