<?xml version="1.0" encoding="utf-8"?>
<!-- Generator: Adobe Illustrator 24.0.2, SVG Export Plug-In . SVG Version: 6.00 Build 0)  -->
<svg version="1.1" id="Layer_1" xmlns="http://www.w3.org/2000/svg" xmlns:xlink="http://www.w3.org/1999/xlink" x="0px" y="0px"
	 viewBox="0 0 74.4 79" style="enable-background:new 0 0 74.4 79;" xml:space="preserve">
<style type="text/css">
	.st0{fill:#EBF1F7;}
	.st1{fill:#366EAC;}
</style>
<circle class="st0" cx="38" cy="46" r="33"/>
<path class="st1" d="M55.9,56.3c-3.4,0-6.7-1.3-9.1-3.7c-2.1-2-4-4.1-5.9-6.1l-1.4-1.5c-0.8-0.9-1.8-1.5-2.8-2
	c-1.1-0.5-2.2-0.7-3.4-0.7h-0.3c-2.3,0.1-4.6,0.8-6.5,2.2l-9,5.9c-0.9,0.6-2,1-3.1,1.2c-1.1,0.2-2.3,0.1-3.3-0.2
	c-1.1-0.3-2.1-0.9-2.9-1.6s-1.5-1.7-1.9-2.7L1,35.5c-2.2-5-1-9,3.7-12.7l0.1-0.1L20.2,7.9c1.1-1,2.3-2,3.7-2.1H24
	c1.4,0,2.6,0.9,3.7,1.9C28,7.9,28.4,8,28.7,8h0.1c0.2,0,0.4-0.1,0.5-0.2c0.2-0.1,0.3-0.2,0.4-0.4c1.4-1.7,2.2-3,2.9-4.1
	c1.1-1.7,1.8-2.8,3.3-3.2c0.5-0.1,1-0.2,1.5-0.2c1.5,0.1,3,0.2,4.5,0.5h0.2l2.4,0.3c0.2,0,0.4,0.1,0.6,0.2s0.3,0.3,0.4,0.5
	c0.1,0.2,0.2,0.4,0.2,0.6c0,0.2,0,0.4-0.1,0.6l-0.6,1.3c-0.4,0.9-0.8,1.7-1.2,2.4c-0.2,0.3-0.3,0.6-0.3,0.9c0,0.3,0.1,0.6,0.3,0.9
	l6.4,5.2h0.1c0.3,0.2,0.7,0.3,1.1,0.3c0.4,0,0.8-0.1,1.1-0.3c0.3-0.1,0.5-0.3,0.7-0.6c0.2-0.2,0.3-0.5,0.3-0.8V4.1
	c0-0.3,0.1-0.6,0.3-0.8C54,3,54.3,2.9,54.6,2.8c0.1,0,0.3-0.1,0.4-0.1c0.2,0,0.5,0.1,0.7,0.2C55.8,3,56,3.1,56.1,3.3
	c0.2,0.2,15.4,21.9,15.6,22.2c3.3,5.3,3.2,7.9,1.4,13.2c-1.9,5.1-4.8,9.8-8.6,13.9c-1,1.1-2.3,2.1-3.7,2.7c-1.4,0.6-2.9,1-4.5,1
	H55.9z M32.9,39.6h0.4c1.5,0,3.1,0.3,4.5,1c1.4,0.6,2.7,1.5,3.7,2.6l1.3,1.4c1.9,2,3.8,4.1,5.8,6c1.9,1.8,4.5,2.9,7.1,2.9h0.4
	c1.2,0,2.3-0.3,3.4-0.8c1.1-0.5,2-1.2,2.8-2c3.5-3.7,6.2-8.1,8-12.9c1.7-4.8,1.5-6.5-1.1-10.8L56.5,8.7c0,0,0,3.6,0,3.6
	c0,0.8-0.3,1.6-0.7,2.2c-0.4,0.7-1,1.2-1.7,1.6c-0.8,0.4-1.7,0.6-2.6,0.6c-0.9,0-1.8-0.3-2.6-0.8l-0.2-0.1l-6.6-5.4
	c-1.5-1.3-1.7-3.3-0.7-5.2c0.2-0.3,0.3-0.6,0.5-0.9l0.5-1l-1.1-0.2c-1.2-0.2-2.4-0.3-3.6-0.4c-0.2,0-0.5,0-0.7,0.1
	c-0.4,0.1-0.7,0.5-1.7,2c-0.7,1-1.6,2.5-3.1,4.3c-0.4,0.5-0.8,0.8-1.3,1.1c-0.5,0.3-1.1,0.4-1.6,0.5c-0.1,0-0.3,0-0.4,0
	c-1,0-2-0.4-2.8-1c-0.5-0.4-1-0.8-1.6-1.1l-0.3-0.1l-0.3,0.1c-0.6,0.3-1.1,0.7-1.6,1.2l-15.5,15c0,0-0.1,0.1-0.1,0.1
	c-3.8,2.9-4.6,5.6-3,9.4c0,0,5.1,11.5,5.1,11.6c0.3,0.6,0.7,1.2,1.2,1.7c0.5,0.5,1.1,0.8,1.8,1c0.5,0.1,0.9,0.2,1.4,0.2
	c0.9,0,1.9-0.3,2.6-0.8l9-6C27.2,40.6,30,39.7,32.9,39.6L32.9,39.6z"/>
<path class="st1" d="M57.3,74.1c-4.2,0-7-6.1-7.8-10c0-0.2,0-0.4,0-0.6c0-0.2,0.1-0.4,0.3-0.6c0.1-0.2,0.3-0.3,0.5-0.4
	c0.2-0.1,0.4-0.1,0.6-0.1h12.9c0.2,0,0.4,0,0.6,0.1c0.2,0.1,0.4,0.2,0.5,0.4s0.2,0.4,0.3,0.6s0,0.4,0,0.6
	C64.3,68,61.4,74.1,57.3,74.1z M53.1,66.3c0.4,0.9,0.8,1.8,1.3,2.6c1,1.5,2,2.3,2.8,2.3c0.8,0,1.9-0.9,2.9-2.3
	c0.5-0.8,1-1.7,1.3-2.6l0.4-1.1h-9.2L53.1,66.3z"/>
</svg>
