<?xml version="1.0" encoding="utf-8"?>
<!-- Generator: Adobe Illustrator 24.0.2, SVG Export Plug-In . SVG Version: 6.00 Build 0)  -->
<svg version="1.1" id="Layer_1" xmlns="http://www.w3.org/2000/svg" xmlns:xlink="http://www.w3.org/1999/xlink" x="0px" y="0px"
	 viewBox="0 0 66 75" style="enable-background:new 0 0 66 75;" xml:space="preserve">
<style type="text/css">
	.st0{fill:#EBF1F7;}
	.st1{fill:#366EAC;}
</style>
<circle class="st0" cx="33" cy="42" r="33"/>
<path class="st1" d="M40.5,64c-1.3,0-2.7-0.2-4-0.5c-1.2-0.2-2.4-0.4-3.6-0.4c-1.2,0-2.4,0.2-3.6,0.4c-1.3,0.3-2.6,0.4-4,0.5
	c-0.9,0-1.8-0.1-2.7-0.4c-2.3-0.7-4-2.5-5.5-4.1c-0.8-0.9-1.6-1.6-2.5-2.4c-1-0.7-2-1.2-3-1.7c-1.9-0.9-4.1-2-5.5-3.9
	c-1.4-1.9-1.7-4.2-2-6.4c-0.1-1.2-0.4-2.3-0.7-3.5c-0.4-1.1-0.9-2.1-1.4-3.1C1.2,36.6,0,34.5,0,32c0-2.4,1.2-4.6,2.2-6.5
	c1.2-2,1.9-4.2,2.1-6.5c0.3-2.2,0.6-4.6,2-6.4c1.4-1.9,3.6-3,5.5-3.9c1.1-0.5,2.1-1,3-1.7c0.9-0.7,1.8-1.5,2.5-2.4
	c1.5-1.6,3.2-3.3,5.5-4.1C23.7,0.1,24.6,0,25.5,0c1.3,0,2.7,0.2,4,0.5c2.3,0.6,4.8,0.6,7.1,0c1.3-0.3,2.6-0.4,4-0.5
	c0.9,0,1.8,0.1,2.7,0.4c2.3,0.7,4,2.5,5.5,4.1c0.8,0.9,1.6,1.6,2.5,2.4c1,0.6,2,1.2,3,1.7c1.9,1,4.1,2,5.5,3.9
	c1.4,1.9,1.7,4.2,2,6.4c0.1,1.2,0.4,2.3,0.7,3.5c0.4,1.1,0.9,2.1,1.4,3.1c1,1.9,2.2,4.1,2.2,6.5s-1.2,4.6-2.2,6.5
	c-0.6,1-1,2-1.4,3.1c-0.3,1.1-0.6,2.3-0.7,3.5c-0.3,2.2-0.6,4.6-2,6.4c-1.4,1.9-3.6,3-5.5,3.9c-1.1,0.5-2.1,1.1-3,1.7
	c-0.9,0.7-1.7,1.5-2.5,2.4c-1.5,1.6-3.2,3.3-5.5,4.1C42.3,63.9,41.4,64,40.5,64z M25.5,2.9c-0.6,0-1.2,0.1-1.8,0.3
	c-1.6,0.5-2.9,1.9-4.2,3.3c-0.9,1-1.9,1.9-2.9,2.7c-1.1,0.8-2.3,1.4-3.5,2c-1.8,0.9-3.4,1.7-4.4,3c-0.9,1.3-1.2,3.1-1.5,5.1
	c-0.1,1.4-0.4,2.7-0.8,4c-0.4,1.2-1,2.4-1.6,3.6c-0.9,1.8-1.8,3.4-1.8,5.1c0,1.7,0.9,3.4,1.8,5.1c0.7,1.1,1.2,2.3,1.6,3.6
	c0.4,1.3,0.7,2.6,0.8,4c0.3,2,0.5,3.8,1.5,5.1c0.9,1.3,2.6,2.1,4.4,3c1.2,0.6,2.4,1.2,3.5,2c1,0.8,2,1.7,2.9,2.7
	c1.4,1.4,2.7,2.8,4.2,3.3c0.6,0.2,1.2,0.3,1.8,0.3c1.1,0,2.3-0.2,3.4-0.4c2.7-0.6,5.5-0.6,8.2,0c1.1,0.2,2.3,0.4,3.4,0.4
	c0.6,0,1.2-0.1,1.8-0.3c1.6-0.5,2.9-1.9,4.2-3.3c0.9-1,1.9-1.9,2.9-2.7c1.1-0.8,2.3-1.4,3.5-2c1.8-0.9,3.4-1.7,4.4-3
	c0.9-1.3,1.2-3.1,1.5-5.1c0.2-1.4,0.4-2.7,0.8-4c0.4-1.2,1-2.4,1.6-3.6c0.9-1.8,1.8-3.4,1.8-5.1c0-1.7-0.9-3.4-1.8-5.1
	c-0.7-1.1-1.2-2.3-1.6-3.6c-0.4-1.3-0.6-2.6-0.8-4c-0.3-2-0.5-3.8-1.5-5.1c-0.9-1.3-2.6-2.1-4.4-3c-1.2-0.6-2.4-1.2-3.5-2
	c-1-0.8-2-1.7-2.9-2.7c-1.4-1.4-2.7-2.8-4.2-3.3c-0.6-0.2-1.2-0.3-1.8-0.3c-1.1,0-2.3,0.2-3.4,0.4c-1.4,0.3-2.7,0.4-4.1,0.5
	c-1.4,0-2.7-0.2-4.1-0.5C27.8,3.1,26.6,3,25.5,2.9z M30,40.1c-0.2,0-0.4,0-0.6-0.1c-0.2-0.1-0.3-0.2-0.5-0.3l-7.5-7.5
	c-0.3-0.3-0.4-0.6-0.4-1s0.2-0.8,0.4-1c0.3-0.3,0.6-0.4,1-0.4c0.4,0,0.8,0.2,1,0.4l6.4,6.4l12.3-12.4c0.1-0.1,0.3-0.2,0.5-0.3
	c0.2-0.1,0.4-0.1,0.6-0.1c0.2,0,0.4,0,0.6,0.1c0.2,0.1,0.3,0.2,0.5,0.3c0.3,0.3,0.4,0.6,0.4,1c0,0.4-0.2,0.8-0.4,1L31.1,39.7
	c-0.1,0.1-0.3,0.2-0.5,0.3C30.4,40.1,30.2,40.2,30,40.1L30,40.1z"/>
</svg>
