<?xml version="1.0" encoding="utf-8"?>
<!-- Generator: Adobe Illustrator 24.0.2, SVG Export Plug-In . SVG Version: 6.00 Build 0)  -->
<svg version="1.1" id="Layer_1" xmlns="http://www.w3.org/2000/svg" xmlns:xlink="http://www.w3.org/1999/xlink" x="0px" y="0px"
	 viewBox="0 0 66 72.4" style="enable-background:new 0 0 66 72.4;" xml:space="preserve">
<style type="text/css">
	.st0{fill:#EBF1F7;}
	.st1{fill:#366EAC;}
</style>
<circle class="st0" cx="33" cy="39.4" r="33"/>
<path class="st1" d="M6.9,54c-0.2,0-0.5-0.1-0.6-0.3S6,53.3,6,53.1v-6.5c0-0.2,0.1-0.5,0.3-0.6c0.2-0.2,0.4-0.3,0.6-0.3h5.6V27.9
	h-2.3c-0.2,0-0.5-0.1-0.6-0.3c-0.2-0.2-0.3-0.4-0.3-0.6V8.5L8.8,8.3C7.9,8,7.1,7.3,6.6,6.5C6.1,5.7,5.9,4.7,6.1,3.7
	c0.2-1,0.7-1.8,1.4-2.5c0.8-0.6,1.7-1,2.7-1h45.6c1,0,1.9,0.3,2.7,1c0.8,0.6,1.3,1.5,1.4,2.5c0.2,1,0,2-0.5,2.8
	c-0.5,0.8-1.3,1.5-2.2,1.8l-0.5,0.2V27c0,0.2-0.1,0.5-0.3,0.6c-0.2,0.2-0.4,0.3-0.6,0.3h-2.3v17.8h5.6c0.2,0,0.5,0.1,0.6,0.3
	c0.2,0.2,0.3,0.4,0.3,0.6v6.5c0,0.2-0.1,0.5-0.3,0.6c-0.2,0.2-0.4,0.3-0.6,0.3L6.9,54z M7.8,52.2h50.3v-4.7H7.8V52.2z M33.9,45.7
	h17.8V27.9h-8v4.7l0.5,0.2c0.9,0.3,1.7,1,2.2,1.8c0.5,0.8,0.7,1.8,0.5,2.8c-0.2,1-0.7,1.8-1.4,2.5c-0.7,0.6-1.7,1-2.7,1
	c-1,0-1.9-0.3-2.7-1c-0.7-0.6-1.2-1.5-1.4-2.5c-0.2-1,0-1.9,0.5-2.8c0.5-0.8,1.3-1.5,2.2-1.8l0.5-0.2v-4.7h-7.9L33.9,45.7z
	 M14.3,45.7h17.8V27.9H14.3V45.7z M42.7,34.4c-0.5,0-0.9,0.1-1.3,0.4c-0.4,0.3-0.7,0.6-0.9,1.1c-0.2,0.4-0.2,0.9-0.1,1.4
	c0.1,0.5,0.3,0.9,0.6,1.2c0.3,0.3,0.7,0.5,1.2,0.6c0.5,0.1,0.9,0,1.4-0.1c0.4-0.2,0.8-0.5,1.1-0.9c0.3-0.4,0.4-0.8,0.4-1.3
	c0-0.3-0.1-0.6-0.2-0.9c-0.1-0.3-0.3-0.5-0.5-0.8c-0.2-0.2-0.5-0.4-0.8-0.5C43.3,34.4,43,34.4,42.7,34.4z M11.1,26.1h43.8v-4.7H11.1
	V26.1z M11.1,19.7h43.8V15H11.1V19.7z M11.1,13.2h43.8V8.5H11.1V13.2z M10.2,2.1C9.6,2.1,9,2.3,8.5,2.7c-0.4,0.4-0.7,1-0.7,1.7
	c0,0.6,0.2,1.2,0.7,1.7c0.4,0.4,1,0.7,1.7,0.7h45.6c0.6,0,1.2-0.2,1.7-0.7c0.4-0.4,0.7-1,0.7-1.7c0-0.6-0.2-1.2-0.7-1.7
	c-0.4-0.4-1-0.7-1.7-0.7H10.2z"/>
<g>
	<path class="st1" d="M59.1,54.3H6.9c-0.3,0-0.6-0.1-0.8-0.3c-0.2-0.2-0.4-0.5-0.4-0.8v-6.5c0-0.3,0.1-0.6,0.4-0.8
		c0.2-0.2,0.5-0.3,0.8-0.3h5.3V28.2h-2.1c-0.3,0-0.6-0.1-0.8-0.3C9.1,27.7,9,27.4,9,27V8.7L8.7,8.6c-1-0.3-1.8-1-2.3-1.9
		c-0.5-0.9-0.7-2-0.5-3c0.2-1,0.7-2,1.5-2.6c0.8-0.7,1.8-1,2.9-1h45.6c1,0,2.1,0.4,2.9,1c0.8,0.7,1.3,1.6,1.5,2.6c0.2,1,0,2.1-0.5,3
		c-0.5,0.9-1.4,1.6-2.3,1.9L57,8.7V27c0,0.3-0.1,0.6-0.4,0.8c-0.2,0.2-0.5,0.3-0.8,0.3h-2v17.2h5.3c0.3,0,0.6,0.1,0.8,0.3
		c0.2,0.2,0.4,0.5,0.4,0.8v6.5c0,0.2,0,0.3-0.1,0.5c-0.1,0.1-0.1,0.3-0.3,0.4c-0.1,0.1-0.2,0.2-0.4,0.3
		C59.4,54.2,59.2,54.3,59.1,54.3z M6.9,46c-0.2,0-0.3,0.1-0.4,0.2c-0.1,0.1-0.2,0.3-0.2,0.4v6.5c0,0.2,0.1,0.3,0.2,0.4
		c0.1,0.1,0.3,0.2,0.4,0.2h52.1c0.2,0,0.3-0.1,0.4-0.2c0.1-0.1,0.2-0.3,0.2-0.4v-6.5c0-0.2-0.1-0.3-0.2-0.4
		c-0.1-0.1-0.3-0.2-0.4-0.2h-5.9V27.6h2.6c0.2,0,0.3-0.1,0.4-0.2c0.1-0.1,0.2-0.3,0.2-0.4V8.3L57.1,8c0.8-0.3,1.6-0.9,2-1.7
		c0.5-0.8,0.6-1.7,0.5-2.6c-0.2-0.9-0.6-1.7-1.3-2.3c-0.7-0.6-1.6-0.9-2.5-0.9H10.2c-0.9,0-1.8,0.3-2.5,0.9C7,2.1,6.6,2.9,6.4,3.8
		c-0.2,0.9,0,1.8,0.5,2.6C7.3,7.1,8,7.7,8.9,8l0.7,0.2V27c0,0.2,0.1,0.3,0.2,0.4c0.1,0.1,0.3,0.2,0.4,0.2h2.7v18.4L6.9,46z
		 M58.4,52.5H7.5v-5.3h50.9V52.5z M8.1,51.9h49.7v-4.1H8.1V51.9z M52,46H33.6V27.6h8.6v5.3l-0.7,0.2c-0.9,0.3-1.6,0.9-2,1.7
		c-0.5,0.8-0.6,1.7-0.5,2.6s0.6,1.7,1.3,2.3c0.7,0.6,1.6,0.9,2.5,0.9c0.9,0,1.8-0.3,2.5-0.9c0.7-0.6,1.2-1.4,1.3-2.3
		c0.2-0.9,0-1.8-0.5-2.6c-0.5-0.8-1.2-1.4-2-1.7l-0.7-0.2v-5.3H52L52,46z M34.2,45.4h17.2V28.2h-7.5v4.2l0.3,0.1
		c1,0.3,1.8,1,2.4,1.9c0.5,0.9,0.7,2,0.5,3c-0.2,1-0.7,2-1.5,2.6c-0.8,0.7-1.8,1-2.9,1c-1,0-2.1-0.4-2.9-1c-0.8-0.7-1.3-1.6-1.5-2.6
		c-0.2-1,0-2.1,0.5-3c0.5-0.9,1.4-1.6,2.4-1.9l0.3-0.1v-4.2h-7.3V45.4z M32.4,46H14V27.6h18.4L32.4,46z M14.6,45.4h17.2V28.2H14.6
		L14.6,45.4z M42.7,39.4c-0.5,0-1-0.2-1.5-0.4c-0.4-0.3-0.8-0.7-1-1.2c-0.2-0.5-0.3-1-0.2-1.5c0.1-0.5,0.4-1,0.7-1.4
		c0.4-0.4,0.8-0.6,1.4-0.7c0.5-0.1,1,0,1.5,0.2c0.5,0.2,0.9,0.5,1.2,1c0.3,0.4,0.4,0.9,0.4,1.5c0,0.7-0.3,1.4-0.8,1.9
		C44.1,39.1,43.4,39.4,42.7,39.4L42.7,39.4z M42.7,34.7c-0.4,0-0.8,0.1-1.1,0.3c-0.3,0.2-0.6,0.5-0.8,0.9c-0.2,0.4-0.2,0.8-0.1,1.2
		c0.1,0.4,0.3,0.8,0.6,1c0.3,0.3,0.7,0.5,1.1,0.6c0.4,0.1,0.8,0,1.2-0.1c0.4-0.2,0.7-0.4,0.9-0.8c0.2-0.3,0.3-0.7,0.3-1.1
		c0-0.5-0.2-1.1-0.6-1.4S43.3,34.7,42.7,34.7L42.7,34.7z M55.2,26.4H10.8v-5.3h44.4L55.2,26.4z M11.4,25.8h43.2v-4.1H11.4L11.4,25.8
		z M55.2,20H10.8v-5.3h44.4L55.2,20z M11.4,19.4h43.2v-4.1H11.4L11.4,19.4z M55.2,13.5H10.8V8.2h44.4L55.2,13.5z M11.4,12.9h43.2
		V8.8H11.4L11.4,12.9z M55.8,7.1H10.2c-0.7,0-1.4-0.3-1.9-0.8C7.8,5.8,7.5,5.1,7.5,4.4S7.8,3,8.3,2.6c0.5-0.5,1.2-0.8,1.9-0.8h45.6
		c0.7,0,1.4,0.3,1.9,0.8c0.5,0.5,0.8,1.2,0.8,1.9s-0.3,1.4-0.8,1.9C57.2,6.8,56.5,7.1,55.8,7.1z M10.2,2.4C9.6,2.4,9.1,2.6,8.7,3
		C8.3,3.4,8.1,3.9,8.1,4.4s0.2,1.1,0.6,1.4c0.4,0.4,0.9,0.6,1.5,0.6h45.6c0.5,0,1.1-0.2,1.5-0.6s0.6-0.9,0.6-1.4S57.6,3.4,57.2,3
		s-0.9-0.6-1.5-0.6H10.2z"/>
</g>
</svg>
