<?xml version="1.0" encoding="utf-8"?>
<!-- Generator: Adobe Illustrator 24.0.2, SVG Export Plug-In . SVG Version: 6.00 Build 0)  -->
<svg version="1.1" id="Layer_1" xmlns="http://www.w3.org/2000/svg" xmlns:xlink="http://www.w3.org/1999/xlink" x="0px" y="0px"
	 viewBox="0 0 66 72.9" style="enable-background:new 0 0 66 72.9;" xml:space="preserve">
<style type="text/css">
	.st0{fill:#EBF1F7;}
	.st1{fill:#366EAC;}
</style>
<circle class="st0" cx="33" cy="39.9" r="33"/>
<g>
	<path class="st1" d="M28.2,64c-3.8,0-7.4-1.5-10-4.2c-2.7-2.7-4.2-6.3-4.2-10.1v-9.3c0-1.3,0.5-2.6,1.5-3.6
		c0.9-0.9,2.2-1.5,3.5-1.5c0.6,0,1.1,0.1,1.7,0.3l1,0.3V16.9c0-1.3,0.5-2.6,1.4-3.6c0.9-1,2.2-1.5,3.5-1.6h0.1
		c1.3,0,2.6,0.5,3.6,1.5s1.5,2.2,1.5,3.6v8.5l1-0.3c0.5-0.2,1.1-0.3,1.7-0.3c1.1,0,2.2,0.4,3,1c0.9,0.7,1.5,1.6,1.8,2.7l0.2,0.8
		l0.7-0.3c0.6-0.2,1.2-0.3,1.8-0.3c1.2,0,2.4,0.4,3.3,1.2s1.5,1.9,1.7,3.1l0.1,0.9l0.9-0.3c0.6-0.2,1.3-0.4,1.9-0.4
		c1.3,0,2.6,0.5,3.5,1.4c1,0.9,1.6,2.1,1.6,3.5v11.7c0,3.8-1.5,7.4-4.2,10.1c-2.7,2.7-6.3,4.2-10,4.2L28.2,64z M19,37.8
		c-0.7,0-1.4,0.3-1.9,0.8c-0.5,0.5-0.8,1.2-0.8,1.9v9.3c0,3.2,1.3,6.2,3.5,8.4c2.2,2.2,5.2,3.5,8.4,3.5h12.6c3.1,0,6.1-1.3,8.4-3.5
		s3.5-5.2,3.5-8.4V38.3c0-0.7-0.4-1.4-0.9-1.9c-0.5-0.5-1.2-0.8-2-0.7c-0.7,0-1.4,0.3-1.9,0.8c-0.5,0.5-0.8,1.2-0.8,2
		c0,0.9,0,2.5,0,2.5c0,0.3-0.1,0.6-0.3,0.8c-0.2,0.2-0.5,0.3-0.8,0.3c-0.3,0-0.6-0.1-0.8-0.3s-0.3-0.5-0.3-0.8v-7.2
		c0-0.4,0-0.7-0.1-1.1c-0.1-0.3-0.3-0.6-0.6-0.9c-0.2-0.3-0.5-0.5-0.9-0.6c-0.3-0.1-0.7-0.2-1-0.2c-0.4,0-0.7,0.1-1,0.2
		s-0.6,0.3-0.9,0.6c-0.2,0.3-0.4,0.6-0.6,0.9c-0.1,0.3-0.2,0.7-0.2,1.1c0,0.1,0,7.2,0,7.3c0,0.3-0.1,0.6-0.3,0.8
		c-0.2,0.2-0.5,0.3-0.8,0.3c-0.3,0-0.6-0.1-0.8-0.3c-0.2-0.2-0.3-0.5-0.3-0.8V29.8c0-0.7-0.3-1.3-0.8-1.8c-0.5-0.5-1.1-0.7-1.8-0.7
		S33,27.5,32.5,28c-0.5,0.5-0.8,1.1-0.8,1.8v11.1c0,0.2,0,0.3-0.1,0.5c-0.1,0.2-0.1,0.3-0.3,0.4c-0.1,0.1-0.2,0.2-0.4,0.3
		c-0.2,0.1-0.3,0.1-0.5,0.1c-0.2,0-0.3,0-0.5-0.1c-0.2-0.1-0.3-0.2-0.4-0.3c-0.1-0.1-0.2-0.3-0.3-0.4c-0.1-0.2-0.1-0.3-0.1-0.5V16.9
		c0-0.3-0.1-0.7-0.2-1c-0.1-0.3-0.3-0.6-0.6-0.9c-0.2-0.2-0.5-0.4-0.9-0.6c-0.3-0.1-0.7-0.2-1-0.2c-0.7,0-1.4,0.3-1.9,0.8
		c-0.5,0.5-0.8,1.2-0.8,1.9v30.2c0,0.3-0.1,0.6-0.3,0.8s-0.5,0.3-0.8,0.3c-0.3,0-0.6-0.1-0.8-0.3s-0.3-0.5-0.3-0.8v-6.7
		c0-0.3-0.1-0.7-0.2-1c-0.1-0.3-0.3-0.6-0.6-0.9c-0.2-0.2-0.5-0.4-0.9-0.6C19.7,37.9,19.4,37.8,19,37.8z"/>
	<path class="st1" d="M26.7,6.5c-0.3,0-0.6-0.1-0.8-0.3c-0.2-0.2-0.3-0.5-0.3-0.8V1.2c0-0.3,0.1-0.6,0.3-0.8S26.4,0,26.7,0
		c0.3,0,0.6,0.1,0.8,0.3c0.2,0.2,0.3,0.5,0.3,0.8v4.2c0,0.3-0.1,0.6-0.3,0.8C27.3,6.4,27,6.5,26.7,6.5z"/>
	<path class="st1" d="M12.2,15.7c-0.3,0-0.6-0.1-0.8-0.3c-0.2-0.2-0.3-0.5-0.3-0.8c0-0.3,0.1-0.6,0.3-0.8c0.2-0.2,0.5-0.3,0.8-0.3
		h4.1c0.3,0,0.6,0.1,0.8,0.3c0.2,0.2,0.3,0.5,0.3,0.8c0,0.3-0.1,0.6-0.3,0.8c-0.2,0.2-0.5,0.3-0.8,0.3H12.2z"/>
	<path class="st1" d="M37,15.7c-0.3,0-0.6-0.1-0.8-0.3s-0.3-0.5-0.3-0.8c0-0.3,0.1-0.6,0.3-0.8s0.5-0.3,0.8-0.3h4.1
		c0.3,0,0.6,0.1,0.8,0.3s0.3,0.5,0.3,0.8c0,0.3-0.1,0.6-0.3,0.8s-0.5,0.3-0.8,0.3H37z"/>
	<path class="st1" d="M19.8,9.3c-0.2,0-0.3,0-0.5-0.1c-0.1-0.1-0.3-0.1-0.4-0.3L16.1,6c-0.1-0.1-0.2-0.2-0.3-0.4
		c-0.1-0.1-0.1-0.3-0.1-0.5c0-0.2,0-0.3,0.1-0.5c0.1-0.1,0.1-0.3,0.3-0.4c0.1-0.1,0.2-0.2,0.4-0.3C16.6,4,16.7,4,16.9,4
		c0.2,0,0.3,0,0.5,0.1c0.1,0.1,0.3,0.1,0.4,0.3l2.9,2.9c0.1,0.1,0.2,0.2,0.3,0.4C21,7.8,21,7.9,21,8.1c0,0.3-0.1,0.6-0.4,0.8
		S20.1,9.3,19.8,9.3L19.8,9.3z"/>
	<path class="st1" d="M33.6,9.3c-0.3,0-0.6-0.1-0.8-0.3c-0.1-0.1-0.2-0.2-0.3-0.4c-0.1-0.1-0.1-0.3-0.1-0.5c0-0.2,0-0.3,0.1-0.5
		c0.1-0.1,0.1-0.3,0.3-0.4l2.9-2.9c0.1-0.1,0.2-0.2,0.4-0.3C36.2,4,36.3,4,36.5,4c0.2,0,0.3,0,0.5,0.1c0.1,0.1,0.3,0.1,0.4,0.3
		c0.1,0.1,0.2,0.2,0.3,0.4s0.1,0.3,0.1,0.5c0,0.2,0,0.3-0.1,0.5c-0.1,0.1-0.1,0.3-0.3,0.4l-2.9,2.9C34.2,9.2,33.9,9.3,33.6,9.3z"/>
</g>
</svg>
