<?xml version="1.0" encoding="utf-8"?>
<!-- Generator: Adobe Illustrator 24.0.2, SVG Export Plug-In . SVG Version: 6.00 Build 0)  -->
<svg version="1.1" id="Layer_1" xmlns="http://www.w3.org/2000/svg" xmlns:xlink="http://www.w3.org/1999/xlink" x="0px" y="0px"
	 viewBox="0 0 71.4 66" style="enable-background:new 0 0 71.4 66;" xml:space="preserve">
<style type="text/css">
	.st0{fill:#EBF1F7;}
	.st1{fill:#366EAC;}
</style>
<circle class="st0" cx="35.7" cy="33" r="33"/>
<g>
	<path class="st1" d="M54.3,57.4c-1.8,0-3.6-0.6-5.1-1.7c-1.5-1.1-2.5-2.7-3-4.4l-0.2-0.6H31.2L31,51.2c-0.5,1.8-1.5,3.4-3,4.5
		c-1.5,1.1-3.3,1.7-5.1,1.7s-3.6-0.6-5.1-1.7c-1.5-1.1-2.5-2.7-3-4.5l-0.2-0.6H8c-0.4,0-0.8-0.2-1.1-0.4c-0.3-0.3-0.4-0.7-0.4-1.1
		c0-0.4,0.2-0.8,0.4-1.1c0.3-0.3,0.7-0.4,1.1-0.4h6.6l0.2-0.6c0.5-1.8,1.5-3.4,3-4.6c1.5-1.2,3.3-1.8,5.2-1.8s3.7,0.6,5.2,1.8
		c1.5,1.2,2.5,2.8,3,4.6l0.2,0.6H46l0.2-0.6c0.5-1.8,1.5-3.4,3-4.6c1.5-1.2,3.3-1.8,5.2-1.8s3.7,0.6,5.2,1.8c1.5,1.2,2.5,2.8,3,4.6
		l0.2,0.6h5.8V34.7l-3.8-4.8H46.4c-0.4,0-0.8-0.2-1.1-0.4c-0.3-0.3-0.4-0.7-0.4-1.1V11.6H8c-0.2,0-0.4,0-0.6-0.1S7,11.3,6.9,11.2
		c-0.2-0.1-0.3-0.3-0.4-0.5s-0.1-0.4-0.1-0.6s0-0.4,0.1-0.6C6.6,9.3,6.7,9.1,6.9,9C7,8.9,7.2,8.7,7.4,8.7S7.8,8.6,8,8.6h38.3
		c0.2,0,0.4,0,0.6,0.1c0.2,0.1,0.3,0.2,0.5,0.3c0.1,0.1,0.2,0.3,0.3,0.5c0.1,0.2,0.1,0.4,0.1,0.6v3.1h10.6c0.3,0,0.5,0.1,0.8,0.2
		c0.2,0.1,0.4,0.3,0.6,0.6l6.6,13l-0.1,0.1l0.6,0.7l4.3,5.5c0.2,0.3,0.3,0.6,0.3,0.9v14.9c0,0.4-0.2,0.8-0.4,1.1
		c-0.3,0.3-0.7,0.4-1.1,0.4h-7.3l-0.2,0.6c-0.5,1.8-1.5,3.3-3,4.5C58,56.7,56.2,57.4,54.3,57.4z M54.3,43.6c-1.1,0-2.1,0.3-3,0.9
		c-0.9,0.6-1.6,1.4-2,2.4c-0.4,1-0.5,2.1-0.3,3.1c0.2,1,0.7,2,1.5,2.8c0.8,0.8,1.7,1.3,2.8,1.5c1,0.2,2.1,0.1,3.1-0.3
		c1-0.4,1.8-1.1,2.4-2c0.6-0.9,0.9-1.9,0.9-3c0-0.7-0.1-1.4-0.4-2.1c-0.3-0.7-0.7-1.2-1.2-1.7c-0.5-0.5-1.1-0.9-1.8-1.2
		C55.7,43.8,55,43.6,54.3,43.6z M22.9,43.6c-1.1,0-2.1,0.3-3,0.9c-0.9,0.6-1.6,1.4-2,2.4c-0.4,1-0.5,2.1-0.3,3.1
		c0.2,1,0.7,2,1.5,2.8c0.8,0.8,1.7,1.3,2.8,1.5c1,0.2,2.1,0.1,3.1-0.3c1-0.4,1.8-1.1,2.4-2c0.6-0.9,0.9-1.9,0.9-3
		c0-1.4-0.6-2.8-1.6-3.8C25.7,44.2,24.3,43.6,22.9,43.6z M47.8,26.9H63l-5.4-10.8h-9.7L47.8,26.9z"/>
	<path class="st1" d="M5.3,39c-0.4,0-0.8-0.2-1.1-0.4c-0.3-0.3-0.4-0.7-0.4-1.1c0-0.4,0.2-0.8,0.4-1.1C4.5,36.1,4.9,36,5.3,36h10.6
		c0.4,0,0.8,0.2,1.1,0.4c0.3,0.3,0.4,0.7,0.4,1.1c0,0.4-0.2,0.8-0.4,1.1c-0.3,0.3-0.7,0.4-1.1,0.4H5.3z"/>
	<path class="st1" d="M1.5,29.9c-0.4,0-0.8-0.2-1.1-0.4C0.2,29.2,0,28.8,0,28.5c0-0.4,0.2-0.8,0.4-1.1C0.7,27.1,1.1,27,1.5,27h19.6
		c0.4,0,0.8,0.2,1.1,0.4c0.3,0.3,0.4,0.7,0.4,1.1c0,0.4-0.2,0.8-0.4,1.1c-0.3,0.3-0.7,0.4-1.1,0.4H1.5z"/>
	<path class="st1" d="M5.3,20.9c-0.4,0-0.8-0.2-1.1-0.4c-0.3-0.3-0.4-0.7-0.4-1.1s0.2-0.8,0.4-1.1C4.5,18.1,4.9,18,5.3,18h19.6
		c0.4,0,0.8,0.2,1.1,0.4c0.3,0.3,0.4,0.7,0.4,1.1c0,0.4-0.2,0.8-0.4,1.1c-0.3,0.3-0.7,0.4-1.1,0.4H5.3z"/>
</g>
</svg>
