<?xml version="1.0" encoding="utf-8"?>
<!-- Generator: Adobe Illustrator 24.0.2, SVG Export Plug-In . SVG Version: 6.00 Build 0)  -->
<svg version="1.1" id="Layer_1" xmlns="http://www.w3.org/2000/svg" xmlns:xlink="http://www.w3.org/1999/xlink" x="0px" y="0px"
	 viewBox="0 0 66 75.7" style="enable-background:new 0 0 66 75.7;" xml:space="preserve">
<style type="text/css">
	.st0{fill:#EBF1F7;}
	.st1{fill:#366EAC;}
</style>
<circle class="st0" cx="33" cy="42.7" r="33"/>
<g>
	<path class="st1" d="M7.1,56c-0.2,0-0.4,0-0.6-0.1l-0.1,0c-0.3-0.2-0.5-0.4-0.6-0.7L2.1,43.2C2,43.1,2,42.9,2,42.7
		c0-0.2,0.1-0.3,0.1-0.5c0.1-0.2,0.2-0.3,0.3-0.4s0.3-0.2,0.4-0.2l20.8-6.5l-0.6-0.9c-2.3-3.5-3.5-7.6-3.6-11.8
		c-0.1-4.2,1.1-8.3,3.3-11.8c2-3.3,4.8-6,8.1-7.8C34.3,1,38.1,0,41.9,0c5,0,9.8,1.7,13.7,4.7s6.6,7.3,7.8,12.1
		c1.4,5.6,0.4,11.5-2.5,16.5c-3,5-7.8,8.6-13.4,10.1l-40,12.4C7.3,56,7.2,56,7.1,56z M5,43.7l3,9.4l5.5-1.7l-3-9.4L5,43.7z
		 M12.9,41.2l3,9.4l5.5-1.7l-0.9-2.7c-0.1-0.2-0.1-0.3-0.1-0.5c0-0.2,0.1-0.3,0.1-0.5c0.1-0.2,0.2-0.3,0.3-0.4
		c0.1-0.1,0.3-0.2,0.4-0.2c0.1,0,0.3-0.1,0.4-0.1c0.3,0,0.5,0.1,0.8,0.3c0.2,0.2,0.4,0.4,0.5,0.7l0.9,2.7l13.3-4.2l-2.4-0.8
		c-1.6-0.5-3.2-1.3-4.7-2.2c-1.6-1-3-2.1-4.3-3.4l-0.3-0.3L12.9,41.2z M41.9,2.6c-3.4,0-6.7,0.9-9.7,2.5c-3,1.6-5.4,4-7.2,6.9
		c-1.4,2.2-2.3,4.6-2.7,7.2c-0.4,2.5-0.3,5.1,0.3,7.6c1,4.2,3.4,8,6.9,10.7c3.4,2.7,7.7,4.2,12.1,4.2c3.4,0,6.7-0.9,9.7-2.5
		c3-1.6,5.4-4,7.2-6.9c2.7-4.4,3.6-9.7,2.4-14.7S56.5,8.1,52,5.4C49,3.6,45.5,2.6,41.9,2.6L41.9,2.6z"/>
	<path class="st1" d="M41.8,31.7c-2.1,0-4.2-0.7-5.9-2c-1.7-1.3-2.9-3.1-3.4-5.2c-0.5-2.1-0.4-4.2,0.5-6.2c0.8-1.9,2.3-3.6,4.2-4.6
		c1.9-1,4-1.4,6.1-1.1s4.1,1.3,5.5,2.8c1.5,1.5,2.4,3.5,2.6,5.6c0.2,2.1-0.2,4.2-1.4,6c-0.9,1.4-2.1,2.6-3.5,3.4
		C45,31.3,43.4,31.7,41.8,31.7z M41.8,15.1c-1.7,0-3.4,0.6-4.6,1.7c-1.3,1.1-2.1,2.6-2.4,4.3c-0.2,1.7,0.2,3.4,1.1,4.8
		c0.9,1.4,2.4,2.4,4,2.9c1.6,0.5,3.4,0.3,4.9-0.4s2.8-2,3.4-3.5c0.7-1.6,0.8-3.3,0.3-4.9c-0.5-1.6-1.6-3-3.1-3.9
		C44.3,15.5,43.1,15.1,41.8,15.1L41.8,15.1z"/>
</g>
</svg>
